<svg width="16" height="17" viewBox="0 0 16 17" fill="none" xmlns="http://www.w3.org/2000/svg">
<path d="M5.93998 14.28C5.81332 14.28 5.68665 14.2333 5.58665 14.1333C5.39332 13.94 5.39332 13.62 5.58665 13.4267L9.93332 9.08001C10.2533 8.76001 10.2533 8.24001 9.93332 7.92001L5.58665 3.57335C5.39332 3.38001 5.39332 3.06001 5.58665 2.86668C5.77998 2.67335 6.09998 2.67335 6.29332 2.86668L10.64 7.21335C10.98 7.55335 11.1733 8.01335 11.1733 8.50001C11.1733 8.98668 10.9867 9.44668 10.64 9.78668L6.29332 14.1333C6.19332 14.2267 6.06665 14.28 5.93998 14.28Z" fill="#69A9E9"/>
</svg>
