<svg width="51" height="65" viewBox="0 0 51 65" fill="none" xmlns="http://www.w3.org/2000/svg">
<g clip-path="url(#clip0_497_8478)">
<path d="M35.6605 3.14313C38.7795 7.45679 41.621 12.1898 43.5344 17.1748C44.3837 19.3808 44.9474 21.8598 44.0564 24.1465C43.244 26.2398 41.3743 27.6845 39.456 28.716C37.2171 29.9187 34.7777 30.7492 32.3833 31.5698C29.6966 32.4893 26.9888 33.3468 24.3566 34.4164C20.0497 36.162 15.7917 38.5968 12.9018 42.3249C9.38837 46.8584 8.96478 52.6435 8.77679 58.1614C8.76402 58.6002 8.92865 59.1378 9.27999 59.4232C9.56534 59.6565 9.89314 59.5857 9.90912 59.1741C10.1495 54.1011 10.4049 48.7639 13.4689 44.4813C16.3193 40.4954 20.7146 37.9754 25.1711 36.1708C27.8345 35.093 30.5776 34.2221 33.294 33.2807C35.776 32.4221 38.3211 31.5515 40.6068 30.2374C42.4784 29.1608 44.1864 27.7122 45.0432 25.6827C46.0448 23.3185 45.6806 20.6181 44.9318 18.2484C44.017 15.3689 42.6111 12.6209 41.1717 9.97812C39.6459 7.18903 37.9384 4.49958 36.0787 1.92474C35.8856 1.65291 35.5046 1.46765 35.3328 1.84691C35.1611 2.22616 35.4398 2.83312 35.6605 3.14313Z" fill="black"/>
<path d="M5.38884 50.8883C5.89537 53.1945 6.40136 55.4962 6.91242 57.8019C7.14978 58.8786 7.35241 59.9732 7.63465 61.04C7.88428 61.9864 8.2902 62.9697 9.09762 63.5696C9.19354 63.6411 9.39099 63.7928 9.53337 63.7115C10.6345 63.0525 11.3023 61.998 12.0035 60.9534C12.7826 59.7892 13.5816 58.6364 14.3907 57.4916C16.0329 55.1716 17.7451 52.8986 19.5132 50.6697C19.8978 50.1825 19.0518 48.5515 18.6129 49.0865C16.8614 51.2214 15.1805 53.4079 13.5655 55.6464C12.7703 56.7527 11.9903 57.8711 11.2255 59.0014C10.5364 60.0308 9.88814 61.2118 8.80062 61.8693L9.23637 62.0113C8.64109 61.5705 8.61267 60.7039 8.46432 60.0309L7.81614 57.0694C7.3767 55.0591 6.93219 53.0448 6.49276 51.0345C6.42032 50.6932 6.12717 50.0419 5.7104 50.0219C5.27039 50.0001 5.34126 50.6408 5.39499 50.9014L5.38884 50.8883Z" fill="black"/>
</g>
<defs>
<clipPath id="clip0_497_8478">
<rect width="58.6217" height="43.4026" fill="white" transform="translate(43.1738 0.739258) rotate(83.2811)"/>
</clipPath>
</defs>
</svg>
