<svg width="177" height="15" viewBox="0 0 177 15" fill="none" xmlns="http://www.w3.org/2000/svg">
<path d="M0.101484 14H3.48148V8.46H10.1015V14H13.4615V-9.53674e-07H10.1015V5.26H3.48148V-9.53674e-07H0.101484V14ZM15.8493 3.1H19.1893V-9.53674e-07H15.8493V3.1ZM15.9693 14H19.0893V4H15.9693V14ZM23.0451 9.56H28.6851V6.94H23.0451V9.56ZM33.1841 3.18V4H31.2041V6.34H33.1841V13.94H36.3241V6.34H38.8241V4H36.3241V3.18C36.3241 2.7 36.7041 2.42 37.6441 2.42H39.0841V-9.53674e-07H36.4441C34.7641 -9.53674e-07 33.2241 1.26 33.1841 3.18ZM40.604 3.1H43.944V-9.53674e-07H40.604V3.1ZM40.724 14H43.844V4H40.724V14ZM60.3998 3.94C60.5798 3.08 60.4198 1.94 60.4198 1.06H60.9798C60.9798 1.94 60.8198 3.08 60.9998 3.94L63.1198 14H66.9598L70.4398 -9.53674e-07H67.1798L65.4398 7.72C65.2198 8.6 65.3798 9.82 65.3998 10.74H64.8398C64.8198 9.82 64.9398 8.62 64.6998 7.72L62.6998 -9.53674e-07H58.6998L56.7198 7.72C56.4998 8.62 56.5998 9.82 56.5798 10.74H56.0398C56.0398 9.82 56.1998 8.6 55.9998 7.72L54.2398 -9.53674e-07H50.9798L54.4598 14H58.2998L60.3998 3.94ZM72.0579 3.1H75.3979V-9.53674e-07H72.0579V3.1ZM72.1779 14H75.2979V4H72.1779V14ZM81.9537 4.54C81.1337 5.06 80.6937 6.3 80.2737 7.18L79.7737 6.94C80.1937 6.08 80.6937 4.96 80.7137 4V3.96C80.7137 3.98 80.7137 3.98 80.7137 4H77.5737V14H80.7137V10.36C80.7137 7.6 83.5537 6.62 86.1737 6.62V3.7C84.4137 3.7 83.1337 3.84 81.9537 4.54ZM94.2174 14.32C97.6574 14.32 99.2774 12.18 99.5774 11.14H95.8974C95.6974 11.42 95.0174 11.72 93.9174 11.72C92.1974 11.72 91.3574 10.72 91.3574 9.84L99.7974 9.86C99.7974 9.68 99.7974 9.2 99.7974 8.98C99.8174 6.18 97.4774 3.7 93.6974 3.7C90.0174 3.7 87.4174 5.96 87.4174 8.94C87.4174 11.92 89.8174 14.32 94.2174 14.32ZM91.3574 8C91.3574 6.94 92.3574 6.04 93.7774 6.04C95.1774 6.04 96.0374 6.84 96.0374 8H91.3574ZM102.898 3.18V4H100.918V6.34H102.898V13.94H106.038V6.34H108.538V4H106.038V3.18C106.038 2.7 106.418 2.42 107.358 2.42H108.798V-9.53674e-07H106.158C104.478 -9.53674e-07 102.938 1.26 102.898 3.18ZM114.638 4.54C113.818 5.06 113.378 6.3 112.958 7.18L112.458 6.94C112.878 6.08 113.378 4.96 113.398 4V3.96C113.398 3.98 113.398 3.98 113.398 4H110.258V14H113.398V10.36C113.398 7.6 116.238 6.62 118.858 6.62V3.7C117.098 3.7 115.818 3.84 114.638 4.54ZM128.162 13C128.562 12.54 128.582 11.72 128.762 11.14L129.282 11.3C129.122 11.88 128.742 12.58 128.742 13.18L128.762 14H131.902V4H128.762L128.742 4.74C128.742 5.36 129.122 6.06 129.302 6.62L128.762 6.8C128.582 6.22 128.562 5.38 128.162 4.94C127.442 4.16 126.442 3.7 125.122 3.7C122.202 3.7 120.122 5.96 120.122 8.94C120.122 11.92 122.202 14.32 125.122 14.32C126.462 14.32 127.462 13.82 128.162 13ZM123.262 8.94C123.262 7.6 124.242 6.62 125.382 6.62C126.802 6.62 127.542 7.64 127.542 8.94C127.542 10.3 126.522 11.4 125.382 11.4C124.242 11.4 123.262 10.26 123.262 8.94ZM144.065 4.6C143.345 5.12 143.165 6.2 143.005 7.08L142.465 6.98C142.605 6.12 142.965 4.86 142.305 4.3C141.785 3.86 141.065 3.7 140.225 3.7C139.265 3.7 138.625 3.86 138.085 4.38C137.465 5 137.365 6.22 137.105 7.06L136.585 6.9C136.845 6.06 137.285 5 137.285 4.12V4H134.125V14H137.285V8.94C137.285 7.04 137.985 6.18 139.165 6.18C140.265 6.18 140.785 7.04 140.785 8.94V14H143.945V8.94C143.945 7.04 144.445 6.18 145.625 6.18C146.705 6.18 147.225 7.04 147.225 8.94V14H150.385V7.14C150.385 4.86 148.725 3.7 146.585 3.7C145.545 3.7 144.705 4.12 144.065 4.6ZM158.913 14.32C162.353 14.32 163.973 12.18 164.273 11.14H160.593C160.393 11.42 159.713 11.72 158.613 11.72C156.893 11.72 156.053 10.72 156.053 9.84L164.493 9.86C164.493 9.68 164.493 9.2 164.493 8.98C164.513 6.18 162.173 3.7 158.393 3.7C154.713 3.7 152.113 5.96 152.113 8.94C152.113 11.92 154.513 14.32 158.913 14.32ZM156.053 8C156.053 6.94 157.053 6.04 158.473 6.04C159.873 6.04 160.733 6.84 160.733 8H156.053ZM176.094 10.46C176.094 6.46 168.914 7.62 168.914 6.66C168.914 6.22 169.754 6.14 170.514 6.14C172.094 6.14 172.754 6.66 172.754 7.14H175.914C175.934 6.02 175.194 3.7 170.754 3.7C167.134 3.7 165.774 5.16 165.774 6.72C165.774 10.02 172.894 9.34 172.894 10.64C172.894 10.76 172.774 11.38 171.334 11.38C169.354 11.38 168.914 10.52 168.914 10.2H165.754C165.754 11.74 166.654 14.32 170.894 14.32C174.534 14.32 176.094 12.26 176.094 10.46Z" fill="#2A2A2A"/>
</svg>
