<svg width="236" height="156" viewBox="0 0 236 156" fill="none" xmlns="http://www.w3.org/2000/svg">
<path d="M0.557617 152.182C0.557617 153.738 1.81936 155 3.3758 155H231.739C233.296 155 234.558 153.738 234.558 152.182V27.0545H0.557617V152.182Z" fill="#D9D9D9" stroke="#15D2D6"/>
<path d="M16.4331 43.8989C16.2287 44.1033 15.9792 44.2055 15.6846 44.2055C15.39 44.2055 15.1375 44.1033 14.9271 43.8989C14.7166 43.6885 14.6114 43.436 14.6114 43.1414C14.6114 42.8468 14.7166 42.5943 14.9271 42.3838C15.1375 42.1734 15.39 42.0682 15.6846 42.0682C15.9792 42.0682 16.2287 42.1734 16.4331 42.3838C16.6435 42.5943 16.7487 42.8468 16.7487 43.1414C16.7487 43.436 16.6435 43.6885 16.4331 43.8989ZM24.2369 46.0723L22.5686 39.6243H23.4163L24.4353 43.8177L24.6788 44.9089H24.6969C24.7991 44.452 24.8892 44.0823 24.9674 43.7997L26.1308 39.6243H27.0055L28.1328 43.7997L28.3943 44.9089H28.4124C28.5146 44.446 28.5987 44.0823 28.6649 43.8177L29.738 39.6243H30.5587L28.7641 46.0723H27.9885L26.8071 41.5271L26.5726 40.5441H26.5546C26.4644 40.9469 26.3833 41.2746 26.3111 41.5271L25.0486 46.0723H24.2369ZM31.3619 46.0723V41.4099H32.0923V46.0723H31.3619ZM31.3619 40.5261V39.6243H32.0923V40.5261H31.3619ZM32.9708 42.0051V41.4099H33.6471V39.9399H34.3776V41.4099H35.2794V42.0051H34.3776V45.0352C34.3776 45.3238 34.5339 45.468 34.8465 45.468C34.9788 45.468 35.1081 45.447 35.2343 45.4049H35.2614V46.0362C35.063 46.0783 34.8676 46.0993 34.6752 46.0993C33.9898 46.0993 33.6471 45.7987 33.6471 45.1975V42.0051H32.9708ZM36.9445 39.6243V42.0231H36.9626C37.3233 41.5421 37.8163 41.3016 38.4416 41.3016C38.9346 41.3016 39.3193 41.4309 39.5959 41.6894C39.8724 41.9479 40.0107 42.3177 40.0107 42.7987V46.0723H39.2802V42.8618C39.2802 42.5612 39.1871 42.3297 39.0007 42.1674C38.8143 41.9991 38.5558 41.9149 38.2251 41.9149C37.8524 41.9149 37.5458 42.0351 37.3053 42.2756C37.0648 42.5161 36.9445 42.8257 36.9445 43.2045V46.0723H36.2141V39.6243H36.9445ZM46.4362 46.1174C45.9732 46.1174 45.7057 45.8859 45.6336 45.423H45.6245C45.2398 45.916 44.7227 46.1624 44.0734 46.1624C43.6105 46.1624 43.2317 46.0512 42.9371 45.8288C42.6425 45.6063 42.4952 45.2847 42.4952 44.8638C42.4952 44.6474 42.5283 44.461 42.5944 44.3047C42.6666 44.1424 42.7568 44.0131 42.865 43.9169C42.9732 43.8147 43.1205 43.7275 43.3069 43.6554C43.4993 43.5772 43.6826 43.5201 43.857 43.484C44.0313 43.442 44.2538 43.3999 44.5243 43.3578C44.6987 43.3337 44.8219 43.3157 44.8941 43.3037C44.9722 43.2856 45.0714 43.2616 45.1917 43.2315C45.3119 43.1955 45.3961 43.1564 45.4442 43.1143C45.4923 43.0722 45.5374 43.0151 45.5794 42.943C45.6215 42.8708 45.6426 42.7866 45.6426 42.6904C45.6426 42.4259 45.5494 42.2245 45.363 42.0862C45.1826 41.9419 44.9271 41.8698 44.5965 41.8698C43.845 41.8698 43.4572 42.2125 43.4331 42.8979H42.7297C42.7417 42.4229 42.9041 42.0411 43.2167 41.7526C43.5353 41.464 43.9922 41.3197 44.5874 41.3197C45.7358 41.3197 46.3099 41.8127 46.3099 42.7987V45.0171C46.3099 45.2216 46.343 45.3658 46.4091 45.45C46.4813 45.5342 46.6135 45.5552 46.8059 45.5131H46.833V46.0452C46.7127 46.0933 46.5805 46.1174 46.4362 46.1174ZM44.2357 45.6033C44.6866 45.6033 45.0354 45.4741 45.2818 45.2155C45.5283 44.951 45.6516 44.6624 45.6516 44.3498V43.5562C45.4291 43.6945 45.0744 43.8087 44.5874 43.8989C44.4071 43.935 44.2658 43.965 44.1636 43.9891C44.0614 44.0071 43.9442 44.0432 43.8119 44.0973C43.6796 44.1454 43.5804 44.1995 43.5143 44.2596C43.4482 44.3197 43.391 44.4009 43.3429 44.5031C43.2948 44.5993 43.2708 44.7135 43.2708 44.8458C43.2708 45.3508 43.5924 45.6033 44.2357 45.6033ZM50.9358 46.2075C50.2985 46.2075 49.8025 46.0663 49.4478 45.7837C49.0991 45.4951 48.9067 45.0863 48.8706 44.5572H49.6191C49.7033 45.2486 50.1482 45.5943 50.9538 45.5943C51.3205 45.5943 51.5911 45.5252 51.7654 45.3869C51.9458 45.2426 52.036 45.0562 52.036 44.8278C52.036 44.5813 51.9488 44.4039 51.7744 44.2957C51.6001 44.1875 51.2815 44.0853 50.8185 43.9891C50.6261 43.947 50.4728 43.9139 50.3586 43.8899C50.2504 43.8598 50.1181 43.8207 49.9618 43.7726C49.8055 43.7185 49.6822 43.6614 49.592 43.6013C49.5079 43.5351 49.4207 43.457 49.3305 43.3668C49.2403 43.2766 49.1742 43.1654 49.1321 43.0331C49.096 42.9009 49.078 42.7536 49.078 42.5912C49.078 42.1944 49.2223 41.8818 49.5109 41.6534C49.8055 41.4249 50.2203 41.3107 50.7554 41.3107C51.8616 41.3107 52.4719 41.7976 52.5861 42.7716H51.8376C51.8015 42.465 51.6963 42.2425 51.5219 42.1043C51.3476 41.96 51.0861 41.8878 50.7374 41.8878C50.4187 41.8878 50.1812 41.951 50.0249 42.0772C49.8746 42.1975 49.7995 42.3568 49.7995 42.5552C49.7995 42.7836 49.8896 42.946 50.07 43.0422C50.2504 43.1323 50.578 43.2255 51.053 43.3217C51.3416 43.3818 51.567 43.439 51.7294 43.4931C51.8977 43.5412 52.072 43.6193 52.2524 43.7275C52.4328 43.8297 52.565 43.968 52.6492 44.1424C52.7334 44.3167 52.7755 44.5332 52.7755 44.7917C52.7755 45.2486 52.6071 45.6003 52.2704 45.8468C51.9338 46.0873 51.4889 46.2075 50.9358 46.2075ZM53.2694 42.0051V41.4099H53.9458V39.9399H54.6763V41.4099H55.5781V42.0051H54.6763V45.0352C54.6763 45.3238 54.8326 45.468 55.1452 45.468C55.2775 45.468 55.4067 45.447 55.533 45.4049H55.56V46.0362C55.3616 46.0783 55.1662 46.0993 54.9739 46.0993C54.2885 46.0993 53.9458 45.7987 53.9458 45.1975V42.0051H53.2694ZM57.2432 41.4099V42.1854H57.2612C57.4115 41.9389 57.6069 41.7405 57.8474 41.5902C58.0879 41.4339 58.3554 41.3558 58.65 41.3558C58.7583 41.3558 58.8575 41.3738 58.9476 41.4099V42.1133H58.9206C58.8304 42.0832 58.7222 42.0682 58.5959 42.0682C58.2232 42.0682 57.9045 42.2005 57.64 42.465C57.3755 42.7235 57.2432 43.0632 57.2432 43.484V46.0723H56.5127V41.4099H57.2432ZM63.2335 45.4951C62.8246 45.964 62.2805 46.1985 61.6012 46.1985C60.9218 46.1985 60.3747 45.964 59.9599 45.4951C59.551 45.0262 59.3466 44.443 59.3466 43.7456C59.3466 43.0482 59.551 42.465 59.9599 41.996C60.3747 41.5271 60.9218 41.2926 61.6012 41.2926C62.2805 41.2926 62.8246 41.5271 63.2335 41.996C63.6423 42.465 63.8467 43.0482 63.8467 43.7456C63.8467 44.443 63.6423 45.0262 63.2335 45.4951ZM60.4829 45.0712C60.7474 45.4139 61.1202 45.5853 61.6012 45.5853C62.0821 45.5853 62.4519 45.4139 62.7104 45.0712C62.9689 44.7225 63.0982 44.2807 63.0982 43.7456C63.0982 43.2045 62.9659 42.7626 62.7014 42.4199C62.4429 42.0712 62.0761 41.8968 61.6012 41.8968C61.1202 41.8968 60.7474 42.0712 60.4829 42.4199C60.2244 42.7686 60.0951 43.2105 60.0951 43.7456C60.0951 44.2807 60.2244 44.7225 60.4829 45.0712ZM65.486 41.4099V42.0231H65.5041C65.8648 41.5421 66.3578 41.3016 66.983 41.3016C67.476 41.3016 67.8608 41.4309 68.1374 41.6894C68.4139 41.9479 68.5522 42.3177 68.5522 42.7987V46.0723H67.8217V42.8618C67.8217 42.5612 67.7286 42.3297 67.5422 42.1674C67.3558 41.9991 67.0973 41.9149 66.7666 41.9149C66.3939 41.9149 66.0872 42.0351 65.8468 42.2756C65.6063 42.5161 65.486 42.8257 65.486 43.2045V46.0723H64.7556V41.4099H65.486ZM71.5582 47.6234C70.963 47.6234 70.494 47.5092 70.1513 47.2807C69.8146 47.0583 69.6253 46.7426 69.5832 46.3338H70.2595C70.3257 46.8088 70.7525 47.0462 71.5401 47.0462C72.4299 47.0462 72.8748 46.6464 72.8748 45.8468V45.1885H72.8568C72.6704 45.429 72.472 45.6093 72.2616 45.7296C72.0512 45.8498 71.7896 45.9099 71.477 45.9099C70.8758 45.9099 70.3858 45.6935 70.007 45.2606C69.6283 44.8278 69.4389 44.2746 69.4389 43.6013C69.4389 42.8979 69.6283 42.3387 70.007 41.9239C70.3918 41.5091 70.8668 41.3016 71.4319 41.3016C72.0451 41.3016 72.5201 41.5361 72.8568 42.0051H72.8748V41.4099H73.6053V45.8198C73.6053 46.415 73.4219 46.8629 73.0552 47.1635C72.6944 47.4701 72.1954 47.6234 71.5582 47.6234ZM71.5131 45.2967C72.457 45.2967 72.9289 44.7195 72.9289 43.5652C72.9289 42.465 72.454 41.9149 71.504 41.9149C71.0772 41.9149 70.7495 42.0682 70.5211 42.3748C70.2986 42.6814 70.1874 43.0933 70.1874 43.6103C70.1874 44.1273 70.3016 44.5392 70.5301 44.8458C70.7585 45.1464 71.0862 45.2967 71.5131 45.2967ZM80.0546 46.1174C79.5917 46.1174 79.3241 45.8859 79.252 45.423H79.243C78.8582 45.916 78.3412 46.1624 77.6919 46.1624C77.2289 46.1624 76.8502 46.0512 76.5556 45.8288C76.261 45.6063 76.1137 45.2847 76.1137 44.8638C76.1137 44.6474 76.1467 44.461 76.2129 44.3047C76.285 44.1424 76.3752 44.0131 76.4834 43.9169C76.5916 43.8147 76.7389 43.7275 76.9253 43.6554C77.1177 43.5772 77.3011 43.5201 77.4754 43.484C77.6498 43.442 77.8722 43.3999 78.1428 43.3578C78.3171 43.3337 78.4404 43.3157 78.5125 43.3037C78.5907 43.2856 78.6899 43.2616 78.8101 43.2315C78.9304 43.1955 79.0145 43.1564 79.0626 43.1143C79.1107 43.0722 79.1558 43.0151 79.1979 42.943C79.24 42.8708 79.261 42.7866 79.261 42.6904C79.261 42.4259 79.1678 42.2245 78.9815 42.0862C78.8011 41.9419 78.5456 41.8698 78.2149 41.8698C77.4634 41.8698 77.0756 42.2125 77.0516 42.8979H76.3481C76.3602 42.4229 76.5225 42.0411 76.8351 41.7526C77.1538 41.464 77.6107 41.3197 78.2059 41.3197C79.3542 41.3197 79.9284 41.8127 79.9284 42.7987V45.0171C79.9284 45.2216 79.9614 45.3658 80.0276 45.45C80.0997 45.5342 80.232 45.5552 80.4244 45.5131H80.4514V46.0452C80.3312 46.0933 80.1989 46.1174 80.0546 46.1174ZM77.8542 45.6033C78.3051 45.6033 78.6538 45.4741 78.9003 45.2155C79.1468 44.951 79.27 44.6624 79.27 44.3498V43.5562C79.0476 43.6945 78.6929 43.8087 78.2059 43.8989C78.0255 43.935 77.8842 43.965 77.782 43.9891C77.6798 44.0071 77.5626 44.0432 77.4303 44.0973C77.2981 44.1454 77.1989 44.1995 77.1327 44.2596C77.0666 44.3197 77.0095 44.4009 76.9614 44.5031C76.9133 44.5993 76.8892 44.7135 76.8892 44.8458C76.8892 45.3508 77.2109 45.6033 77.8542 45.6033ZM81.9012 41.4099V42.0231H81.9193C82.28 41.5421 82.773 41.3016 83.3983 41.3016C83.8912 41.3016 84.276 41.4309 84.5526 41.6894C84.8291 41.9479 84.9674 42.3177 84.9674 42.7987V46.0723H84.2369V42.8618C84.2369 42.5612 84.1438 42.3297 83.9574 42.1674C83.771 41.9991 83.5125 41.9149 83.1818 41.9149C82.8091 41.9149 82.5024 42.0351 82.262 42.2756C82.0215 42.5161 81.9012 42.8257 81.9012 43.2045V46.0723H81.1708V41.4099H81.9012ZM87.9193 46.2075C87.282 46.2075 86.7769 45.9881 86.4042 45.5492C86.0375 45.1043 85.8541 44.5061 85.8541 43.7546C85.8541 42.9971 86.0465 42.3989 86.4313 41.96C86.816 41.5211 87.306 41.3016 87.9012 41.3016C88.5325 41.3016 89.0195 41.5572 89.3622 42.0682H89.3802V39.6243H90.1107V46.0723H89.3802V45.5041H89.3622C88.9954 45.9731 88.5145 46.2075 87.9193 46.2075ZM87.9463 45.5943C88.4453 45.5943 88.8151 45.429 89.0555 45.0983C89.302 44.7676 89.4253 44.3227 89.4253 43.7636C89.4253 43.2105 89.293 42.7656 89.0285 42.4289C88.77 42.0922 88.4062 41.9239 87.9373 41.9239C87.5104 41.9239 87.1798 42.0952 86.9453 42.4379C86.7168 42.7746 86.6026 43.2165 86.6026 43.7636C86.6026 44.3107 86.7168 44.7526 86.9453 45.0893C87.1798 45.426 87.5134 45.5943 87.9463 45.5943ZM96.5218 45.4951C96.113 45.964 95.5689 46.1985 94.8895 46.1985C94.2102 46.1985 93.6631 45.964 93.2482 45.4951C92.8394 45.0262 92.635 44.443 92.635 43.7456C92.635 43.0482 92.8394 42.465 93.2482 41.996C93.6631 41.5271 94.2102 41.2926 94.8895 41.2926C95.5689 41.2926 96.113 41.5271 96.5218 41.996C96.9306 42.465 97.1351 43.0482 97.1351 43.7456C97.1351 44.443 96.9306 45.0262 96.5218 45.4951ZM93.7713 45.0712C94.0358 45.4139 94.4086 45.5853 94.8895 45.5853C95.3705 45.5853 95.7402 45.4139 95.9988 45.0712C96.2573 44.7225 96.3865 44.2807 96.3865 43.7456C96.3865 43.2045 96.2543 42.7626 95.9897 42.4199C95.7312 42.0712 95.3645 41.8968 94.8895 41.8968C94.4086 41.8968 94.0358 42.0712 93.7713 42.4199C93.5128 42.7686 93.3835 43.2105 93.3835 43.7456C93.3835 44.2807 93.5128 44.7225 93.7713 45.0712ZM98.0439 47.5693V41.4099H98.7744V42.0682H98.7924C99.1712 41.5572 99.6702 41.3016 100.289 41.3016C100.891 41.3016 101.375 41.5211 101.741 41.96C102.108 42.3928 102.291 42.9911 102.291 43.7546C102.291 44.5061 102.111 45.1043 101.75 45.5492C101.39 45.9881 100.894 46.2075 100.262 46.2075C99.6371 46.2075 99.1471 45.9791 98.7924 45.5222H98.7744V47.5693H98.0439ZM100.208 45.5943C100.641 45.5943 100.972 45.426 101.2 45.0893C101.429 44.7526 101.543 44.3107 101.543 43.7636C101.543 43.2165 101.429 42.7746 101.2 42.4379C100.972 42.0952 100.644 41.9239 100.217 41.9239C99.7303 41.9239 99.3606 42.0983 99.1081 42.447C98.8556 42.7896 98.7293 43.2285 98.7293 43.7636C98.7293 44.3107 98.8495 44.7526 99.09 45.0893C99.3305 45.426 99.7033 45.5943 100.208 45.5943ZM102.77 42.0051V41.4099H103.447V39.9399H104.177V41.4099H105.079V42.0051H104.177V45.0352C104.177 45.3238 104.334 45.468 104.646 45.468C104.778 45.468 104.908 45.447 105.034 45.4049H105.061V46.0362C104.863 46.0783 104.667 46.0993 104.475 46.0993C103.789 46.0993 103.447 45.7987 103.447 45.1975V42.0051H102.77ZM106.014 46.0723V41.4099H106.744V46.0723H106.014ZM106.014 40.5261V39.6243H106.744V40.5261H106.014ZM107.92 46.0723V41.4099H108.651V42.0772H108.669C108.819 41.8427 109.014 41.6564 109.255 41.5181C109.495 41.3738 109.757 41.3016 110.04 41.3016C110.647 41.3016 111.053 41.5782 111.257 42.1313H111.275C111.419 41.8728 111.621 41.6714 111.879 41.5271C112.138 41.3768 112.411 41.3016 112.7 41.3016C113.127 41.3016 113.469 41.4339 113.728 41.6984C113.986 41.957 114.116 42.3237 114.116 42.7987V46.0723H113.385V42.8347C113.385 42.5522 113.301 42.3297 113.133 42.1674C112.97 41.9991 112.769 41.9149 112.529 41.9149C112.222 41.9149 111.954 42.0351 111.726 42.2756C111.497 42.5161 111.383 42.8137 111.383 43.1684V46.0723H110.653V42.8347C110.653 42.5522 110.578 42.3297 110.427 42.1674C110.283 41.9991 110.091 41.9149 109.85 41.9149C109.55 41.9149 109.273 42.0381 109.02 42.2846C108.774 42.5251 108.651 42.8197 108.651 43.1684V46.0723H107.92ZM115.261 46.0723V41.4099H115.991V46.0723H115.261ZM115.261 40.5261V39.6243H115.991V40.5261H115.261ZM116.978 46.0723V45.4951L119.575 42.0772V42.0502H117.131V41.4099H120.594V41.8427L117.916 45.3779V45.4049H120.693V46.0723H116.978ZM123.409 46.1985C122.718 46.1985 122.168 45.9671 121.759 45.5041C121.356 45.0352 121.155 44.449 121.155 43.7456C121.155 43.0542 121.359 42.474 121.768 42.0051C122.183 41.5301 122.715 41.2926 123.364 41.2926C124.049 41.2926 124.579 41.5331 124.951 42.0141C125.324 42.489 125.51 43.1233 125.51 43.9169H121.903C121.933 44.4099 122.077 44.8127 122.336 45.1254C122.601 45.432 122.958 45.5853 123.409 45.5853C124.107 45.5853 124.536 45.2666 124.699 44.6294H125.411C125.303 45.1284 125.075 45.5161 124.726 45.7927C124.377 46.0632 123.938 46.1985 123.409 46.1985ZM124.338 42.2666C124.104 42.0021 123.779 41.8698 123.364 41.8698C122.949 41.8698 122.619 42.0081 122.372 42.2846C122.132 42.5612 121.981 42.9219 121.921 43.3668H124.726C124.702 42.8979 124.573 42.5311 124.338 42.2666ZM128.209 46.2075C127.571 46.2075 127.066 45.9881 126.694 45.5492C126.327 45.1043 126.144 44.5061 126.144 43.7546C126.144 42.9971 126.336 42.3989 126.721 41.96C127.105 41.5211 127.595 41.3016 128.191 41.3016C128.822 41.3016 129.309 41.5572 129.652 42.0682H129.67V39.6243H130.4V46.0723H129.67V45.5041H129.652C129.285 45.9731 128.804 46.2075 128.209 46.2075ZM128.236 45.5943C128.735 45.5943 129.104 45.429 129.345 45.0983C129.591 44.7676 129.715 44.3227 129.715 43.7636C129.715 43.2105 129.582 42.7656 129.318 42.4289C129.059 42.0922 128.696 41.9239 128.227 41.9239C127.8 41.9239 127.469 42.0952 127.235 42.4379C127.006 42.7746 126.892 43.2165 126.892 43.7636C126.892 44.3107 127.006 44.7526 127.235 45.0893C127.469 45.426 127.803 45.5943 128.236 45.5943ZM136.847 46.1174C136.384 46.1174 136.117 45.8859 136.045 45.423H136.036C135.651 45.916 135.134 46.1624 134.485 46.1624C134.022 46.1624 133.643 46.0512 133.348 45.8288C133.054 45.6063 132.906 45.2847 132.906 44.8638C132.906 44.6474 132.939 44.461 133.006 44.3047C133.078 44.1424 133.168 44.0131 133.276 43.9169C133.384 43.8147 133.532 43.7275 133.718 43.6554C133.91 43.5772 134.094 43.5201 134.268 43.484C134.442 43.442 134.665 43.3999 134.935 43.3578C135.11 43.3337 135.233 43.3157 135.305 43.3037C135.383 43.2856 135.483 43.2616 135.603 43.2315C135.723 43.1955 135.807 43.1564 135.855 43.1143C135.903 43.0722 135.949 43.0151 135.991 42.943C136.033 42.8708 136.054 42.7866 136.054 42.6904C136.054 42.4259 135.961 42.2245 135.774 42.0862C135.594 41.9419 135.338 41.8698 135.008 41.8698C134.256 41.8698 133.868 42.2125 133.844 42.8979H133.141C133.153 42.4229 133.315 42.0411 133.628 41.7526C133.946 41.464 134.403 41.3197 134.999 41.3197C136.147 41.3197 136.721 41.8127 136.721 42.7987V45.0171C136.721 45.2216 136.754 45.3658 136.82 45.45C136.892 45.5342 137.025 45.5552 137.217 45.5131H137.244V46.0452C137.124 46.0933 136.992 46.1174 136.847 46.1174ZM134.647 45.6033C135.098 45.6033 135.447 45.4741 135.693 45.2155C135.94 44.951 136.063 44.6624 136.063 44.3498V43.5562C135.84 43.6945 135.486 43.8087 134.999 43.8989C134.818 43.935 134.677 43.965 134.575 43.9891C134.473 44.0071 134.355 44.0432 134.223 44.0973C134.091 44.1454 133.992 44.1995 133.925 44.2596C133.859 44.3197 133.802 44.4009 133.754 44.5031C133.706 44.5993 133.682 44.7135 133.682 44.8458C133.682 45.3508 134.004 45.6033 134.647 45.6033ZM137.963 47.5693V41.4099H138.694V42.0682H138.712C139.091 41.5572 139.59 41.3016 140.209 41.3016C140.81 41.3016 141.294 41.5211 141.661 41.96C142.028 42.3928 142.211 42.9911 142.211 43.7546C142.211 44.5061 142.031 45.1043 141.67 45.5492C141.309 45.9881 140.813 46.2075 140.182 46.2075C139.557 46.2075 139.067 45.9791 138.712 45.5222H138.694V47.5693H137.963ZM140.128 45.5943C140.561 45.5943 140.891 45.426 141.12 45.0893C141.348 44.7526 141.463 44.3107 141.463 43.7636C141.463 43.2165 141.348 42.7746 141.12 42.4379C140.891 42.0952 140.564 41.9239 140.137 41.9239C139.65 41.9239 139.28 42.0983 139.028 42.447C138.775 42.7896 138.649 43.2285 138.649 43.7636C138.649 44.3107 138.769 44.7526 139.01 45.0893C139.25 45.426 139.623 45.5943 140.128 45.5943ZM143.12 47.5693V41.4099H143.85V42.0682H143.868C144.247 41.5572 144.746 41.3016 145.365 41.3016C145.966 41.3016 146.45 41.5211 146.817 41.96C147.184 42.3928 147.367 42.9911 147.367 43.7546C147.367 44.5061 147.187 45.1043 146.826 45.5492C146.465 45.9881 145.969 46.2075 145.338 46.2075C144.713 46.2075 144.223 45.9791 143.868 45.5222H143.85V47.5693H143.12ZM145.284 45.5943C145.717 45.5943 146.048 45.426 146.276 45.0893C146.505 44.7526 146.619 44.3107 146.619 43.7636C146.619 43.2165 146.505 42.7746 146.276 42.4379C146.048 42.0952 145.72 41.9239 145.293 41.9239C144.806 41.9239 144.436 42.0983 144.184 42.447C143.931 42.7896 143.805 43.2285 143.805 43.7636C143.805 44.3107 143.925 44.7526 144.166 45.0893C144.406 45.426 144.779 45.5943 145.284 45.5943ZM148.01 47.2266V46.8208C148.28 46.7246 148.415 46.4751 148.415 46.0723H148.001V45.1795H148.875V46.0993C148.875 46.418 148.797 46.6705 148.641 46.8568C148.485 47.0492 148.274 47.1725 148.01 47.2266ZM153.328 46.2075C152.691 46.2075 152.195 46.0663 151.84 45.7837C151.491 45.4951 151.299 45.0863 151.263 44.5572H152.011C152.096 45.2486 152.54 45.5943 153.346 45.5943C153.713 45.5943 153.983 45.5252 154.158 45.3869C154.338 45.2426 154.428 45.0562 154.428 44.8278C154.428 44.5813 154.341 44.4039 154.167 44.2957C153.992 44.1875 153.674 44.0853 153.211 43.9891C153.018 43.947 152.865 43.9139 152.751 43.8899C152.643 43.8598 152.51 43.8207 152.354 43.7726C152.198 43.7185 152.075 43.6614 151.984 43.6013C151.9 43.5351 151.813 43.457 151.723 43.3668C151.633 43.2766 151.567 43.1654 151.524 43.0331C151.488 42.9009 151.47 42.7536 151.47 42.5912C151.47 42.1944 151.615 41.8818 151.903 41.6534C152.198 41.4249 152.613 41.3107 153.148 41.3107C154.254 41.3107 154.864 41.7976 154.978 42.7716H154.23C154.194 42.465 154.089 42.2425 153.914 42.1043C153.74 41.96 153.478 41.8878 153.13 41.8878C152.811 41.8878 152.574 41.951 152.417 42.0772C152.267 42.1975 152.192 42.3568 152.192 42.5552C152.192 42.7836 152.282 42.946 152.462 43.0422C152.643 43.1323 152.97 43.2255 153.445 43.3217C153.734 43.3818 153.959 43.439 154.122 43.4931C154.29 43.5412 154.464 43.6193 154.645 43.7275C154.825 43.8297 154.957 43.968 155.042 44.1424C155.126 44.3167 155.168 44.5332 155.168 44.7917C155.168 45.2486 154.999 45.6003 154.663 45.8468C154.326 46.0873 153.881 46.2075 153.328 46.2075ZM156.047 46.0723V41.4099H156.778V42.0772H156.796C156.946 41.8427 157.142 41.6564 157.382 41.5181C157.623 41.3738 157.884 41.3016 158.167 41.3016C158.774 41.3016 159.18 41.5782 159.384 42.1313H159.402C159.546 41.8728 159.748 41.6714 160.006 41.5271C160.265 41.3768 160.538 41.3016 160.827 41.3016C161.254 41.3016 161.597 41.4339 161.855 41.6984C162.114 41.957 162.243 42.3237 162.243 42.7987V46.0723H161.512V42.8347C161.512 42.5522 161.428 42.3297 161.26 42.1674C161.098 41.9991 160.896 41.9149 160.656 41.9149C160.349 41.9149 160.082 42.0351 159.853 42.2756C159.625 42.5161 159.51 42.8137 159.51 43.1684V46.0723H158.78V42.8347C158.78 42.5522 158.705 42.3297 158.554 42.1674C158.41 41.9991 158.218 41.9149 157.977 41.9149C157.677 41.9149 157.4 42.0381 157.148 42.2846C156.901 42.5251 156.778 42.8197 156.778 43.1684V46.0723H156.047ZM167.049 46.1174C166.586 46.1174 166.319 45.8859 166.246 45.423H166.237C165.853 45.916 165.336 46.1624 164.686 46.1624C164.223 46.1624 163.845 46.0512 163.55 45.8288C163.255 45.6063 163.108 45.2847 163.108 44.8638C163.108 44.6474 163.141 44.461 163.207 44.3047C163.279 44.1424 163.37 44.0131 163.478 43.9169C163.586 43.8147 163.733 43.7275 163.92 43.6554C164.112 43.5772 164.296 43.5201 164.47 43.484C164.644 43.442 164.867 43.3999 165.137 43.3578C165.312 43.3337 165.435 43.3157 165.507 43.3037C165.585 43.2856 165.684 43.2616 165.805 43.2315C165.925 43.1955 166.009 43.1564 166.057 43.1143C166.105 43.0722 166.15 43.0151 166.192 42.943C166.234 42.8708 166.255 42.7866 166.255 42.6904C166.255 42.4259 166.162 42.2245 165.976 42.0862C165.796 41.9419 165.54 41.8698 165.209 41.8698C164.458 41.8698 164.07 42.2125 164.046 42.8979H163.343C163.355 42.4229 163.517 42.0411 163.83 41.7526C164.148 41.464 164.605 41.3197 165.2 41.3197C166.349 41.3197 166.923 41.8127 166.923 42.7987V45.0171C166.923 45.2216 166.956 45.3658 167.022 45.45C167.094 45.5342 167.226 45.5552 167.419 45.5131H167.446V46.0452C167.326 46.0933 167.193 46.1174 167.049 46.1174ZM164.849 45.6033C165.3 45.6033 165.648 45.4741 165.895 45.2155C166.141 44.951 166.265 44.6624 166.265 44.3498V43.5562C166.042 43.6945 165.687 43.8087 165.2 43.8989C165.02 43.935 164.879 43.965 164.777 43.9891C164.674 44.0071 164.557 44.0432 164.425 44.0973C164.293 44.1454 164.193 44.1995 164.127 44.2596C164.061 44.3197 164.004 44.4009 163.956 44.5031C163.908 44.5993 163.884 44.7135 163.884 44.8458C163.884 45.3508 164.205 45.6033 164.849 45.6033ZM168.192 46.0723V39.6243H168.923V46.0723H168.192ZM170.152 46.0723V39.6243H170.882V46.0723H170.152ZM22.9383 60.0723V55.4099H23.6688V56.0772H23.6868C23.8371 55.8427 24.0325 55.6564 24.273 55.5181C24.5135 55.3738 24.775 55.3016 25.0576 55.3016C25.6648 55.3016 26.0706 55.5782 26.275 56.1313H26.2931C26.4374 55.8728 26.6388 55.6714 26.8973 55.5271C27.1558 55.3768 27.4294 55.3016 27.718 55.3016C28.1448 55.3016 28.4875 55.4339 28.746 55.6984C29.0045 55.957 29.1338 56.3237 29.1338 56.7987V60.0723H28.4033V56.8347C28.4033 56.5522 28.3192 56.3297 28.1508 56.1674C27.9885 55.9991 27.7871 55.9149 27.5466 55.9149C27.24 55.9149 26.9724 56.0351 26.744 56.2756C26.5155 56.5161 26.4013 56.8137 26.4013 57.1684V60.0723H25.6708V56.8347C25.6708 56.5522 25.5957 56.3297 25.4454 56.1674C25.3011 55.9991 25.1087 55.9149 24.8682 55.9149C24.5676 55.9149 24.291 56.0381 24.0385 56.2846C23.792 56.5251 23.6688 56.8197 23.6688 57.1684V60.0723H22.9383ZM33.94 60.1174C33.4771 60.1174 33.2095 59.8859 33.1374 59.423H33.1284C32.7436 59.916 32.2265 60.1624 31.5772 60.1624C31.1143 60.1624 30.7355 60.0512 30.4409 59.8288C30.1464 59.6063 29.9991 59.2847 29.9991 58.8638C29.9991 58.6474 30.0321 58.461 30.0983 58.3047C30.1704 58.1424 30.2606 58.0131 30.3688 57.9169C30.477 57.8147 30.6243 57.7275 30.8107 57.6554C31.0031 57.5772 31.1865 57.5201 31.3608 57.484C31.5352 57.442 31.7576 57.3999 32.0281 57.3578C32.2025 57.3337 32.3257 57.3157 32.3979 57.3037C32.4761 57.2856 32.5753 57.2616 32.6955 57.2315C32.8157 57.1955 32.8999 57.1564 32.948 57.1143C32.9961 57.0722 33.0412 57.0151 33.0833 56.943C33.1254 56.8708 33.1464 56.7866 33.1464 56.6904C33.1464 56.4259 33.0532 56.2245 32.8668 56.0862C32.6865 55.9419 32.431 55.8698 32.1003 55.8698C31.3488 55.8698 30.961 56.2125 30.9369 56.8979H30.2335C30.2456 56.4229 30.4079 56.0411 30.7205 55.7526C31.0392 55.464 31.4961 55.3197 32.0913 55.3197C33.2396 55.3197 33.8137 55.8127 33.8137 56.7987V59.0171C33.8137 59.2216 33.8468 59.3658 33.9129 59.45C33.9851 59.5342 34.1174 59.5552 34.3097 59.5131H34.3368V60.0452C34.2166 60.0933 34.0843 60.1174 33.94 60.1174ZM31.7396 59.6033C32.1905 59.6033 32.5392 59.4741 32.7857 59.2155C33.0322 58.951 33.1554 58.6624 33.1554 58.3498V57.5562C32.933 57.6945 32.5783 57.8087 32.0913 57.8989C31.9109 57.935 31.7696 57.965 31.6674 57.9891C31.5652 58.0071 31.448 58.0432 31.3157 58.0973C31.1834 58.1454 31.0842 58.1995 31.0181 58.2596C30.952 58.3197 30.8949 58.4009 30.8468 58.5031C30.7987 58.5993 30.7746 58.7135 30.7746 58.8458C30.7746 59.3508 31.0963 59.6033 31.7396 59.6033ZM35.7866 55.4099V56.1854H35.8047C35.955 55.9389 36.1504 55.7405 36.3908 55.5902C36.6313 55.4339 36.8989 55.3558 37.1935 55.3558C37.3017 55.3558 37.4009 55.3738 37.4911 55.4099V56.1133H37.464C37.3738 56.0832 37.2656 56.0682 37.1393 56.0682C36.7666 56.0682 36.448 56.2005 36.1834 56.465C35.9189 56.7235 35.7866 57.0632 35.7866 57.484V60.0723H35.0561V55.4099H35.7866ZM41.3939 60.0723L39.7436 57.5562L39.0582 58.2055V60.0723H38.3277V53.6243H39.0582V57.4029L41.1053 55.4099H42.0342L40.2486 57.0872L42.2506 60.0723H41.3939ZM44.6403 60.1985C43.9489 60.1985 43.3988 59.9671 42.99 59.5041C42.5871 59.0352 42.3857 58.449 42.3857 57.7456C42.3857 57.0542 42.5902 56.474 42.999 56.0051C43.4138 55.5301 43.9459 55.2926 44.5952 55.2926C45.2806 55.2926 45.8096 55.5331 46.1824 56.0141C46.5551 56.489 46.7415 57.1233 46.7415 57.9169H43.1342C43.1643 58.4099 43.3086 58.8127 43.5671 59.1254C43.8317 59.432 44.1894 59.5853 44.6403 59.5853C45.3377 59.5853 45.7676 59.2666 45.9299 58.6294H46.6423C46.5341 59.1284 46.3056 59.5161 45.9569 59.7927C45.6082 60.0632 45.1694 60.1985 44.6403 60.1985ZM45.5692 56.2666C45.3347 56.0021 45.01 55.8698 44.5952 55.8698C44.1804 55.8698 43.8497 56.0081 43.6032 56.2846C43.3627 56.5612 43.2124 56.9219 43.1523 57.3668H45.9569C45.9329 56.8979 45.8036 56.5311 45.5692 56.2666ZM47.2505 56.0051V55.4099H47.9269V53.9399H48.6573V55.4099H49.5591V56.0051H48.6573V59.0352C48.6573 59.3238 48.8136 59.468 49.1263 59.468C49.2585 59.468 49.3878 59.447 49.5141 59.4049H49.5411V60.0362C49.3427 60.0783 49.1473 60.0993 48.9549 60.0993C48.2695 60.0993 47.9269 59.7987 47.9269 59.1975V56.0051H47.2505ZM50.4938 61.5693V55.4099H51.2243V56.0682H51.2423C51.6211 55.5572 52.1201 55.3016 52.7393 55.3016C53.3405 55.3016 53.8245 55.5211 54.1913 55.96C54.558 56.3928 54.7414 56.9911 54.7414 57.7546C54.7414 58.5061 54.561 59.1043 54.2003 59.5492C53.8395 59.9881 53.3435 60.2075 52.7123 60.2075C52.087 60.2075 51.597 59.9791 51.2423 59.5222H51.2243V61.5693H50.4938ZM52.6582 59.5943C53.091 59.5943 53.4217 59.426 53.6502 59.0893C53.8786 58.7526 53.9929 58.3107 53.9929 57.7636C53.9929 57.2165 53.8786 56.7746 53.6502 56.4379C53.4217 56.0952 53.094 55.9239 52.6672 55.9239C52.1802 55.9239 51.8104 56.0983 51.5579 56.447C51.3054 56.7896 51.1792 57.2285 51.1792 57.7636C51.1792 58.3107 51.2994 58.7526 51.5399 59.0893C51.7804 59.426 52.1531 59.5943 52.6582 59.5943ZM55.6771 60.0723V53.6243H56.4075V60.0723H55.6771ZM61.2707 60.1174C60.8078 60.1174 60.5403 59.8859 60.4681 59.423H60.4591C60.0743 59.916 59.5573 60.1624 58.908 60.1624C58.445 60.1624 58.0663 60.0512 57.7717 59.8288C57.4771 59.6063 57.3298 59.2847 57.3298 58.8638C57.3298 58.6474 57.3629 58.461 57.429 58.3047C57.5011 58.1424 57.5913 58.0131 57.6995 57.9169C57.8078 57.8147 57.955 57.7275 58.1414 57.6554C58.3338 57.5772 58.5172 57.5201 58.6915 57.484C58.8659 57.442 59.0883 57.3999 59.3589 57.3578C59.5332 57.3337 59.6565 57.3157 59.7286 57.3037C59.8068 57.2856 59.906 57.2616 60.0262 57.2315C60.1465 57.1955 60.2306 57.1564 60.2787 57.1143C60.3268 57.0722 60.3719 57.0151 60.414 56.943C60.4561 56.8708 60.4771 56.7866 60.4771 56.6904C60.4771 56.4259 60.3839 56.2245 60.1976 56.0862C60.0172 55.9419 59.7617 55.8698 59.431 55.8698C58.6795 55.8698 58.2917 56.2125 58.2677 56.8979H57.5643C57.5763 56.4229 57.7386 56.0411 58.0512 55.7526C58.3699 55.464 58.8268 55.3197 59.422 55.3197C60.5703 55.3197 61.1445 55.8127 61.1445 56.7987V59.0171C61.1445 59.2216 61.1775 59.3658 61.2437 59.45C61.3158 59.5342 61.4481 59.5552 61.6405 59.5131H61.6675V60.0452C61.5473 60.0933 61.415 60.1174 61.2707 60.1174ZM59.0703 59.6033C59.5212 59.6033 59.8699 59.4741 60.1164 59.2155C60.3629 58.951 60.4862 58.6624 60.4862 58.3498V57.5562C60.2637 57.6945 59.909 57.8087 59.422 57.8989C59.2416 57.935 59.1004 57.965 58.9982 57.9891C58.8959 58.0071 58.7787 58.0432 58.6464 58.0973C58.5142 58.1454 58.415 58.1995 58.3488 58.2596C58.2827 58.3197 58.2256 58.4009 58.1775 58.5031C58.1294 58.5993 58.1054 58.7135 58.1054 58.8458C58.1054 59.3508 58.427 59.6033 59.0703 59.6033ZM64.3799 60.1985C63.7005 60.1985 63.1534 59.964 62.7386 59.4951C62.3298 59.0262 62.1253 58.443 62.1253 57.7456C62.1253 57.0482 62.3298 56.465 62.7386 55.996C63.1534 55.5271 63.7005 55.2926 64.3799 55.2926C64.927 55.2926 65.3749 55.4399 65.7236 55.7345C66.0723 56.0231 66.2887 56.4169 66.3729 56.9159H65.6334C65.5793 56.5973 65.444 56.3478 65.2276 56.1674C65.0112 55.987 64.7286 55.8968 64.3799 55.8968C63.8989 55.8968 63.5262 56.0712 63.2616 56.4199C63.0031 56.7686 62.8739 57.2105 62.8739 57.7456C62.8739 58.2807 63.0031 58.7225 63.2616 59.0712C63.5262 59.4139 63.8989 59.5853 64.3799 59.5853C64.7526 59.5853 65.0502 59.4861 65.2727 59.2877C65.4951 59.0833 65.6214 58.7977 65.6515 58.431H66.3729C66.3248 58.9901 66.1264 59.426 65.7777 59.7386C65.429 60.0452 64.9631 60.1985 64.3799 60.1985ZM69.2367 60.1985C68.5453 60.1985 67.9952 59.9671 67.5863 59.5041C67.1835 59.0352 66.9821 58.449 66.9821 57.7456C66.9821 57.0542 67.1865 56.474 67.5954 56.0051C68.0102 55.5301 68.5423 55.2926 69.1916 55.2926C69.877 55.2926 70.406 55.5331 70.7788 56.0141C71.1515 56.489 71.3379 57.1233 71.3379 57.9169H67.7306C67.7607 58.4099 67.905 58.8127 68.1635 59.1254C68.428 59.432 68.7858 59.5853 69.2367 59.5853C69.9341 59.5853 70.3639 59.2666 70.5263 58.6294H71.2387C71.1305 59.1284 70.902 59.5161 70.5533 59.7927C70.2046 60.0632 69.7657 60.1985 69.2367 60.1985ZM70.1655 56.2666C69.9311 56.0021 69.6064 55.8698 69.1916 55.8698C68.7767 55.8698 68.4461 56.0081 68.1996 56.2846C67.9591 56.5612 67.8088 56.9219 67.7487 57.3668H70.5533C70.5293 56.8979 70.4 56.5311 70.1655 56.2666ZM74.0001 60.2075C73.3628 60.2075 72.8668 60.0663 72.5121 59.7837C72.1634 59.4951 71.971 59.0863 71.9349 58.5572H72.6835C72.7676 59.2486 73.2125 59.5943 74.0181 59.5943C74.3849 59.5943 74.6554 59.5252 74.8298 59.3869C75.0101 59.2426 75.1003 59.0562 75.1003 58.8278C75.1003 58.5813 75.0132 58.4039 74.8388 58.2957C74.6644 58.1875 74.3458 58.0853 73.8829 57.9891C73.6905 57.947 73.5372 57.9139 73.4229 57.8899C73.3147 57.8598 73.1825 57.8207 73.0261 57.7726C72.8698 57.7185 72.7466 57.6614 72.6564 57.6013C72.5722 57.5351 72.4851 57.457 72.3949 57.3668C72.3047 57.2766 72.2386 57.1654 72.1965 57.0331C72.1604 56.9009 72.1424 56.7536 72.1424 56.5912C72.1424 56.1944 72.2867 55.8818 72.5752 55.6534C72.8698 55.4249 73.2847 55.3107 73.8197 55.3107C74.926 55.3107 75.5362 55.7976 75.6504 56.7716H74.9019C74.8659 56.465 74.7606 56.2425 74.5863 56.1043C74.4119 55.96 74.1504 55.8878 73.8017 55.8878C73.4831 55.8878 73.2456 55.951 73.0893 56.0772C72.939 56.1975 72.8638 56.3568 72.8638 56.5552C72.8638 56.7836 72.954 56.946 73.1344 57.0422C73.3147 57.1323 73.6424 57.2255 74.1173 57.3217C74.4059 57.3818 74.6314 57.439 74.7937 57.4931C74.962 57.5412 75.1364 57.6193 75.3168 57.7275C75.4971 57.8297 75.6294 57.968 75.7136 58.1424C75.7977 58.3167 75.8398 58.5332 75.8398 58.7917C75.8398 59.2486 75.6715 59.6003 75.3348 59.8468C74.9981 60.0873 74.5532 60.2075 74.0001 60.2075ZM81.9967 60.1174C81.5338 60.1174 81.2662 59.8859 81.1941 59.423H81.1851C80.8003 59.916 80.2832 60.1624 79.6339 60.1624C79.171 60.1624 78.7922 60.0512 78.4976 59.8288C78.2031 59.6063 78.0558 59.2847 78.0558 58.8638C78.0558 58.6474 78.0888 58.461 78.155 58.3047C78.2271 58.1424 78.3173 58.0131 78.4255 57.9169C78.5337 57.8147 78.681 57.7275 78.8674 57.6554C79.0598 57.5772 79.2431 57.5201 79.4175 57.484C79.5919 57.442 79.8143 57.3999 80.0848 57.3578C80.2592 57.3337 80.3824 57.3157 80.4546 57.3037C80.5327 57.2856 80.6319 57.2616 80.7522 57.2315C80.8724 57.1955 80.9566 57.1564 81.0047 57.1143C81.0528 57.0722 81.0979 57.0151 81.14 56.943C81.1821 56.8708 81.2031 56.7866 81.2031 56.6904C81.2031 56.4259 81.1099 56.2245 80.9235 56.0862C80.7432 55.9419 80.4877 55.8698 80.157 55.8698C79.4055 55.8698 79.0177 56.2125 78.9936 56.8979H78.2902C78.3023 56.4229 78.4646 56.0411 78.7772 55.7526C79.0959 55.464 79.5528 55.3197 80.148 55.3197C81.2963 55.3197 81.8704 55.8127 81.8704 56.7987V59.0171C81.8704 59.2216 81.9035 59.3658 81.9696 59.45C82.0418 59.5342 82.1741 59.5552 82.3664 59.5131H82.3935V60.0452C82.2733 60.0933 82.141 60.1174 81.9967 60.1174ZM79.7963 59.6033C80.2472 59.6033 80.5959 59.4741 80.8424 59.2155C81.0889 58.951 81.2121 58.6624 81.2121 58.3498V57.5562C80.9897 57.6945 80.635 57.8087 80.148 57.8989C79.9676 57.935 79.8263 57.965 79.7241 57.9891C79.6219 58.0071 79.5047 58.0432 79.3724 58.0973C79.2401 58.1454 79.1409 58.1995 79.0748 58.2596C79.0087 58.3197 78.9516 58.4009 78.9035 58.5031C78.8554 58.5993 78.8313 58.7135 78.8313 58.8458C78.8313 59.3508 79.153 59.6033 79.7963 59.6033ZM83.8433 55.4099V56.0231H83.8614C84.2221 55.5421 84.7151 55.3016 85.3403 55.3016C85.8333 55.3016 86.2181 55.4309 86.4947 55.6894C86.7712 55.9479 86.9095 56.3177 86.9095 56.7987V60.0723H86.179V56.8618C86.179 56.5612 86.0858 56.3297 85.8995 56.1674C85.7131 55.9991 85.4546 55.9149 85.1239 55.9149C84.7511 55.9149 84.4445 56.0351 84.204 56.2756C83.9636 56.5161 83.8433 56.8257 83.8433 57.2045V60.0723H83.1128V55.4099H83.8433ZM89.8613 60.2075C89.2241 60.2075 88.719 59.9881 88.3463 59.5492C87.9795 59.1043 87.7962 58.5061 87.7962 57.7546C87.7962 56.9971 87.9886 56.3989 88.3733 55.96C88.7581 55.5211 89.2481 55.3016 89.8433 55.3016C90.4746 55.3016 90.9616 55.5572 91.3042 56.0682H91.3223V53.6243H92.0528V60.0723H91.3223V59.5041H91.3042C90.9375 59.9731 90.4565 60.2075 89.8613 60.2075ZM89.8884 59.5943C90.3874 59.5943 90.7571 59.429 90.9976 59.0983C91.2441 58.7676 91.3674 58.3227 91.3674 57.7636C91.3674 57.2105 91.2351 56.7656 90.9706 56.4289C90.7121 56.0922 90.3483 55.9239 89.8794 55.9239C89.4525 55.9239 89.1218 56.0952 88.8874 56.4379C88.6589 56.7746 88.5447 57.2165 88.5447 57.7636C88.5447 58.3107 88.6589 58.7526 88.8874 59.0893C89.1218 59.426 89.4555 59.5943 89.8884 59.5943ZM97.0571 60.2075C96.4378 60.2075 95.9478 59.958 95.5871 59.459H95.5691V60.0723H94.8386V53.6243H95.5691V56.0772H95.5871C95.9659 55.5602 96.4649 55.3016 97.0841 55.3016C97.6853 55.3016 98.1663 55.5211 98.527 55.96C98.8878 56.3928 99.0681 56.9911 99.0681 57.7546C99.0681 58.5061 98.8878 59.1043 98.527 59.5492C98.1723 59.9881 97.6823 60.2075 97.0571 60.2075ZM97.003 59.5943C97.4358 59.5943 97.7635 59.429 97.9859 59.0983C98.2084 58.7616 98.3196 58.3167 98.3196 57.7636C98.3196 57.2165 98.2084 56.7746 97.9859 56.4379C97.7635 56.0952 97.4388 55.9239 97.012 55.9239C96.525 55.9239 96.1552 56.0983 95.9027 56.447C95.6502 56.7896 95.524 57.2285 95.524 57.7636C95.524 58.3107 95.6502 58.7526 95.9027 59.0893C96.1552 59.426 96.522 59.5943 97.003 59.5943ZM103.675 60.0723H102.944V59.432H102.926C102.559 59.931 102.09 60.1805 101.519 60.1805C101.038 60.1805 100.657 60.0452 100.374 59.7747C100.091 59.4981 99.9501 59.1193 99.9501 58.6384V55.4099H100.681V58.6203C100.681 58.9209 100.771 59.1554 100.951 59.3238C101.138 59.4921 101.396 59.5763 101.727 59.5763C102.093 59.5763 102.388 59.453 102.611 59.2065C102.833 58.96 102.944 58.6504 102.944 58.2776V55.4099H103.675V60.0723ZM106.61 60.2075C105.973 60.2075 105.477 60.0663 105.122 59.7837C104.774 59.4951 104.581 59.0863 104.545 58.5572H105.294C105.378 59.2486 105.823 59.5943 106.628 59.5943C106.995 59.5943 107.266 59.5252 107.44 59.3869C107.62 59.2426 107.711 59.0562 107.711 58.8278C107.711 58.5813 107.623 58.4039 107.449 58.2957C107.275 58.1875 106.956 58.0853 106.493 57.9891C106.301 57.947 106.147 57.9139 106.033 57.8899C105.925 57.8598 105.793 57.8207 105.636 57.7726C105.48 57.7185 105.357 57.6614 105.267 57.6013C105.182 57.5351 105.095 57.457 105.005 57.3668C104.915 57.2766 104.849 57.1654 104.807 57.0331C104.771 56.9009 104.753 56.7536 104.753 56.5912C104.753 56.1944 104.897 55.8818 105.185 55.6534C105.48 55.4249 105.895 55.3107 106.43 55.3107C107.536 55.3107 108.146 55.7976 108.261 56.7716H107.512C107.476 56.465 107.371 56.2425 107.197 56.1043C107.022 55.96 106.761 55.8878 106.412 55.8878C106.093 55.8878 105.856 55.951 105.7 56.0772C105.549 56.1975 105.474 56.3568 105.474 56.5552C105.474 56.7836 105.564 56.946 105.745 57.0422C105.925 57.1323 106.253 57.2255 106.728 57.3217C107.016 57.3818 107.242 57.439 107.404 57.4931C107.572 57.5412 107.747 57.6193 107.927 57.7275C108.107 57.8297 108.24 57.968 108.324 58.1424C108.408 58.3167 108.45 58.5332 108.45 58.7917C108.45 59.2486 108.282 59.6003 107.945 59.8468C107.608 60.0873 107.163 60.2075 106.61 60.2075ZM109.33 60.0723V55.4099H110.06V60.0723H109.33ZM109.33 54.5261V53.6243H110.06V54.5261H109.33ZM111.967 55.4099V56.0231H111.985C112.345 55.5421 112.838 55.3016 113.464 55.3016C113.957 55.3016 114.341 55.4309 114.618 55.6894C114.895 55.9479 115.033 56.3177 115.033 56.7987V60.0723H114.302V56.8618C114.302 56.5612 114.209 56.3297 114.023 56.1674C113.836 55.9991 113.578 55.9149 113.247 55.9149C112.874 55.9149 112.568 56.0351 112.327 56.2756C112.087 56.5161 111.967 56.8257 111.967 57.2045V60.0723H111.236V55.4099H111.967ZM118.174 60.1985C117.483 60.1985 116.933 59.9671 116.524 59.5041C116.121 59.0352 115.92 58.449 115.92 57.7456C115.92 57.0542 116.124 56.474 116.533 56.0051C116.948 55.5301 117.48 55.2926 118.129 55.2926C118.814 55.2926 119.343 55.5331 119.716 56.0141C120.089 56.489 120.275 57.1233 120.275 57.9169H116.668C116.698 58.4099 116.842 58.8127 117.101 59.1254C117.365 59.432 117.723 59.5853 118.174 59.5853C118.871 59.5853 119.301 59.2666 119.464 58.6294H120.176C120.068 59.1284 119.839 59.5161 119.491 59.7927C119.142 60.0632 118.703 60.1985 118.174 60.1985ZM119.103 56.2666C118.868 56.0021 118.544 55.8698 118.129 55.8698C117.714 55.8698 117.383 56.0081 117.137 56.2846C116.896 56.5612 116.746 56.9219 116.686 57.3668H119.491C119.467 56.8979 119.337 56.5311 119.103 56.2666ZM122.937 60.2075C122.3 60.2075 121.804 60.0663 121.449 59.7837C121.101 59.4951 120.908 59.0863 120.872 58.5572H121.621C121.705 59.2486 122.15 59.5943 122.956 59.5943C123.322 59.5943 123.593 59.5252 123.767 59.3869C123.948 59.2426 124.038 59.0562 124.038 58.8278C124.038 58.5813 123.951 58.4039 123.776 58.2957C123.602 58.1875 123.283 58.0853 122.82 57.9891C122.628 57.947 122.475 57.9139 122.36 57.8899C122.252 57.8598 122.12 57.8207 121.964 57.7726C121.807 57.7185 121.684 57.6614 121.594 57.6013C121.51 57.5351 121.422 57.457 121.332 57.3668C121.242 57.2766 121.176 57.1654 121.134 57.0331C121.098 56.9009 121.08 56.7536 121.08 56.5912C121.08 56.1944 121.224 55.8818 121.513 55.6534C121.807 55.4249 122.222 55.3107 122.757 55.3107C123.863 55.3107 124.474 55.7976 124.588 56.7716H123.839C123.803 56.465 123.698 56.2425 123.524 56.1043C123.349 55.96 123.088 55.8878 122.739 55.8878C122.42 55.8878 122.183 55.951 122.027 56.0772C121.876 56.1975 121.801 56.3568 121.801 56.5552C121.801 56.7836 121.891 56.946 122.072 57.0422C122.252 57.1323 122.58 57.2255 123.055 57.3217C123.343 57.3818 123.569 57.439 123.731 57.4931C123.899 57.5412 124.074 57.6193 124.254 57.7275C124.435 57.8297 124.567 57.968 124.651 58.1424C124.735 58.3167 124.777 58.5332 124.777 58.7917C124.777 59.2486 124.609 59.6003 124.272 59.8468C123.936 60.0873 123.491 60.2075 122.937 60.2075ZM127.424 60.2075C126.787 60.2075 126.291 60.0663 125.936 59.7837C125.588 59.4951 125.395 59.0863 125.359 58.5572H126.108C126.192 59.2486 126.637 59.5943 127.442 59.5943C127.809 59.5943 128.08 59.5252 128.254 59.3869C128.434 59.2426 128.525 59.0562 128.525 58.8278C128.525 58.5813 128.437 58.4039 128.263 58.2957C128.089 58.1875 127.77 58.0853 127.307 57.9891C127.115 57.947 126.961 57.9139 126.847 57.8899C126.739 57.8598 126.607 57.8207 126.45 57.7726C126.294 57.7185 126.171 57.6614 126.081 57.6013C125.997 57.5351 125.909 57.457 125.819 57.3668C125.729 57.2766 125.663 57.1654 125.621 57.0331C125.585 56.9009 125.567 56.7536 125.567 56.5912C125.567 56.1944 125.711 55.8818 126 55.6534C126.294 55.4249 126.709 55.3107 127.244 55.3107C128.35 55.3107 128.96 55.7976 129.075 56.7716H128.326C128.29 56.465 128.185 56.2425 128.011 56.1043C127.836 55.96 127.575 55.8878 127.226 55.8878C126.907 55.8878 126.67 55.951 126.514 56.0772C126.363 56.1975 126.288 56.3568 126.288 56.5552C126.288 56.7836 126.378 56.946 126.559 57.0422C126.739 57.1323 127.067 57.2255 127.542 57.3217C127.83 57.3818 128.056 57.439 128.218 57.4931C128.386 57.5412 128.561 57.6193 128.741 57.7275C128.921 57.8297 129.054 57.968 129.138 58.1424C129.222 58.3167 129.264 58.5332 129.264 58.7917C129.264 59.2486 129.096 59.6003 128.759 59.8468C128.422 60.0873 127.978 60.2075 127.424 60.2075ZM135.385 59.4951C134.976 59.964 134.432 60.1985 133.753 60.1985C133.073 60.1985 132.526 59.964 132.111 59.4951C131.702 59.0262 131.498 58.443 131.498 57.7456C131.498 57.0482 131.702 56.465 132.111 55.996C132.526 55.5271 133.073 55.2926 133.753 55.2926C134.432 55.2926 134.976 55.5271 135.385 55.996C135.794 56.465 135.998 57.0482 135.998 57.7456C135.998 58.443 135.794 59.0262 135.385 59.4951ZM132.634 59.0712C132.899 59.4139 133.272 59.5853 133.753 59.5853C134.234 59.5853 134.603 59.4139 134.862 59.0712C135.12 58.7225 135.25 58.2807 135.25 57.7456C135.25 57.2045 135.117 56.7626 134.853 56.4199C134.594 56.0712 134.228 55.8968 133.753 55.8968C133.272 55.8968 132.899 56.0712 132.634 56.4199C132.376 56.7686 132.247 57.2105 132.247 57.7456C132.247 58.2807 132.376 58.7225 132.634 59.0712ZM137.838 60.0723L136.359 55.4099H137.144L137.964 58.2867L138.217 59.2877H138.235C138.325 58.8789 138.403 58.5512 138.469 58.3047L139.254 55.4099H140.02L140.778 58.3047L141.003 59.2877H141.021C141.118 58.8789 141.205 58.5452 141.283 58.2867L142.149 55.4099H142.906L141.382 60.0723H140.634L139.858 57.2496L139.633 56.2756H139.615C139.53 56.6664 139.452 56.9911 139.38 57.2496L138.596 60.0723H137.838ZM144.353 55.4099V56.0231H144.371C144.731 55.5421 145.224 55.3016 145.85 55.3016C146.343 55.3016 146.727 55.4309 147.004 55.6894C147.28 55.9479 147.419 56.3177 147.419 56.7987V60.0723H146.688V56.8618C146.688 56.5612 146.595 56.3297 146.409 56.1674C146.222 55.9991 145.964 55.9149 145.633 55.9149C145.26 55.9149 144.954 56.0351 144.713 56.2756C144.473 56.5161 144.353 56.8257 144.353 57.2045V60.0723H143.622V55.4099H144.353ZM150.56 60.1985C149.869 60.1985 149.318 59.9671 148.91 59.5041C148.507 59.0352 148.305 58.449 148.305 57.7456C148.305 57.0542 148.51 56.474 148.919 56.0051C149.333 55.5301 149.865 55.2926 150.515 55.2926C151.2 55.2926 151.729 55.5331 152.102 56.0141C152.475 56.489 152.661 57.1233 152.661 57.9169H149.054C149.084 58.4099 149.228 58.8127 149.487 59.1254C149.751 59.432 150.109 59.5853 150.56 59.5853C151.257 59.5853 151.687 59.2666 151.849 58.6294H152.562C152.454 59.1284 152.225 59.5161 151.877 59.7927C151.528 60.0632 151.089 60.1985 150.56 60.1985ZM151.489 56.2666C151.254 56.0021 150.93 55.8698 150.515 55.8698C150.1 55.8698 149.769 56.0081 149.523 56.2846C149.282 56.5612 149.132 56.9219 149.072 57.3668H151.877C151.853 56.8979 151.723 56.5311 151.489 56.2666ZM154.286 55.4099V56.1854H154.304C154.455 55.9389 154.65 55.7405 154.89 55.5902C155.131 55.4339 155.398 55.3558 155.693 55.3558C155.801 55.3558 155.9 55.3738 155.991 55.4099V56.1133H155.964C155.873 56.0832 155.765 56.0682 155.639 56.0682C155.266 56.0682 154.948 56.2005 154.683 56.465C154.419 56.7235 154.286 57.0632 154.286 57.484V60.0723H153.556V55.4099H154.286ZM158.595 60.2075C157.958 60.2075 157.462 60.0663 157.107 59.7837C156.758 59.4951 156.566 59.0863 156.53 58.5572H157.278C157.362 59.2486 157.807 59.5943 158.613 59.5943C158.98 59.5943 159.25 59.5252 159.425 59.3869C159.605 59.2426 159.695 59.0562 159.695 58.8278C159.695 58.5813 159.608 58.4039 159.434 58.2957C159.259 58.1875 158.941 58.0853 158.478 57.9891C158.285 57.947 158.132 57.9139 158.018 57.8899C157.91 57.8598 157.777 57.8207 157.621 57.7726C157.465 57.7185 157.341 57.6614 157.251 57.6013C157.167 57.5351 157.08 57.457 156.99 57.3668C156.899 57.2766 156.833 57.1654 156.791 57.0331C156.755 56.9009 156.737 56.7536 156.737 56.5912C156.737 56.1944 156.881 55.8818 157.17 55.6534C157.465 55.4249 157.879 55.3107 158.415 55.3107C159.521 55.3107 160.131 55.7976 160.245 56.7716H159.497C159.461 56.465 159.355 56.2425 159.181 56.1043C159.007 55.96 158.745 55.8878 158.396 55.8878C158.078 55.8878 157.84 55.951 157.684 56.0772C157.534 56.1975 157.459 56.3568 157.459 56.5552C157.459 56.7836 157.549 56.946 157.729 57.0422C157.91 57.1323 158.237 57.2255 158.712 57.3217C159.001 57.3818 159.226 57.439 159.388 57.4931C159.557 57.5412 159.731 57.6193 159.912 57.7275C160.092 57.8297 160.224 57.968 160.308 58.1424C160.393 58.3167 160.435 58.5332 160.435 58.7917C160.435 59.2486 160.266 59.6003 159.93 59.8468C159.593 60.0873 159.148 60.2075 158.595 60.2075ZM163.949 60.0723L162.47 55.4099H163.255L164.075 58.2867L164.328 59.2877H164.346C164.436 58.8789 164.514 58.5512 164.58 58.3047L165.365 55.4099H166.132L166.889 58.3047L167.115 59.2877H167.133C167.229 58.8789 167.316 58.5452 167.394 58.2867L168.26 55.4099H169.017L167.493 60.0723H166.745L165.969 57.2496L165.744 56.2756H165.726C165.642 56.6664 165.563 56.9911 165.491 57.2496L164.707 60.0723H163.949ZM169.733 60.0723V55.4099H170.464V60.0723H169.733ZM169.733 54.5261V53.6243H170.464V54.5261H169.733ZM171.342 56.0051V55.4099H172.018V53.9399H172.749V55.4099H173.651V56.0051H172.749V59.0352C172.749 59.3238 172.905 59.468 173.218 59.468C173.35 59.468 173.479 59.447 173.606 59.4049H173.633V60.0362C173.434 60.0783 173.239 60.0993 173.047 60.0993C172.361 60.0993 172.018 59.7987 172.018 59.1975V56.0051H171.342ZM175.316 53.6243V56.0231H175.334C175.695 55.5421 176.188 55.3016 176.813 55.3016C177.306 55.3016 177.691 55.4309 177.967 55.6894C178.244 55.9479 178.382 56.3177 178.382 56.7987V60.0723H177.652V56.8618C177.652 56.5612 177.558 56.3297 177.372 56.1674C177.186 55.9991 176.927 55.9149 176.596 55.9149C176.224 55.9149 175.917 56.0351 175.677 56.2756C175.436 56.5161 175.316 56.8257 175.316 57.2045V60.0723H174.585V53.6243H175.316ZM184.771 59.4951C184.363 59.964 183.819 60.1985 183.139 60.1985C182.46 60.1985 181.913 59.964 181.498 59.4951C181.089 59.0262 180.885 58.443 180.885 57.7456C180.885 57.0482 181.089 56.465 181.498 55.996C181.913 55.5271 182.46 55.2926 183.139 55.2926C183.819 55.2926 184.363 55.5271 184.771 55.996C185.18 56.465 185.385 57.0482 185.385 57.7456C185.385 58.443 185.18 59.0262 184.771 59.4951ZM182.021 59.0712C182.285 59.4139 182.658 59.5853 183.139 59.5853C183.62 59.5853 183.99 59.4139 184.248 59.0712C184.507 58.7225 184.636 58.2807 184.636 57.7456C184.636 57.2045 184.504 56.7626 184.239 56.4199C183.981 56.0712 183.614 55.8968 183.139 55.8968C182.658 55.8968 182.285 56.0712 182.021 56.4199C181.762 56.7686 181.633 57.2105 181.633 57.7456C181.633 58.2807 181.762 58.7225 182.021 59.0712ZM187.024 55.4099V56.0231H187.042C187.403 55.5421 187.896 55.3016 188.521 55.3016C189.014 55.3016 189.399 55.4309 189.675 55.6894C189.952 55.9479 190.09 56.3177 190.09 56.7987V60.0723H189.36V56.8618C189.36 56.5612 189.267 56.3297 189.08 56.1674C188.894 55.9991 188.635 55.9149 188.305 55.9149C187.932 55.9149 187.625 56.0351 187.385 56.2756C187.144 56.5161 187.024 56.8257 187.024 57.2045V60.0723H186.294V55.4099H187.024ZM191.265 60.0723V53.6243H191.996V60.0723H191.265ZM193.793 61.6144C193.516 61.6144 193.297 61.5813 193.135 61.5152V60.8659H193.171C193.291 60.932 193.456 60.9651 193.667 60.9651C193.829 60.9651 193.964 60.923 194.073 60.8388C194.181 60.7607 194.277 60.6134 194.361 60.3969L194.541 59.937L192.72 55.4099H193.513L194.614 58.3137L194.929 59.2246H194.947C195.055 58.8759 195.158 58.5722 195.254 58.3137L196.318 55.4099H197.094L195.101 60.451C194.92 60.908 194.734 61.2146 194.541 61.3709C194.349 61.5332 194.1 61.6144 193.793 61.6144ZM22.9383 75.5693V69.4099H23.6688V70.0682H23.6868C24.0656 69.5572 24.5646 69.3016 25.1838 69.3016C25.7851 69.3016 26.269 69.5211 26.6358 69.96C27.0025 70.3928 27.1859 70.9911 27.1859 71.7546C27.1859 72.5061 27.0055 73.1043 26.6448 73.5492C26.2841 73.9881 25.7881 74.2075 25.1568 74.2075C24.5315 74.2075 24.0415 73.9791 23.6868 73.5222H23.6688V75.5693H22.9383ZM25.1027 73.5943C25.5356 73.5943 25.8662 73.426 26.0947 73.0893C26.3231 72.7526 26.4374 72.3107 26.4374 71.7636C26.4374 71.2165 26.3231 70.7746 26.0947 70.4379C25.8662 70.0952 25.5386 69.9239 25.1117 69.9239C24.6247 69.9239 24.255 70.0983 24.0025 70.447C23.7499 70.7896 23.6237 71.2285 23.6237 71.7636C23.6237 72.3107 23.7439 72.7526 23.9844 73.0893C24.2249 73.426 24.5977 73.5943 25.1027 73.5943ZM28.825 67.6243V70.0231H28.843C29.2038 69.5421 29.6968 69.3016 30.322 69.3016C30.815 69.3016 31.1998 69.4309 31.4763 69.6894C31.7529 69.9479 31.8912 70.3177 31.8912 70.7987V74.0723H31.1607V70.8618C31.1607 70.5612 31.0675 70.3297 30.8811 70.1674C30.6948 69.9991 30.4363 69.9149 30.1056 69.9149C29.7328 69.9149 29.4262 70.0351 29.1857 70.2756C28.9452 70.5161 28.825 70.8257 28.825 71.2045V74.0723H28.0945V67.6243H28.825ZM36.6647 73.4951C36.2559 73.964 35.7118 74.1985 35.0324 74.1985C34.353 74.1985 33.8059 73.964 33.3911 73.4951C32.9823 73.0262 32.7779 72.443 32.7779 71.7456C32.7779 71.0482 32.9823 70.465 33.3911 69.996C33.8059 69.5271 34.353 69.2926 35.0324 69.2926C35.7118 69.2926 36.2559 69.5271 36.6647 69.996C37.0735 70.465 37.2779 71.0482 37.2779 71.7456C37.2779 72.443 37.0735 73.0262 36.6647 73.4951ZM33.9141 73.0712C34.1787 73.4139 34.5514 73.5853 35.0324 73.5853C35.5134 73.5853 35.8831 73.4139 36.1416 73.0712C36.4002 72.7225 36.5294 72.2807 36.5294 71.7456C36.5294 71.2045 36.3972 70.7626 36.1326 70.4199C35.8741 70.0712 35.5074 69.8968 35.0324 69.8968C34.5514 69.8968 34.1787 70.0712 33.9141 70.4199C33.6556 70.7686 33.5264 71.2105 33.5264 71.7456C33.5264 72.2807 33.6556 72.7225 33.9141 73.0712ZM38.9173 69.4099V70.0231H38.9353C39.296 69.5421 39.789 69.3016 40.4143 69.3016C40.9073 69.3016 41.2921 69.4309 41.5686 69.6894C41.8452 69.9479 41.9834 70.3177 41.9834 70.7987V74.0723H41.253V70.8618C41.253 70.5612 41.1598 70.3297 40.9734 70.1674C40.787 69.9991 40.5285 69.9149 40.1978 69.9149C39.8251 69.9149 39.5185 70.0351 39.278 70.2756C39.0375 70.5161 38.9173 70.8257 38.9173 71.2045V74.0723H38.1868V69.4099H38.9173ZM45.1247 74.1985C44.4333 74.1985 43.8832 73.9671 43.4743 73.5041C43.0715 73.0352 42.8701 72.449 42.8701 71.7456C42.8701 71.0542 43.0745 70.474 43.4834 70.0051C43.8982 69.5301 44.4303 69.2926 45.0796 69.2926C45.765 69.2926 46.294 69.5331 46.6668 70.0141C47.0395 70.489 47.2259 71.1233 47.2259 71.9169H43.6186C43.6487 72.4099 43.793 72.8127 44.0515 73.1254C44.316 73.432 44.6738 73.5853 45.1247 73.5853C45.8221 73.5853 46.2519 73.2666 46.4143 72.6294H47.1267C47.0185 73.1284 46.79 73.5161 46.4413 73.7927C46.0926 74.0632 45.6537 74.1985 45.1247 74.1985ZM46.0535 70.2666C45.8191 70.0021 45.4944 69.8698 45.0796 69.8698C44.6647 69.8698 44.3341 70.0081 44.0876 70.2846C43.8471 70.5612 43.6968 70.9219 43.6367 71.3668H46.4413C46.4173 70.8979 46.288 70.5311 46.0535 70.2666ZM49.8881 74.2075C49.2508 74.2075 48.7548 74.0663 48.4001 73.7837C48.0514 73.4951 47.859 73.0863 47.8229 72.5572H48.5714C48.6556 73.2486 49.1005 73.5943 49.9061 73.5943C50.2729 73.5943 50.5434 73.5252 50.7178 73.3869C50.8981 73.2426 50.9883 73.0562 50.9883 72.8278C50.9883 72.5813 50.9011 72.4039 50.7268 72.2957C50.5524 72.1875 50.2338 72.0853 49.7709 71.9891C49.5785 71.947 49.4252 71.9139 49.3109 71.8899C49.2027 71.8598 49.0704 71.8207 48.9141 71.7726C48.7578 71.7185 48.6346 71.6614 48.5444 71.6013C48.4602 71.5351 48.373 71.457 48.2829 71.3668C48.1927 71.2766 48.1265 71.1654 48.0845 71.0331C48.0484 70.9009 48.0303 70.7536 48.0303 70.5912C48.0303 70.1944 48.1746 69.8818 48.4632 69.6534C48.7578 69.4249 49.1727 69.3107 49.7077 69.3107C50.814 69.3107 51.4242 69.7976 51.5384 70.7716H50.7899C50.7538 70.465 50.6486 70.2425 50.4743 70.1043C50.2999 69.96 50.0384 69.8878 49.6897 69.8878C49.3711 69.8878 49.1336 69.951 48.9773 70.0772C48.827 70.1975 48.7518 70.3568 48.7518 70.5552C48.7518 70.7836 48.842 70.946 49.0223 71.0422C49.2027 71.1323 49.5304 71.2255 50.0053 71.3217C50.2939 71.3818 50.5194 71.439 50.6817 71.4931C50.85 71.5412 51.0244 71.6193 51.2047 71.7275C51.3851 71.8297 51.5174 71.968 51.6015 72.1424C51.6857 72.3167 51.7278 72.5332 51.7278 72.7917C51.7278 73.2486 51.5595 73.6003 51.2228 73.8468C50.8861 74.0873 50.4412 74.2075 49.8881 74.2075ZM56.2163 74.1985C55.537 74.1985 54.9899 73.964 54.575 73.4951C54.1662 73.0262 53.9618 72.443 53.9618 71.7456C53.9618 71.0482 54.1662 70.465 54.575 69.996C54.9899 69.5271 55.537 69.2926 56.2163 69.2926C56.7634 69.2926 57.2113 69.4399 57.56 69.7345C57.9087 70.0231 58.1252 70.4169 58.2093 70.9159H57.4699C57.4157 70.5973 57.2805 70.3478 57.064 70.1674C56.8476 69.987 56.565 69.8968 56.2163 69.8968C55.7354 69.8968 55.3626 70.0712 55.0981 70.4199C54.8395 70.7686 54.7103 71.2105 54.7103 71.7456C54.7103 72.2807 54.8395 72.7225 55.0981 73.0712C55.3626 73.4139 55.7354 73.5853 56.2163 73.5853C56.5891 73.5853 56.8867 73.4861 57.1091 73.2877C57.3316 73.0833 57.4578 72.7977 57.4879 72.431H58.2093C58.1612 72.9901 57.9628 73.426 57.6141 73.7386C57.2654 74.0452 56.7995 74.1985 56.2163 74.1985ZM62.7054 73.4951C62.2966 73.964 61.7525 74.1985 61.0731 74.1985C60.3937 74.1985 59.8466 73.964 59.4318 73.4951C59.023 73.0262 58.8186 72.443 58.8186 71.7456C58.8186 71.0482 59.023 70.465 59.4318 69.996C59.8466 69.5271 60.3937 69.2926 61.0731 69.2926C61.7525 69.2926 62.2966 69.5271 62.7054 69.996C63.1142 70.465 63.3186 71.0482 63.3186 71.7456C63.3186 72.443 63.1142 73.0262 62.7054 73.4951ZM59.9549 73.0712C60.2194 73.4139 60.5921 73.5853 61.0731 73.5853C61.5541 73.5853 61.9238 73.4139 62.1823 73.0712C62.4409 72.7225 62.5701 72.2807 62.5701 71.7456C62.5701 71.2045 62.4379 70.7626 62.1733 70.4199C61.9148 70.0712 61.5481 69.8968 61.0731 69.8968C60.5921 69.8968 60.2194 70.0712 59.9549 70.4199C59.6963 70.7686 59.5671 71.2105 59.5671 71.7456C59.5671 72.2807 59.6963 72.7225 59.9549 73.0712ZM67.925 74.0723H67.1945V73.432H67.1764C66.8097 73.931 66.3408 74.1805 65.7696 74.1805C65.2886 74.1805 64.9069 74.0452 64.6243 73.7747C64.3417 73.4981 64.2004 73.1193 64.2004 72.6384V69.4099H64.9309V72.6203C64.9309 72.9209 65.0211 73.1554 65.2015 73.3238C65.3878 73.4921 65.6464 73.5763 65.977 73.5763C66.3438 73.5763 66.6384 73.453 66.8608 73.2065C67.0833 72.96 67.1945 72.6504 67.1945 72.2776V69.4099H67.925V74.0723ZM69.1201 74.0723V67.6243H69.8506V74.0723H69.1201ZM72.8561 74.2075C72.2188 74.2075 71.7138 73.9881 71.341 73.5492C70.9743 73.1043 70.7909 72.5061 70.7909 71.7546C70.7909 70.9971 70.9833 70.3989 71.3681 69.96C71.7528 69.5211 72.2428 69.3016 72.838 69.3016C73.4693 69.3016 73.9563 69.5572 74.299 70.0682H74.317V67.6243H75.0475V74.0723H74.317V73.5041H74.299C73.9322 73.9731 73.4513 74.2075 72.8561 74.2075ZM72.8831 73.5943C73.3821 73.5943 73.7519 73.429 73.9924 73.0983C74.2389 72.7676 74.3621 72.3227 74.3621 71.7636C74.3621 71.2105 74.2298 70.7656 73.9653 70.4289C73.7068 70.0922 73.343 69.9239 72.8741 69.9239C72.4472 69.9239 72.1166 70.0952 71.8821 70.4379C71.6536 70.7746 71.5394 71.2165 71.5394 71.7636C71.5394 72.3107 71.6536 72.7526 71.8821 73.0893C72.1166 73.426 72.4502 73.5943 72.8831 73.5943ZM79.6911 75.6234C79.0959 75.6234 78.6269 75.5092 78.2842 75.2807C77.9476 75.0583 77.7582 74.7426 77.7161 74.3338H78.3925C78.4586 74.8088 78.8855 75.0462 79.673 75.0462C80.5628 75.0462 81.0077 74.6464 81.0077 73.8468V73.1885H80.9897C80.8033 73.429 80.6049 73.6093 80.3945 73.7296C80.1841 73.8498 79.9225 73.9099 79.6099 73.9099C79.0087 73.9099 78.5187 73.6935 78.14 73.2606C77.7612 72.8278 77.5718 72.2746 77.5718 71.6013C77.5718 70.8979 77.7612 70.3387 78.14 69.9239C78.5247 69.5091 78.9997 69.3016 79.5648 69.3016C80.1781 69.3016 80.653 69.5361 80.9897 70.0051H81.0077V69.4099H81.7382V73.8198C81.7382 74.415 81.5548 74.8629 81.1881 75.1635C80.8274 75.4701 80.3284 75.6234 79.6911 75.6234ZM79.646 73.2967C80.5899 73.2967 81.0618 72.7195 81.0618 71.5652C81.0618 70.465 80.5869 69.9149 79.637 69.9149C79.2101 69.9149 78.8824 70.0682 78.654 70.3748C78.4315 70.6814 78.3203 71.0933 78.3203 71.6103C78.3203 72.1273 78.4345 72.5392 78.663 72.8458C78.8915 73.1464 79.2191 73.2967 79.646 73.2967ZM83.6408 69.4099V70.1854H83.6588C83.8091 69.9389 84.0045 69.7405 84.245 69.5902C84.4855 69.4339 84.753 69.3558 85.0476 69.3558C85.1558 69.3558 85.255 69.3738 85.3452 69.4099V70.1133H85.3181C85.228 70.0832 85.1197 70.0682 84.9935 70.0682C84.6207 70.0682 84.3021 70.2005 84.0376 70.465C83.773 70.7235 83.6408 71.0632 83.6408 71.484V74.0723H82.9103V69.4099H83.6408ZM89.631 73.4951C89.2222 73.964 88.6781 74.1985 87.9987 74.1985C87.3194 74.1985 86.7723 73.964 86.3574 73.4951C85.9486 73.0262 85.7442 72.443 85.7442 71.7456C85.7442 71.0482 85.9486 70.465 86.3574 69.996C86.7723 69.5271 87.3194 69.2926 87.9987 69.2926C88.6781 69.2926 89.2222 69.5271 89.631 69.996C90.0398 70.465 90.2443 71.0482 90.2443 71.7456C90.2443 72.443 90.0398 73.0262 89.631 73.4951ZM86.8805 73.0712C87.145 73.4139 87.5178 73.5853 87.9987 73.5853C88.4797 73.5853 88.8494 73.4139 89.108 73.0712C89.3665 72.7225 89.4957 72.2807 89.4957 71.7456C89.4957 71.2045 89.3635 70.7626 89.0989 70.4199C88.8404 70.0712 88.4737 69.8968 87.9987 69.8968C87.5178 69.8968 87.145 70.0712 86.8805 70.4199C86.6219 70.7686 86.4927 71.2105 86.4927 71.7456C86.4927 72.2807 86.6219 72.7225 86.8805 73.0712ZM92.0841 74.0723L90.6051 69.4099H91.3897L92.2104 72.2867L92.4629 73.2877H92.4809C92.5711 72.8789 92.6492 72.5512 92.7154 72.3047L93.5 69.4099H94.2665L95.024 72.3047L95.2495 73.2877H95.2675C95.3637 72.8789 95.4509 72.5452 95.529 72.2867L96.3948 69.4099H97.1523L95.6282 74.0723H94.8797L94.1042 71.2496L93.8787 70.2756H93.8607C93.7765 70.6664 93.6984 70.9911 93.6262 71.2496L92.8416 74.0723H92.0841ZM99.1864 70.0051V69.4099H99.8628V67.9399H100.593V69.4099H101.495V70.0051H100.593V73.0352C100.593 73.3238 100.75 73.468 101.062 73.468C101.194 73.468 101.324 73.447 101.45 73.4049H101.477V74.0362C101.279 74.0783 101.083 74.0993 100.891 74.0993C100.205 74.0993 99.8628 73.7987 99.8628 73.1975V70.0051H99.1864ZM103.16 67.6243V70.0231H103.178C103.539 69.5421 104.032 69.3016 104.657 69.3016C105.15 69.3016 105.535 69.4309 105.812 69.6894C106.088 69.9479 106.226 70.3177 106.226 70.7987V74.0723H105.496V70.8618C105.496 70.5612 105.403 70.3297 105.216 70.1674C105.03 69.9991 104.771 69.9149 104.441 69.9149C104.068 69.9149 103.761 70.0351 103.521 70.2756C103.28 70.5161 103.16 70.8257 103.16 71.2045V74.0723H102.43V67.6243H103.16ZM109.368 74.1985C108.676 74.1985 108.126 73.9671 107.717 73.5041C107.314 73.0352 107.113 72.449 107.113 71.7456C107.113 71.0542 107.317 70.474 107.726 70.0051C108.141 69.5301 108.673 69.2926 109.322 69.2926C110.008 69.2926 110.537 69.5331 110.91 70.0141C111.282 70.489 111.469 71.1233 111.469 71.9169H107.862C107.892 72.4099 108.036 72.8127 108.294 73.1254C108.559 73.432 108.917 73.5853 109.368 73.5853C110.065 73.5853 110.495 73.2666 110.657 72.6294H111.37C111.261 73.1284 111.033 73.5161 110.684 73.7927C110.336 74.0632 109.897 74.1985 109.368 74.1985ZM110.296 70.2666C110.062 70.0021 109.737 69.8698 109.322 69.8698C108.908 69.8698 108.577 70.0081 108.33 70.2846C108.09 70.5612 107.94 70.9219 107.88 71.3668H110.684C110.66 70.8979 110.531 70.5311 110.296 70.2666ZM112.363 74.0723V69.4099H113.094V74.0723H112.363ZM112.363 68.5261V67.6243H113.094V68.5261H112.363ZM115 69.4099V70.1854H115.018C115.169 69.9389 115.364 69.7405 115.605 69.5902C115.845 69.4339 116.113 69.3558 116.407 69.3558C116.515 69.3558 116.615 69.3738 116.705 69.4099V70.1133H116.678C116.588 70.0832 116.479 70.0682 116.353 70.0682C115.98 70.0682 115.662 70.2005 115.397 70.465C115.133 70.7235 115 71.0632 115 71.484V74.0723H114.27V69.4099H115ZM122.855 74.0723H122.124V73.432H122.106C121.74 73.931 121.271 74.1805 120.7 74.1805C120.219 74.1805 119.837 74.0452 119.554 73.7747C119.272 73.4981 119.13 73.1193 119.13 72.6384V69.4099H119.861V72.6203C119.861 72.9209 119.951 73.1554 120.131 73.3238C120.318 73.4921 120.576 73.5763 120.907 73.5763C121.274 73.5763 121.568 73.453 121.791 73.2065C122.013 72.96 122.124 72.6504 122.124 72.2776V69.4099H122.855V74.0723ZM125.791 74.2075C125.153 74.2075 124.657 74.0663 124.303 73.7837C123.954 73.4951 123.761 73.0863 123.725 72.5572H124.474C124.558 73.2486 125.003 73.5943 125.809 73.5943C126.175 73.5943 126.446 73.5252 126.62 73.3869C126.801 73.2426 126.891 73.0562 126.891 72.8278C126.891 72.5813 126.804 72.4039 126.629 72.2957C126.455 72.1875 126.136 72.0853 125.673 71.9891C125.481 71.947 125.328 71.9139 125.213 71.8899C125.105 71.8598 124.973 71.8207 124.817 71.7726C124.66 71.7185 124.537 71.6614 124.447 71.6013C124.363 71.5351 124.275 71.457 124.185 71.3668C124.095 71.2766 124.029 71.1654 123.987 71.0331C123.951 70.9009 123.933 70.7536 123.933 70.5912C123.933 70.1944 124.077 69.8818 124.366 69.6534C124.66 69.4249 125.075 69.3107 125.61 69.3107C126.716 69.3107 127.327 69.7976 127.441 70.7716H126.692C126.656 70.465 126.551 70.2425 126.377 70.1043C126.202 69.96 125.941 69.8878 125.592 69.8878C125.274 69.8878 125.036 69.951 124.88 70.0772C124.729 70.1975 124.654 70.3568 124.654 70.5552C124.654 70.7836 124.744 70.946 124.925 71.0422C125.105 71.1323 125.433 71.2255 125.908 71.3217C126.196 71.3818 126.422 71.439 126.584 71.4931C126.752 71.5412 126.927 71.6193 127.107 71.7275C127.288 71.8297 127.42 71.968 127.504 72.1424C127.588 72.3167 127.63 72.5332 127.63 72.7917C127.63 73.2486 127.462 73.6003 127.125 73.8468C126.789 74.0873 126.344 74.2075 125.791 74.2075ZM130.591 74.1985C129.9 74.1985 129.349 73.9671 128.941 73.5041C128.538 73.0352 128.336 72.449 128.336 71.7456C128.336 71.0542 128.541 70.474 128.95 70.0051C129.364 69.5301 129.897 69.2926 130.546 69.2926C131.231 69.2926 131.76 69.5331 132.133 70.0141C132.506 70.489 132.692 71.1233 132.692 71.9169H129.085C129.115 72.4099 129.259 72.8127 129.518 73.1254C129.782 73.432 130.14 73.5853 130.591 73.5853C131.288 73.5853 131.718 73.2666 131.881 72.6294H132.593C132.485 73.1284 132.256 73.5161 131.908 73.7927C131.559 74.0632 131.12 74.1985 130.591 74.1985ZM131.52 70.2666C131.285 70.0021 130.961 69.8698 130.546 69.8698C130.131 69.8698 129.8 70.0081 129.554 70.2846C129.313 70.5612 129.163 70.9219 129.103 71.3668H131.908C131.884 70.8979 131.754 70.5311 131.52 70.2666ZM134.317 69.4099V70.1854H134.335C134.486 69.9389 134.681 69.7405 134.922 69.5902C135.162 69.4339 135.43 69.3558 135.724 69.3558C135.832 69.3558 135.932 69.3738 136.022 69.4099V70.1133H135.995C135.905 70.0832 135.796 70.0682 135.67 70.0682C135.297 70.0682 134.979 70.2005 134.714 70.465C134.45 70.7235 134.317 71.0632 134.317 71.484V74.0723H133.587V69.4099H134.317ZM140.693 74.2075C140.073 74.2075 139.584 73.958 139.223 73.459H139.205V74.0723H138.474V67.6243H139.205V70.0772H139.223C139.602 69.5602 140.101 69.3016 140.72 69.3016C141.321 69.3016 141.802 69.5211 142.163 69.96C142.523 70.3928 142.704 70.9911 142.704 71.7546C142.704 72.5061 142.523 73.1043 142.163 73.5492C141.808 73.9881 141.318 74.2075 140.693 74.2075ZM140.639 73.5943C141.072 73.5943 141.399 73.429 141.622 73.0983C141.844 72.7616 141.955 72.3167 141.955 71.7636C141.955 71.2165 141.844 70.7746 141.622 70.4379C141.399 70.0952 141.075 69.9239 140.648 69.9239C140.161 69.9239 139.791 70.0983 139.538 70.447C139.286 70.7896 139.16 71.2285 139.16 71.7636C139.16 72.3107 139.286 72.7526 139.538 73.0893C139.791 73.426 140.158 73.5943 140.639 73.5943ZM147.274 74.1174C146.811 74.1174 146.544 73.8859 146.472 73.423H146.463C146.078 73.916 145.561 74.1624 144.911 74.1624C144.449 74.1624 144.07 74.0512 143.775 73.8288C143.481 73.6063 143.333 73.2847 143.333 72.8638C143.333 72.6474 143.366 72.461 143.433 72.3047C143.505 72.1424 143.595 72.0131 143.703 71.9169C143.811 71.8147 143.959 71.7275 144.145 71.6554C144.337 71.5772 144.521 71.5201 144.695 71.484C144.869 71.442 145.092 71.3999 145.362 71.3578C145.537 71.3337 145.66 71.3157 145.732 71.3037C145.81 71.2856 145.909 71.2616 146.03 71.2315C146.15 71.1955 146.234 71.1564 146.282 71.1143C146.33 71.0722 146.375 71.0151 146.418 70.943C146.46 70.8708 146.481 70.7866 146.481 70.6904C146.481 70.4259 146.387 70.2245 146.201 70.0862C146.021 69.9419 145.765 69.8698 145.435 69.8698C144.683 69.8698 144.295 70.2125 144.271 70.8979H143.568C143.58 70.4229 143.742 70.0411 144.055 69.7526C144.373 69.464 144.83 69.3197 145.426 69.3197C146.574 69.3197 147.148 69.8127 147.148 70.7987V73.0171C147.148 73.2216 147.181 73.3658 147.247 73.45C147.319 73.5342 147.452 73.5552 147.644 73.5131H147.671V74.0452C147.551 74.0933 147.419 74.1174 147.274 74.1174ZM145.074 73.6033C145.525 73.6033 145.873 73.4741 146.12 73.2155C146.366 72.951 146.49 72.6624 146.49 72.3498V71.5562C146.267 71.6945 145.913 71.8087 145.426 71.8989C145.245 71.935 145.104 71.965 145.002 71.9891C144.899 72.0071 144.782 72.0432 144.65 72.0973C144.518 72.1454 144.418 72.1995 144.352 72.2596C144.286 72.3197 144.229 72.4009 144.181 72.5031C144.133 72.5993 144.109 72.7135 144.109 72.8458C144.109 73.3508 144.431 73.6033 145.074 73.6033ZM150.158 74.2075C149.521 74.2075 149.025 74.0663 148.67 73.7837C148.321 73.4951 148.129 73.0863 148.093 72.5572H148.841C148.925 73.2486 149.37 73.5943 150.176 73.5943C150.543 73.5943 150.813 73.5252 150.988 73.3869C151.168 73.2426 151.258 73.0562 151.258 72.8278C151.258 72.5813 151.171 72.4039 150.997 72.2957C150.822 72.1875 150.504 72.0853 150.041 71.9891C149.848 71.947 149.695 71.9139 149.581 71.8899C149.473 71.8598 149.34 71.8207 149.184 71.7726C149.028 71.7185 148.904 71.6614 148.814 71.6013C148.73 71.5351 148.643 71.457 148.553 71.3668C148.463 71.2766 148.396 71.1654 148.354 71.0331C148.318 70.9009 148.3 70.7536 148.3 70.5912C148.3 70.1944 148.445 69.8818 148.733 69.6534C149.028 69.4249 149.443 69.3107 149.978 69.3107C151.084 69.3107 151.694 69.7976 151.808 70.7716H151.06C151.024 70.465 150.918 70.2425 150.744 70.1043C150.57 69.96 150.308 69.8878 149.96 69.8878C149.641 69.8878 149.403 69.951 149.247 70.0772C149.097 70.1975 149.022 70.3568 149.022 70.5552C149.022 70.7836 149.112 70.946 149.292 71.0422C149.473 71.1323 149.8 71.2255 150.275 71.3217C150.564 71.3818 150.789 71.439 150.952 71.4931C151.12 71.5412 151.294 71.6193 151.475 71.7275C151.655 71.8297 151.787 71.968 151.871 72.1424C151.956 72.3167 151.998 72.5332 151.998 72.7917C151.998 73.2486 151.829 73.6003 151.493 73.8468C151.156 74.0873 150.711 74.2075 150.158 74.2075ZM154.958 74.1985C154.267 74.1985 153.717 73.9671 153.308 73.5041C152.905 73.0352 152.704 72.449 152.704 71.7456C152.704 71.0542 152.908 70.474 153.317 70.0051C153.732 69.5301 154.264 69.2926 154.913 69.2926C155.599 69.2926 156.128 69.5331 156.5 70.0141C156.873 70.489 157.06 71.1233 157.06 71.9169H153.452C153.482 72.4099 153.627 72.8127 153.885 73.1254C154.15 73.432 154.507 73.5853 154.958 73.5853C155.656 73.5853 156.086 73.2666 156.248 72.6294H156.96C156.852 73.1284 156.624 73.5161 156.275 73.7927C155.926 74.0632 155.487 74.1985 154.958 74.1985ZM155.887 70.2666C155.653 70.0021 155.328 69.8698 154.913 69.8698C154.498 69.8698 154.168 70.0081 153.921 70.2846C153.681 70.5612 153.53 70.9219 153.47 71.3668H156.275C156.251 70.8979 156.122 70.5311 155.887 70.2666ZM157.767 74.0723V73.1795H158.642V74.0723H157.767Z" fill="#070B0E"/>
<path d="M0 27.1333H235V2.81829C235 1.26185 233.738 0.000104904 232.182 0.000104904H2.81817C1.26173 0.000104904 0 1.26185 0 2.81829V27.1333Z" fill="#15D2D6"/>
<path d="M90.2379 18.4826C89.2352 19.592 87.9019 20.1466 86.2379 20.1466C84.5739 20.1466 83.2352 19.592 82.2219 18.4826C81.2192 17.3626 80.7179 15.9333 80.7179 14.1946C80.7179 12.456 81.2192 11.0266 82.2219 9.90662C83.2352 8.78662 84.5739 8.22662 86.2379 8.22662C87.9019 8.22662 89.2352 8.78662 90.2379 9.90662C91.2406 11.0266 91.7419 12.456 91.7419 14.1946C91.7419 15.9333 91.2406 17.3626 90.2379 18.4826ZM83.9019 17.1066C84.4566 17.864 85.2406 18.2426 86.2539 18.2426C87.2672 18.2426 88.0406 17.8693 88.5739 17.1226C89.1072 16.3653 89.3739 15.3893 89.3739 14.1946C89.3739 13 89.1072 12.024 88.5739 11.2666C88.0406 10.5093 87.2672 10.1306 86.2539 10.1306C85.2406 10.1306 84.4566 10.5093 83.9019 11.2666C83.3579 12.024 83.0859 13 83.0859 14.1946C83.0859 15.3786 83.3579 16.3493 83.9019 17.1066ZM93.3308 19.8906V8.45062H98.3548C99.6561 8.45062 100.653 8.80796 101.347 9.52262C102.029 10.2266 102.371 11.096 102.371 12.1306C102.371 13.2186 102.029 14.0933 101.347 14.7546C100.664 15.416 99.7308 15.7466 98.5468 15.7466H95.7308V19.8906H93.3308ZM95.7308 10.4666V13.8586H98.1308C98.7281 13.8586 99.1868 13.7093 99.5068 13.4106C99.8268 13.1013 99.9868 12.68 99.9868 12.1466C99.9868 11.6133 99.8268 11.2026 99.5068 10.9146C99.1868 10.616 98.7388 10.4666 98.1628 10.4666H95.7308ZM103.838 19.8906V8.45062H108.862C110.164 8.45062 111.161 8.80796 111.854 9.52262C112.537 10.2266 112.878 11.096 112.878 12.1306C112.878 13.2186 112.537 14.0933 111.854 14.7546C111.172 15.416 110.238 15.7466 109.054 15.7466H106.238V19.8906H103.838ZM106.238 10.4666V13.8586H108.638C109.236 13.8586 109.694 13.7093 110.014 13.4106C110.334 13.1013 110.494 12.68 110.494 12.1466C110.494 11.6133 110.334 11.2026 110.014 10.9146C109.694 10.616 109.246 10.4666 108.67 10.4666H106.238ZM123.526 18.4826C122.523 19.592 121.19 20.1466 119.526 20.1466C117.862 20.1466 116.523 19.592 115.51 18.4826C114.507 17.3626 114.006 15.9333 114.006 14.1946C114.006 12.456 114.507 11.0266 115.51 9.90662C116.523 8.78662 117.862 8.22662 119.526 8.22662C121.19 8.22662 122.523 8.78662 123.526 9.90662C124.529 11.0266 125.03 12.456 125.03 14.1946C125.03 15.9333 124.529 17.3626 123.526 18.4826ZM117.19 17.1066C117.745 17.864 118.529 18.2426 119.542 18.2426C120.555 18.2426 121.329 17.8693 121.862 17.1226C122.395 16.3653 122.662 15.3893 122.662 14.1946C122.662 13 122.395 12.024 121.862 11.2666C121.329 10.5093 120.555 10.1306 119.542 10.1306C118.529 10.1306 117.745 10.5093 117.19 11.2666C116.646 12.024 116.374 13 116.374 14.1946C116.374 15.3786 116.646 16.3493 117.19 17.1066ZM126.619 19.8906V8.45062H131.867C132.966 8.45062 133.851 8.74396 134.523 9.33062C135.206 9.91729 135.547 10.6853 135.547 11.6346C135.547 13.096 134.848 14.0186 133.451 14.4026V14.4506C133.995 14.6106 134.4 14.8666 134.667 15.2186C134.944 15.56 135.12 16.072 135.195 16.7546C135.216 17.0106 135.238 17.3146 135.259 17.6666C135.291 18.008 135.312 18.28 135.323 18.4826C135.344 18.6853 135.366 18.888 135.387 19.0906C135.419 19.2933 135.456 19.4533 135.499 19.5706C135.552 19.6773 135.616 19.7466 135.691 19.7786V19.8906H133.467C133.424 19.8693 133.387 19.832 133.355 19.7786C133.323 19.7146 133.296 19.6293 133.275 19.5226C133.254 19.416 133.232 19.3093 133.211 19.2026C133.2 19.0853 133.184 18.9413 133.163 18.7706C133.152 18.5893 133.142 18.4346 133.131 18.3066C133.12 18.168 133.104 17.992 133.083 17.7786C133.072 17.5546 133.062 17.3786 133.051 17.2506C132.955 15.9493 132.208 15.2986 130.811 15.2986H128.939V19.8906H126.619ZM128.939 10.3226V13.5066H131.403C132.011 13.5066 132.475 13.3626 132.795 13.0746C133.126 12.7866 133.291 12.408 133.291 11.9386C133.291 11.4586 133.136 11.0693 132.827 10.7706C132.518 10.472 132.064 10.3226 131.467 10.3226H128.939ZM136.613 10.4026V8.45062H145.813V10.4026H142.373V19.8906H140.053V10.4026H136.613ZM151.722 20.0826C150.25 20.0826 149.13 19.752 148.362 19.0906C147.594 18.4186 147.21 17.4586 147.21 16.2106V8.45062H149.53V16.2106C149.53 17.5546 150.244 18.2266 151.674 18.2266C152.388 18.2266 152.927 18.04 153.29 17.6666C153.652 17.2933 153.834 16.7973 153.834 16.1786V8.45062H156.154V16.2106C156.154 17.448 155.775 18.4026 155.018 19.0746C154.271 19.7466 153.172 20.0826 151.722 20.0826ZM158.141 19.8906V8.45062H160.493L164.301 14.8346C164.408 15.016 164.525 15.24 164.653 15.5066C164.792 15.7733 164.899 15.9973 164.973 16.1786L165.101 16.4346H165.133C165.091 15.6453 165.069 14.984 165.069 14.4506V8.45062H167.357V19.8906H165.117L161.213 13.5706C161.107 13.3893 160.984 13.1706 160.845 12.9146C160.707 12.648 160.6 12.424 160.525 12.2426L160.397 11.9866H160.365C160.408 12.7866 160.429 13.4533 160.429 13.9866V19.8906H158.141ZM169.446 19.8906V8.45062H171.766V19.8906H169.446ZM173.268 10.4026V8.45062H182.468V10.4026H179.028V19.8906H176.708V10.4026H173.268ZM183.977 19.8906V8.45062H186.297V19.8906H183.977ZM188.39 19.8906V8.45062H196.806V10.4026H190.71V12.9626H196.054V14.8666H190.71V17.9546H196.854V19.8906H188.39ZM202.97 20.1466C201.424 20.1466 200.224 19.8213 199.37 19.1706C198.517 18.5093 198.069 17.5706 198.026 16.3546H200.298C200.373 17.0373 200.613 17.528 201.018 17.8266C201.434 18.1253 202.053 18.2746 202.874 18.2746C203.525 18.2746 204.058 18.1573 204.474 17.9226C204.89 17.6773 205.098 17.304 205.098 16.8026C205.098 16.6213 205.072 16.4613 205.018 16.3226C204.976 16.1733 204.88 16.0453 204.73 15.9386C204.581 15.8213 204.453 15.7306 204.346 15.6666C204.24 15.592 204.042 15.5173 203.754 15.4426C203.466 15.3573 203.248 15.2986 203.098 15.2666C202.949 15.224 202.672 15.1546 202.266 15.0586C201.776 14.9413 201.37 14.84 201.05 14.7546C200.741 14.6693 200.394 14.536 200.01 14.3546C199.637 14.1733 199.338 13.976 199.114 13.7626C198.901 13.5386 198.72 13.2506 198.57 12.8986C198.421 12.536 198.346 12.1253 198.346 11.6666C198.346 10.568 198.746 9.72529 199.546 9.13862C200.357 8.54129 201.418 8.24262 202.73 8.24262C204.032 8.24262 205.072 8.55196 205.85 9.17062C206.629 9.78929 207.061 10.6693 207.146 11.8106H204.922C204.858 11.256 204.624 10.8293 204.218 10.5306C203.824 10.232 203.322 10.0826 202.714 10.0826C202.085 10.0826 201.584 10.2053 201.21 10.4506C200.837 10.696 200.65 11.0213 200.65 11.4266C200.65 11.864 200.832 12.184 201.194 12.3866C201.568 12.5893 202.218 12.792 203.146 12.9946C203.701 13.112 204.154 13.224 204.506 13.3306C204.858 13.4266 205.237 13.5706 205.642 13.7626C206.058 13.944 206.378 14.1466 206.602 14.3706C206.837 14.5946 207.029 14.8933 207.178 15.2666C207.338 15.6293 207.418 16.0506 207.418 16.5306C207.418 17.6613 207.008 18.5466 206.186 19.1866C205.365 19.8266 204.293 20.1466 202.97 20.1466Z" fill="#171A1E"/>
</svg>
