<svg width="235" height="156" viewBox="0 0 235 156" fill="none" xmlns="http://www.w3.org/2000/svg">
<path d="M0.5 152.182C0.5 153.738 1.76174 155 3.31818 155H231.682C233.238 155 234.5 153.738 234.5 152.182V27.0545H0.5V152.182Z" fill="#D9D9D9" stroke="#15D2D6"/>
<path d="M16.4331 43.8989C16.2287 44.1033 15.9792 44.2055 15.6846 44.2055C15.39 44.2055 15.1375 44.1033 14.9271 43.8989C14.7166 43.6885 14.6114 43.436 14.6114 43.1414C14.6114 42.8468 14.7166 42.5943 14.9271 42.3838C15.1375 42.1734 15.39 42.0682 15.6846 42.0682C15.9792 42.0682 16.2287 42.1734 16.4331 42.3838C16.6435 42.5943 16.7487 42.8468 16.7487 43.1414C16.7487 43.436 16.6435 43.6885 16.4331 43.8989ZM28.0967 46.0723L27.8622 45.2246H27.8442C27.3753 45.8799 26.7049 46.2075 25.8332 46.2075C24.9313 46.2075 24.2009 45.8979 23.6417 45.2787C23.0826 44.6594 22.803 43.8568 22.803 42.8708C22.803 41.8848 23.0736 41.0762 23.6147 40.4449C24.1618 39.8076 24.9253 39.489 25.9053 39.489C26.6388 39.489 27.231 39.6754 27.6819 40.0481C28.1388 40.4149 28.4214 40.9199 28.5296 41.5632H27.6909C27.6007 41.1243 27.4023 40.7876 27.0957 40.5531C26.7891 40.3127 26.3863 40.1924 25.8873 40.1924C25.1418 40.1924 24.5796 40.4389 24.2009 40.9319C23.8221 41.4249 23.6327 42.0712 23.6327 42.8708C23.6327 43.6584 23.8401 44.2957 24.255 44.7827C24.6698 45.2636 25.2049 45.5041 25.8602 45.5041C26.4915 45.5041 26.9724 45.3177 27.3031 44.945C27.6398 44.5722 27.8081 44.0973 27.8081 43.5201V43.3668H25.8692V42.6634H28.6198V46.0723H28.0967ZM29.8389 46.0723V39.6243H30.5694V46.0723H29.8389ZM35.3965 45.4951C34.9877 45.964 34.4436 46.1985 33.7642 46.1985C33.0848 46.1985 32.5377 45.964 32.1229 45.4951C31.7141 45.0262 31.5097 44.443 31.5097 43.7456C31.5097 43.0482 31.7141 42.465 32.1229 41.996C32.5377 41.5271 33.0848 41.2926 33.7642 41.2926C34.4436 41.2926 34.9877 41.5271 35.3965 41.996C35.8053 42.465 36.0097 43.0482 36.0097 43.7456C36.0097 44.443 35.8053 45.0262 35.3965 45.4951ZM32.646 45.0712C32.9105 45.4139 33.2832 45.5853 33.7642 45.5853C34.2452 45.5853 34.6149 45.4139 34.8735 45.0712C35.132 44.7225 35.2612 44.2807 35.2612 43.7456C35.2612 43.2045 35.129 42.7626 34.8644 42.4199C34.6059 42.0712 34.2392 41.8968 33.7642 41.8968C33.2832 41.8968 32.9105 42.0712 32.646 42.4199C32.3874 42.7686 32.2582 43.2105 32.2582 43.7456C32.2582 44.2807 32.3874 44.7225 32.646 45.0712ZM39.1371 46.2075C38.5178 46.2075 38.0278 45.958 37.6671 45.459H37.6491V46.0723H36.9186V39.6243H37.6491V42.0772H37.6671C38.0459 41.5602 38.5449 41.3016 39.1641 41.3016C39.7653 41.3016 40.2463 41.5211 40.607 41.96C40.9678 42.3928 41.1481 42.9911 41.1481 43.7546C41.1481 44.5061 40.9678 45.1043 40.607 45.5492C40.2523 45.9881 39.7623 46.2075 39.1371 46.2075ZM39.083 45.5943C39.5158 45.5943 39.8435 45.429 40.066 45.0983C40.2884 44.7616 40.3996 44.3167 40.3996 43.7636C40.3996 43.2165 40.2884 42.7746 40.066 42.4379C39.8435 42.0952 39.5189 41.9239 39.092 41.9239C38.605 41.9239 38.2353 42.0983 37.9828 42.447C37.7302 42.7896 37.604 43.2285 37.604 43.7636C37.604 44.3107 37.7302 44.7526 37.9828 45.0893C38.2353 45.426 38.602 45.5943 39.083 45.5943ZM45.7186 46.1174C45.2557 46.1174 44.9881 45.8859 44.916 45.423H44.907C44.5222 45.916 44.0051 46.1624 43.3558 46.1624C42.8929 46.1624 42.5141 46.0512 42.2195 45.8288C41.9249 45.6063 41.7777 45.2847 41.7777 44.8638C41.7777 44.6474 41.8107 44.461 41.8769 44.3047C41.949 44.1424 42.0392 44.0131 42.1474 43.9169C42.2556 43.8147 42.4029 43.7275 42.5893 43.6554C42.7817 43.5772 42.965 43.5201 43.1394 43.484C43.3137 43.442 43.5362 43.3999 43.8067 43.3578C43.9811 43.3337 44.1043 43.3157 44.1765 43.3037C44.2546 43.2856 44.3538 43.2616 44.4741 43.2315C44.5943 43.1955 44.6785 43.1564 44.7266 43.1143C44.7747 43.0722 44.8198 43.0151 44.8619 42.943C44.904 42.8708 44.925 42.7866 44.925 42.6904C44.925 42.4259 44.8318 42.2245 44.6454 42.0862C44.4651 41.9419 44.2096 41.8698 43.8789 41.8698C43.1274 41.8698 42.7396 42.2125 42.7155 42.8979H42.0121C42.0241 42.4229 42.1865 42.0411 42.4991 41.7526C42.8177 41.464 43.2747 41.3197 43.8699 41.3197C45.0182 41.3197 45.5923 41.8127 45.5923 42.7987V45.0171C45.5923 45.2216 45.6254 45.3658 45.6915 45.45C45.7637 45.5342 45.896 45.5552 46.0883 45.5131H46.1154V46.0452C45.9952 46.0933 45.8629 46.1174 45.7186 46.1174ZM43.5182 45.6033C43.9691 45.6033 44.3178 45.4741 44.5643 45.2155C44.8108 44.951 44.934 44.6624 44.934 44.3498V43.5562C44.7116 43.6945 44.3569 43.8087 43.8699 43.8989C43.6895 43.935 43.5482 43.965 43.446 43.9891C43.3438 44.0071 43.2266 44.0432 43.0943 44.0973C42.962 44.1454 42.8628 44.1995 42.7967 44.2596C42.7306 44.3197 42.6735 44.4009 42.6254 44.5031C42.5773 44.5993 42.5532 44.7135 42.5532 44.8458C42.5532 45.3508 42.8749 45.6033 43.5182 45.6033ZM46.8618 46.0723V39.6243H47.5923V46.0723H46.8618ZM50.5182 46.0723V39.6243H55.0724V40.3367H51.3298V42.3748H54.7297V43.0602H51.3298V45.3238H55.1806V46.0723H50.5182ZM55.7584 46.0723L57.5169 43.6283L55.9658 41.4099H56.8135L57.9227 43.1053H57.9408L59.0951 41.4099H59.8977L58.3646 43.5472L60.1863 46.0723H59.3296L57.9498 44.0702H57.9317L56.579 46.0723H55.7584ZM60.9161 47.5693V41.4099H61.6466V42.0682H61.6646C62.0434 41.5572 62.5424 41.3016 63.1617 41.3016C63.7629 41.3016 64.2469 41.5211 64.6136 41.96C64.9803 42.3928 65.1637 42.9911 65.1637 43.7546C65.1637 44.5061 64.9833 45.1043 64.6226 45.5492C64.2619 45.9881 63.7659 46.2075 63.1346 46.2075C62.5093 46.2075 62.0194 45.9791 61.6646 45.5222H61.6466V47.5693H60.9161ZM63.0805 45.5943C63.5134 45.5943 63.844 45.426 64.0725 45.0893C64.301 44.7526 64.4152 44.3107 64.4152 43.7636C64.4152 43.2165 64.301 42.7746 64.0725 42.4379C63.844 42.0952 63.5164 41.9239 63.0895 41.9239C62.6025 41.9239 62.2328 42.0983 61.9803 42.447C61.7278 42.7896 61.6015 43.2285 61.6015 43.7636C61.6015 44.3107 61.7218 44.7526 61.9622 45.0893C62.2027 45.426 62.5755 45.5943 63.0805 45.5943ZM69.7337 46.1174C69.2708 46.1174 69.0033 45.8859 68.9311 45.423H68.9221C68.5373 45.916 68.0203 46.1624 67.371 46.1624C66.908 46.1624 66.5293 46.0512 66.2347 45.8288C65.9401 45.6063 65.7928 45.2847 65.7928 44.8638C65.7928 44.6474 65.8259 44.461 65.892 44.3047C65.9641 44.1424 66.0543 44.0131 66.1625 43.9169C66.2708 43.8147 66.418 43.7275 66.6044 43.6554C66.7968 43.5772 66.9802 43.5201 67.1545 43.484C67.3289 43.442 67.5513 43.3999 67.8219 43.3578C67.9962 43.3337 68.1195 43.3157 68.1916 43.3037C68.2698 43.2856 68.369 43.2616 68.4892 43.2315C68.6095 43.1955 68.6936 43.1564 68.7417 43.1143C68.7898 43.0722 68.8349 43.0151 68.877 42.943C68.9191 42.8708 68.9401 42.7866 68.9401 42.6904C68.9401 42.4259 68.8469 42.2245 68.6606 42.0862C68.4802 41.9419 68.2247 41.8698 67.894 41.8698C67.1425 41.8698 66.7547 42.2125 66.7307 42.8979H66.0273C66.0393 42.4229 66.2016 42.0411 66.5142 41.7526C66.8329 41.464 67.2898 41.3197 67.885 41.3197C69.0333 41.3197 69.6075 41.8127 69.6075 42.7987V45.0171C69.6075 45.2216 69.6405 45.3658 69.7067 45.45C69.7788 45.5342 69.9111 45.5552 70.1035 45.5131H70.1305V46.0452C70.0103 46.0933 69.878 46.1174 69.7337 46.1174ZM67.5333 45.6033C67.9842 45.6033 68.3329 45.4741 68.5794 45.2155C68.8259 44.951 68.9492 44.6624 68.9492 44.3498V43.5562C68.7267 43.6945 68.372 43.8087 67.885 43.8989C67.7046 43.935 67.5634 43.965 67.4612 43.9891C67.3589 44.0071 67.2417 44.0432 67.1094 44.0973C66.9772 44.1454 66.878 44.1995 66.8118 44.2596C66.7457 44.3197 66.6886 44.4009 66.6405 44.5031C66.5924 44.5993 66.5684 44.7135 66.5684 44.8458C66.5684 45.3508 66.89 45.6033 67.5333 45.6033ZM71.5803 41.4099V42.0231H71.5984C71.9591 41.5421 72.4521 41.3016 73.0774 41.3016C73.5704 41.3016 73.9551 41.4309 74.2317 41.6894C74.5083 41.9479 74.6465 42.3177 74.6465 42.7987V46.0723H73.9161V42.8618C73.9161 42.5612 73.8229 42.3297 73.6365 42.1674C73.4501 41.9991 73.1916 41.9149 72.8609 41.9149C72.4882 41.9149 72.1816 42.0351 71.9411 42.2756C71.7006 42.5161 71.5803 42.8257 71.5803 43.2045V46.0723H70.8499V41.4099H71.5803ZM77.5623 46.2075C76.925 46.2075 76.429 46.0663 76.0743 45.7837C75.7256 45.4951 75.5332 45.0863 75.4971 44.5572H76.2456C76.3298 45.2486 76.7747 45.5943 77.5803 45.5943C77.9471 45.5943 78.2176 45.5252 78.392 45.3869C78.5723 45.2426 78.6625 45.0562 78.6625 44.8278C78.6625 44.5813 78.5753 44.4039 78.401 44.2957C78.2266 44.1875 77.908 44.0853 77.4451 43.9891C77.2527 43.947 77.0994 43.9139 76.9851 43.8899C76.8769 43.8598 76.7446 43.8207 76.5883 43.7726C76.432 43.7185 76.3088 43.6614 76.2186 43.6013C76.1344 43.5351 76.0472 43.457 75.9571 43.3668C75.8669 43.2766 75.8007 43.1654 75.7587 43.0331C75.7226 42.9009 75.7045 42.7536 75.7045 42.5912C75.7045 42.1944 75.8488 41.8818 76.1374 41.6534C76.432 41.4249 76.8469 41.3107 77.3819 41.3107C78.4882 41.3107 79.0984 41.7976 79.2126 42.7716H78.4641C78.428 42.465 78.3228 42.2425 78.1485 42.1043C77.9741 41.96 77.7126 41.8878 77.3639 41.8878C77.0453 41.8878 76.8078 41.951 76.6515 42.0772C76.5012 42.1975 76.426 42.3568 76.426 42.5552C76.426 42.7836 76.5162 42.946 76.6965 43.0422C76.8769 43.1323 77.2046 43.2255 77.6795 43.3217C77.9681 43.3818 78.1936 43.439 78.3559 43.4931C78.5242 43.5412 78.6986 43.6193 78.8789 43.7275C79.0593 43.8297 79.1916 43.968 79.2757 44.1424C79.3599 44.3167 79.402 44.5332 79.402 44.7917C79.402 45.2486 79.2337 45.6003 78.897 45.8468C78.5603 46.0873 78.1154 46.2075 77.5623 46.2075ZM80.2816 46.0723V41.4099H81.0121V46.0723H80.2816ZM80.2816 40.5261V39.6243H81.0121V40.5261H80.2816ZM85.8134 45.4951C85.4046 45.964 84.8605 46.1985 84.1811 46.1985C83.5018 46.1985 82.9547 45.964 82.5398 45.4951C82.131 45.0262 81.9266 44.443 81.9266 43.7456C81.9266 43.0482 82.131 42.465 82.5398 41.996C82.9547 41.5271 83.5018 41.2926 84.1811 41.2926C84.8605 41.2926 85.4046 41.5271 85.8134 41.996C86.2223 42.465 86.4267 43.0482 86.4267 43.7456C86.4267 44.443 86.2223 45.0262 85.8134 45.4951ZM83.0629 45.0712C83.3274 45.4139 83.7002 45.5853 84.1811 45.5853C84.6621 45.5853 85.0319 45.4139 85.2904 45.0712C85.5489 44.7225 85.6782 44.2807 85.6782 43.7456C85.6782 43.2045 85.5459 42.7626 85.2814 42.4199C85.0228 42.0712 84.6561 41.8968 84.1811 41.8968C83.7002 41.8968 83.3274 42.0712 83.0629 42.4199C82.8044 42.7686 82.6751 43.2105 82.6751 43.7456C82.6751 44.2807 82.8044 44.7225 83.0629 45.0712ZM88.066 41.4099V42.0231H88.084C88.4448 41.5421 88.9378 41.3016 89.563 41.3016C90.056 41.3016 90.4408 41.4309 90.7174 41.6894C90.9939 41.9479 91.1322 42.3177 91.1322 42.7987V46.0723H90.4017V42.8618C90.4017 42.5612 90.3085 42.3297 90.1222 42.1674C89.9358 41.9991 89.6773 41.9149 89.3466 41.9149C88.9738 41.9149 88.6672 42.0351 88.4267 42.2756C88.1863 42.5161 88.066 42.8257 88.066 43.2045V46.0723H87.3355V41.4099H88.066ZM16.4331 57.8989C16.2287 58.1033 15.9792 58.2055 15.6846 58.2055C15.39 58.2055 15.1375 58.1033 14.9271 57.8989C14.7166 57.6885 14.6114 57.436 14.6114 57.1414C14.6114 56.8468 14.7166 56.5943 14.9271 56.3838C15.1375 56.1734 15.39 56.0682 15.6846 56.0682C15.9792 56.0682 16.2287 56.1734 16.4331 56.3838C16.6435 56.5943 16.7487 56.8468 16.7487 57.1414C16.7487 57.436 16.6435 57.6885 16.4331 57.8989ZM23.0465 60.0723V53.6243H25.3913C26.3352 53.6243 27.0476 53.9159 27.5286 54.499C28.0095 55.0822 28.25 55.8728 28.25 56.8708C28.25 57.8628 28.0005 58.6444 27.5015 59.2155C27.0025 59.7867 26.278 60.0723 25.3281 60.0723H23.0465ZM23.8582 59.3598H25.3011C26.7139 59.3598 27.4204 58.5302 27.4204 56.8708C27.4204 55.1754 26.735 54.3277 25.3642 54.3277H23.8582V59.3598ZM32.9088 59.4951C32.4999 59.964 31.9558 60.1985 31.2765 60.1985C30.5971 60.1985 30.05 59.964 29.6352 59.4951C29.2263 59.0262 29.0219 58.443 29.0219 57.7456C29.0219 57.0482 29.2263 56.465 29.6352 55.996C30.05 55.5271 30.5971 55.2926 31.2765 55.2926C31.9558 55.2926 32.4999 55.5271 32.9088 55.996C33.3176 56.465 33.522 57.0482 33.522 57.7456C33.522 58.443 33.3176 59.0262 32.9088 59.4951ZM30.1582 59.0712C30.4227 59.4139 30.7955 59.5853 31.2765 59.5853C31.7574 59.5853 32.1272 59.4139 32.3857 59.0712C32.6442 58.7225 32.7735 58.2807 32.7735 57.7456C32.7735 57.2045 32.6412 56.7626 32.3767 56.4199C32.1182 56.0712 31.7514 55.8968 31.2765 55.8968C30.7955 55.8968 30.4227 56.0712 30.1582 56.4199C29.8997 56.7686 29.7704 57.2105 29.7704 57.7456C29.7704 58.2807 29.8997 58.7225 30.1582 59.0712ZM36.7772 55.4099V56.0231H36.7952C37.156 55.5421 37.649 55.3016 38.2742 55.3016C38.7672 55.3016 39.152 55.4309 39.4286 55.6894C39.7051 55.9479 39.8434 56.3177 39.8434 56.7987V60.0723H39.1129V56.8618C39.1129 56.5612 39.0197 56.3297 38.8334 56.1674C38.647 55.9991 38.3885 55.9149 38.0578 55.9149C37.685 55.9149 37.3784 56.0351 37.1379 56.2756C36.8975 56.5161 36.7772 56.8257 36.7772 57.2045V60.0723H36.0467V55.4099H36.7772ZM44.6169 59.4951C44.2081 59.964 43.664 60.1985 42.9846 60.1985C42.3052 60.1985 41.7581 59.964 41.3433 59.4951C40.9345 59.0262 40.7301 58.443 40.7301 57.7456C40.7301 57.0482 40.9345 56.465 41.3433 55.996C41.7581 55.5271 42.3052 55.2926 42.9846 55.2926C43.664 55.2926 44.2081 55.5271 44.6169 55.996C45.0257 56.465 45.2301 57.0482 45.2301 57.7456C45.2301 58.443 45.0257 59.0262 44.6169 59.4951ZM41.8664 59.0712C42.1309 59.4139 42.5036 59.5853 42.9846 59.5853C43.4656 59.5853 43.8353 59.4139 44.0938 59.0712C44.3524 58.7225 44.4816 58.2807 44.4816 57.7456C44.4816 57.2045 44.3494 56.7626 44.0848 56.4199C43.8263 56.0712 43.4596 55.8968 42.9846 55.8968C42.5036 55.8968 42.1309 56.0712 41.8664 56.4199C41.6078 56.7686 41.4786 57.2105 41.4786 57.7456C41.4786 58.2807 41.6078 58.7225 41.8664 59.0712ZM45.7533 56.0051V55.4099H46.4297V53.9399H47.1602V55.4099H48.062V56.0051H47.1602V59.0352C47.1602 59.3238 47.3165 59.468 47.6291 59.468C47.7614 59.468 47.8906 59.447 48.0169 59.4049H48.0439V60.0362C47.8455 60.0783 47.6502 60.0993 47.4578 60.0993C46.7724 60.0993 46.4297 59.7987 46.4297 59.1975V56.0051H45.7533ZM50.6125 61.5693V55.4099H51.343V56.0682H51.361C51.7398 55.5572 52.2388 55.3016 52.858 55.3016C53.4592 55.3016 53.9432 55.5211 54.31 55.96C54.6767 56.3928 54.8601 56.9911 54.8601 57.7546C54.8601 58.5061 54.6797 59.1043 54.319 59.5492C53.9583 59.9881 53.4623 60.2075 52.831 60.2075C52.2057 60.2075 51.7157 59.9791 51.361 59.5222H51.343V61.5693H50.6125ZM52.7769 59.5943C53.2097 59.5943 53.5404 59.426 53.7689 59.0893C53.9973 58.7526 54.1116 58.3107 54.1116 57.7636C54.1116 57.2165 53.9973 56.7746 53.7689 56.4379C53.5404 56.0952 53.2128 55.9239 52.7859 55.9239C52.2989 55.9239 51.9292 56.0983 51.6767 56.447C51.4241 56.7896 51.2979 57.2285 51.2979 57.7636C51.2979 58.3107 51.4181 58.7526 51.6586 59.0893C51.8991 59.426 52.2719 59.5943 52.7769 59.5943ZM56.4992 55.4099V56.1854H56.5172C56.6675 55.9389 56.8629 55.7405 57.1034 55.5902C57.3439 55.4339 57.6114 55.3558 57.906 55.3558C58.0143 55.3558 58.1135 55.3738 58.2036 55.4099V56.1133H58.1766C58.0864 56.0832 57.9782 56.0682 57.8519 56.0682C57.4792 56.0682 57.1605 56.2005 56.896 56.465C56.6315 56.7235 56.4992 57.0632 56.4992 57.484V60.0723H55.7687V55.4099H56.4992ZM62.4895 59.4951C62.0806 59.964 61.5365 60.1985 60.8572 60.1985C60.1778 60.1985 59.6307 59.964 59.2159 59.4951C58.807 59.0262 58.6026 58.443 58.6026 57.7456C58.6026 57.0482 58.807 56.465 59.2159 55.996C59.6307 55.5271 60.1778 55.2926 60.8572 55.2926C61.5365 55.2926 62.0806 55.5271 62.4895 55.996C62.8983 56.465 63.1027 57.0482 63.1027 57.7456C63.1027 58.443 62.8983 59.0262 62.4895 59.4951ZM59.7389 59.0712C60.0034 59.4139 60.3762 59.5853 60.8572 59.5853C61.3381 59.5853 61.7079 59.4139 61.9664 59.0712C62.2249 58.7225 62.3542 58.2807 62.3542 57.7456C62.3542 57.2045 62.2219 56.7626 61.9574 56.4199C61.6989 56.0712 61.3321 55.8968 60.8572 55.8968C60.3762 55.8968 60.0034 56.0712 59.7389 56.4199C59.4804 56.7686 59.3511 57.2105 59.3511 57.7456C59.3511 58.2807 59.4804 58.7225 59.7389 59.0712ZM64.0116 61.5693V55.4099H64.742V56.0682H64.7601C65.1388 55.5572 65.6378 55.3016 66.2571 55.3016C66.8583 55.3016 67.3423 55.5211 67.709 55.96C68.0758 56.3928 68.2591 56.9911 68.2591 57.7546C68.2591 58.5061 68.0788 59.1043 67.718 59.5492C67.3573 59.9881 66.8613 60.2075 66.23 60.2075C65.6048 60.2075 65.1148 59.9791 64.7601 59.5222H64.742V61.5693H64.0116ZM66.1759 59.5943C66.6088 59.5943 66.9395 59.426 67.1679 59.0893C67.3964 58.7526 67.5106 58.3107 67.5106 57.7636C67.5106 57.2165 67.3964 56.7746 67.1679 56.4379C66.9395 56.0952 66.6118 55.9239 66.1849 55.9239C65.698 55.9239 65.3282 56.0983 65.0757 56.447C64.8232 56.7896 64.6969 57.2285 64.6969 57.7636C64.6969 58.3107 64.8172 58.7526 65.0577 59.0893C65.2982 59.426 65.6709 59.5943 66.1759 59.5943ZM71.1608 60.1985C70.4694 60.1985 69.9193 59.9671 69.5105 59.5041C69.1077 59.0352 68.9062 58.449 68.9062 57.7456C68.9062 57.0542 69.1107 56.474 69.5195 56.0051C69.9343 55.5301 70.4664 55.2926 71.1157 55.2926C71.8011 55.2926 72.3301 55.5331 72.7029 56.0141C73.0757 56.489 73.262 57.1233 73.262 57.9169H69.6548C69.6848 58.4099 69.8291 58.8127 70.0876 59.1254C70.3522 59.432 70.7099 59.5853 71.1608 59.5853C71.8582 59.5853 72.2881 59.2666 72.4504 58.6294H73.1628C73.0546 59.1284 72.8261 59.5161 72.4774 59.7927C72.1287 60.0632 71.6899 60.1985 71.1608 60.1985ZM72.0897 56.2666C71.8552 56.0021 71.5305 55.8698 71.1157 55.8698C70.7009 55.8698 70.3702 56.0081 70.1237 56.2846C69.8832 56.5612 69.7329 56.9219 69.6728 57.3668H72.4774C72.4534 56.8979 72.3241 56.5311 72.0897 56.2666ZM74.8871 55.4099V56.1854H74.9052C75.0555 55.9389 75.2509 55.7405 75.4914 55.5902C75.7318 55.4339 75.9994 55.3558 76.294 55.3558C76.4022 55.3558 76.5014 55.3738 76.5916 55.4099V56.1133H76.5645C76.4743 56.0832 76.3661 56.0682 76.2399 56.0682C75.8671 56.0682 75.5485 56.2005 75.2839 56.465C75.0194 56.7235 74.8871 57.0632 74.8871 57.484V60.0723H74.1567V55.4099H74.8871ZM77.4553 60.0723V53.6243H78.1857V60.0723H77.4553ZM79.9828 61.6144C79.7062 61.6144 79.4868 61.5813 79.3244 61.5152V60.8659H79.3605C79.4807 60.932 79.6461 60.9651 79.8565 60.9651C80.0188 60.9651 80.1541 60.923 80.2623 60.8388C80.3705 60.7607 80.4667 60.6134 80.5509 60.3969L80.7313 59.937L78.9096 55.4099H79.7032L80.8034 58.3137L81.119 59.2246H81.1371C81.2453 58.8759 81.3475 58.5722 81.4437 58.3137L82.5078 55.4099H83.2834L81.2904 60.451C81.11 60.908 80.9237 61.2146 80.7313 61.3709C80.5389 61.5332 80.2894 61.6144 79.9828 61.6144ZM89.2213 59.4951C88.8125 59.964 88.2684 60.1985 87.589 60.1985C86.9097 60.1985 86.3626 59.964 85.9477 59.4951C85.5389 59.0262 85.3345 58.443 85.3345 57.7456C85.3345 57.0482 85.5389 56.465 85.9477 55.996C86.3626 55.5271 86.9097 55.2926 87.589 55.2926C88.2684 55.2926 88.8125 55.5271 89.2213 55.996C89.6301 56.465 89.8346 57.0482 89.8346 57.7456C89.8346 58.443 89.6301 59.0262 89.2213 59.4951ZM86.4708 59.0712C86.7353 59.4139 87.1081 59.5853 87.589 59.5853C88.07 59.5853 88.4397 59.4139 88.6983 59.0712C88.9568 58.7225 89.0861 58.2807 89.0861 57.7456C89.0861 57.2045 88.9538 56.7626 88.6893 56.4199C88.4307 56.0712 88.064 55.8968 87.589 55.8968C87.1081 55.8968 86.7353 56.0712 86.4708 56.4199C86.2123 56.7686 86.083 57.2105 86.083 57.7456C86.083 58.2807 86.2123 58.7225 86.4708 59.0712ZM90.7434 61.5693V55.4099H91.4739V56.0682H91.4919C91.8707 55.5572 92.3697 55.3016 92.9889 55.3016C93.5902 55.3016 94.0741 55.5211 94.4409 55.96C94.8076 56.3928 94.991 56.9911 94.991 57.7546C94.991 58.5061 94.8106 59.1043 94.4499 59.5492C94.0892 59.9881 93.5932 60.2075 92.9619 60.2075C92.3366 60.2075 91.8466 59.9791 91.4919 59.5222H91.4739V61.5693H90.7434ZM92.9078 59.5943C93.3407 59.5943 93.6713 59.426 93.8998 59.0893C94.1282 58.7526 94.2425 58.3107 94.2425 57.7636C94.2425 57.2165 94.1282 56.7746 93.8998 56.4379C93.6713 56.0952 93.3437 55.9239 92.9168 55.9239C92.4298 55.9239 92.0601 56.0983 91.8076 56.447C91.5551 56.7896 91.4288 57.2285 91.4288 57.7636C91.4288 58.3107 91.549 58.7526 91.7895 59.0893C92.03 59.426 92.4028 59.5943 92.9078 59.5943ZM95.4699 56.0051V55.4099H96.1463V53.9399H96.8768V55.4099H97.7786V56.0051H96.8768V59.0352C96.8768 59.3238 97.0331 59.468 97.3457 59.468C97.478 59.468 97.6072 59.447 97.7335 59.4049H97.7606V60.0362C97.5622 60.0783 97.3668 60.0993 97.1744 60.0993C96.489 60.0993 96.1463 59.7987 96.1463 59.1975V56.0051H95.4699ZM98.7132 60.0723V55.4099H99.4437V60.0723H98.7132ZM98.7132 54.5261V53.6243H99.4437V54.5261H98.7132ZM100.62 60.0723V55.4099H101.35V56.0772H101.368C101.519 55.8427 101.714 55.6564 101.954 55.5181C102.195 55.3738 102.456 55.3016 102.739 55.3016C103.346 55.3016 103.752 55.5782 103.956 56.1313H103.975C104.119 55.8728 104.32 55.6714 104.579 55.5271C104.837 55.3768 105.111 55.3016 105.399 55.3016C105.826 55.3016 106.169 55.4339 106.427 55.6984C106.686 55.957 106.815 56.3237 106.815 56.7987V60.0723H106.085V56.8347C106.085 56.5522 106.001 56.3297 105.832 56.1674C105.67 55.9991 105.469 55.9149 105.228 55.9149C104.921 55.9149 104.654 56.0351 104.425 56.2756C104.197 56.5161 104.083 56.8137 104.083 57.1684V60.0723H103.352V56.8347C103.352 56.5522 103.277 56.3297 103.127 56.1674C102.983 55.9991 102.79 55.9149 102.55 55.9149C102.249 55.9149 101.972 56.0381 101.72 56.2846C101.473 56.5251 101.35 56.8197 101.35 57.1684V60.0723H100.62ZM107.96 60.0723V55.4099H108.691V60.0723H107.96ZM107.96 54.5261V53.6243H108.691V54.5261H107.96ZM109.677 60.0723V59.4951L112.274 56.0772V56.0502H109.83V55.4099H113.293V55.8427L110.615 59.3779V59.4049H113.393V60.0723H109.677ZM116.109 60.1985C115.417 60.1985 114.867 59.9671 114.458 59.5041C114.056 59.0352 113.854 58.449 113.854 57.7456C113.854 57.0542 114.059 56.474 114.467 56.0051C114.882 55.5301 115.414 55.2926 116.064 55.2926C116.749 55.2926 117.278 55.5331 117.651 56.0141C118.024 56.489 118.21 57.1233 118.21 57.9169H114.603C114.633 58.4099 114.777 58.8127 115.036 59.1254C115.3 59.432 115.658 59.5853 116.109 59.5853C116.806 59.5853 117.236 59.2666 117.398 58.6294H118.111C118.003 59.1284 117.774 59.5161 117.425 59.7927C117.077 60.0632 116.638 60.1985 116.109 60.1985ZM117.038 56.2666C116.803 56.0021 116.478 55.8698 116.064 55.8698C115.649 55.8698 115.318 56.0081 115.072 56.2846C114.831 56.5612 114.681 56.9219 114.621 57.3668H117.425C117.401 56.8979 117.272 56.5311 117.038 56.2666ZM118.753 60.0723L121.314 53.6243H122.072L119.51 60.0723H118.753ZM125.879 60.1174C125.416 60.1174 125.148 59.8859 125.076 59.423H125.067C124.683 59.916 124.166 60.1624 123.516 60.1624C123.053 60.1624 122.675 60.0512 122.38 59.8288C122.085 59.6063 121.938 59.2847 121.938 58.8638C121.938 58.6474 121.971 58.461 122.037 58.3047C122.109 58.1424 122.2 58.0131 122.308 57.9169C122.416 57.8147 122.563 57.7275 122.75 57.6554C122.942 57.5772 123.125 57.5201 123.3 57.484C123.474 57.442 123.697 57.3999 123.967 57.3578C124.141 57.3337 124.265 57.3157 124.337 57.3037C124.415 57.2856 124.514 57.2616 124.634 57.2315C124.755 57.1955 124.839 57.1564 124.887 57.1143C124.935 57.0722 124.98 57.0151 125.022 56.943C125.064 56.8708 125.085 56.7866 125.085 56.6904C125.085 56.4259 124.992 56.2245 124.806 56.0862C124.625 55.9419 124.37 55.8698 124.039 55.8698C123.288 55.8698 122.9 56.2125 122.876 56.8979H122.172C122.185 56.4229 122.347 56.0411 122.659 55.7526C122.978 55.464 123.435 55.3197 124.03 55.3197C125.179 55.3197 125.753 55.8127 125.753 56.7987V59.0171C125.753 59.2216 125.786 59.3658 125.852 59.45C125.924 59.5342 126.056 59.5552 126.249 59.5131H126.276V60.0452C126.156 60.0933 126.023 60.1174 125.879 60.1174ZM123.679 59.6033C124.129 59.6033 124.478 59.4741 124.725 59.2155C124.971 58.951 125.094 58.6624 125.094 58.3498V57.5562C124.872 57.6945 124.517 57.8087 124.03 57.8989C123.85 57.935 123.709 57.965 123.606 57.9891C123.504 58.0071 123.387 58.0432 123.255 58.0973C123.122 58.1454 123.023 58.1995 122.957 58.2596C122.891 58.3197 122.834 58.4009 122.786 58.5031C122.738 58.5993 122.714 58.7135 122.714 58.8458C122.714 59.3508 123.035 59.6033 123.679 59.6033ZM128.988 60.1985C128.309 60.1985 127.762 59.964 127.347 59.4951C126.938 59.0262 126.734 58.443 126.734 57.7456C126.734 57.0482 126.938 56.465 127.347 55.996C127.762 55.5271 128.309 55.2926 128.988 55.2926C129.535 55.2926 129.983 55.4399 130.332 55.7345C130.681 56.0231 130.897 56.4169 130.981 56.9159H130.242C130.188 56.5973 130.052 56.3478 129.836 56.1674C129.619 55.987 129.337 55.8968 128.988 55.8968C128.507 55.8968 128.134 56.0712 127.87 56.4199C127.611 56.7686 127.482 57.2105 127.482 57.7456C127.482 58.2807 127.611 58.7225 127.87 59.0712C128.134 59.4139 128.507 59.5853 128.988 59.5853C129.361 59.5853 129.658 59.4861 129.881 59.2877C130.103 59.0833 130.23 58.7977 130.26 58.431H130.981C130.933 58.9901 130.735 59.426 130.386 59.7386C130.037 60.0452 129.571 60.1985 128.988 60.1985ZM133.845 60.1985C133.166 60.1985 132.618 59.964 132.204 59.4951C131.795 59.0262 131.59 58.443 131.59 57.7456C131.59 57.0482 131.795 56.465 132.204 55.996C132.618 55.5271 133.166 55.2926 133.845 55.2926C134.392 55.2926 134.84 55.4399 135.189 55.7345C135.537 56.0231 135.754 56.4169 135.838 56.9159H135.098C135.044 56.5973 134.909 56.3478 134.693 56.1674C134.476 55.987 134.194 55.8968 133.845 55.8968C133.364 55.8968 132.991 56.0712 132.727 56.4199C132.468 56.7686 132.339 57.2105 132.339 57.7456C132.339 58.2807 132.468 58.7225 132.727 59.0712C132.991 59.4139 133.364 59.5853 133.845 59.5853C134.218 59.5853 134.515 59.4861 134.738 59.2877C134.96 59.0833 135.086 58.7977 135.116 58.431H135.838C135.79 58.9901 135.591 59.426 135.243 59.7386C134.894 60.0452 134.428 60.1985 133.845 60.1985ZM140.334 59.4951C139.925 59.964 139.381 60.1985 138.702 60.1985C138.022 60.1985 137.475 59.964 137.06 59.4951C136.652 59.0262 136.447 58.443 136.447 57.7456C136.447 57.0482 136.652 56.465 137.06 55.996C137.475 55.5271 138.022 55.2926 138.702 55.2926C139.381 55.2926 139.925 55.5271 140.334 55.996C140.743 56.465 140.947 57.0482 140.947 57.7456C140.947 58.443 140.743 59.0262 140.334 59.4951ZM137.583 59.0712C137.848 59.4139 138.221 59.5853 138.702 59.5853C139.183 59.5853 139.552 59.4139 139.811 59.0712C140.069 58.7225 140.199 58.2807 140.199 57.7456C140.199 57.2045 140.066 56.7626 139.802 56.4199C139.543 56.0712 139.177 55.8968 138.702 55.8968C138.221 55.8968 137.848 56.0712 137.583 56.4199C137.325 56.7686 137.196 57.2105 137.196 57.7456C137.196 58.2807 137.325 58.7225 137.583 59.0712ZM145.554 60.0723H144.823V59.432H144.805C144.438 59.931 143.969 60.1805 143.398 60.1805C142.917 60.1805 142.535 60.0452 142.253 59.7747C141.97 59.4981 141.829 59.1193 141.829 58.6384V55.4099H142.56V58.6203C142.56 58.9209 142.65 59.1554 142.83 59.3238C143.016 59.4921 143.275 59.5763 143.606 59.5763C143.972 59.5763 144.267 59.453 144.489 59.2065C144.712 58.96 144.823 58.6504 144.823 58.2776V55.4099H145.554V60.0723ZM147.452 55.4099V56.0231H147.47C147.831 55.5421 148.324 55.3016 148.949 55.3016C149.442 55.3016 149.827 55.4309 150.103 55.6894C150.38 55.9479 150.518 56.3177 150.518 56.7987V60.0723H149.788V56.8618C149.788 56.5612 149.695 56.3297 149.508 56.1674C149.322 55.9991 149.063 55.9149 148.733 55.9149C148.36 55.9149 148.053 56.0351 147.813 56.2756C147.572 56.5161 147.452 56.8257 147.452 57.2045V60.0723H146.722V55.4099H147.452ZM151.281 56.0051V55.4099H151.957V53.9399H152.688V55.4099H153.59V56.0051H152.688V59.0352C152.688 59.3238 152.844 59.468 153.157 59.468C153.289 59.468 153.418 59.447 153.544 59.4049H153.571V60.0362C153.373 60.0783 153.178 60.0993 152.985 60.0993C152.3 60.0993 151.957 59.7987 151.957 59.1975V56.0051H151.281ZM155.842 56.0051V55.4099H156.483V54.6614C156.483 54.2766 156.588 54 156.798 53.8317C157.009 53.6573 157.315 53.5702 157.718 53.5702C157.832 53.5702 157.956 53.5762 158.088 53.5882V54.2104C158.004 54.2044 157.926 54.2014 157.853 54.2014C157.619 54.2014 157.454 54.2375 157.357 54.3096C157.261 54.3818 157.213 54.5111 157.213 54.6974V55.4099H158.079V56.0051H157.213V60.0723H156.483V56.0051H155.842ZM162.464 59.4951C162.056 59.964 161.512 60.1985 160.832 60.1985C160.153 60.1985 159.606 59.964 159.191 59.4951C158.782 59.0262 158.578 58.443 158.578 57.7456C158.578 57.0482 158.782 56.465 159.191 55.996C159.606 55.5271 160.153 55.2926 160.832 55.2926C161.512 55.2926 162.056 55.5271 162.464 55.996C162.873 56.465 163.078 57.0482 163.078 57.7456C163.078 58.443 162.873 59.0262 162.464 59.4951ZM159.714 59.0712C159.978 59.4139 160.351 59.5853 160.832 59.5853C161.313 59.5853 161.683 59.4139 161.941 59.0712C162.2 58.7225 162.329 58.2807 162.329 57.7456C162.329 57.2045 162.197 56.7626 161.932 56.4199C161.674 56.0712 161.307 55.8968 160.832 55.8968C160.351 55.8968 159.978 56.0712 159.714 56.4199C159.455 56.7686 159.326 57.2105 159.326 57.7456C159.326 58.2807 159.455 58.7225 159.714 59.0712ZM164.717 55.4099V56.1854H164.735C164.885 55.9389 165.081 55.7405 165.321 55.5902C165.562 55.4339 165.829 55.3558 166.124 55.3558C166.232 55.3558 166.331 55.3738 166.421 55.4099V56.1133H166.394C166.304 56.0832 166.196 56.0682 166.07 56.0682C165.697 56.0682 165.378 56.2005 165.114 56.465C164.849 56.7235 164.717 57.0632 164.717 57.484V60.0723H163.987V55.4099H164.717ZM170.642 60.2075C170.004 60.2075 169.508 60.0663 169.154 59.7837C168.805 59.4951 168.612 59.0863 168.576 58.5572H169.325C169.409 59.2486 169.854 59.5943 170.66 59.5943C171.026 59.5943 171.297 59.5252 171.471 59.3869C171.652 59.2426 171.742 59.0562 171.742 58.8278C171.742 58.5813 171.655 58.4039 171.48 58.2957C171.306 58.1875 170.987 58.0853 170.524 57.9891C170.332 57.947 170.179 57.9139 170.064 57.8899C169.956 57.8598 169.824 57.8207 169.668 57.7726C169.511 57.7185 169.388 57.6614 169.298 57.6013C169.214 57.5351 169.127 57.457 169.036 57.3668C168.946 57.2766 168.88 57.1654 168.838 57.0331C168.802 56.9009 168.784 56.7536 168.784 56.5912C168.784 56.1944 168.928 55.8818 169.217 55.6534C169.511 55.4249 169.926 55.3107 170.461 55.3107C171.567 55.3107 172.178 55.7976 172.292 56.7716H171.543C171.507 56.465 171.402 56.2425 171.228 56.1043C171.053 55.96 170.792 55.8878 170.443 55.8878C170.125 55.8878 169.887 55.951 169.731 56.0772C169.58 56.1975 169.505 56.3568 169.505 56.5552C169.505 56.7836 169.595 56.946 169.776 57.0422C169.956 57.1323 170.284 57.2255 170.759 57.3217C171.047 57.3818 171.273 57.439 171.435 57.4931C171.604 57.5412 171.778 57.6193 171.958 57.7275C172.139 57.8297 172.271 57.968 172.355 58.1424C172.439 58.3167 172.481 58.5332 172.481 58.7917C172.481 59.2486 172.313 59.6003 171.976 59.8468C171.64 60.0873 171.195 60.2075 170.642 60.2075ZM173.361 60.0723V55.4099H174.091V56.0772H174.109C174.26 55.8427 174.455 55.6564 174.696 55.5181C174.936 55.3738 175.198 55.3016 175.48 55.3016C176.087 55.3016 176.493 55.5782 176.698 56.1313H176.716C176.86 55.8728 177.061 55.6714 177.32 55.5271C177.578 55.3768 177.852 55.3016 178.141 55.3016C178.567 55.3016 178.91 55.4339 179.169 55.6984C179.427 55.957 179.556 56.3237 179.556 56.7987V60.0723H178.826V56.8347C178.826 56.5522 178.742 56.3297 178.573 56.1674C178.411 55.9991 178.21 55.9149 177.969 55.9149C177.663 55.9149 177.395 56.0351 177.167 56.2756C176.938 56.5161 176.824 56.8137 176.824 57.1684V60.0723H176.093V56.8347C176.093 56.5522 176.018 56.3297 175.868 56.1674C175.724 55.9991 175.531 55.9149 175.291 55.9149C174.99 55.9149 174.714 56.0381 174.461 56.2846C174.215 56.5251 174.091 56.8197 174.091 57.1684V60.0723H173.361ZM184.363 60.1174C183.9 60.1174 183.632 59.8859 183.56 59.423H183.551C183.166 59.916 182.649 60.1624 182 60.1624C181.537 60.1624 181.158 60.0512 180.864 59.8288C180.569 59.6063 180.422 59.2847 180.422 58.8638C180.422 58.6474 180.455 58.461 180.521 58.3047C180.593 58.1424 180.683 58.0131 180.791 57.9169C180.9 57.8147 181.047 57.7275 181.233 57.6554C181.426 57.5772 181.609 57.5201 181.783 57.484C181.958 57.442 182.18 57.3999 182.451 57.3578C182.625 57.3337 182.748 57.3157 182.82 57.3037C182.899 57.2856 182.998 57.2616 183.118 57.2315C183.238 57.1955 183.322 57.1564 183.371 57.1143C183.419 57.0722 183.464 57.0151 183.506 56.943C183.548 56.8708 183.569 56.7866 183.569 56.6904C183.569 56.4259 183.476 56.2245 183.289 56.0862C183.109 55.9419 182.854 55.8698 182.523 55.8698C181.771 55.8698 181.384 56.2125 181.36 56.8979H180.656C180.668 56.4229 180.83 56.0411 181.143 55.7526C181.462 55.464 181.919 55.3197 182.514 55.3197C183.662 55.3197 184.236 55.8127 184.236 56.7987V59.0171C184.236 59.2216 184.269 59.3658 184.336 59.45C184.408 59.5342 184.54 59.5552 184.732 59.5131H184.759V60.0452C184.639 60.0933 184.507 60.1174 184.363 60.1174ZM182.162 59.6033C182.613 59.6033 182.962 59.4741 183.208 59.2155C183.455 58.951 183.578 58.6624 183.578 58.3498V57.5562C183.356 57.6945 183.001 57.8087 182.514 57.8989C182.333 57.935 182.192 57.965 182.09 57.9891C181.988 58.0071 181.871 58.0432 181.738 58.0973C181.606 58.1454 181.507 58.1995 181.441 58.2596C181.375 58.3197 181.317 58.4009 181.269 58.5031C181.221 58.5993 181.197 58.7135 181.197 58.8458C181.197 59.3508 181.519 59.6033 182.162 59.6033ZM185.506 60.0723V53.6243H186.236V60.0723H185.506ZM187.465 60.0723V53.6243H188.196V60.0723H187.465ZM25.1568 74.2075C24.5375 74.2075 24.0475 73.958 23.6868 73.459H23.6688V74.0723H22.9383V67.6243H23.6688V70.0772H23.6868C24.0656 69.5602 24.5646 69.3016 25.1838 69.3016C25.7851 69.3016 26.266 69.5211 26.6268 69.96C26.9875 70.3928 27.1678 70.9911 27.1678 71.7546C27.1678 72.5061 26.9875 73.1043 26.6268 73.5492C26.272 73.9881 25.782 74.2075 25.1568 74.2075ZM25.1027 73.5943C25.5356 73.5943 25.8632 73.429 26.0857 73.0983C26.3081 72.7616 26.4193 72.3167 26.4193 71.7636C26.4193 71.2165 26.3081 70.7746 26.0857 70.4379C25.8632 70.0952 25.5386 69.9239 25.1117 69.9239C24.6247 69.9239 24.255 70.0983 24.0025 70.447C23.7499 70.7896 23.6237 71.2285 23.6237 71.7636C23.6237 72.3107 23.7499 72.7526 24.0025 73.0893C24.255 73.426 24.6217 73.5943 25.1027 73.5943ZM31.7744 74.0723H31.0439V73.432H31.0259C30.6591 73.931 30.1902 74.1805 29.619 74.1805C29.1381 74.1805 28.7563 74.0452 28.4737 73.7747C28.1911 73.4981 28.0499 73.1193 28.0499 72.6384V69.4099H28.7803V72.6203C28.7803 72.9209 28.8705 73.1554 29.0509 73.3238C29.2373 73.4921 29.4958 73.5763 29.8264 73.5763C30.1932 73.5763 30.4878 73.453 30.7102 73.2065C30.9327 72.96 31.0439 72.6504 31.0439 72.2776V69.4099H31.7744V74.0723ZM34.7101 74.2075C34.0728 74.2075 33.5768 74.0663 33.2221 73.7837C32.8734 73.4951 32.681 73.0863 32.6449 72.5572H33.3934C33.4776 73.2486 33.9225 73.5943 34.7281 73.5943C35.0948 73.5943 35.3654 73.5252 35.5397 73.3869C35.7201 73.2426 35.8103 73.0562 35.8103 72.8278C35.8103 72.5813 35.7231 72.4039 35.5488 72.2957C35.3744 72.1875 35.0558 72.0853 34.5928 71.9891C34.4004 71.947 34.2471 71.9139 34.1329 71.8899C34.0247 71.8598 33.8924 71.8207 33.7361 71.7726C33.5798 71.7185 33.4565 71.6614 33.3664 71.6013C33.2822 71.5351 33.195 71.457 33.1048 71.3668C33.0147 71.2766 32.9485 71.1654 32.9064 71.0331C32.8704 70.9009 32.8523 70.7536 32.8523 70.5912C32.8523 70.1944 32.9966 69.8818 33.2852 69.6534C33.5798 69.4249 33.9946 69.3107 34.5297 69.3107C35.6359 69.3107 36.2462 69.7976 36.3604 70.7716H35.6119C35.5758 70.465 35.4706 70.2425 35.2963 70.1043C35.1219 69.96 34.8604 69.8878 34.5117 69.8878C34.193 69.8878 33.9555 69.951 33.7992 70.0772C33.6489 70.1975 33.5738 70.3568 33.5738 70.5552C33.5738 70.7836 33.664 70.946 33.8443 71.0422C34.0247 71.1323 34.3523 71.2255 34.8273 71.3217C35.1159 71.3818 35.3413 71.439 35.5037 71.4931C35.672 71.5412 35.8464 71.6193 36.0267 71.7275C36.2071 71.8297 36.3394 71.968 36.4235 72.1424C36.5077 72.3167 36.5498 72.5332 36.5498 72.7917C36.5498 73.2486 36.3814 73.6003 36.0448 73.8468C35.7081 74.0873 35.2632 74.2075 34.7101 74.2075ZM37.4294 74.0723V69.4099H38.1599V74.0723H37.4294ZM37.4294 68.5261V67.6243H38.1599V68.5261H37.4294ZM40.0664 69.4099V70.0231H40.0844C40.4451 69.5421 40.9381 69.3016 41.5634 69.3016C42.0564 69.3016 42.4412 69.4309 42.7177 69.6894C42.9943 69.9479 43.1326 70.3177 43.1326 70.7987V74.0723H42.4021V70.8618C42.4021 70.5612 42.3089 70.3297 42.1225 70.1674C41.9361 69.9991 41.6776 69.9149 41.347 69.9149C40.9742 69.9149 40.6676 70.0351 40.4271 70.2756C40.1866 70.5161 40.0664 70.8257 40.0664 71.2045V74.0723H39.3359V69.4099H40.0664ZM46.2738 74.1985C45.5824 74.1985 45.0323 73.9671 44.6235 73.5041C44.2206 73.0352 44.0192 72.449 44.0192 71.7456C44.0192 71.0542 44.2236 70.474 44.6325 70.0051C45.0473 69.5301 45.5794 69.2926 46.2287 69.2926C46.9141 69.2926 47.4431 69.5331 47.8159 70.0141C48.1886 70.489 48.375 71.1233 48.375 71.9169H44.7677C44.7978 72.4099 44.9421 72.8127 45.2006 73.1254C45.4651 73.432 45.8229 73.5853 46.2738 73.5853C46.9712 73.5853 47.4011 73.2666 47.5634 72.6294H48.2758C48.1676 73.1284 47.9391 73.5161 47.5904 73.7927C47.2417 74.0632 46.8028 74.1985 46.2738 74.1985ZM47.2027 70.2666C46.9682 70.0021 46.6435 69.8698 46.2287 69.8698C45.8139 69.8698 45.4832 70.0081 45.2367 70.2846C44.9962 70.5612 44.8459 70.9219 44.7858 71.3668H47.5904C47.5664 70.8979 47.4371 70.5311 47.2027 70.2666ZM51.0372 74.2075C50.3999 74.2075 49.9039 74.0663 49.5492 73.7837C49.2005 73.4951 49.0081 73.0863 48.972 72.5572H49.7206C49.8047 73.2486 50.2496 73.5943 51.0552 73.5943C51.422 73.5943 51.6925 73.5252 51.8669 73.3869C52.0472 73.2426 52.1374 73.0562 52.1374 72.8278C52.1374 72.5813 52.0503 72.4039 51.8759 72.2957C51.7016 72.1875 51.3829 72.0853 50.92 71.9891C50.7276 71.947 50.5743 71.9139 50.46 71.8899C50.3518 71.8598 50.2196 71.8207 50.0632 71.7726C49.9069 71.7185 49.7837 71.6614 49.6935 71.6013C49.6093 71.5351 49.5222 71.457 49.432 71.3668C49.3418 71.2766 49.2757 71.1654 49.2336 71.0331C49.1975 70.9009 49.1795 70.7536 49.1795 70.5912C49.1795 70.1944 49.3238 69.8818 49.6123 69.6534C49.9069 69.4249 50.3218 69.3107 50.8568 69.3107C51.9631 69.3107 52.5733 69.7976 52.6875 70.7716H51.939C51.903 70.465 51.7977 70.2425 51.6234 70.1043C51.449 69.96 51.1875 69.8878 50.8388 69.8878C50.5202 69.8878 50.2827 69.951 50.1264 70.0772C49.9761 70.1975 49.9009 70.3568 49.9009 70.5552C49.9009 70.7836 49.9911 70.946 50.1715 71.0422C50.3518 71.1323 50.6795 71.2255 51.1544 71.3217C51.443 71.3818 51.6685 71.439 51.8308 71.4931C51.9992 71.5412 52.1735 71.6193 52.3539 71.7275C52.5342 71.8297 52.6665 71.968 52.7507 72.1424C52.8348 72.3167 52.8769 72.5332 52.8769 72.7917C52.8769 73.2486 52.7086 73.6003 52.3719 73.8468C52.0352 74.0873 51.5903 74.2075 51.0372 74.2075ZM55.5241 74.2075C54.8868 74.2075 54.3908 74.0663 54.0361 73.7837C53.6874 73.4951 53.495 73.0863 53.4589 72.5572H54.2075C54.2916 73.2486 54.7365 73.5943 55.5421 73.5943C55.9089 73.5943 56.1794 73.5252 56.3538 73.3869C56.5341 73.2426 56.6243 73.0562 56.6243 72.8278C56.6243 72.5813 56.5372 72.4039 56.3628 72.2957C56.1884 72.1875 55.8698 72.0853 55.4069 71.9891C55.2145 71.947 55.0612 71.9139 54.9469 71.8899C54.8387 71.8598 54.7065 71.8207 54.5501 71.7726C54.3938 71.7185 54.2706 71.6614 54.1804 71.6013C54.0962 71.5351 54.0091 71.457 53.9189 71.3668C53.8287 71.2766 53.7626 71.1654 53.7205 71.0331C53.6844 70.9009 53.6664 70.7536 53.6664 70.5912C53.6664 70.1944 53.8107 69.8818 54.0992 69.6534C54.3938 69.4249 54.8087 69.3107 55.3437 69.3107C56.45 69.3107 57.0602 69.7976 57.1744 70.7716H56.4259C56.3899 70.465 56.2846 70.2425 56.1103 70.1043C55.9359 69.96 55.6744 69.8878 55.3257 69.8878C55.0071 69.8878 54.7696 69.951 54.6133 70.0772C54.463 70.1975 54.3878 70.3568 54.3878 70.5552C54.3878 70.7836 54.478 70.946 54.6584 71.0422C54.8387 71.1323 55.1664 71.2255 55.6413 71.3217C55.9299 71.3818 56.1554 71.439 56.3177 71.4931C56.486 71.5412 56.6604 71.6193 56.8408 71.7275C57.0211 71.8297 57.1534 71.968 57.2376 72.1424C57.3217 72.3167 57.3638 72.5332 57.3638 72.7917C57.3638 73.2486 57.1955 73.6003 56.8588 73.8468C56.5221 74.0873 56.0772 74.2075 55.5241 74.2075ZM60.3245 74.1985C59.6331 74.1985 59.083 73.9671 58.6742 73.5041C58.2714 73.0352 58.07 72.449 58.07 71.7456C58.07 71.0542 58.2744 70.474 58.6832 70.0051C59.0981 69.5301 59.6301 69.2926 60.2794 69.2926C60.9648 69.2926 61.4939 69.5331 61.8666 70.0141C62.2394 70.489 62.4258 71.1233 62.4258 71.9169H58.8185C58.8486 72.4099 58.9928 72.8127 59.2514 73.1254C59.5159 73.432 59.8736 73.5853 60.3245 73.5853C61.0219 73.5853 61.4518 73.2666 61.6141 72.6294H62.3266C62.2183 73.1284 61.9899 73.5161 61.6412 73.7927C61.2925 74.0632 60.8536 74.1985 60.3245 74.1985ZM61.2534 70.2666C61.0189 70.0021 60.6943 69.8698 60.2794 69.8698C59.8646 69.8698 59.5339 70.0081 59.2874 70.2846C59.047 70.5612 58.8966 70.9219 58.8365 71.3668H61.6412C61.6171 70.8979 61.4879 70.5311 61.2534 70.2666ZM65.088 74.2075C64.4507 74.2075 63.9547 74.0663 63.6 73.7837C63.2513 73.4951 63.0589 73.0863 63.0228 72.5572H63.7713C63.8555 73.2486 64.3004 73.5943 65.106 73.5943C65.4727 73.5943 65.7433 73.5252 65.9176 73.3869C66.098 73.2426 66.1882 73.0562 66.1882 72.8278C66.1882 72.5813 66.101 72.4039 65.9267 72.2957C65.7523 72.1875 65.4337 72.0853 64.9707 71.9891C64.7783 71.947 64.625 71.9139 64.5108 71.8899C64.4026 71.8598 64.2703 71.8207 64.114 71.7726C63.9577 71.7185 63.8344 71.6614 63.7443 71.6013C63.6601 71.5351 63.5729 71.457 63.4827 71.3668C63.3925 71.2766 63.3264 71.1654 63.2843 71.0331C63.2483 70.9009 63.2302 70.7536 63.2302 70.5912C63.2302 70.1944 63.3745 69.8818 63.6631 69.6534C63.9577 69.4249 64.3725 69.3107 64.9076 69.3107C66.0138 69.3107 66.6241 69.7976 66.7383 70.7716H65.9898C65.9537 70.465 65.8485 70.2425 65.6741 70.1043C65.4998 69.96 65.2383 69.8878 64.8896 69.8878C64.5709 69.8878 64.3334 69.951 64.1771 70.0772C64.0268 70.1975 63.9517 70.3568 63.9517 70.5552C63.9517 70.7836 64.0419 70.946 64.2222 71.0422C64.4026 71.1323 64.7302 71.2255 65.2052 71.3217C65.4938 71.3818 65.7192 71.439 65.8816 71.4931C66.0499 71.5412 66.2243 71.6193 66.4046 71.7275C66.585 71.8297 66.7172 71.968 66.8014 72.1424C66.8856 72.3167 66.9277 72.5332 66.9277 72.7917C66.9277 73.2486 66.7593 73.6003 66.4227 73.8468C66.086 74.0873 65.6411 74.2075 65.088 74.2075ZM70.4422 74.0723L68.9632 69.4099H69.7478L70.5685 72.2867L70.821 73.2877H70.839C70.9292 72.8789 71.0074 72.5512 71.0735 72.3047L71.8581 69.4099H72.6246L73.3822 72.3047L73.6076 73.2877H73.6256C73.7218 72.8789 73.809 72.5452 73.8872 72.2867L74.7529 69.4099H75.5104L73.9864 74.0723H73.2379L72.4623 71.2496L72.2368 70.2756H72.2188C72.1346 70.6664 72.0565 70.9911 71.9843 71.2496L71.1998 74.0723H70.4422ZM76.9567 67.6243V70.0231H76.9748C77.3355 69.5421 77.8285 69.3016 78.4538 69.3016C78.9467 69.3016 79.3315 69.4309 79.6081 69.6894C79.8846 69.9479 80.0229 70.3177 80.0229 70.7987V74.0723H79.2924V70.8618C79.2924 70.5612 79.1993 70.3297 79.0129 70.1674C78.8265 69.9991 78.568 69.9149 78.2373 69.9149C77.8646 69.9149 77.5579 70.0351 77.3175 70.2756C77.077 70.5161 76.9567 70.8257 76.9567 71.2045V74.0723H76.2263V67.6243H76.9567ZM84.7964 73.4951C84.3876 73.964 83.8435 74.1985 83.1641 74.1985C82.4848 74.1985 81.9377 73.964 81.5228 73.4951C81.114 73.0262 80.9096 72.443 80.9096 71.7456C80.9096 71.0482 81.114 70.465 81.5228 69.996C81.9377 69.5271 82.4848 69.2926 83.1641 69.2926C83.8435 69.2926 84.3876 69.5271 84.7964 69.996C85.2053 70.465 85.4097 71.0482 85.4097 71.7456C85.4097 72.443 85.2053 73.0262 84.7964 73.4951ZM82.0459 73.0712C82.3104 73.4139 82.6832 73.5853 83.1641 73.5853C83.6451 73.5853 84.0149 73.4139 84.2734 73.0712C84.5319 72.7225 84.6612 72.2807 84.6612 71.7456C84.6612 71.2045 84.5289 70.7626 84.2644 70.4199C84.0058 70.0712 83.6391 69.8968 83.1641 69.8968C82.6832 69.8968 82.3104 70.0712 82.0459 70.4199C81.7874 70.7686 81.6581 71.2105 81.6581 71.7456C81.6581 72.2807 81.7874 72.7225 82.0459 73.0712ZM88.0861 74.2075C87.4488 74.2075 86.9528 74.0663 86.5981 73.7837C86.2494 73.4951 86.057 73.0863 86.0209 72.5572H86.7694C86.8536 73.2486 87.2985 73.5943 88.1041 73.5943C88.4709 73.5943 88.7414 73.5252 88.9158 73.3869C89.0961 73.2426 89.1863 73.0562 89.1863 72.8278C89.1863 72.5813 89.0991 72.4039 88.9248 72.2957C88.7504 72.1875 88.4318 72.0853 87.9689 71.9891C87.7765 71.947 87.6232 71.9139 87.5089 71.8899C87.4007 71.8598 87.2684 71.8207 87.1121 71.7726C86.9558 71.7185 86.8326 71.6614 86.7424 71.6013C86.6582 71.5351 86.571 71.457 86.4809 71.3668C86.3907 71.2766 86.3245 71.1654 86.2825 71.0331C86.2464 70.9009 86.2283 70.7536 86.2283 70.5912C86.2283 70.1944 86.3726 69.8818 86.6612 69.6534C86.9558 69.4249 87.3706 69.3107 87.9057 69.3107C89.012 69.3107 89.6222 69.7976 89.7364 70.7716H88.9879C88.9518 70.465 88.8466 70.2425 88.6723 70.1043C88.4979 69.96 88.2364 69.8878 87.8877 69.8878C87.569 69.8878 87.3316 69.951 87.1753 70.0772C87.0249 70.1975 86.9498 70.3568 86.9498 70.5552C86.9498 70.7836 87.04 70.946 87.2203 71.0422C87.4007 71.1323 87.7284 71.2255 88.2033 71.3217C88.4919 71.3818 88.7174 71.439 88.8797 71.4931C89.048 71.5412 89.2224 71.6193 89.4027 71.7275C89.5831 71.8297 89.7154 71.968 89.7995 72.1424C89.8837 72.3167 89.9258 72.5332 89.9258 72.7917C89.9258 73.2486 89.7575 73.6003 89.4208 73.8468C89.0841 74.0873 88.6392 74.2075 88.0861 74.2075ZM92.8865 74.1985C92.1951 74.1985 91.645 73.9671 91.2362 73.5041C90.8334 73.0352 90.632 72.449 90.632 71.7456C90.632 71.0542 90.8364 70.474 91.2452 70.0051C91.66 69.5301 92.1921 69.2926 92.8414 69.2926C93.5268 69.2926 94.0559 69.5331 94.4286 70.0141C94.8014 70.489 94.9877 71.1233 94.9877 71.9169H91.3805C91.4105 72.4099 91.5548 72.8127 91.8133 73.1254C92.0779 73.432 92.4356 73.5853 92.8865 73.5853C93.5839 73.5853 94.0138 73.2666 94.1761 72.6294H94.8885C94.7803 73.1284 94.5519 73.5161 94.2032 73.7927C93.8545 74.0632 93.4156 74.1985 92.8865 74.1985ZM93.8154 70.2666C93.5809 70.0021 93.2563 69.8698 92.8414 69.8698C92.4266 69.8698 92.0959 70.0081 91.8494 70.2846C91.6089 70.5612 91.4586 70.9219 91.3985 71.3668H94.2032C94.1791 70.8979 94.0499 70.5311 93.8154 70.2666ZM101.124 73.4951C100.715 73.964 100.171 74.1985 99.4913 74.1985C98.8119 74.1985 98.2648 73.964 97.85 73.4951C97.4411 73.0262 97.2367 72.443 97.2367 71.7456C97.2367 71.0482 97.4411 70.465 97.85 69.996C98.2648 69.5271 98.8119 69.2926 99.4913 69.2926C100.171 69.2926 100.715 69.5271 101.124 69.996C101.532 70.465 101.737 71.0482 101.737 71.7456C101.737 72.443 101.532 73.0262 101.124 73.4951ZM98.373 73.0712C98.6375 73.4139 99.0103 73.5853 99.4913 73.5853C99.9722 73.5853 100.342 73.4139 100.601 73.0712C100.859 72.7225 100.988 72.2807 100.988 71.7456C100.988 71.2045 100.856 70.7626 100.591 70.4199C100.333 70.0712 99.9662 69.8968 99.4913 69.8968C99.0103 69.8968 98.6375 70.0712 98.373 70.4199C98.1145 70.7686 97.9852 71.2105 97.9852 71.7456C97.9852 72.2807 98.1145 72.7225 98.373 73.0712ZM102.646 75.5693V69.4099H103.376V70.0682H103.394C103.773 69.5572 104.272 69.3016 104.891 69.3016C105.492 69.3016 105.976 69.5211 106.343 69.96C106.71 70.3928 106.893 70.9911 106.893 71.7546C106.893 72.5061 106.713 73.1043 106.352 73.5492C105.991 73.9881 105.495 74.2075 104.864 74.2075C104.239 74.2075 103.749 73.9791 103.394 73.5222H103.376V75.5693H102.646ZM104.81 73.5943C105.243 73.5943 105.574 73.426 105.802 73.0893C106.03 72.7526 106.145 72.3107 106.145 71.7636C106.145 71.2165 106.03 70.7746 105.802 70.4379C105.574 70.0952 105.246 69.9239 104.819 69.9239C104.332 69.9239 103.962 70.0983 103.71 70.447C103.457 70.7896 103.331 71.2285 103.331 71.7636C103.331 72.3107 103.451 72.7526 103.692 73.0893C103.932 73.426 104.305 73.5943 104.81 73.5943ZM109.795 74.1985C109.104 74.1985 108.553 73.9671 108.145 73.5041C107.742 73.0352 107.54 72.449 107.54 71.7456C107.54 71.0542 107.745 70.474 108.154 70.0051C108.568 69.5301 109.1 69.2926 109.75 69.2926C110.435 69.2926 110.964 69.5331 111.337 70.0141C111.71 70.489 111.896 71.1233 111.896 71.9169H108.289C108.319 72.4099 108.463 72.8127 108.722 73.1254C108.986 73.432 109.344 73.5853 109.795 73.5853C110.492 73.5853 110.922 73.2666 111.084 72.6294H111.797C111.689 73.1284 111.46 73.5161 111.112 73.7927C110.763 74.0632 110.324 74.1985 109.795 74.1985ZM110.724 70.2666C110.489 70.0021 110.165 69.8698 109.75 69.8698C109.335 69.8698 109.004 70.0081 108.758 70.2846C108.517 70.5612 108.367 70.9219 108.307 71.3668H111.112C111.088 70.8979 110.958 70.5311 110.724 70.2666ZM113.521 69.4099V70.1854H113.539C113.69 69.9389 113.885 69.7405 114.125 69.5902C114.366 69.4339 114.633 69.3558 114.928 69.3558C115.036 69.3558 115.135 69.3738 115.226 69.4099V70.1133H115.199C115.108 70.0832 115 70.0682 114.874 70.0682C114.501 70.0682 114.183 70.2005 113.918 70.465C113.654 70.7235 113.521 71.0632 113.521 71.484V74.0723H112.791V69.4099H113.521ZM119.548 74.1174C119.085 74.1174 118.817 73.8859 118.745 73.423H118.736C118.351 73.916 117.834 74.1624 117.185 74.1624C116.722 74.1624 116.343 74.0512 116.049 73.8288C115.754 73.6063 115.607 73.2847 115.607 72.8638C115.607 72.6474 115.64 72.461 115.706 72.3047C115.778 72.1424 115.868 72.0131 115.976 71.9169C116.085 71.8147 116.232 71.7275 116.418 71.6554C116.611 71.5772 116.794 71.5201 116.968 71.484C117.143 71.442 117.365 71.3999 117.636 71.3578C117.81 71.3337 117.933 71.3157 118.005 71.3037C118.084 71.2856 118.183 71.2616 118.303 71.2315C118.423 71.1955 118.507 71.1564 118.556 71.1143C118.604 71.0722 118.649 71.0151 118.691 70.943C118.733 70.8708 118.754 70.7866 118.754 70.6904C118.754 70.4259 118.661 70.2245 118.474 70.0862C118.294 69.9419 118.039 69.8698 117.708 69.8698C116.956 69.8698 116.569 70.2125 116.545 70.8979H115.841C115.853 70.4229 116.015 70.0411 116.328 69.7526C116.647 69.464 117.104 69.3197 117.699 69.3197C118.847 69.3197 119.421 69.8127 119.421 70.7987V73.0171C119.421 73.2216 119.454 73.3658 119.521 73.45C119.593 73.5342 119.725 73.5552 119.917 73.5131H119.944V74.0452C119.824 74.0933 119.692 74.1174 119.548 74.1174ZM117.347 73.6033C117.798 73.6033 118.147 73.4741 118.393 73.2155C118.64 72.951 118.763 72.6624 118.763 72.3498V71.5562C118.541 71.6945 118.186 71.8087 117.699 71.8989C117.518 71.935 117.377 71.965 117.275 71.9891C117.173 72.0071 117.056 72.0432 116.923 72.0973C116.791 72.1454 116.692 72.1995 116.626 72.2596C116.56 72.3197 116.502 72.4009 116.454 72.5031C116.406 72.5993 116.382 72.7135 116.382 72.8458C116.382 73.3508 116.704 73.6033 117.347 73.6033ZM120.278 70.0051V69.4099H120.954V67.9399H121.685V69.4099H122.587V70.0051H121.685V73.0352C121.685 73.3238 121.841 73.468 122.154 73.468C122.286 73.468 122.415 73.447 122.542 73.4049H122.569V74.0362C122.37 74.0783 122.175 74.0993 121.982 74.0993C121.297 74.0993 120.954 73.7987 120.954 73.1975V70.0051H120.278ZM123.521 74.0723V69.4099H124.252V74.0723H123.521ZM123.521 68.5261V67.6243H124.252V68.5261H123.521ZM129.053 73.4951C128.644 73.964 128.1 74.1985 127.421 74.1985C126.741 74.1985 126.194 73.964 125.78 73.4951C125.371 73.0262 125.166 72.443 125.166 71.7456C125.166 71.0482 125.371 70.465 125.78 69.996C126.194 69.5271 126.741 69.2926 127.421 69.2926C128.1 69.2926 128.644 69.5271 129.053 69.996C129.462 70.465 129.666 71.0482 129.666 71.7456C129.666 72.443 129.462 73.0262 129.053 73.4951ZM126.303 73.0712C126.567 73.4139 126.94 73.5853 127.421 73.5853C127.902 73.5853 128.272 73.4139 128.53 73.0712C128.789 72.7225 128.918 72.2807 128.918 71.7456C128.918 71.2045 128.786 70.7626 128.521 70.4199C128.263 70.0712 127.896 69.8968 127.421 69.8968C126.94 69.8968 126.567 70.0712 126.303 70.4199C126.044 70.7686 125.915 71.2105 125.915 71.7456C125.915 72.2807 126.044 72.7225 126.303 73.0712ZM131.306 69.4099V70.0231H131.324C131.684 69.5421 132.177 69.3016 132.803 69.3016C133.296 69.3016 133.681 69.4309 133.957 69.6894C134.234 69.9479 134.372 70.3177 134.372 70.7987V74.0723H133.641V70.8618C133.641 70.5612 133.548 70.3297 133.362 70.1674C133.175 69.9991 132.917 69.9149 132.586 69.9149C132.214 69.9149 131.907 70.0351 131.666 70.2756C131.426 70.5161 131.306 70.8257 131.306 71.2045V74.0723H130.575V69.4099H131.306ZM137.288 74.2075C136.65 74.2075 136.154 74.0663 135.8 73.7837C135.451 73.4951 135.259 73.0863 135.223 72.5572H135.971C136.055 73.2486 136.5 73.5943 137.306 73.5943C137.672 73.5943 137.943 73.5252 138.117 73.3869C138.298 73.2426 138.388 73.0562 138.388 72.8278C138.388 72.5813 138.301 72.4039 138.126 72.2957C137.952 72.1875 137.633 72.0853 137.17 71.9891C136.978 71.947 136.825 71.9139 136.711 71.8899C136.602 71.8598 136.47 71.8207 136.314 71.7726C136.157 71.7185 136.034 71.6614 135.944 71.6013C135.86 71.5351 135.773 71.457 135.682 71.3668C135.592 71.2766 135.526 71.1654 135.484 71.0331C135.448 70.9009 135.43 70.7536 135.43 70.5912C135.43 70.1944 135.574 69.8818 135.863 69.6534C136.157 69.4249 136.572 69.3107 137.107 69.3107C138.214 69.3107 138.824 69.7976 138.938 70.7716H138.189C138.153 70.465 138.048 70.2425 137.874 70.1043C137.7 69.96 137.438 69.8878 137.089 69.8878C136.771 69.8878 136.533 69.951 136.377 70.0772C136.227 70.1975 136.151 70.3568 136.151 70.5552C136.151 70.7836 136.242 70.946 136.422 71.0422C136.602 71.1323 136.93 71.2255 137.405 71.3217C137.693 71.3818 137.919 71.439 138.081 71.4931C138.25 71.5412 138.424 71.6193 138.604 71.7275C138.785 71.8297 138.917 71.968 139.001 72.1424C139.085 72.3167 139.127 72.5332 139.127 72.7917C139.127 73.2486 138.959 73.6003 138.622 73.8468C138.286 74.0873 137.841 74.2075 137.288 74.2075ZM145.284 74.1174C144.821 74.1174 144.554 73.8859 144.482 73.423H144.473C144.088 73.916 143.571 74.1624 142.921 74.1624C142.459 74.1624 142.08 74.0512 141.785 73.8288C141.491 73.6063 141.343 73.2847 141.343 72.8638C141.343 72.6474 141.376 72.461 141.443 72.3047C141.515 72.1424 141.605 72.0131 141.713 71.9169C141.821 71.8147 141.969 71.7275 142.155 71.6554C142.347 71.5772 142.531 71.5201 142.705 71.484C142.879 71.442 143.102 71.3999 143.372 71.3578C143.547 71.3337 143.67 71.3157 143.742 71.3037C143.82 71.2856 143.92 71.2616 144.04 71.2315C144.16 71.1955 144.244 71.1564 144.292 71.1143C144.34 71.0722 144.385 71.0151 144.428 70.943C144.47 70.8708 144.491 70.7866 144.491 70.6904C144.491 70.4259 144.397 70.2245 144.211 70.0862C144.031 69.9419 143.775 69.8698 143.445 69.8698C142.693 69.8698 142.305 70.2125 142.281 70.8979H141.578C141.59 70.4229 141.752 70.0411 142.065 69.7526C142.383 69.464 142.84 69.3197 143.436 69.3197C144.584 69.3197 145.158 69.8127 145.158 70.7987V73.0171C145.158 73.2216 145.191 73.3658 145.257 73.45C145.329 73.5342 145.462 73.5552 145.654 73.5131H145.681V74.0452C145.561 74.0933 145.429 74.1174 145.284 74.1174ZM143.084 73.6033C143.535 73.6033 143.883 73.4741 144.13 73.2155C144.376 72.951 144.5 72.6624 144.5 72.3498V71.5562C144.277 71.6945 143.923 71.8087 143.436 71.8989C143.255 71.935 143.114 71.965 143.012 71.9891C142.909 72.0071 142.792 72.0432 142.66 72.0973C142.528 72.1454 142.429 72.1995 142.362 72.2596C142.296 72.3197 142.239 72.4009 142.191 72.5031C142.143 72.5993 142.119 72.7135 142.119 72.8458C142.119 73.3508 142.441 73.6033 143.084 73.6033ZM147.131 69.4099V70.1854H147.149C147.299 69.9389 147.495 69.7405 147.735 69.5902C147.976 69.4339 148.243 69.3558 148.538 69.3558C148.646 69.3558 148.745 69.3738 148.835 69.4099V70.1133H148.808C148.718 70.0832 148.61 70.0682 148.484 70.0682C148.111 70.0682 147.792 70.2005 147.528 70.465C147.263 70.7235 147.131 71.0632 147.131 71.484V74.0723H146.4V69.4099H147.131ZM151.489 74.1985C150.797 74.1985 150.247 73.9671 149.839 73.5041C149.436 73.0352 149.234 72.449 149.234 71.7456C149.234 71.0542 149.439 70.474 149.848 70.0051C150.262 69.5301 150.794 69.2926 151.444 69.2926C152.129 69.2926 152.658 69.5331 153.031 70.0141C153.404 70.489 153.59 71.1233 153.59 71.9169H149.983C150.013 72.4099 150.157 72.8127 150.416 73.1254C150.68 73.432 151.038 73.5853 151.489 73.5853C152.186 73.5853 152.616 73.2666 152.778 72.6294H153.491C153.383 73.1284 153.154 73.5161 152.806 73.7927C152.457 74.0632 152.018 74.1985 151.489 74.1985ZM152.418 70.2666C152.183 70.0021 151.859 69.8698 151.444 69.8698C151.029 69.8698 150.698 70.0081 150.452 70.2846C150.211 70.5612 150.061 70.9219 150.001 71.3668H152.806C152.781 70.8979 152.652 70.5311 152.418 70.2666ZM158.094 74.1985C157.414 74.1985 156.867 73.964 156.452 73.4951C156.043 73.0262 155.839 72.443 155.839 71.7456C155.839 71.0482 156.043 70.465 156.452 69.996C156.867 69.5271 157.414 69.2926 158.094 69.2926C158.641 69.2926 159.089 69.4399 159.437 69.7345C159.786 70.0231 160.002 70.4169 160.087 70.9159H159.347C159.293 70.5973 159.158 70.3478 158.941 70.1674C158.725 69.987 158.442 69.8968 158.094 69.8968C157.613 69.8968 157.24 70.0712 156.975 70.4199C156.717 70.7686 156.588 71.2105 156.588 71.7456C156.588 72.2807 156.717 72.7225 156.975 73.0712C157.24 73.4139 157.613 73.5853 158.094 73.5853C158.466 73.5853 158.764 73.4861 158.986 73.2877C159.209 73.0833 159.335 72.7977 159.365 72.431H160.087C160.039 72.9901 159.84 73.426 159.491 73.7386C159.143 74.0452 158.677 74.1985 158.094 74.1985ZM164.583 73.4951C164.174 73.964 163.63 74.1985 162.95 74.1985C162.271 74.1985 161.724 73.964 161.309 73.4951C160.9 73.0262 160.696 72.443 160.696 71.7456C160.696 71.0482 160.9 70.465 161.309 69.996C161.724 69.5271 162.271 69.2926 162.95 69.2926C163.63 69.2926 164.174 69.5271 164.583 69.996C164.992 70.465 165.196 71.0482 165.196 71.7456C165.196 72.443 164.992 73.0262 164.583 73.4951ZM161.832 73.0712C162.097 73.4139 162.469 73.5853 162.95 73.5853C163.431 73.5853 163.801 73.4139 164.06 73.0712C164.318 72.7225 164.447 72.2807 164.447 71.7456C164.447 71.2045 164.315 70.7626 164.051 70.4199C163.792 70.0712 163.425 69.8968 162.95 69.8968C162.469 69.8968 162.097 70.0712 161.832 70.4199C161.574 70.7686 161.444 71.2105 161.444 71.7456C161.444 72.2807 161.574 72.7225 161.832 73.0712ZM166.835 69.4099V70.0231H166.853C167.214 69.5421 167.707 69.3016 168.332 69.3016C168.825 69.3016 169.21 69.4309 169.487 69.6894C169.763 69.9479 169.901 70.3177 169.901 70.7987V74.0723H169.171V70.8618C169.171 70.5612 169.078 70.3297 168.891 70.1674C168.705 69.9991 168.447 69.9149 168.116 69.9149C167.743 69.9149 167.436 70.0351 167.196 70.2756C166.955 70.5161 166.835 70.8257 166.835 71.2045V74.0723H166.105V69.4099H166.835ZM172.853 74.2075C172.216 74.2075 171.711 73.9881 171.338 73.5492C170.971 73.1043 170.788 72.5061 170.788 71.7546C170.788 70.9971 170.98 70.3989 171.365 69.96C171.75 69.5211 172.24 69.3016 172.835 69.3016C173.467 69.3016 173.953 69.5572 174.296 70.0682H174.314V67.6243H175.045V74.0723H174.314V73.5041H174.296C173.929 73.9731 173.448 74.2075 172.853 74.2075ZM172.88 73.5943C173.379 73.5943 173.749 73.429 173.99 73.0983C174.236 72.7676 174.359 72.3227 174.359 71.7636C174.359 71.2105 174.227 70.7656 173.963 70.4289C173.704 70.0922 173.34 69.9239 172.871 69.9239C172.444 69.9239 172.114 70.0952 171.879 70.4379C171.651 70.7746 171.537 71.2165 171.537 71.7636C171.537 72.3107 171.651 72.7526 171.879 73.0893C172.114 73.426 172.447 73.5943 172.88 73.5943ZM179.912 74.0723H179.182V73.432H179.164C178.797 73.931 178.328 74.1805 177.757 74.1805C177.276 74.1805 176.894 74.0452 176.611 73.7747C176.329 73.4981 176.188 73.1193 176.188 72.6384V69.4099H176.918V72.6203C176.918 72.9209 177.008 73.1554 177.189 73.3238C177.375 73.4921 177.634 73.5763 177.964 73.5763C178.331 73.5763 178.626 73.453 178.848 73.2065C179.07 72.96 179.182 72.6504 179.182 72.2776V69.4099H179.912V74.0723ZM183.073 74.1985C182.394 74.1985 181.847 73.964 181.432 73.4951C181.023 73.0262 180.819 72.443 180.819 71.7456C180.819 71.0482 181.023 70.465 181.432 69.996C181.847 69.5271 182.394 69.2926 183.073 69.2926C183.62 69.2926 184.068 69.4399 184.417 69.7345C184.766 70.0231 184.982 70.4169 185.066 70.9159H184.327C184.273 70.5973 184.137 70.3478 183.921 70.1674C183.705 69.987 183.422 69.8968 183.073 69.8968C182.592 69.8968 182.22 70.0712 181.955 70.4199C181.696 70.7686 181.567 71.2105 181.567 71.7456C181.567 72.2807 181.696 72.7225 181.955 73.0712C182.22 73.4139 182.592 73.5853 183.073 73.5853C183.446 73.5853 183.744 73.4861 183.966 73.2877C184.189 73.0833 184.315 72.7977 184.345 72.431H185.066C185.018 72.9901 184.82 73.426 184.471 73.7386C184.122 74.0452 183.656 74.1985 183.073 74.1985ZM185.639 70.0051V69.4099H186.316V67.9399H187.046V69.4099H187.948V70.0051H187.046V73.0352C187.046 73.3238 187.203 73.468 187.515 73.468C187.647 73.468 187.777 73.447 187.903 73.4049H187.93V74.0362C187.732 74.0783 187.536 74.0993 187.344 74.0993C186.658 74.0993 186.316 73.7987 186.316 73.1975V70.0051H185.639ZM190.832 74.1985C190.14 74.1985 189.59 73.9671 189.181 73.5041C188.779 73.0352 188.577 72.449 188.577 71.7456C188.577 71.0542 188.782 70.474 189.19 70.0051C189.605 69.5301 190.137 69.2926 190.787 69.2926C191.472 69.2926 192.001 69.5331 192.374 70.0141C192.747 70.489 192.933 71.1233 192.933 71.9169H189.326C189.356 72.4099 189.5 72.8127 189.759 73.1254C190.023 73.432 190.381 73.5853 190.832 73.5853C191.529 73.5853 191.959 73.2666 192.121 72.6294H192.834C192.726 73.1284 192.497 73.5161 192.148 73.7927C191.8 74.0632 191.361 74.1985 190.832 74.1985ZM191.761 70.2666C191.526 70.0021 191.201 69.8698 190.787 69.8698C190.372 69.8698 190.041 70.0081 189.795 70.2846C189.554 70.5612 189.404 70.9219 189.344 71.3668H192.148C192.124 70.8979 191.995 70.5311 191.761 70.2666ZM195.631 74.2075C194.994 74.2075 194.489 73.9881 194.116 73.5492C193.749 73.1043 193.566 72.5061 193.566 71.7546C193.566 70.9971 193.758 70.3989 194.143 69.96C194.528 69.5211 195.018 69.3016 195.613 69.3016C196.244 69.3016 196.731 69.5572 197.074 70.0682H197.092V67.6243H197.823V74.0723H197.092V73.5041H197.074C196.707 73.9731 196.226 74.2075 195.631 74.2075ZM195.658 73.5943C196.157 73.5943 196.527 73.429 196.768 73.0983C197.014 72.7676 197.137 72.3227 197.137 71.7636C197.137 71.2105 197.005 70.7656 196.74 70.4289C196.482 70.0922 196.118 69.9239 195.649 69.9239C195.222 69.9239 194.892 70.0952 194.657 70.4379C194.429 70.7746 194.315 71.2165 194.315 71.7636C194.315 72.3107 194.429 72.7526 194.657 73.0893C194.892 73.426 195.225 73.5943 195.658 73.5943ZM204.234 73.4951C203.825 73.964 203.281 74.1985 202.602 74.1985C201.922 74.1985 201.375 73.964 200.96 73.4951C200.551 73.0262 200.347 72.443 200.347 71.7456C200.347 71.0482 200.551 70.465 200.96 69.996C201.375 69.5271 201.922 69.2926 202.602 69.2926C203.281 69.2926 203.825 69.5271 204.234 69.996C204.643 70.465 204.847 71.0482 204.847 71.7456C204.847 72.443 204.643 73.0262 204.234 73.4951ZM201.483 73.0712C201.748 73.4139 202.121 73.5853 202.602 73.5853C203.082 73.5853 203.452 73.4139 203.711 73.0712C203.969 72.7225 204.099 72.2807 204.099 71.7456C204.099 71.2045 203.966 70.7626 203.702 70.4199C203.443 70.0712 203.076 69.8968 202.602 69.8968C202.121 69.8968 201.748 70.0712 201.483 70.4199C201.225 70.7686 201.095 71.2105 201.095 71.7456C201.095 72.2807 201.225 72.7225 201.483 73.0712ZM206.822 74.0723L205.19 69.4099H205.974L206.939 72.3678L207.246 73.3508H207.264C207.378 72.966 207.48 72.6384 207.571 72.3678L208.554 69.4099H209.311L207.634 74.0723H206.822ZM211.91 74.1985C211.219 74.1985 210.668 73.9671 210.26 73.5041C209.857 73.0352 209.655 72.449 209.655 71.7456C209.655 71.0542 209.86 70.474 210.269 70.0051C210.683 69.5301 211.216 69.2926 211.865 69.2926C212.55 69.2926 213.079 69.5331 213.452 70.0141C213.825 70.489 214.011 71.1233 214.011 71.9169H210.404C210.434 72.4099 210.578 72.8127 210.837 73.1254C211.101 73.432 211.459 73.5853 211.91 73.5853C212.607 73.5853 213.037 73.2666 213.2 72.6294H213.912C213.804 73.1284 213.575 73.5161 213.227 73.7927C212.878 74.0632 212.439 74.1985 211.91 74.1985ZM212.839 70.2666C212.604 70.0021 212.28 69.8698 211.865 69.8698C211.45 69.8698 211.119 70.0081 210.873 70.2846C210.632 70.5612 210.482 70.9219 210.422 71.3668H213.227C213.203 70.8979 213.073 70.5311 212.839 70.2666ZM215.636 69.4099V70.1854H215.654C215.805 69.9389 216 69.7405 216.241 69.5902C216.481 69.4339 216.749 69.3558 217.043 69.3558C217.151 69.3558 217.251 69.3738 217.341 69.4099V70.1133H217.314C217.224 70.0832 217.115 70.0682 216.989 70.0682C216.616 70.0682 216.298 70.2005 216.033 70.465C215.769 70.7235 215.636 71.0632 215.636 71.484V74.0723H214.906V69.4099H215.636ZM22.6407 84.0051V83.4099H23.3171V81.9399H24.0475V83.4099H24.9494V84.0051H24.0475V87.0352C24.0475 87.3238 24.2039 87.468 24.5165 87.468C24.6488 87.468 24.778 87.447 24.9043 87.4049H24.9313V88.0362C24.7329 88.0783 24.5375 88.0993 24.3451 88.0993C23.6598 88.0993 23.3171 87.7987 23.3171 87.1975V84.0051H22.6407ZM26.6145 81.6243V84.0231H26.6325C26.9933 83.5421 27.4862 83.3016 28.1115 83.3016C28.6045 83.3016 28.9893 83.4309 29.2658 83.6894C29.5424 83.9479 29.6807 84.3177 29.6807 84.7987V88.0723H28.9502V84.8618C28.9502 84.5612 28.857 84.3297 28.6706 84.1674C28.4843 83.9991 28.2257 83.9149 27.8951 83.9149C27.5223 83.9149 27.2157 84.0351 26.9752 84.2756C26.7347 84.5161 26.6145 84.8257 26.6145 85.2045V88.0723H25.884V81.6243H26.6145ZM32.8219 88.1985C32.1305 88.1985 31.5804 87.9671 31.1716 87.5041C30.7687 87.0352 30.5673 86.449 30.5673 85.7456C30.5673 85.0542 30.7718 84.474 31.1806 84.0051C31.5954 83.5301 32.1275 83.2926 32.7768 83.2926C33.4622 83.2926 33.9912 83.5331 34.364 84.0141C34.7367 84.489 34.9231 85.1233 34.9231 85.9169H31.3159C31.3459 86.4099 31.4902 86.8127 31.7487 87.1254C32.0133 87.432 32.371 87.5853 32.8219 87.5853C33.5193 87.5853 33.9492 87.2666 34.1115 86.6294H34.8239C34.7157 87.1284 34.4872 87.5161 34.1385 87.7927C33.7898 88.0632 33.351 88.1985 32.8219 88.1985ZM33.7508 84.2666C33.5163 84.0021 33.1916 83.8698 32.7768 83.8698C32.362 83.8698 32.0313 84.0081 31.7848 84.2846C31.5443 84.5612 31.394 84.9219 31.3339 85.3668H34.1385C34.1145 84.8979 33.9852 84.5311 33.7508 84.2666ZM37.4336 89.5693V83.4099H38.1641V84.0682H38.1821C38.5609 83.5572 39.0599 83.3016 39.6792 83.3016C40.2804 83.3016 40.7643 83.5211 41.1311 83.96C41.4978 84.3928 41.6812 84.9911 41.6812 85.7546C41.6812 86.5061 41.5008 87.1043 41.1401 87.5492C40.7794 87.9881 40.2834 88.2075 39.6521 88.2075C39.0268 88.2075 38.5369 87.9791 38.1821 87.5222H38.1641V89.5693H37.4336ZM39.598 87.5943C40.0309 87.5943 40.3615 87.426 40.59 87.0893C40.8185 86.7526 40.9327 86.3107 40.9327 85.7636C40.9327 85.2165 40.8185 84.7746 40.59 84.4379C40.3615 84.0952 40.0339 83.9239 39.607 83.9239C39.12 83.9239 38.7503 84.0983 38.4978 84.447C38.2453 84.7896 38.119 85.2285 38.119 85.7636C38.119 86.3107 38.2393 86.7526 38.4797 87.0893C38.7202 87.426 39.093 87.5943 39.598 87.5943ZM43.3203 81.6243V84.0231H43.3384C43.6991 83.5421 44.1921 83.3016 44.8173 83.3016C45.3103 83.3016 45.6951 83.4309 45.9717 83.6894C46.2482 83.9479 46.3865 84.3177 46.3865 84.7987V88.0723H45.656V84.8618C45.656 84.5612 45.5628 84.3297 45.3765 84.1674C45.1901 83.9991 44.9316 83.9149 44.6009 83.9149C44.2282 83.9149 43.9215 84.0351 43.681 84.2756C43.4406 84.5161 43.3203 84.8257 43.3203 85.2045V88.0723H42.5898V81.6243H43.3203ZM51.16 87.4951C50.7512 87.964 50.2071 88.1985 49.5277 88.1985C48.8484 88.1985 48.3012 87.964 47.8864 87.4951C47.4776 87.0262 47.2732 86.443 47.2732 85.7456C47.2732 85.0482 47.4776 84.465 47.8864 83.996C48.3012 83.5271 48.8484 83.2926 49.5277 83.2926C50.2071 83.2926 50.7512 83.5271 51.16 83.996C51.5688 84.465 51.7733 85.0482 51.7733 85.7456C51.7733 86.443 51.5688 87.0262 51.16 87.4951ZM48.4095 87.0712C48.674 87.4139 49.0468 87.5853 49.5277 87.5853C50.0087 87.5853 50.3784 87.4139 50.637 87.0712C50.8955 86.7225 51.0247 86.2807 51.0247 85.7456C51.0247 85.2045 50.8925 84.7626 50.6279 84.4199C50.3694 84.0712 50.0027 83.8968 49.5277 83.8968C49.0468 83.8968 48.674 84.0712 48.4095 84.4199C48.1509 84.7686 48.0217 85.2105 48.0217 85.7456C48.0217 86.2807 48.1509 86.7225 48.4095 87.0712ZM53.4126 83.4099V84.0231H53.4306C53.7913 83.5421 54.2843 83.3016 54.9096 83.3016C55.4026 83.3016 55.7874 83.4309 56.0639 83.6894C56.3405 83.9479 56.4788 84.3177 56.4788 84.7987V88.0723H55.7483V84.8618C55.7483 84.5612 55.6551 84.3297 55.4687 84.1674C55.2824 83.9991 55.0238 83.9149 54.6932 83.9149C54.3204 83.9149 54.0138 84.0351 53.7733 84.2756C53.5328 84.5161 53.4126 84.8257 53.4126 85.2045V88.0723H52.6821V83.4099H53.4126ZM59.62 88.1985C58.9286 88.1985 58.3785 87.9671 57.9697 87.5041C57.5668 87.0352 57.3654 86.449 57.3654 85.7456C57.3654 85.0542 57.5699 84.474 57.9787 84.0051C58.3935 83.5301 58.9256 83.2926 59.5749 83.2926C60.2603 83.2926 60.7893 83.5331 61.1621 84.0141C61.5348 84.489 61.7212 85.1233 61.7212 85.9169H58.1139C58.144 86.4099 58.2883 86.8127 58.5468 87.1254C58.8114 87.432 59.1691 87.5853 59.62 87.5853C60.3174 87.5853 60.7473 87.2666 60.9096 86.6294H61.622C61.5138 87.1284 61.2853 87.5161 60.9366 87.7927C60.5879 88.0632 60.1491 88.1985 59.62 88.1985ZM60.5489 84.2666C60.3144 84.0021 59.9897 83.8698 59.5749 83.8698C59.1601 83.8698 58.8294 84.0081 58.5829 84.2846C58.3424 84.5612 58.1921 84.9219 58.132 85.3668H60.9366C60.9126 84.8979 60.7833 84.5311 60.5489 84.2666ZM62.4286 88.0723V87.1795H63.3033V88.0723H62.4286Z" fill="#070B0E"/>
<path d="M0 27.1333H235V2.81829C235 1.26185 233.738 0.000104904 232.182 0.000104904H2.81817C1.26173 0.000104904 0 1.26185 0 2.81829V27.1333Z" fill="#15D2D6"/>
<path d="M90.2379 18.4826C89.2352 19.592 87.9019 20.1466 86.2379 20.1466C84.5739 20.1466 83.2352 19.592 82.2219 18.4826C81.2192 17.3626 80.7179 15.9333 80.7179 14.1946C80.7179 12.456 81.2192 11.0266 82.2219 9.90662C83.2352 8.78662 84.5739 8.22662 86.2379 8.22662C87.9019 8.22662 89.2352 8.78662 90.2379 9.90662C91.2406 11.0266 91.7419 12.456 91.7419 14.1946C91.7419 15.9333 91.2406 17.3626 90.2379 18.4826ZM83.9019 17.1066C84.4566 17.864 85.2406 18.2426 86.2539 18.2426C87.2672 18.2426 88.0406 17.8693 88.5739 17.1226C89.1072 16.3653 89.3739 15.3893 89.3739 14.1946C89.3739 13 89.1072 12.024 88.5739 11.2666C88.0406 10.5093 87.2672 10.1306 86.2539 10.1306C85.2406 10.1306 84.4566 10.5093 83.9019 11.2666C83.3579 12.024 83.0859 13 83.0859 14.1946C83.0859 15.3786 83.3579 16.3493 83.9019 17.1066ZM93.3308 19.8906V8.45062H98.3548C99.6561 8.45062 100.653 8.80796 101.347 9.52262C102.029 10.2266 102.371 11.096 102.371 12.1306C102.371 13.2186 102.029 14.0933 101.347 14.7546C100.664 15.416 99.7308 15.7466 98.5468 15.7466H95.7308V19.8906H93.3308ZM95.7308 10.4666V13.8586H98.1308C98.7281 13.8586 99.1868 13.7093 99.5068 13.4106C99.8268 13.1013 99.9868 12.68 99.9868 12.1466C99.9868 11.6133 99.8268 11.2026 99.5068 10.9146C99.1868 10.616 98.7388 10.4666 98.1628 10.4666H95.7308ZM103.838 19.8906V8.45062H108.862C110.164 8.45062 111.161 8.80796 111.854 9.52262C112.537 10.2266 112.878 11.096 112.878 12.1306C112.878 13.2186 112.537 14.0933 111.854 14.7546C111.172 15.416 110.238 15.7466 109.054 15.7466H106.238V19.8906H103.838ZM106.238 10.4666V13.8586H108.638C109.236 13.8586 109.694 13.7093 110.014 13.4106C110.334 13.1013 110.494 12.68 110.494 12.1466C110.494 11.6133 110.334 11.2026 110.014 10.9146C109.694 10.616 109.246 10.4666 108.67 10.4666H106.238ZM123.526 18.4826C122.523 19.592 121.19 20.1466 119.526 20.1466C117.862 20.1466 116.523 19.592 115.51 18.4826C114.507 17.3626 114.006 15.9333 114.006 14.1946C114.006 12.456 114.507 11.0266 115.51 9.90662C116.523 8.78662 117.862 8.22662 119.526 8.22662C121.19 8.22662 122.523 8.78662 123.526 9.90662C124.529 11.0266 125.03 12.456 125.03 14.1946C125.03 15.9333 124.529 17.3626 123.526 18.4826ZM117.19 17.1066C117.745 17.864 118.529 18.2426 119.542 18.2426C120.555 18.2426 121.329 17.8693 121.862 17.1226C122.395 16.3653 122.662 15.3893 122.662 14.1946C122.662 13 122.395 12.024 121.862 11.2666C121.329 10.5093 120.555 10.1306 119.542 10.1306C118.529 10.1306 117.745 10.5093 117.19 11.2666C116.646 12.024 116.374 13 116.374 14.1946C116.374 15.3786 116.646 16.3493 117.19 17.1066ZM126.619 19.8906V8.45062H131.867C132.966 8.45062 133.851 8.74396 134.523 9.33062C135.206 9.91729 135.547 10.6853 135.547 11.6346C135.547 13.096 134.848 14.0186 133.451 14.4026V14.4506C133.995 14.6106 134.4 14.8666 134.667 15.2186C134.944 15.56 135.12 16.072 135.195 16.7546C135.216 17.0106 135.238 17.3146 135.259 17.6666C135.291 18.008 135.312 18.28 135.323 18.4826C135.344 18.6853 135.366 18.888 135.387 19.0906C135.419 19.2933 135.456 19.4533 135.499 19.5706C135.552 19.6773 135.616 19.7466 135.691 19.7786V19.8906H133.467C133.424 19.8693 133.387 19.832 133.355 19.7786C133.323 19.7146 133.296 19.6293 133.275 19.5226C133.254 19.416 133.232 19.3093 133.211 19.2026C133.2 19.0853 133.184 18.9413 133.163 18.7706C133.152 18.5893 133.142 18.4346 133.131 18.3066C133.12 18.168 133.104 17.992 133.083 17.7786C133.072 17.5546 133.062 17.3786 133.051 17.2506C132.955 15.9493 132.208 15.2986 130.811 15.2986H128.939V19.8906H126.619ZM128.939 10.3226V13.5066H131.403C132.011 13.5066 132.475 13.3626 132.795 13.0746C133.126 12.7866 133.291 12.408 133.291 11.9386C133.291 11.4586 133.136 11.0693 132.827 10.7706C132.518 10.472 132.064 10.3226 131.467 10.3226H128.939ZM136.613 10.4026V8.45062H145.813V10.4026H142.373V19.8906H140.053V10.4026H136.613ZM151.722 20.0826C150.25 20.0826 149.13 19.752 148.362 19.0906C147.594 18.4186 147.21 17.4586 147.21 16.2106V8.45062H149.53V16.2106C149.53 17.5546 150.244 18.2266 151.674 18.2266C152.388 18.2266 152.927 18.04 153.29 17.6666C153.652 17.2933 153.834 16.7973 153.834 16.1786V8.45062H156.154V16.2106C156.154 17.448 155.775 18.4026 155.018 19.0746C154.271 19.7466 153.172 20.0826 151.722 20.0826ZM158.141 19.8906V8.45062H160.493L164.301 14.8346C164.408 15.016 164.525 15.24 164.653 15.5066C164.792 15.7733 164.899 15.9973 164.973 16.1786L165.101 16.4346H165.133C165.091 15.6453 165.069 14.984 165.069 14.4506V8.45062H167.357V19.8906H165.117L161.213 13.5706C161.107 13.3893 160.984 13.1706 160.845 12.9146C160.707 12.648 160.6 12.424 160.525 12.2426L160.397 11.9866H160.365C160.408 12.7866 160.429 13.4533 160.429 13.9866V19.8906H158.141ZM169.446 19.8906V8.45062H171.766V19.8906H169.446ZM173.268 10.4026V8.45062H182.468V10.4026H179.028V19.8906H176.708V10.4026H173.268ZM183.977 19.8906V8.45062H186.297V19.8906H183.977ZM188.39 19.8906V8.45062H196.806V10.4026H190.71V12.9626H196.054V14.8666H190.71V17.9546H196.854V19.8906H188.39ZM202.97 20.1466C201.424 20.1466 200.224 19.8213 199.37 19.1706C198.517 18.5093 198.069 17.5706 198.026 16.3546H200.298C200.373 17.0373 200.613 17.528 201.018 17.8266C201.434 18.1253 202.053 18.2746 202.874 18.2746C203.525 18.2746 204.058 18.1573 204.474 17.9226C204.89 17.6773 205.098 17.304 205.098 16.8026C205.098 16.6213 205.072 16.4613 205.018 16.3226C204.976 16.1733 204.88 16.0453 204.73 15.9386C204.581 15.8213 204.453 15.7306 204.346 15.6666C204.24 15.592 204.042 15.5173 203.754 15.4426C203.466 15.3573 203.248 15.2986 203.098 15.2666C202.949 15.224 202.672 15.1546 202.266 15.0586C201.776 14.9413 201.37 14.84 201.05 14.7546C200.741 14.6693 200.394 14.536 200.01 14.3546C199.637 14.1733 199.338 13.976 199.114 13.7626C198.901 13.5386 198.72 13.2506 198.57 12.8986C198.421 12.536 198.346 12.1253 198.346 11.6666C198.346 10.568 198.746 9.72529 199.546 9.13862C200.357 8.54129 201.418 8.24262 202.73 8.24262C204.032 8.24262 205.072 8.55196 205.85 9.17062C206.629 9.78929 207.061 10.6693 207.146 11.8106H204.922C204.858 11.256 204.624 10.8293 204.218 10.5306C203.824 10.232 203.322 10.0826 202.714 10.0826C202.085 10.0826 201.584 10.2053 201.21 10.4506C200.837 10.696 200.65 11.0213 200.65 11.4266C200.65 11.864 200.832 12.184 201.194 12.3866C201.568 12.5893 202.218 12.792 203.146 12.9946C203.701 13.112 204.154 13.224 204.506 13.3306C204.858 13.4266 205.237 13.5706 205.642 13.7626C206.058 13.944 206.378 14.1466 206.602 14.3706C206.837 14.5946 207.029 14.8933 207.178 15.2666C207.338 15.6293 207.418 16.0506 207.418 16.5306C207.418 17.6613 207.008 18.5466 206.186 19.1866C205.365 19.8266 204.293 20.1466 202.97 20.1466Z" fill="#171A1E"/>
</svg>
