<svg width="235" height="156" viewBox="0 0 235 156" fill="none" xmlns="http://www.w3.org/2000/svg">
<path d="M0.5 152.182C0.5 153.738 1.76174 155 3.31818 155H231.682C233.238 155 234.5 153.738 234.5 152.182V27.0545H0.5V152.182Z" fill="#D9D9D9" stroke="#F2D972"/>
<path d="M16.4321 43.8989C16.2277 44.1033 15.9782 44.2055 15.6836 44.2055C15.389 44.2055 15.1365 44.1033 14.9261 43.8989C14.7157 43.6885 14.6105 43.436 14.6105 43.1414C14.6105 42.8468 14.7157 42.5943 14.9261 42.3838C15.1365 42.1734 15.389 42.0682 15.6836 42.0682C15.9782 42.0682 16.2277 42.1734 16.4321 42.3838C16.6426 42.5943 16.7478 42.8468 16.7478 43.1414C16.7478 43.436 16.6426 43.6885 16.4321 43.8989ZM23.0636 46.0723V39.6243H23.8752V46.0723H23.0636ZM25.9002 41.4099V42.0231H25.9182C26.2789 41.5421 26.7719 41.3016 27.3972 41.3016C27.8902 41.3016 28.2749 41.4309 28.5515 41.6894C28.8281 41.948 28.9663 42.3177 28.9663 42.7987V46.0723H28.2359V42.8618C28.2359 42.5612 28.1427 42.3297 27.9563 42.1674C27.7699 41.9991 27.5114 41.9149 27.1807 41.9149C26.808 41.9149 26.5014 42.0351 26.2609 42.2756C26.0204 42.5161 25.9002 42.8257 25.9002 43.2045V46.0723H25.1697V41.4099H25.9002ZM32.1076 46.1985C31.4282 46.1985 30.8811 45.964 30.4662 45.4951C30.0574 45.0262 29.853 44.443 29.853 43.7456C29.853 43.0482 30.0574 42.465 30.4662 41.996C30.8811 41.5271 31.4282 41.2926 32.1076 41.2926C32.6547 41.2926 33.1026 41.4399 33.4513 41.7345C33.8 42.0231 34.0164 42.4169 34.1006 42.9159H33.3611C33.307 42.5973 33.1717 42.3478 32.9553 42.1674C32.7388 41.987 32.4563 41.8968 32.1076 41.8968C31.6266 41.8968 31.2538 42.0712 30.9893 42.4199C30.7308 42.7686 30.6015 43.2105 30.6015 43.7456C30.6015 44.2807 30.7308 44.7225 30.9893 45.0712C31.2538 45.4139 31.6266 45.5853 32.1076 45.5853C32.4803 45.5853 32.7779 45.4861 33.0004 45.2877C33.2228 45.0833 33.3491 44.7977 33.3791 44.431H34.1006C34.0525 44.9901 33.8541 45.426 33.5054 45.7386C33.1567 46.0452 32.6907 46.1985 32.1076 46.1985ZM35.7018 41.4099V42.1854H35.7198C35.8701 41.9389 36.0655 41.7405 36.306 41.5902C36.5465 41.4339 36.814 41.3558 37.1086 41.3558C37.2169 41.3558 37.3161 41.3738 37.4062 41.4099V42.1133H37.3792C37.289 42.0832 37.1808 42.0682 37.0545 42.0682C36.6818 42.0682 36.3631 42.2005 36.0986 42.465C35.8341 42.7235 35.7018 43.0632 35.7018 43.484V46.0723H34.9713V41.4099H35.7018ZM40.0598 46.1985C39.3684 46.1985 38.8183 45.9671 38.4094 45.5041C38.0066 45.0352 37.8052 44.449 37.8052 43.7456C37.8052 43.0542 38.0096 42.474 38.4185 42.0051C38.8333 41.5301 39.3654 41.2926 40.0147 41.2926C40.7001 41.2926 41.2291 41.5331 41.6019 42.0141C41.9746 42.489 42.161 43.1233 42.161 43.9169H38.5537C38.5838 44.4099 38.7281 44.8127 38.9866 45.1254C39.2511 45.432 39.6089 45.5853 40.0598 45.5853C40.7572 45.5853 41.187 45.2666 41.3494 44.6294H42.0618C41.9536 45.1284 41.7251 45.5161 41.3764 45.7927C41.0277 46.0632 40.5888 46.1985 40.0598 46.1985ZM40.9886 42.2666C40.7542 42.0021 40.4295 41.8698 40.0147 41.8698C39.5998 41.8698 39.2692 42.0081 39.0227 42.2846C38.7822 42.5612 38.6319 42.9219 38.5718 43.3668H41.3764C41.3524 42.8979 41.2231 42.5311 40.9886 42.2666ZM46.717 46.1174C46.2541 46.1174 45.9865 45.8859 45.9144 45.423H45.9054C45.5206 45.916 45.0036 46.1624 44.3542 46.1624C43.8913 46.1624 43.5126 46.0512 43.218 45.8288C42.9234 45.6063 42.7761 45.2847 42.7761 44.8638C42.7761 44.6474 42.8091 44.461 42.8753 44.3047C42.9474 44.1424 43.0376 44.0131 43.1458 43.9169C43.254 43.8147 43.4013 43.7275 43.5877 43.6554C43.7801 43.5772 43.9635 43.5201 44.1378 43.484C44.3122 43.442 44.5346 43.3999 44.8052 43.3578C44.9795 43.3337 45.1028 43.3157 45.1749 43.3037C45.2531 43.2856 45.3523 43.2616 45.4725 43.2315C45.5927 43.1955 45.6769 43.1564 45.725 43.1143C45.7731 43.0722 45.8182 43.0151 45.8603 42.943C45.9024 42.8708 45.9234 42.7866 45.9234 42.6904C45.9234 42.4259 45.8302 42.2245 45.6438 42.0862C45.4635 41.9419 45.208 41.8698 44.8773 41.8698C44.1258 41.8698 43.738 42.2125 43.714 42.8979H43.0105C43.0226 42.4229 43.1849 42.0411 43.4975 41.7526C43.8162 41.464 44.2731 41.3197 44.8683 41.3197C46.0166 41.3197 46.5908 41.8127 46.5908 42.7987V45.0171C46.5908 45.2216 46.6238 45.3658 46.69 45.45C46.7621 45.5342 46.8944 45.5552 47.0868 45.5131H47.1138V46.0452C46.9936 46.0933 46.8613 46.1174 46.717 46.1174ZM44.5166 45.6033C44.9675 45.6033 45.3162 45.4741 45.5627 45.2155C45.8092 44.951 45.9324 44.6624 45.9324 44.3498V43.5562C45.71 43.6945 45.3553 43.8087 44.8683 43.8989C44.6879 43.935 44.5466 43.965 44.4444 43.9891C44.3422 44.0071 44.225 44.0432 44.0927 44.0973C43.9605 44.1454 43.8613 44.1995 43.7951 44.2596C43.729 44.3197 43.6719 44.4009 43.6238 44.5031C43.5757 44.5993 43.5516 44.7135 43.5516 44.8458C43.5516 45.3508 43.8733 45.6033 44.5166 45.6033ZM49.6007 46.2075C48.9634 46.2075 48.4674 46.0663 48.1127 45.7837C47.764 45.4951 47.5716 45.0863 47.5356 44.5572H48.2841C48.3682 45.2486 48.8131 45.5943 49.6188 45.5943C49.9855 45.5943 50.256 45.5252 50.4304 45.3869C50.6108 45.2426 50.7009 45.0562 50.7009 44.8278C50.7009 44.5813 50.6138 44.4039 50.4394 44.2957C50.2651 44.1875 49.9464 44.0853 49.4835 43.9891C49.2911 43.947 49.1378 43.9139 49.0236 43.8899C48.9153 43.8598 48.7831 43.8207 48.6268 43.7726C48.4704 43.7185 48.3472 43.6614 48.257 43.6013C48.1728 43.5352 48.0857 43.457 47.9955 43.3668C47.9053 43.2766 47.8392 43.1654 47.7971 43.0331C47.761 42.9009 47.743 42.7536 47.743 42.5912C47.743 42.1944 47.8873 41.8818 48.1758 41.6534C48.4704 41.4249 48.8853 41.3107 49.4204 41.3107C50.5266 41.3107 51.1368 41.7976 51.251 42.7716H50.5025C50.4665 42.465 50.3613 42.2425 50.1869 42.1043C50.0125 41.96 49.751 41.8878 49.4023 41.8878C49.0837 41.8878 48.8462 41.951 48.6899 42.0772C48.5396 42.1975 48.4644 42.3568 48.4644 42.5552C48.4644 42.7836 48.5546 42.946 48.735 43.0422C48.9153 43.1323 49.243 43.2255 49.718 43.3217C50.0065 43.3818 50.232 43.439 50.3943 43.4931C50.5627 43.5412 50.737 43.6193 50.9174 43.7275C51.0977 43.8297 51.23 43.968 51.3142 44.1424C51.3983 44.3167 51.4404 44.5332 51.4404 44.7917C51.4404 45.2486 51.2721 45.6003 50.9354 45.8468C50.5987 46.0873 50.1538 46.2075 49.6007 46.2075ZM52.3201 46.0723V41.4099H53.0505V46.0723H52.3201ZM52.3201 40.5261V39.6243H53.0505V40.5261H52.3201ZM54.957 41.4099V42.0231H54.9751C55.3358 41.5421 55.8288 41.3016 56.454 41.3016C56.947 41.3016 57.3318 41.4309 57.6084 41.6894C57.8849 41.948 58.0232 42.3177 58.0232 42.7987V46.0723H57.2927V42.8618C57.2927 42.5612 57.1995 42.3297 57.0132 42.1674C56.8268 41.9991 56.5683 41.9149 56.2376 41.9149C55.8649 41.9149 55.5582 42.0351 55.3178 42.2756C55.0773 42.5161 54.957 42.8257 54.957 43.2045V46.0723H54.2266V41.4099H54.957ZM61.0291 47.6234C60.4339 47.6234 59.965 47.5092 59.6223 47.2807C59.2856 47.0583 59.0963 46.7426 59.0542 46.3338H59.7305C59.7967 46.8088 60.2235 47.0462 61.0111 47.0462C61.9009 47.0462 62.3458 46.6464 62.3458 45.8468V45.1885H62.3278C62.1414 45.429 61.943 45.6093 61.7326 45.7296C61.5221 45.8498 61.2606 45.9099 60.948 45.9099C60.3468 45.9099 59.8568 45.6935 59.478 45.2606C59.0993 44.8278 58.9099 44.2746 58.9099 43.6013C58.9099 42.8979 59.0993 42.3387 59.478 41.9239C59.8628 41.5091 60.3378 41.3016 60.9029 41.3016C61.5161 41.3016 61.9911 41.5361 62.3278 42.0051H62.3458V41.4099H63.0763V45.8198C63.0763 46.415 62.8929 46.8629 62.5262 47.1635C62.1654 47.4701 61.6664 47.6234 61.0291 47.6234ZM60.9841 45.2967C61.928 45.2967 62.3999 44.7195 62.3999 43.5652C62.3999 42.465 61.925 41.9149 60.975 41.9149C60.5482 41.9149 60.2205 42.0682 59.9921 42.3748C59.7696 42.6814 59.6584 43.0933 59.6584 43.6103C59.6584 44.1273 59.7726 44.5392 60.0011 44.8458C60.2295 45.1464 60.5572 45.2967 60.9841 45.2967ZM67.8573 46.1985C67.1779 46.1985 66.6308 45.964 66.2159 45.4951C65.8071 45.0262 65.6027 44.443 65.6027 43.7456C65.6027 43.0482 65.8071 42.465 66.2159 41.996C66.6308 41.5271 67.1779 41.2926 67.8573 41.2926C68.4044 41.2926 68.8523 41.4399 69.201 41.7345C69.5497 42.0231 69.7661 42.4169 69.8503 42.9159H69.1108C69.0567 42.5973 68.9214 42.3478 68.705 42.1674C68.4885 41.987 68.206 41.8968 67.8573 41.8968C67.3763 41.8968 67.0035 42.0712 66.739 42.4199C66.4805 42.7686 66.3512 43.2105 66.3512 43.7456C66.3512 44.2807 66.4805 44.7225 66.739 45.0712C67.0035 45.4139 67.3763 45.5853 67.8573 45.5853C68.23 45.5853 68.5276 45.4861 68.7501 45.2877C68.9725 45.0833 69.0988 44.7977 69.1288 44.431H69.8503C69.8022 44.9901 69.6038 45.426 69.2551 45.7386C68.9064 46.0452 68.4404 46.1985 67.8573 46.1985ZM74.3463 45.4951C73.9375 45.964 73.3934 46.1985 72.714 46.1985C72.0347 46.1985 71.4876 45.964 71.0727 45.4951C70.6639 45.0262 70.4595 44.443 70.4595 43.7456C70.4595 43.0482 70.6639 42.465 71.0727 41.996C71.4876 41.5271 72.0347 41.2926 72.714 41.2926C73.3934 41.2926 73.9375 41.5271 74.3463 41.996C74.7552 42.465 74.9596 43.0482 74.9596 43.7456C74.9596 44.443 74.7552 45.0262 74.3463 45.4951ZM71.5958 45.0712C71.8603 45.4139 72.2331 45.5853 72.714 45.5853C73.195 45.5853 73.5648 45.4139 73.8233 45.0712C74.0818 44.7225 74.2111 44.2807 74.2111 43.7456C74.2111 43.2045 74.0788 42.7626 73.8143 42.4199C73.5557 42.0712 73.189 41.8968 72.714 41.8968C72.2331 41.8968 71.8603 42.0712 71.5958 42.4199C71.3373 42.7686 71.208 43.2105 71.208 43.7456C71.208 44.2807 71.3373 44.7225 71.5958 45.0712ZM75.8684 46.0723V41.4099H76.5989V42.0772H76.6169C76.7672 41.8427 76.9626 41.6564 77.2031 41.5181C77.4436 41.3738 77.7051 41.3016 77.9877 41.3016C78.5949 41.3016 79.0007 41.5782 79.2052 42.1313H79.2232C79.3675 41.8728 79.5689 41.6714 79.8274 41.5271C80.0859 41.3768 80.3595 41.3016 80.6481 41.3016C81.0749 41.3016 81.4176 41.4339 81.6761 41.6984C81.9347 41.957 82.0639 42.3237 82.0639 42.7987V46.0723H81.3334V42.8347C81.3334 42.5522 81.2493 42.3297 81.0809 42.1674C80.9186 41.9991 80.7172 41.9149 80.4767 41.9149C80.1701 41.9149 79.9026 42.0351 79.6741 42.2756C79.4456 42.5161 79.3314 42.8137 79.3314 43.1684V46.0723H78.6009V42.8347C78.6009 42.5522 78.5258 42.3297 78.3755 42.1674C78.2312 41.9991 78.0388 41.9149 77.7983 41.9149C77.4977 41.9149 77.2212 42.0381 76.9686 42.2846C76.7222 42.5251 76.5989 42.8197 76.5989 43.1684V46.0723H75.8684ZM83.2087 47.5693V41.4099H83.9392V42.0682H83.9572C84.336 41.5572 84.835 41.3016 85.4543 41.3016C86.0555 41.3016 86.5394 41.5211 86.9062 41.96C87.2729 42.3928 87.4563 42.9911 87.4563 43.7546C87.4563 44.5061 87.2759 45.1043 86.9152 45.5492C86.5545 45.9881 86.0585 46.2075 85.4272 46.2075C84.8019 46.2075 84.312 45.9791 83.9572 45.5222H83.9392V47.5693H83.2087ZM85.3731 45.5943C85.806 45.5943 86.1366 45.426 86.3651 45.0893C86.5936 44.7526 86.7078 44.3107 86.7078 43.7636C86.7078 43.2165 86.5936 42.7746 86.3651 42.4379C86.1366 42.0952 85.809 41.9239 85.3821 41.9239C84.8951 41.9239 84.5254 42.0983 84.2729 42.447C84.0204 42.7896 83.8941 43.2285 83.8941 43.7636C83.8941 44.3107 84.0144 44.7526 84.2548 45.0893C84.4953 45.426 84.8681 45.5943 85.3731 45.5943ZM90.358 46.1985C89.6666 46.1985 89.1165 45.9671 88.7076 45.5041C88.3048 45.0352 88.1034 44.449 88.1034 43.7456C88.1034 43.0542 88.3078 42.474 88.7167 42.0051C89.1315 41.5301 89.6636 41.2926 90.3129 41.2926C90.9983 41.2926 91.5273 41.5331 91.9001 42.0141C92.2728 42.489 92.4592 43.1233 92.4592 43.9169H88.8519C88.882 44.4099 89.0263 44.8127 89.2848 45.1254C89.5493 45.432 89.9071 45.5853 90.358 45.5853C91.0554 45.5853 91.4852 45.2666 91.6476 44.6294H92.36C92.2518 45.1284 92.0233 45.5161 91.6746 45.7927C91.3259 46.0632 90.887 46.1985 90.358 46.1985ZM91.2868 42.2666C91.0524 42.0021 90.7277 41.8698 90.3129 41.8698C89.898 41.8698 89.5674 42.0081 89.3209 42.2846C89.0804 42.5612 88.9301 42.9219 88.87 43.3668H91.6746C91.6506 42.8979 91.5213 42.5311 91.2868 42.2666ZM92.9682 42.0051V41.4099H93.6445V39.9399H94.375V41.4099H95.2768V42.0051H94.375V45.0352C94.375 45.3238 94.5313 45.468 94.8439 45.468C94.9762 45.468 95.1055 45.447 95.2317 45.4049H95.2588V46.0362C95.0604 46.0783 94.865 46.0993 94.6726 46.0993C93.9872 46.0993 93.6445 45.7987 93.6445 45.1975V42.0051H92.9682ZM96.2115 46.0723V41.4099H96.9419V46.0723H96.2115ZM96.2115 40.5261V39.6243H96.9419V40.5261H96.2115ZM97.8204 42.0051V41.4099H98.4967V39.9399H99.2272V41.4099H100.129V42.0051H99.2272V45.0352C99.2272 45.3238 99.3835 45.468 99.6962 45.468C99.8284 45.468 99.9577 45.447 100.084 45.4049H100.111V46.0362C99.9126 46.0783 99.7172 46.0993 99.5248 46.0993C98.8394 46.0993 98.4967 45.7987 98.4967 45.1975V42.0051H97.8204ZM101.064 46.0723V41.4099H101.794V46.0723H101.064ZM101.064 40.5261V39.6243H101.794V40.5261H101.064ZM106.595 45.4951C106.187 45.964 105.643 46.1985 104.963 46.1985C104.284 46.1985 103.737 45.964 103.322 45.4951C102.913 45.0262 102.709 44.443 102.709 43.7456C102.709 43.0482 102.913 42.465 103.322 41.996C103.737 41.5271 104.284 41.2926 104.963 41.2926C105.643 41.2926 106.187 41.5271 106.595 41.996C107.004 42.465 107.209 43.0482 107.209 43.7456C107.209 44.443 107.004 45.0262 106.595 45.4951ZM103.845 45.0712C104.109 45.4139 104.482 45.5853 104.963 45.5853C105.444 45.5853 105.814 45.4139 106.072 45.0712C106.331 44.7225 106.46 44.2807 106.46 43.7456C106.46 43.2045 106.328 42.7626 106.063 42.4199C105.805 42.0712 105.438 41.8968 104.963 41.8968C104.482 41.8968 104.109 42.0712 103.845 42.4199C103.586 42.7686 103.457 43.2105 103.457 43.7456C103.457 44.2807 103.586 44.7225 103.845 45.0712ZM108.848 41.4099V42.0231H108.866C109.227 41.5421 109.72 41.3016 110.345 41.3016C110.838 41.3016 111.223 41.4309 111.499 41.6894C111.776 41.948 111.914 42.3177 111.914 42.7987V46.0723H111.184V42.8618C111.184 42.5612 111.091 42.3297 110.904 42.1674C110.718 41.9991 110.459 41.9149 110.129 41.9149C109.756 41.9149 109.449 42.0351 109.209 42.2756C108.968 42.5161 108.848 42.8257 108.848 43.2045V46.0723H108.118V41.4099H108.848ZM112.963 46.0723V45.1795H113.838V46.0723H112.963ZM16.4321 57.8989C16.2277 58.1033 15.9782 58.2055 15.6836 58.2055C15.389 58.2055 15.1365 58.1033 14.9261 57.8989C14.7157 57.6885 14.6105 57.436 14.6105 57.1414C14.6105 56.8468 14.7157 56.5943 14.9261 56.3838C15.1365 56.1734 15.389 56.0682 15.6836 56.0682C15.9782 56.0682 16.2277 56.1734 16.4321 56.3838C16.6426 56.5943 16.7478 56.8468 16.7478 57.1414C16.7478 57.436 16.6426 57.6885 16.4321 57.8989ZM23.0456 60.0723V53.6243H23.9023L26.8422 58.1063L27.3112 58.936H27.3292V53.6243H28.0867V60.0723H27.257L24.2991 55.5812L23.8211 54.7786H23.8031V60.0723H23.0456ZM31.3636 60.1985C30.6722 60.1985 30.1221 59.9671 29.7132 59.5041C29.3104 59.0352 29.109 58.449 29.109 57.7456C29.109 57.0542 29.3134 56.474 29.7222 56.0051C30.1371 55.5301 30.6692 55.2926 31.3185 55.2926C32.0038 55.2926 32.5329 55.5331 32.9057 56.0141C33.2784 56.489 33.4648 57.1233 33.4648 57.9169H29.8575C29.8876 58.4099 30.0319 58.8127 30.2904 59.1254C30.5549 59.432 30.9126 59.5853 31.3636 59.5853C32.061 59.5853 32.4908 59.2666 32.6532 58.6294H33.3656C33.2574 59.1284 33.0289 59.5161 32.6802 59.7927C32.3315 60.0632 31.8926 60.1985 31.3636 60.1985ZM32.2924 56.2666C32.058 56.0021 31.7333 55.8698 31.3185 55.8698C30.9036 55.8698 30.573 56.0081 30.3265 56.2846C30.086 56.5612 29.9357 56.9219 29.8756 57.3668H32.6802C32.6562 56.8979 32.5269 56.5311 32.2924 56.2666ZM36.2172 61.6234C35.622 61.6234 35.153 61.5092 34.8103 61.2807C34.4737 61.0583 34.2843 60.7426 34.2422 60.3338H34.9186C34.9847 60.8088 35.4115 61.0462 36.1991 61.0462C37.0889 61.0462 37.5338 60.6464 37.5338 59.8468V59.1885H37.5158C37.3294 59.429 37.131 59.6093 36.9206 59.7296C36.7102 59.8498 36.4486 59.9099 36.136 59.9099C35.5348 59.9099 35.0448 59.6935 34.666 59.2606C34.2873 58.8278 34.0979 58.2746 34.0979 57.6013C34.0979 56.8979 34.2873 56.3387 34.666 55.9239C35.0508 55.5091 35.5258 55.3016 36.0909 55.3016C36.7042 55.3016 37.1791 55.5361 37.5158 56.0051H37.5338V55.4099H38.2643V59.8198C38.2643 60.415 38.0809 60.8629 37.7142 61.1635C37.3535 61.4701 36.8545 61.6234 36.2172 61.6234ZM36.1721 59.2967C37.116 59.2967 37.5879 58.7195 37.5879 57.5652C37.5879 56.465 37.113 55.9149 36.1631 55.9149C35.7362 55.9149 35.4085 56.0682 35.1801 56.3748C34.9576 56.6814 34.8464 57.0933 34.8464 57.6103C34.8464 58.1273 34.9606 58.5392 35.1891 58.8458C35.4176 59.1464 35.7452 59.2967 36.1721 59.2967ZM43.0978 60.1174C42.6348 60.1174 42.3673 59.8859 42.2951 59.423H42.2861C41.9013 59.916 41.3843 60.1624 40.735 60.1624C40.2721 60.1624 39.8933 60.0512 39.5987 59.8288C39.3041 59.6063 39.1568 59.2847 39.1568 58.8638C39.1568 58.6474 39.1899 58.461 39.256 58.3047C39.3282 58.1424 39.4183 58.0131 39.5266 57.9169C39.6348 57.8147 39.7821 57.7275 39.9685 57.6554C40.1608 57.5772 40.3442 57.5201 40.5186 57.484C40.6929 57.442 40.9154 57.3999 41.1859 57.3578C41.3603 57.3337 41.4835 57.3157 41.5557 57.3037C41.6338 57.2856 41.733 57.2616 41.8533 57.2315C41.9735 57.1955 42.0577 57.1564 42.1058 57.1143C42.1539 57.0722 42.199 57.0151 42.241 56.943C42.2831 56.8708 42.3042 56.7866 42.3042 56.6904C42.3042 56.4259 42.211 56.2245 42.0246 56.0862C41.8442 55.9419 41.5887 55.8698 41.2581 55.8698C40.5065 55.8698 40.1188 56.2125 40.0947 56.8979H39.3913C39.4033 56.4229 39.5656 56.0411 39.8783 55.7526C40.1969 55.464 40.6538 55.3197 41.249 55.3197C42.3973 55.3197 42.9715 55.8127 42.9715 56.7987V59.0171C42.9715 59.2216 43.0046 59.3658 43.0707 59.45C43.1429 59.5342 43.2751 59.5552 43.4675 59.5131H43.4946V60.0452C43.3743 60.0933 43.2421 60.1174 43.0978 60.1174ZM40.8973 59.6033C41.3482 59.6033 41.6969 59.4741 41.9434 59.2155C42.1899 58.951 42.3132 58.6624 42.3132 58.3498V57.5562C42.0907 57.6945 41.736 57.8087 41.249 57.8989C41.0687 57.935 40.9274 57.965 40.8252 57.9891C40.723 58.0071 40.6057 58.0432 40.4735 58.0973C40.3412 58.1454 40.242 58.1995 40.1759 58.2596C40.1097 58.3197 40.0526 58.4009 40.0045 58.5031C39.9564 58.5993 39.9324 58.7135 39.9324 58.8458C39.9324 59.3508 40.254 59.6033 40.8973 59.6033ZM43.8282 56.0051V55.4099H44.5046V53.9399H45.2351V55.4099H46.1369V56.0051H45.2351V59.0352C45.2351 59.3238 45.3914 59.468 45.704 59.468C45.8363 59.468 45.9655 59.447 46.0918 59.4049H46.1189V60.0362C45.9205 60.0783 45.7251 60.0993 45.5327 60.0993C44.8473 60.0993 44.5046 59.7987 44.5046 59.1975V56.0051H43.8282ZM47.0715 60.0723V55.4099H47.802V60.0723H47.0715ZM47.0715 54.5261V53.6243H47.802V54.5261H47.0715ZM50.1324 60.0723L48.5001 55.4099H49.2847L50.2496 58.3678L50.5562 59.3508H50.5743C50.6885 58.966 50.7907 58.6384 50.8809 58.3678L51.8639 55.4099H52.6214L50.944 60.0723H50.1324ZM55.2202 60.1985C54.5288 60.1985 53.9787 59.9671 53.5698 59.5041C53.167 59.0352 52.9656 58.449 52.9656 57.7456C52.9656 57.0542 53.17 56.474 53.5789 56.0051C53.9937 55.5301 54.5258 55.2926 55.1751 55.2926C55.8605 55.2926 56.3895 55.5331 56.7623 56.0141C57.135 56.489 57.3214 57.1233 57.3214 57.9169H53.7141C53.7442 58.4099 53.8885 58.8127 54.147 59.1254C54.4115 59.432 54.7693 59.5853 55.2202 59.5853C55.9176 59.5853 56.3474 59.2666 56.5098 58.6294H57.2222C57.114 59.1284 56.8855 59.5161 56.5368 59.7927C56.1881 60.0632 55.7492 60.1985 55.2202 60.1985ZM56.149 56.2666C55.9146 56.0021 55.5899 55.8698 55.1751 55.8698C54.7602 55.8698 54.4296 56.0081 54.1831 56.2846C53.9426 56.5612 53.7923 56.9219 53.7322 57.3668H56.5368C56.5128 56.8979 56.3835 56.5311 56.149 56.2666ZM60.5624 55.4099V56.1854H60.5804C60.7307 55.9389 60.9261 55.7405 61.1666 55.5902C61.4071 55.4339 61.6746 55.3558 61.9692 55.3558C62.0774 55.3558 62.1766 55.3738 62.2668 55.4099V56.1133H62.2398C62.1496 56.0832 62.0414 56.0682 61.9151 56.0682C61.5424 56.0682 61.2237 56.2005 60.9592 56.465C60.6947 56.7235 60.5624 57.0632 60.5624 57.484V60.0723H59.8319V55.4099H60.5624ZM64.9204 60.1985C64.229 60.1985 63.6789 59.9671 63.27 59.5041C62.8672 59.0352 62.6658 58.449 62.6658 57.7456C62.6658 57.0542 62.8702 56.474 63.279 56.0051C63.6939 55.5301 64.226 55.2926 64.8753 55.2926C65.5606 55.2926 66.0897 55.5331 66.4625 56.0141C66.8352 56.489 67.0216 57.1233 67.0216 57.9169H63.4143C63.4444 58.4099 63.5887 58.8127 63.8472 59.1254C64.1117 59.432 64.4694 59.5853 64.9204 59.5853C65.6178 59.5853 66.0476 59.2666 66.21 58.6294H66.9224C66.8142 59.1284 66.5857 59.5161 66.237 59.7927C65.8883 60.0632 65.4494 60.1985 64.9204 60.1985ZM65.8492 56.2666C65.6148 56.0021 65.2901 55.8698 64.8753 55.8698C64.4604 55.8698 64.1298 56.0081 63.8833 56.2846C63.6428 56.5612 63.4925 56.9219 63.4324 57.3668H66.237C66.213 56.8979 66.0837 56.5311 65.8492 56.2666ZM68.9825 60.0723L67.3502 55.4099H68.1348L69.0997 58.3678L69.4063 59.3508H69.4244C69.5386 58.966 69.6408 58.6384 69.731 58.3678L70.714 55.4099H71.4715L69.7941 60.0723H68.9825ZM72.1653 60.0723V55.4099H72.8958V60.0723H72.1653ZM72.1653 54.5261V53.6243H72.8958V54.5261H72.1653ZM76.0649 60.1985C75.3735 60.1985 74.8234 59.9671 74.4145 59.5041C74.0117 59.0352 73.8103 58.449 73.8103 57.7456C73.8103 57.0542 74.0147 56.474 74.4235 56.0051C74.8384 55.5301 75.3705 55.2926 76.0198 55.2926C76.7051 55.2926 77.2342 55.5331 77.607 56.0141C77.9797 56.489 78.1661 57.1233 78.1661 57.9169H74.5588C74.5889 58.4099 74.7332 58.8127 74.9917 59.1254C75.2562 59.432 75.6139 59.5853 76.0649 59.5853C76.7623 59.5853 77.1921 59.2666 77.3545 58.6294H78.0669C77.9587 59.1284 77.7302 59.5161 77.3815 59.7927C77.0328 60.0632 76.5939 60.1985 76.0649 60.1985ZM76.9937 56.2666C76.7593 56.0021 76.4346 55.8698 76.0198 55.8698C75.6049 55.8698 75.2743 56.0081 75.0278 56.2846C74.7873 56.5612 74.637 56.9219 74.5769 57.3668H77.3815C77.3575 56.8979 77.2282 56.5311 76.9937 56.2666ZM79.9917 60.0723L78.5127 55.4099H79.2973L80.118 58.2867L80.3705 59.2877H80.3885C80.4787 58.8789 80.5568 58.5512 80.623 58.3047L81.4076 55.4099H82.1741L82.9316 58.3047L83.1571 59.2877H83.1751C83.2713 58.8789 83.3585 58.5452 83.4367 58.2867L84.3024 55.4099H85.0599L83.5359 60.0723H82.7873L82.0118 57.2496L81.7863 56.2756H81.7683C81.6841 56.6664 81.606 56.9911 81.5338 57.2496L80.7492 60.0723H79.9917ZM87.4993 60.2075C86.862 60.2075 86.366 60.0663 86.0113 59.7837C85.6626 59.4951 85.4702 59.0863 85.4341 58.5572H86.1826C86.2668 59.2486 86.7117 59.5943 87.5173 59.5943C87.884 59.5943 88.1546 59.5252 88.3289 59.3869C88.5093 59.2426 88.5995 59.0562 88.5995 58.8278C88.5995 58.5813 88.5123 58.4039 88.338 58.2957C88.1636 58.1875 87.845 58.0853 87.382 57.9891C87.1896 57.947 87.0363 57.9139 86.9221 57.8899C86.8139 57.8598 86.6816 57.8207 86.5253 57.7726C86.369 57.7185 86.2457 57.6614 86.1556 57.6013C86.0714 57.5352 85.9842 57.457 85.894 57.3668C85.8039 57.2766 85.7377 57.1654 85.6956 57.0331C85.6596 56.9009 85.6415 56.7536 85.6415 56.5912C85.6415 56.1944 85.7858 55.8818 86.0744 55.6534C86.369 55.4249 86.7838 55.3107 87.3189 55.3107C88.4251 55.3107 89.0354 55.7976 89.1496 56.7716H88.4011C88.365 56.465 88.2598 56.2425 88.0855 56.1043C87.9111 55.96 87.6496 55.8878 87.3009 55.8878C86.9822 55.8878 86.7448 55.951 86.5884 56.0772C86.4381 56.1975 86.363 56.3568 86.363 56.5552C86.363 56.7836 86.4532 56.946 86.6335 57.0422C86.8139 57.1323 87.1416 57.2255 87.6165 57.3217C87.9051 57.3818 88.1305 57.439 88.2929 57.4931C88.4612 57.5412 88.6356 57.6193 88.8159 57.7275C88.9963 57.8297 89.1286 57.968 89.2127 58.1424C89.2969 58.3167 89.339 58.5332 89.339 58.7917C89.339 59.2486 89.1706 59.6003 88.834 59.8468C88.4973 60.0873 88.0524 60.2075 87.4993 60.2075ZM95.4598 59.4951C95.051 59.964 94.5069 60.1985 93.8275 60.1985C93.1481 60.1985 92.601 59.964 92.1862 59.4951C91.7774 59.0262 91.573 58.443 91.573 57.7456C91.573 57.0482 91.7774 56.465 92.1862 55.996C92.601 55.5271 93.1481 55.2926 93.8275 55.2926C94.5069 55.2926 95.051 55.5271 95.4598 55.996C95.8686 56.465 96.073 57.0482 96.073 57.7456C96.073 58.443 95.8686 59.0262 95.4598 59.4951ZM92.7092 59.0712C92.9738 59.4139 93.3465 59.5853 93.8275 59.5853C94.3085 59.5853 94.6782 59.4139 94.9367 59.0712C95.1953 58.7225 95.3245 58.2807 95.3245 57.7456C95.3245 57.2045 95.1923 56.7626 94.9277 56.4199C94.6692 56.0712 94.3025 55.8968 93.8275 55.8968C93.3465 55.8968 92.9738 56.0712 92.7092 56.4199C92.4507 56.7686 92.3215 57.2105 92.3215 57.7456C92.3215 58.2807 92.4507 58.7225 92.7092 59.0712ZM97.7124 55.4099V56.0231H97.7304C98.0911 55.5421 98.5841 55.3016 99.2094 55.3016C99.7024 55.3016 100.087 55.4309 100.364 55.6894C100.64 55.948 100.779 56.3177 100.779 56.7987V60.0723H100.048V56.8618C100.048 56.5612 99.9549 56.3297 99.7685 56.1674C99.5821 55.9991 99.3236 55.9149 98.9929 55.9149C98.6202 55.9149 98.3136 56.0351 98.0731 56.2756C97.8326 56.5161 97.7124 56.8257 97.7124 57.2045V60.0723H96.9819V55.4099H97.7124ZM103.57 60.0723V53.6243H104.3V60.0723H103.57ZM109.163 60.1174C108.7 60.1174 108.433 59.8859 108.361 59.423H108.352C107.967 59.916 107.45 60.1624 106.801 60.1624C106.338 60.1624 105.959 60.0512 105.664 59.8288C105.37 59.6063 105.222 59.2847 105.222 58.8638C105.222 58.6474 105.255 58.461 105.322 58.3047C105.394 58.1424 105.484 58.0131 105.592 57.9169C105.7 57.8147 105.848 57.7275 106.034 57.6554C106.226 57.5772 106.41 57.5201 106.584 57.484C106.758 57.442 106.981 57.3999 107.251 57.3578C107.426 57.3337 107.549 57.3157 107.621 57.3037C107.699 57.2856 107.799 57.2616 107.919 57.2315C108.039 57.1955 108.123 57.1564 108.171 57.1143C108.219 57.0722 108.265 57.0151 108.307 56.943C108.349 56.8708 108.37 56.7866 108.37 56.6904C108.37 56.4259 108.277 56.2245 108.09 56.0862C107.91 55.9419 107.654 55.8698 107.324 55.8698C106.572 55.8698 106.184 56.2125 106.16 56.8979H105.457C105.469 56.4229 105.631 56.0411 105.944 55.7526C106.262 55.464 106.719 55.3197 107.315 55.3197C108.463 55.3197 109.037 55.8127 109.037 56.7987V59.0171C109.037 59.2216 109.07 59.3658 109.136 59.45C109.208 59.5342 109.341 59.5552 109.533 59.5131H109.56V60.0452C109.44 60.0933 109.308 60.1174 109.163 60.1174ZM106.963 59.6033C107.414 59.6033 107.763 59.4741 108.009 59.2155C108.256 58.951 108.379 58.6624 108.379 58.3498V57.5562C108.156 57.6945 107.802 57.8087 107.315 57.8989C107.134 57.935 106.993 57.965 106.891 57.9891C106.789 58.0071 106.671 58.0432 106.539 58.0973C106.407 58.1454 106.308 58.1995 106.241 58.2596C106.175 58.3197 106.118 58.4009 106.07 58.5031C106.022 58.5993 105.998 58.7135 105.998 58.8458C105.998 59.3508 106.32 59.6033 106.963 59.6033ZM112.273 60.1985C111.593 60.1985 111.046 59.964 110.631 59.4951C110.222 59.0262 110.018 58.443 110.018 57.7456C110.018 57.0482 110.222 56.465 110.631 55.996C111.046 55.5271 111.593 55.2926 112.273 55.2926C112.82 55.2926 113.268 55.4399 113.616 55.7345C113.965 56.0231 114.181 56.4169 114.266 56.9159H113.526C113.472 56.5973 113.337 56.3478 113.12 56.1674C112.904 55.987 112.621 55.8968 112.273 55.8968C111.792 55.8968 111.419 56.0712 111.154 56.4199C110.896 56.7686 110.766 57.2105 110.766 57.7456C110.766 58.2807 110.896 58.7225 111.154 59.0712C111.419 59.4139 111.792 59.5853 112.273 59.5853C112.645 59.5853 112.943 59.4861 113.165 59.2877C113.388 59.0833 113.514 58.7977 113.544 58.431H114.266C114.217 58.9901 114.019 59.426 113.67 59.7386C113.322 60.0452 112.856 60.1985 112.273 60.1985ZM118.202 60.0723L116.552 57.5562L115.867 58.2055V60.0723H115.136V53.6243H115.867V57.4029L117.914 55.4099H118.843L117.057 57.0872L119.059 60.0723H118.202ZM124.97 59.4951C124.561 59.964 124.017 60.1985 123.338 60.1985C122.658 60.1985 122.111 59.964 121.696 59.4951C121.288 59.0262 121.083 58.443 121.083 57.7456C121.083 57.0482 121.288 56.465 121.696 55.996C122.111 55.5271 122.658 55.2926 123.338 55.2926C124.017 55.2926 124.561 55.5271 124.97 55.996C125.379 56.465 125.583 57.0482 125.583 57.7456C125.583 58.443 125.379 59.0262 124.97 59.4951ZM122.219 59.0712C122.484 59.4139 122.857 59.5853 123.338 59.5853C123.819 59.5853 124.188 59.4139 124.447 59.0712C124.706 58.7225 124.835 58.2807 124.835 57.7456C124.835 57.2045 124.702 56.7626 124.438 56.4199C124.179 56.0712 123.813 55.8968 123.338 55.8968C122.857 55.8968 122.484 56.0712 122.219 56.4199C121.961 56.7686 121.832 57.2105 121.832 57.7456C121.832 58.2807 121.961 58.7225 122.219 59.0712ZM126.106 56.0051V55.4099H126.747V54.6614C126.747 54.2766 126.852 54 127.062 53.8317C127.273 53.6573 127.579 53.5702 127.982 53.5702C128.096 53.5702 128.22 53.5762 128.352 53.5882V54.2104C128.268 54.2044 128.19 54.2014 128.118 54.2014C127.883 54.2014 127.718 54.2375 127.622 54.3096C127.525 54.3818 127.477 54.5111 127.477 54.6974V55.4099H128.343V56.0051H127.477V60.0723H126.747V56.0051H126.106ZM132.844 60.1985C132.165 60.1985 131.618 59.964 131.203 59.4951C130.794 59.0262 130.59 58.443 130.59 57.7456C130.59 57.0482 130.794 56.465 131.203 55.996C131.618 55.5271 132.165 55.2926 132.844 55.2926C133.391 55.2926 133.839 55.4399 134.188 55.7345C134.537 56.0231 134.753 56.4169 134.837 56.9159H134.098C134.044 56.5973 133.908 56.3478 133.692 56.1674C133.475 55.987 133.193 55.8968 132.844 55.8968C132.363 55.8968 131.99 56.0712 131.726 56.4199C131.467 56.7686 131.338 57.2105 131.338 57.7456C131.338 58.2807 131.467 58.7225 131.726 59.0712C131.99 59.4139 132.363 59.5853 132.844 59.5853C133.217 59.5853 133.515 59.4861 133.737 59.2877C133.959 59.0833 134.086 58.7977 134.116 58.431H134.837C134.789 58.9901 134.591 59.426 134.242 59.7386C133.893 60.0452 133.427 60.1985 132.844 60.1985ZM139.405 60.0723H138.675V59.432H138.657C138.29 59.931 137.821 60.1805 137.25 60.1805C136.769 60.1805 136.387 60.0452 136.105 59.7747C135.822 59.4981 135.681 59.1193 135.681 58.6384V55.4099H136.411V58.6203C136.411 58.9209 136.502 59.1554 136.682 59.3238C136.868 59.4921 137.127 59.5763 137.457 59.5763C137.824 59.5763 138.119 59.453 138.341 59.2065C138.564 58.96 138.675 58.6504 138.675 58.2776V55.4099H139.405V60.0723ZM142.341 60.2075C141.704 60.2075 141.208 60.0663 140.853 59.7837C140.504 59.4951 140.312 59.0863 140.276 58.5572H141.024C141.109 59.2486 141.554 59.5943 142.359 59.5943C142.726 59.5943 142.996 59.5252 143.171 59.3869C143.351 59.2426 143.441 59.0562 143.441 58.8278C143.441 58.5813 143.354 58.4039 143.18 58.2957C143.005 58.1875 142.687 58.0853 142.224 57.9891C142.031 57.947 141.878 57.9139 141.764 57.8899C141.656 57.8598 141.523 57.8207 141.367 57.7726C141.211 57.7185 141.088 57.6614 140.997 57.6013C140.913 57.5352 140.826 57.457 140.736 57.3668C140.646 57.2766 140.58 57.1654 140.537 57.0331C140.501 56.9009 140.483 56.7536 140.483 56.5912C140.483 56.1944 140.628 55.8818 140.916 55.6534C141.211 55.4249 141.626 55.3107 142.161 55.3107C143.267 55.3107 143.877 55.7976 143.991 56.7716H143.243C143.207 56.465 143.102 56.2425 142.927 56.1043C142.753 55.96 142.491 55.8878 142.143 55.8878C141.824 55.8878 141.587 55.951 141.43 56.0772C141.28 56.1975 141.205 56.3568 141.205 56.5552C141.205 56.7836 141.295 56.946 141.475 57.0422C141.656 57.1323 141.983 57.2255 142.458 57.3217C142.747 57.3818 142.972 57.439 143.135 57.4931C143.303 57.5412 143.477 57.6193 143.658 57.7275C143.838 57.8297 143.97 57.968 144.055 58.1424C144.139 58.3167 144.181 58.5332 144.181 58.7917C144.181 59.2486 144.012 59.6003 143.676 59.8468C143.339 60.0873 142.894 60.2075 142.341 60.2075ZM144.675 56.0051V55.4099H145.351V53.9399H146.082V55.4099H146.983V56.0051H146.082V59.0352C146.082 59.3238 146.238 59.468 146.551 59.468C146.683 59.468 146.812 59.447 146.938 59.4049H146.965V60.0362C146.767 60.0783 146.572 60.0993 146.379 60.0993C145.694 60.0993 145.351 59.7987 145.351 59.1975V56.0051H144.675ZM151.499 59.4951C151.091 59.964 150.546 60.1985 149.867 60.1985C149.188 60.1985 148.641 59.964 148.226 59.4951C147.817 59.0262 147.612 58.443 147.612 57.7456C147.612 57.0482 147.817 56.465 148.226 55.996C148.641 55.5271 149.188 55.2926 149.867 55.2926C150.546 55.2926 151.091 55.5271 151.499 55.996C151.908 56.465 152.113 57.0482 152.113 57.7456C152.113 58.443 151.908 59.0262 151.499 59.4951ZM148.749 59.0712C149.013 59.4139 149.386 59.5853 149.867 59.5853C150.348 59.5853 150.718 59.4139 150.976 59.0712C151.235 58.7225 151.364 58.2807 151.364 57.7456C151.364 57.2045 151.232 56.7626 150.967 56.4199C150.709 56.0712 150.342 55.8968 149.867 55.8968C149.386 55.8968 149.013 56.0712 148.749 56.4199C148.49 56.7686 148.361 57.2105 148.361 57.7456C148.361 58.2807 148.49 58.7225 148.749 59.0712ZM153.021 60.0723V55.4099H153.752V56.0772H153.77C153.92 55.8427 154.116 55.6564 154.356 55.5181C154.597 55.3738 154.858 55.3016 155.141 55.3016C155.748 55.3016 156.154 55.5782 156.358 56.1313H156.376C156.52 55.8728 156.722 55.6714 156.98 55.5271C157.239 55.3768 157.512 55.3016 157.801 55.3016C158.228 55.3016 158.571 55.4339 158.829 55.6984C159.088 55.957 159.217 56.3237 159.217 56.7987V60.0723H158.486V56.8347C158.486 56.5522 158.402 56.3297 158.234 56.1674C158.072 55.9991 157.87 55.9149 157.63 55.9149C157.323 55.9149 157.056 56.0351 156.827 56.2756C156.599 56.5161 156.484 56.8137 156.484 57.1684V60.0723H155.754V56.8347C155.754 56.5522 155.679 56.3297 155.528 56.1674C155.384 55.9991 155.192 55.9149 154.951 55.9149C154.651 55.9149 154.374 56.0381 154.122 56.2846C153.875 56.5251 153.752 56.8197 153.752 57.1684V60.0723H153.021ZM162.355 60.1985C161.663 60.1985 161.113 59.9671 160.704 59.5041C160.302 59.0352 160.1 58.449 160.1 57.7456C160.1 57.0542 160.305 56.474 160.713 56.0051C161.128 55.5301 161.66 55.2926 162.31 55.2926C162.995 55.2926 163.524 55.5331 163.897 56.0141C164.27 56.489 164.456 57.1233 164.456 57.9169H160.849C160.879 58.4099 161.023 58.8127 161.282 59.1254C161.546 59.432 161.904 59.5853 162.355 59.5853C163.052 59.5853 163.482 59.2666 163.644 58.6294H164.357C164.249 59.1284 164.02 59.5161 163.671 59.7927C163.323 60.0632 162.884 60.1985 162.355 60.1985ZM163.284 56.2666C163.049 56.0021 162.725 55.8698 162.31 55.8698C161.895 55.8698 161.564 56.0081 161.318 56.2846C161.077 56.5612 160.927 56.9219 160.867 57.3668H163.671C163.647 56.8979 163.518 56.5311 163.284 56.2666ZM166.081 55.4099V56.1854H166.099C166.249 55.9389 166.445 55.7405 166.685 55.5902C166.926 55.4339 167.193 55.3558 167.488 55.3558C167.596 55.3558 167.695 55.3738 167.786 55.4099V56.1133H167.758C167.668 56.0832 167.56 56.0682 167.434 56.0682C167.061 56.0682 166.742 56.2005 166.478 56.465C166.213 56.7235 166.081 57.0632 166.081 57.484V60.0723H165.351V55.4099H166.081ZM172.006 60.2075C171.368 60.2075 170.872 60.0663 170.518 59.7837C170.169 59.4951 169.977 59.0863 169.94 58.5572H170.689C170.773 59.2486 171.218 59.5943 172.024 59.5943C172.39 59.5943 172.661 59.5252 172.835 59.3869C173.016 59.2426 173.106 59.0562 173.106 58.8278C173.106 58.5813 173.019 58.4039 172.844 58.2957C172.67 58.1875 172.351 58.0853 171.888 57.9891C171.696 57.947 171.543 57.9139 171.428 57.8899C171.32 57.8598 171.188 57.8207 171.032 57.7726C170.875 57.7185 170.752 57.6614 170.662 57.6013C170.578 57.5352 170.491 57.457 170.4 57.3668C170.31 57.2766 170.244 57.1654 170.202 57.0331C170.166 56.9009 170.148 56.7536 170.148 56.5912C170.148 56.1944 170.292 55.8818 170.581 55.6534C170.875 55.4249 171.29 55.3107 171.825 55.3107C172.931 55.3107 173.542 55.7976 173.656 56.7716H172.907C172.871 56.465 172.766 56.2425 172.592 56.1043C172.417 55.96 172.156 55.8878 171.807 55.8878C171.489 55.8878 171.251 55.951 171.095 56.0772C170.944 56.1975 170.869 56.3568 170.869 56.5552C170.869 56.7836 170.96 56.946 171.14 57.0422C171.32 57.1323 171.648 57.2255 172.123 57.3217C172.411 57.3818 172.637 57.439 172.799 57.4931C172.968 57.5412 173.142 57.6193 173.322 57.7275C173.503 57.8297 173.635 57.968 173.719 58.1424C173.803 58.3167 173.845 58.5332 173.845 58.7917C173.845 59.2486 173.677 59.6003 173.34 59.8468C173.004 60.0873 172.559 60.2075 172.006 60.2075ZM178.422 60.0723H177.692V59.432H177.674C177.307 59.931 176.838 60.1805 176.267 60.1805C175.786 60.1805 175.404 60.0452 175.122 59.7747C174.839 59.4981 174.698 59.1193 174.698 58.6384V55.4099H175.428V58.6203C175.428 58.9209 175.519 59.1554 175.699 59.3238C175.885 59.4921 176.144 59.5763 176.474 59.5763C176.841 59.5763 177.136 59.453 177.358 59.2065C177.581 58.96 177.692 58.6504 177.692 58.2776V55.4099H178.422V60.0723ZM179.591 61.5693V55.4099H180.321V56.0682H180.339C180.718 55.5572 181.217 55.3016 181.836 55.3016C182.437 55.3016 182.921 55.5211 183.288 55.96C183.655 56.3928 183.838 56.9911 183.838 57.7546C183.838 58.5061 183.658 59.1043 183.297 59.5492C182.936 59.9881 182.44 60.2075 181.809 60.2075C181.184 60.2075 180.694 59.9791 180.339 59.5222H180.321V61.5693H179.591ZM181.755 59.5943C182.188 59.5943 182.518 59.426 182.747 59.0893C182.975 58.7526 183.09 58.3107 183.09 57.7636C183.09 57.2165 182.975 56.7746 182.747 56.4379C182.518 56.0952 182.191 55.9239 181.764 55.9239C181.277 55.9239 180.907 56.0983 180.655 56.447C180.402 56.7896 180.276 57.2285 180.276 57.7636C180.276 58.3107 180.396 58.7526 180.637 59.0893C180.877 59.426 181.25 59.5943 181.755 59.5943ZM184.747 61.5693V55.4099H185.477V56.0682H185.495C185.874 55.5572 186.373 55.3016 186.992 55.3016C187.594 55.3016 188.077 55.5211 188.444 55.96C188.811 56.3928 188.994 56.9911 188.994 57.7546C188.994 58.5061 188.814 59.1043 188.453 59.5492C188.093 59.9881 187.597 60.2075 186.965 60.2075C186.34 60.2075 185.85 59.9791 185.495 59.5222H185.477V61.5693H184.747ZM186.911 59.5943C187.344 59.5943 187.675 59.426 187.903 59.0893C188.132 58.7526 188.246 58.3107 188.246 57.7636C188.246 57.2165 188.132 56.7746 187.903 56.4379C187.675 56.0952 187.347 55.9239 186.92 55.9239C186.433 55.9239 186.063 56.0983 185.811 56.447C185.558 56.7896 185.432 57.2285 185.432 57.7636C185.432 58.3107 185.552 58.7526 185.793 59.0893C186.033 59.426 186.406 59.5943 186.911 59.5943ZM193.528 59.4951C193.119 59.964 192.575 60.1985 191.896 60.1985C191.217 60.1985 190.67 59.964 190.255 59.4951C189.846 59.0262 189.641 58.443 189.641 57.7456C189.641 57.0482 189.846 56.465 190.255 55.996C190.67 55.5271 191.217 55.2926 191.896 55.2926C192.575 55.2926 193.119 55.5271 193.528 55.996C193.937 56.465 194.142 57.0482 194.142 57.7456C194.142 58.443 193.937 59.0262 193.528 59.4951ZM190.778 59.0712C191.042 59.4139 191.415 59.5853 191.896 59.5853C192.377 59.5853 192.747 59.4139 193.005 59.0712C193.264 58.7225 193.393 58.2807 193.393 57.7456C193.393 57.2045 193.261 56.7626 192.996 56.4199C192.738 56.0712 192.371 55.8968 191.896 55.8968C191.415 55.8968 191.042 56.0712 190.778 56.4199C190.519 56.7686 190.39 57.2105 190.39 57.7456C190.39 58.2807 190.519 58.7225 190.778 59.0712ZM195.781 55.4099V56.1854H195.799C195.949 55.9389 196.145 55.7405 196.385 55.5902C196.626 55.4339 196.893 55.3558 197.188 55.3558C197.296 55.3558 197.395 55.3738 197.485 55.4099V56.1133H197.458C197.368 56.0832 197.26 56.0682 197.134 56.0682C196.761 56.0682 196.442 56.2005 196.178 56.465C195.913 56.7235 195.781 57.0632 195.781 57.484V60.0723H195.05V55.4099H195.781ZM198.024 56.0051V55.4099H198.701V53.9399H199.431V55.4099H200.333V56.0051H199.431V59.0352C199.431 59.3238 199.587 59.468 199.9 59.468C200.032 59.468 200.162 59.447 200.288 59.4049H200.315V60.0362C200.117 60.0783 199.921 60.0993 199.729 60.0993C199.043 60.0993 198.701 59.7987 198.701 59.1975V56.0051H198.024Z" fill="#070B0E"/>
<path d="M0 27.1333H235V2.81829C235 1.26185 233.738 0.000106812 232.182 0.000106812H2.81817C1.26173 0.000106812 0 1.26185 0 2.81829V27.1333Z" fill="#F2D972"/>
<path d="M96.4178 10.4026V8.45062H105.618V10.4026H102.178V19.8906H99.8578V10.4026H96.4178ZM107.111 19.8906V8.45062H109.431V12.9306H113.927V8.45062H116.247V19.8906H113.927V14.8506H109.431V19.8906H107.111ZM118.322 19.8906V8.45062H123.57C124.668 8.45062 125.554 8.74396 126.226 9.33062C126.908 9.91729 127.25 10.6853 127.25 11.6346C127.25 13.096 126.551 14.0186 125.154 14.4026V14.4506C125.698 14.6106 126.103 14.8666 126.37 15.2186C126.647 15.56 126.823 16.072 126.898 16.7546C126.919 17.0106 126.94 17.3146 126.962 17.6666C126.994 18.008 127.015 18.28 127.026 18.4826C127.047 18.6853 127.068 18.888 127.09 19.0906C127.122 19.2933 127.159 19.4533 127.202 19.5706C127.255 19.6773 127.319 19.7466 127.394 19.7786V19.8906H125.17C125.127 19.8693 125.09 19.832 125.058 19.7786C125.026 19.7146 124.999 19.6293 124.978 19.5226C124.956 19.416 124.935 19.3093 124.914 19.2026C124.903 19.0853 124.887 18.9413 124.866 18.7706C124.855 18.5893 124.844 18.4346 124.834 18.3066C124.823 18.168 124.807 17.992 124.786 17.7786C124.775 17.5546 124.764 17.3786 124.754 17.2506C124.658 15.9493 123.911 15.2986 122.514 15.2986H120.642V19.8906H118.322ZM120.642 10.3226V13.5066H123.106C123.714 13.5066 124.178 13.3626 124.498 13.0746C124.828 12.7866 124.994 12.408 124.994 11.9386C124.994 11.4586 124.839 11.0693 124.53 10.7706C124.22 10.472 123.767 10.3226 123.17 10.3226H120.642ZM129.064 19.8906V8.45062H137.48V10.4026H131.384V12.9626H136.728V14.8666H131.384V17.9546H137.528V19.8906H129.064ZM138.536 19.8906L142.52 8.45062H144.92L148.952 19.8906H146.536L145.768 17.4586H141.64L140.888 19.8906H138.536ZM143.208 12.3866L142.184 15.6826H145.208L144.184 12.3866L143.72 10.6266H143.688C143.496 11.3946 143.336 11.9813 143.208 12.3866ZM148.205 10.4026V8.45062H157.405V10.4026H153.965V19.8906H151.645V10.4026H148.205ZM163.174 20.1466C161.628 20.1466 160.428 19.8213 159.574 19.1706C158.721 18.5093 158.273 17.5706 158.23 16.3546H160.502C160.577 17.0373 160.817 17.528 161.222 17.8266C161.638 18.1253 162.257 18.2746 163.078 18.2746C163.729 18.2746 164.262 18.1573 164.678 17.9226C165.094 17.6773 165.302 17.304 165.302 16.8026C165.302 16.6213 165.276 16.4613 165.222 16.3226C165.18 16.1733 165.084 16.0453 164.934 15.9386C164.785 15.8213 164.657 15.7306 164.55 15.6666C164.444 15.592 164.246 15.5173 163.958 15.4426C163.67 15.3573 163.452 15.2986 163.302 15.2666C163.153 15.224 162.876 15.1546 162.47 15.0586C161.98 14.9413 161.574 14.84 161.254 14.7546C160.945 14.6693 160.598 14.536 160.214 14.3546C159.841 14.1733 159.542 13.976 159.318 13.7626C159.105 13.5386 158.924 13.2506 158.774 12.8986C158.625 12.536 158.55 12.1253 158.55 11.6666C158.55 10.568 158.95 9.72529 159.75 9.13862C160.561 8.54129 161.622 8.24262 162.934 8.24262C164.236 8.24262 165.276 8.55196 166.054 9.17062C166.833 9.78929 167.265 10.6693 167.35 11.8106H165.126C165.062 11.256 164.828 10.8293 164.422 10.5306C164.028 10.232 163.526 10.0826 162.918 10.0826C162.289 10.0826 161.788 10.2053 161.414 10.4506C161.041 10.696 160.854 11.0213 160.854 11.4266C160.854 11.864 161.036 12.184 161.398 12.3866C161.772 12.5893 162.422 12.792 163.35 12.9946C163.905 13.112 164.358 13.224 164.71 13.3306C165.062 13.4266 165.441 13.5706 165.846 13.7626C166.262 13.944 166.582 14.1466 166.806 14.3706C167.041 14.5946 167.233 14.8933 167.382 15.2666C167.542 15.6293 167.622 16.0506 167.622 16.5306C167.622 17.6613 167.212 18.5466 166.39 19.1866C165.569 19.8266 164.497 20.1466 163.174 20.1466Z" fill="#171A1E"/>
</svg>
