<svg width="236" height="156" viewBox="0 0 236 156" fill="none" xmlns="http://www.w3.org/2000/svg">
<path d="M0.556641 152.182C0.556641 153.738 1.81838 155 3.37482 155H231.738C233.295 155 234.557 153.738 234.557 152.182V27.0545H0.556641V152.182Z" fill="#D9D9D9" stroke="#F2D972"/>
<path d="M16.4321 43.8989C16.2277 44.1033 15.9782 44.2055 15.6836 44.2055C15.389 44.2055 15.1365 44.1033 14.9261 43.8989C14.7157 43.6885 14.6105 43.436 14.6105 43.1414C14.6105 42.8468 14.7157 42.5943 14.9261 42.3838C15.1365 42.1734 15.389 42.0682 15.6836 42.0682C15.9782 42.0682 16.2277 42.1734 16.4321 42.3838C16.6426 42.5943 16.7478 42.8468 16.7478 43.1414C16.7478 43.436 16.6426 43.6885 16.4321 43.8989ZM28.0957 46.0723L27.8613 45.2246H27.8432C27.3743 45.8799 26.7039 46.2075 25.8322 46.2075C24.9304 46.2075 24.1999 45.8979 23.6408 45.2787C23.0816 44.6594 22.8021 43.8568 22.8021 42.8708C22.8021 41.8848 23.0726 41.0762 23.6137 40.4449C24.1608 39.8076 24.9243 39.489 25.9043 39.489C26.6378 39.489 27.23 39.6754 27.6809 40.0481C28.1378 40.4149 28.4204 40.9199 28.5286 41.5632H27.6899C27.5997 41.1243 27.4013 40.7876 27.0947 40.5531C26.7881 40.3127 26.3853 40.1924 25.8863 40.1924C25.1408 40.1924 24.5786 40.4389 24.1999 40.9319C23.8211 41.4249 23.6317 42.0712 23.6317 42.8708C23.6317 43.6584 23.8392 44.2957 24.254 44.7827C24.6688 45.2636 25.2039 45.5041 25.8592 45.5041C26.4905 45.5041 26.9715 45.3177 27.3021 44.945C27.6388 44.5722 27.8072 44.0973 27.8072 43.5201V43.3668H25.8682V42.6634H28.6188V46.0723H28.0957ZM33.4362 45.4951C33.0274 45.964 32.4833 46.1985 31.8039 46.1985C31.1245 46.1985 30.5774 45.964 30.1626 45.4951C29.7538 45.0262 29.5494 44.443 29.5494 43.7456C29.5494 43.0482 29.7538 42.465 30.1626 41.996C30.5774 41.5271 31.1245 41.2926 31.8039 41.2926C32.4833 41.2926 33.0274 41.5271 33.4362 41.996C33.845 42.465 34.0494 43.0482 34.0494 43.7456C34.0494 44.443 33.845 45.0262 33.4362 45.4951ZM30.6856 45.0712C30.9502 45.4139 31.3229 45.5853 31.8039 45.5853C32.2849 45.5853 32.6546 45.4139 32.9131 45.0712C33.1717 44.7225 33.3009 44.2807 33.3009 43.7456C33.3009 43.2045 33.1687 42.7626 32.9041 42.4199C32.6456 42.0712 32.2789 41.8968 31.8039 41.8968C31.3229 41.8968 30.9502 42.0712 30.6856 42.4199C30.4271 42.7686 30.2979 43.2105 30.2979 43.7456C30.2979 44.2807 30.4271 44.7225 30.6856 45.0712ZM36.0245 46.0723L34.3923 41.4099H35.1768L36.1418 44.3678L36.4484 45.3508H36.4664C36.5807 44.966 36.6829 44.6384 36.7731 44.3678L37.756 41.4099H38.5136L36.8362 46.0723H36.0245ZM41.1124 46.1985C40.421 46.1985 39.8709 45.9671 39.462 45.5041C39.0592 45.0352 38.8578 44.449 38.8578 43.7456C38.8578 43.0542 39.0622 42.474 39.471 42.0051C39.8859 41.5301 40.418 41.2926 41.0673 41.2926C41.7526 41.2926 42.2817 41.5331 42.6545 42.0141C43.0272 42.489 43.2136 43.1233 43.2136 43.9169H39.6063C39.6364 44.4099 39.7807 44.8127 40.0392 45.1254C40.3037 45.432 40.6614 45.5853 41.1124 45.5853C41.8098 45.5853 42.2396 45.2666 42.402 44.6294H43.1144C43.0062 45.1284 42.7777 45.5161 42.429 45.7927C42.0803 46.0632 41.6414 46.1985 41.1124 46.1985ZM42.0412 42.2666C41.8068 42.0021 41.4821 41.8698 41.0673 41.8698C40.6524 41.8698 40.3218 42.0081 40.0753 42.2846C39.8348 42.5612 39.6845 42.9219 39.6244 43.3668H42.429C42.405 42.8979 42.2757 42.5311 42.0412 42.2666ZM44.8387 41.4099V42.1854H44.8567C45.007 41.9389 45.2024 41.7405 45.4429 41.5902C45.6834 41.4339 45.9509 41.3558 46.2455 41.3558C46.3537 41.3558 46.4529 41.3738 46.5431 41.4099V42.1133H46.5161C46.4259 42.0832 46.3177 42.0682 46.1914 42.0682C45.8187 42.0682 45.5 42.2005 45.2355 42.465C44.971 42.7235 44.8387 43.0632 44.8387 43.484V46.0723H44.1082V41.4099H44.8387ZM48.1103 41.4099V42.0231H48.1283C48.489 41.5421 48.982 41.3016 49.6073 41.3016C50.1003 41.3016 50.485 41.4309 50.7616 41.6894C51.0382 41.948 51.1764 42.3177 51.1764 42.7987V46.0723H50.446V42.8618C50.446 42.5612 50.3528 42.3297 50.1664 42.1674C49.98 41.9991 49.7215 41.9149 49.3908 41.9149C49.0181 41.9149 48.7115 42.0351 48.471 42.2756C48.2305 42.5161 48.1103 42.8257 48.1103 43.2045V46.0723H47.3798V41.4099H48.1103ZM52.3246 46.0723V41.4099H53.0551V42.0772H53.0731C53.2234 41.8427 53.4188 41.6564 53.6593 41.5181C53.8998 41.3738 54.1613 41.3016 54.4439 41.3016C55.0511 41.3016 55.4569 41.5782 55.6614 42.1313H55.6794C55.8237 41.8728 56.0251 41.6714 56.2836 41.5271C56.5421 41.3768 56.8157 41.3016 57.1043 41.3016C57.5311 41.3016 57.8738 41.4339 58.1323 41.6984C58.3909 41.957 58.5201 42.3237 58.5201 42.7987V46.0723H57.7897V42.8347C57.7897 42.5522 57.7055 42.3297 57.5371 42.1674C57.3748 41.9991 57.1734 41.9149 56.9329 41.9149C56.6263 41.9149 56.3588 42.0351 56.1303 42.2756C55.9018 42.5161 55.7876 42.8137 55.7876 43.1684V46.0723H55.0571V42.8347C55.0571 42.5522 54.982 42.3297 54.8317 42.1674C54.6874 41.9991 54.495 41.9149 54.2545 41.9149C53.9539 41.9149 53.6774 42.0381 53.4249 42.2846C53.1784 42.5251 53.0551 42.8197 53.0551 43.1684V46.0723H52.3246ZM61.658 46.1985C60.9666 46.1985 60.4165 45.9671 60.0076 45.5041C59.6048 45.0352 59.4034 44.449 59.4034 43.7456C59.4034 43.0542 59.6078 42.474 60.0166 42.0051C60.4315 41.5301 60.9636 41.2926 61.6129 41.2926C62.2982 41.2926 62.8273 41.5331 63.2001 42.0141C63.5728 42.489 63.7592 43.1233 63.7592 43.9169H60.1519C60.182 44.4099 60.3263 44.8127 60.5848 45.1254C60.8493 45.432 61.207 45.5853 61.658 45.5853C62.3554 45.5853 62.7852 45.2666 62.9476 44.6294H63.66C63.5518 45.1284 63.3233 45.5161 62.9746 45.7927C62.6259 46.0632 62.187 46.1985 61.658 46.1985ZM62.5868 42.2666C62.3524 42.0021 62.0277 41.8698 61.6129 41.8698C61.198 41.8698 60.8674 42.0081 60.6209 42.2846C60.3804 42.5612 60.2301 42.9219 60.17 43.3668H62.9746C62.9506 42.8979 62.8213 42.5311 62.5868 42.2666ZM65.3843 41.4099V42.0231H65.4023C65.7631 41.5421 66.2561 41.3016 66.8813 41.3016C67.3743 41.3016 67.7591 41.4309 68.0356 41.6894C68.3122 41.948 68.4505 42.3177 68.4505 42.7987V46.0723H67.72V42.8618C67.72 42.5612 67.6268 42.3297 67.4404 42.1674C67.2541 41.9991 66.9955 41.9149 66.6649 41.9149C66.2921 41.9149 65.9855 42.0351 65.745 42.2756C65.5045 42.5161 65.3843 42.8257 65.3843 43.2045V46.0723H64.6538V41.4099H65.3843ZM69.213 42.0051V41.4099H69.8894V39.9399H70.6198V41.4099H71.5217V42.0051H70.6198V45.0352C70.6198 45.3238 70.7762 45.468 71.0888 45.468C71.2211 45.468 71.3503 45.447 71.4766 45.4049H71.5036V46.0362C71.3052 46.0783 71.1098 46.0993 70.9174 46.0993C70.2321 46.0993 69.8894 45.7987 69.8894 45.1975V42.0051H69.213ZM74.8027 41.4099V42.1854H74.8207C74.971 41.9389 75.1664 41.7405 75.4069 41.5902C75.6474 41.4339 75.9149 41.3558 76.2095 41.3558C76.3177 41.3558 76.4169 41.3738 76.5071 41.4099V42.1133H76.48C76.3899 42.0832 76.2816 42.0682 76.1554 42.0682C75.7826 42.0682 75.464 42.2005 75.1995 42.465C74.9349 42.7235 74.8027 43.0632 74.8027 43.484V46.0723H74.0722V41.4099H74.8027ZM79.1606 46.1985C78.4692 46.1985 77.9191 45.9671 77.5103 45.5041C77.1075 45.0352 76.9061 44.449 76.9061 43.7456C76.9061 43.0542 77.1105 42.474 77.5193 42.0051C77.9342 41.5301 78.4662 41.2926 79.1155 41.2926C79.8009 41.2926 80.33 41.5331 80.7027 42.0141C81.0755 42.489 81.2619 43.1233 81.2619 43.9169H77.6546C77.6847 44.4099 77.8289 44.8127 78.0875 45.1254C78.352 45.432 78.7097 45.5853 79.1606 45.5853C79.858 45.5853 80.2879 45.2666 80.4502 44.6294H81.1627C81.0544 45.1284 80.826 45.5161 80.4773 45.7927C80.1286 46.0632 79.6897 46.1985 79.1606 46.1985ZM80.0895 42.2666C79.855 42.0021 79.5304 41.8698 79.1155 41.8698C78.7007 41.8698 78.37 42.0081 78.1235 42.2846C77.8831 42.5612 77.7327 42.9219 77.6726 43.3668H80.4773C80.4532 42.8979 80.324 42.5311 80.0895 42.2666ZM83.9241 46.2075C83.2868 46.2075 82.7908 46.0663 82.4361 45.7837C82.0874 45.4951 81.895 45.0863 81.8589 44.5572H82.6074C82.6916 45.2486 83.1365 45.5943 83.9421 45.5943C84.3088 45.5943 84.5794 45.5252 84.7537 45.3869C84.9341 45.2426 85.0243 45.0562 85.0243 44.8278C85.0243 44.5813 84.9371 44.4039 84.7627 44.2957C84.5884 44.1875 84.2698 44.0853 83.8068 43.9891C83.6144 43.947 83.4611 43.9139 83.3469 43.8899C83.2387 43.8598 83.1064 43.8207 82.9501 43.7726C82.7938 43.7185 82.6705 43.6614 82.5803 43.6013C82.4962 43.5352 82.409 43.457 82.3188 43.3668C82.2286 43.2766 82.1625 43.1654 82.1204 43.0331C82.0843 42.9009 82.0663 42.7536 82.0663 42.5912C82.0663 42.1944 82.2106 41.8818 82.4992 41.6534C82.7938 41.4249 83.2086 41.3107 83.7437 41.3107C84.8499 41.3107 85.4602 41.7976 85.5744 42.7716H84.8259C84.7898 42.465 84.6846 42.2425 84.5102 42.1043C84.3359 41.96 84.0744 41.8878 83.7257 41.8878C83.407 41.8878 83.1695 41.951 83.0132 42.0772C82.8629 42.1975 82.7878 42.3568 82.7878 42.5552C82.7878 42.7836 82.8779 42.946 83.0583 43.0422C83.2387 43.1323 83.5663 43.2255 84.0413 43.3217C84.3299 43.3818 84.5553 43.439 84.7177 43.4931C84.886 43.5412 85.0603 43.6193 85.2407 43.7275C85.4211 43.8297 85.5533 43.968 85.6375 44.1424C85.7217 44.3167 85.7638 44.5332 85.7638 44.7917C85.7638 45.2486 85.5954 45.6003 85.2587 45.8468C84.9221 46.0873 84.4772 46.2075 83.9241 46.2075ZM86.2577 42.0051V41.4099H86.9341V39.9399H87.6646V41.4099H88.5664V42.0051H87.6646V45.0352C87.6646 45.3238 87.8209 45.468 88.1335 45.468C88.2658 45.468 88.395 45.447 88.5213 45.4049H88.5483V46.0362C88.3499 46.0783 88.1546 46.0993 87.9622 46.0993C87.2768 46.0993 86.9341 45.7987 86.9341 45.1975V42.0051H86.2577ZM90.2315 41.4099V42.1854H90.2495C90.3998 41.9389 90.5952 41.7405 90.8357 41.5902C91.0762 41.4339 91.3437 41.3558 91.6383 41.3558C91.7466 41.3558 91.8458 41.3738 91.9359 41.4099V42.1133H91.9089C91.8187 42.0832 91.7105 42.0682 91.5842 42.0682C91.2115 42.0682 90.8928 42.2005 90.6283 42.465C90.3638 42.7235 90.2315 43.0632 90.2315 43.484V46.0723H89.501V41.4099H90.2315ZM92.7726 46.0723V41.4099H93.5031V46.0723H92.7726ZM92.7726 40.5261V39.6243H93.5031V40.5261H92.7726ZM96.6721 46.1985C95.9927 46.1985 95.4456 45.964 95.0308 45.4951C94.622 45.0262 94.4176 44.443 94.4176 43.7456C94.4176 43.0482 94.622 42.465 95.0308 41.996C95.4456 41.5271 95.9927 41.2926 96.6721 41.2926C97.2192 41.2926 97.6671 41.4399 98.0158 41.7345C98.3645 42.0231 98.5809 42.4169 98.6651 42.9159H97.9256C97.8715 42.5973 97.7362 42.3478 97.5198 42.1674C97.3034 41.987 97.0208 41.8968 96.6721 41.8968C96.1911 41.8968 95.8184 42.0712 95.5538 42.4199C95.2953 42.7686 95.1661 43.2105 95.1661 43.7456C95.1661 44.2807 95.2953 44.7225 95.5538 45.0712C95.8184 45.4139 96.1911 45.5853 96.6721 45.5853C97.0449 45.5853 97.3425 45.4861 97.5649 45.2877C97.7873 45.0833 97.9136 44.7977 97.9437 44.431H98.6651C98.617 44.9901 98.4186 45.426 98.0699 45.7386C97.7212 46.0452 97.2553 46.1985 96.6721 46.1985ZM99.2383 42.0051V41.4099H99.9146V39.9399H100.645V41.4099H101.547V42.0051H100.645V45.0352C100.645 45.3238 100.801 45.468 101.114 45.468C101.246 45.468 101.376 45.447 101.502 45.4049H101.529V46.0362C101.33 46.0783 101.135 46.0993 100.943 46.0993C100.257 46.0993 99.9146 45.7987 99.9146 45.1975V42.0051H99.2383ZM102.482 46.0723V41.4099H103.212V46.0723H102.482ZM102.482 40.5261V39.6243H103.212V40.5261H102.482ZM108.013 45.4951C107.605 45.964 107.06 46.1985 106.381 46.1985C105.702 46.1985 105.155 45.964 104.74 45.4951C104.331 45.0262 104.127 44.443 104.127 43.7456C104.127 43.0482 104.331 42.465 104.74 41.996C105.155 41.5271 105.702 41.2926 106.381 41.2926C107.06 41.2926 107.605 41.5271 108.013 41.996C108.422 42.465 108.627 43.0482 108.627 43.7456C108.627 44.443 108.422 45.0262 108.013 45.4951ZM105.263 45.0712C105.527 45.4139 105.9 45.5853 106.381 45.5853C106.862 45.5853 107.232 45.4139 107.49 45.0712C107.749 44.7225 107.878 44.2807 107.878 43.7456C107.878 43.2045 107.746 42.7626 107.481 42.4199C107.223 42.0712 106.856 41.8968 106.381 41.8968C105.9 41.8968 105.527 42.0712 105.263 42.4199C105.004 42.7686 104.875 43.2105 104.875 43.7456C104.875 44.2807 105.004 44.7225 105.263 45.0712ZM110.266 41.4099V42.0231H110.284C110.645 41.5421 111.138 41.3016 111.763 41.3016C112.256 41.3016 112.641 41.4309 112.917 41.6894C113.194 41.948 113.332 42.3177 113.332 42.7987V46.0723H112.602V42.8618C112.602 42.5612 112.508 42.3297 112.322 42.1674C112.136 41.9991 111.877 41.9149 111.547 41.9149C111.174 41.9149 110.867 42.0351 110.627 42.2756C110.386 42.5161 110.266 42.8257 110.266 43.2045V46.0723H109.535V41.4099H110.266ZM116.248 46.2075C115.611 46.2075 115.115 46.0663 114.76 45.7837C114.411 45.4951 114.219 45.0863 114.183 44.5572H114.931C115.015 45.2486 115.46 45.5943 116.266 45.5943C116.633 45.5943 116.903 45.5252 117.078 45.3869C117.258 45.2426 117.348 45.0562 117.348 44.8278C117.348 44.5813 117.261 44.4039 117.087 44.2957C116.912 44.1875 116.594 44.0853 116.131 43.9891C115.938 43.947 115.785 43.9139 115.671 43.8899C115.563 43.8598 115.43 43.8207 115.274 43.7726C115.118 43.7185 114.994 43.6614 114.904 43.6013C114.82 43.5352 114.733 43.457 114.643 43.3668C114.552 43.2766 114.486 43.1654 114.444 43.0331C114.408 42.9009 114.39 42.7536 114.39 42.5912C114.39 42.1944 114.534 41.8818 114.823 41.6534C115.118 41.4249 115.532 41.3107 116.068 41.3107C117.174 41.3107 117.784 41.7976 117.898 42.7716H117.15C117.114 42.465 117.008 42.2425 116.834 42.1043C116.66 41.96 116.398 41.8878 116.05 41.8878C115.731 41.8878 115.493 41.951 115.337 42.0772C115.187 42.1975 115.112 42.3568 115.112 42.5552C115.112 42.7836 115.202 42.946 115.382 43.0422C115.563 43.1323 115.89 43.2255 116.365 43.3217C116.654 43.3818 116.879 43.439 117.042 43.4931C117.21 43.5412 117.384 43.6193 117.565 43.7275C117.745 43.8297 117.877 43.968 117.961 44.1424C118.046 44.3167 118.088 44.5332 118.088 44.7917C118.088 45.2486 117.919 45.6003 117.583 45.8468C117.246 46.0873 116.801 46.2075 116.248 46.2075ZM120.286 42.0051V41.4099H120.962V39.9399H121.692V41.4099H122.594V42.0051H121.692V45.0352C121.692 45.3238 121.849 45.468 122.161 45.468C122.294 45.468 122.423 45.447 122.549 45.4049H122.576V46.0362C122.378 46.0783 122.182 46.0993 121.99 46.0993C121.305 46.0993 120.962 45.7987 120.962 45.1975V42.0051H120.286ZM124.259 39.6243V42.0231H124.277C124.638 41.5421 125.131 41.3016 125.756 41.3016C126.249 41.3016 126.634 41.4309 126.911 41.6894C127.187 41.948 127.325 42.3177 127.325 42.7987V46.0723H126.595V42.8618C126.595 42.5612 126.502 42.3297 126.315 42.1674C126.129 41.9991 125.871 41.9149 125.54 41.9149C125.167 41.9149 124.86 42.0351 124.62 42.2756C124.38 42.5161 124.259 42.8257 124.259 43.2045V46.0723H123.529V39.6243H124.259ZM132.135 46.1174C131.672 46.1174 131.405 45.8859 131.332 45.423H131.323C130.939 45.916 130.422 46.1624 129.772 46.1624C129.309 46.1624 128.931 46.0512 128.636 45.8288C128.341 45.6063 128.194 45.2847 128.194 44.8638C128.194 44.6474 128.227 44.461 128.293 44.3047C128.365 44.1424 128.456 44.0131 128.564 43.9169C128.672 43.8147 128.819 43.7275 129.006 43.6554C129.198 43.5772 129.381 43.5201 129.556 43.484C129.73 43.442 129.953 43.3999 130.223 43.3578C130.398 43.3337 130.521 43.3157 130.593 43.3037C130.671 43.2856 130.77 43.2616 130.891 43.2315C131.011 43.1955 131.095 43.1564 131.143 43.1143C131.191 43.0722 131.236 43.0151 131.278 42.943C131.32 42.8708 131.341 42.7866 131.341 42.6904C131.341 42.4259 131.248 42.2245 131.062 42.0862C130.882 41.9419 130.626 41.8698 130.295 41.8698C129.544 41.8698 129.156 42.2125 129.132 42.8979H128.429C128.441 42.4229 128.603 42.0411 128.916 41.7526C129.234 41.464 129.691 41.3197 130.286 41.3197C131.435 41.3197 132.009 41.8127 132.009 42.7987V45.0171C132.009 45.2216 132.042 45.3658 132.108 45.45C132.18 45.5342 132.312 45.5552 132.505 45.5131H132.532V46.0452C132.412 46.0933 132.279 46.1174 132.135 46.1174ZM129.935 45.6033C130.386 45.6033 130.734 45.4741 130.981 45.2155C131.227 44.951 131.35 44.6624 131.35 44.3498V43.5562C131.128 43.6945 130.773 43.8087 130.286 43.8989C130.106 43.935 129.965 43.965 129.862 43.9891C129.76 44.0071 129.643 44.0432 129.511 44.0973C129.378 44.1454 129.279 44.1995 129.213 44.2596C129.147 44.3197 129.09 44.4009 129.042 44.5031C128.994 44.5993 128.97 44.7135 128.97 44.8458C128.97 45.3508 129.291 45.6033 129.935 45.6033ZM132.866 42.0051V41.4099H133.542V39.9399H134.272V41.4099H135.174V42.0051H134.272V45.0352C134.272 45.3238 134.429 45.468 134.741 45.468C134.874 45.468 135.003 45.447 135.129 45.4049H135.156V46.0362C134.958 46.0783 134.762 46.0993 134.57 46.0993C133.885 46.0993 133.542 45.7987 133.542 45.1975V42.0051H132.866ZM141.386 46.1174C140.923 46.1174 140.656 45.8859 140.583 45.423H140.574C140.19 45.916 139.673 46.1624 139.023 46.1624C138.56 46.1624 138.182 46.0512 137.887 45.8288C137.592 45.6063 137.445 45.2847 137.445 44.8638C137.445 44.6474 137.478 44.461 137.544 44.3047C137.616 44.1424 137.707 44.0131 137.815 43.9169C137.923 43.8147 138.07 43.7275 138.257 43.6554C138.449 43.5772 138.633 43.5201 138.807 43.484C138.981 43.442 139.204 43.3999 139.474 43.3578C139.649 43.3337 139.772 43.3157 139.844 43.3037C139.922 43.2856 140.021 43.2616 140.142 43.2315C140.262 43.1955 140.346 43.1564 140.394 43.1143C140.442 43.0722 140.487 43.0151 140.529 42.943C140.571 42.8708 140.592 42.7866 140.592 42.6904C140.592 42.4259 140.499 42.2245 140.313 42.0862C140.133 41.9419 139.877 41.8698 139.546 41.8698C138.795 41.8698 138.407 42.2125 138.383 42.8979H137.68C137.692 42.4229 137.854 42.0411 138.167 41.7526C138.485 41.464 138.942 41.3197 139.537 41.3197C140.686 41.3197 141.26 41.8127 141.26 42.7987V45.0171C141.26 45.2216 141.293 45.3658 141.359 45.45C141.431 45.5342 141.563 45.5552 141.756 45.5131H141.783V46.0452C141.663 46.0933 141.53 46.1174 141.386 46.1174ZM139.186 45.6033C139.637 45.6033 139.985 45.4741 140.232 45.2155C140.478 44.951 140.601 44.6624 140.601 44.3498V43.5562C140.379 43.6945 140.024 43.8087 139.537 43.8989C139.357 43.935 139.216 43.965 139.113 43.9891C139.011 44.0071 138.894 44.0432 138.762 44.0973C138.63 44.1454 138.53 44.1995 138.464 44.2596C138.398 44.3197 138.341 44.4009 138.293 44.5031C138.245 44.5993 138.221 44.7135 138.221 44.8458C138.221 45.3508 138.542 45.6033 139.186 45.6033ZM143.233 41.4099V42.1854H143.251C143.401 41.9389 143.596 41.7405 143.837 41.5902C144.077 41.4339 144.345 41.3558 144.64 41.3558C144.748 41.3558 144.847 41.3738 144.937 41.4099V42.1133H144.91C144.82 42.0832 144.712 42.0682 144.585 42.0682C144.213 42.0682 143.894 42.2005 143.629 42.465C143.365 42.7235 143.233 43.0632 143.233 43.484V46.0723H142.502V41.4099H143.233ZM147.591 46.1985C146.899 46.1985 146.349 45.9671 145.94 45.5041C145.538 45.0352 145.336 44.449 145.336 43.7456C145.336 43.0542 145.541 42.474 145.949 42.0051C146.364 41.5301 146.896 41.2926 147.546 41.2926C148.231 41.2926 148.76 41.5331 149.133 42.0141C149.506 42.489 149.692 43.1233 149.692 43.9169H146.085C146.115 44.4099 146.259 44.8127 146.517 45.1254C146.782 45.432 147.14 45.5853 147.591 45.5853C148.288 45.5853 148.718 45.2666 148.88 44.6294H149.593C149.484 45.1284 149.256 45.5161 148.907 45.7927C148.559 46.0632 148.12 46.1985 147.591 46.1985ZM148.52 42.2666C148.285 42.0021 147.96 41.8698 147.546 41.8698C147.131 41.8698 146.8 42.0081 146.554 42.2846C146.313 42.5612 146.163 42.9219 146.103 43.3668H148.907C148.883 42.8979 148.754 42.5311 148.52 42.2666ZM152.933 41.4099V42.0231H152.951C153.312 41.5421 153.805 41.3016 154.43 41.3016C154.923 41.3016 155.308 41.4309 155.584 41.6894C155.861 41.948 155.999 42.3177 155.999 42.7987V46.0723H155.269V42.8618C155.269 42.5612 155.175 42.3297 154.989 42.1674C154.803 41.9991 154.544 41.9149 154.213 41.9149C153.841 41.9149 153.534 42.0351 153.294 42.2756C153.053 42.5161 152.933 42.8257 152.933 43.2045V46.0723H152.202V41.4099H152.933ZM160.773 45.4951C160.364 45.964 159.82 46.1985 159.14 46.1985C158.461 46.1985 157.914 45.964 157.499 45.4951C157.09 45.0262 156.886 44.443 156.886 43.7456C156.886 43.0482 157.09 42.465 157.499 41.996C157.914 41.5271 158.461 41.2926 159.14 41.2926C159.82 41.2926 160.364 41.5271 160.773 41.996C161.181 42.465 161.386 43.0482 161.386 43.7456C161.386 44.443 161.181 45.0262 160.773 45.4951ZM158.022 45.0712C158.287 45.4139 158.659 45.5853 159.14 45.5853C159.621 45.5853 159.991 45.4139 160.25 45.0712C160.508 44.7225 160.637 44.2807 160.637 43.7456C160.637 43.2045 160.505 42.7626 160.24 42.4199C159.982 42.0712 159.615 41.8968 159.14 41.8968C158.659 41.8968 158.287 42.0712 158.022 42.4199C157.764 42.7686 157.634 43.2105 157.634 43.7456C157.634 44.2807 157.764 44.7225 158.022 45.0712ZM161.909 42.0051V41.4099H162.585V39.9399H163.316V41.4099H164.218V42.0051H163.316V45.0352C163.316 45.3238 163.472 45.468 163.785 45.468C163.917 45.468 164.046 45.447 164.173 45.4049H164.2V46.0362C164.001 46.0783 163.806 46.0993 163.613 46.0993C162.928 46.0993 162.585 45.7987 162.585 45.1975V42.0051H161.909ZM168.987 46.2075C168.367 46.2075 167.877 45.958 167.517 45.459H167.499V46.0723H166.768V39.6243H167.499V42.0772H167.517C167.895 41.5602 168.394 41.3016 169.014 41.3016C169.615 41.3016 170.096 41.5211 170.457 41.96C170.817 42.3928 170.998 42.9911 170.998 43.7546C170.998 44.5061 170.817 45.1043 170.457 45.5492C170.102 45.9881 169.612 46.2075 168.987 46.2075ZM168.933 45.5943C169.365 45.5943 169.693 45.429 169.916 45.0983C170.138 44.7616 170.249 44.3167 170.249 43.7636C170.249 43.2165 170.138 42.7746 169.916 42.4379C169.693 42.0952 169.368 41.9239 168.942 41.9239C168.455 41.9239 168.085 42.0983 167.832 42.447C167.58 42.7896 167.454 43.2285 167.454 43.7636C167.454 44.3107 167.58 44.7526 167.832 45.0893C168.085 45.426 168.452 45.5943 168.933 45.5943ZM173.9 46.1985C173.208 46.1985 172.658 45.9671 172.249 45.5041C171.847 45.0352 171.645 44.449 171.645 43.7456C171.645 43.0542 171.85 42.474 172.258 42.0051C172.673 41.5301 173.205 41.2926 173.855 41.2926C174.54 41.2926 175.069 41.5331 175.442 42.0141C175.815 42.489 176.001 43.1233 176.001 43.9169H172.394C172.424 44.4099 172.568 44.8127 172.827 45.1254C173.091 45.432 173.449 45.5853 173.9 45.5853C174.597 45.5853 175.027 45.2666 175.189 44.6294H175.902C175.794 45.1284 175.565 45.5161 175.216 45.7927C174.868 46.0632 174.429 46.1985 173.9 46.1985ZM174.829 42.2666C174.594 42.0021 174.27 41.8698 173.855 41.8698C173.44 41.8698 173.109 42.0081 172.863 42.2846C172.622 42.5612 172.472 42.9219 172.412 43.3668H175.216C175.192 42.8979 175.063 42.5311 174.829 42.2666ZM177.626 41.4099V42.0231H177.644C178.005 41.5421 178.498 41.3016 179.123 41.3016C179.616 41.3016 180.001 41.4309 180.277 41.6894C180.554 41.948 180.692 42.3177 180.692 42.7987V46.0723H179.962V42.8618C179.962 42.5612 179.869 42.3297 179.682 42.1674C179.496 41.9991 179.237 41.9149 178.907 41.9149C178.534 41.9149 178.227 42.0351 177.987 42.2756C177.746 42.5161 177.626 42.8257 177.626 43.2045V46.0723H176.896V41.4099H177.626ZM183.834 46.1985C183.142 46.1985 182.592 45.9671 182.183 45.5041C181.78 45.0352 181.579 44.449 181.579 43.7456C181.579 43.0542 181.783 42.474 182.192 42.0051C182.607 41.5301 183.139 41.2926 183.788 41.2926C184.474 41.2926 185.003 41.5331 185.376 42.0141C185.748 42.489 185.935 43.1233 185.935 43.9169H182.327C182.358 44.4099 182.502 44.8127 182.76 45.1254C183.025 45.432 183.383 45.5853 183.834 45.5853C184.531 45.5853 184.961 45.2666 185.123 44.6294H185.836C185.727 45.1284 185.499 45.5161 185.15 45.7927C184.801 46.0632 184.363 46.1985 183.834 46.1985ZM184.762 42.2666C184.528 42.0021 184.203 41.8698 183.788 41.8698C183.374 41.8698 183.043 42.0081 182.796 42.2846C182.556 42.5612 182.406 42.9219 182.346 43.3668H185.15C185.126 42.8979 184.997 42.5311 184.762 42.2666ZM186.444 42.0051V41.4099H187.084V40.6614C187.084 40.2766 187.189 40 187.4 39.8317C187.61 39.6573 187.917 39.5702 188.32 39.5702C188.434 39.5702 188.557 39.5762 188.689 39.5882V40.2104C188.605 40.2044 188.527 40.2014 188.455 40.2014C188.22 40.2014 188.055 40.2375 187.959 40.3096C187.863 40.3818 187.814 40.5111 187.814 40.6974V41.4099H188.68V42.0051H187.814V46.0723H187.084V42.0051H186.444ZM189.302 46.0723V41.4099H190.033V46.0723H189.302ZM189.302 40.5261V39.6243H190.033V40.5261H189.302ZM193.195 46.1985C192.515 46.1985 191.968 45.964 191.554 45.4951C191.145 45.0262 190.94 44.443 190.94 43.7456C190.94 43.0482 191.145 42.465 191.554 41.996C191.968 41.5271 192.515 41.2926 193.195 41.2926C193.742 41.2926 194.19 41.4399 194.539 41.7345C194.887 42.0231 195.104 42.4169 195.188 42.9159H194.448C194.394 42.5973 194.259 42.3478 194.043 42.1674C193.826 41.987 193.544 41.8968 193.195 41.8968C192.714 41.8968 192.341 42.0712 192.077 42.4199C191.818 42.7686 191.689 43.2105 191.689 43.7456C191.689 44.2807 191.818 44.7225 192.077 45.0712C192.341 45.4139 192.714 45.5853 193.195 45.5853C193.568 45.5853 193.865 45.4861 194.088 45.2877C194.31 45.0833 194.436 44.7977 194.466 44.431H195.188C195.14 44.9901 194.941 45.426 194.593 45.7386C194.244 46.0452 193.778 46.1985 193.195 46.1985ZM196.059 46.0723V41.4099H196.789V46.0723H196.059ZM196.059 40.5261V39.6243H196.789V40.5261H196.059ZM201.626 46.1174C201.164 46.1174 200.896 45.8859 200.824 45.423H200.815C200.43 45.916 199.913 46.1624 199.264 46.1624C198.801 46.1624 198.422 46.0512 198.127 45.8288C197.833 45.6063 197.686 45.2847 197.686 44.8638C197.686 44.6474 197.719 44.461 197.785 44.3047C197.857 44.1424 197.947 44.0131 198.055 43.9169C198.164 43.8147 198.311 43.7275 198.497 43.6554C198.69 43.5772 198.873 43.5201 199.047 43.484C199.222 43.442 199.444 43.3999 199.715 43.3578C199.889 43.3337 200.012 43.3157 200.084 43.3037C200.163 43.2856 200.262 43.2616 200.382 43.2315C200.502 43.1955 200.586 43.1564 200.634 43.1143C200.683 43.0722 200.728 43.0151 200.77 42.943C200.812 42.8708 200.833 42.7866 200.833 42.6904C200.833 42.4259 200.74 42.2245 200.553 42.0862C200.373 41.9419 200.117 41.8698 199.787 41.8698C199.035 41.8698 198.647 42.2125 198.623 42.8979H197.92C197.932 42.4229 198.094 42.0411 198.407 41.7526C198.726 41.464 199.183 41.3197 199.778 41.3197C200.926 41.3197 201.5 41.8127 201.5 42.7987V45.0171C201.5 45.2216 201.533 45.3658 201.599 45.45C201.672 45.5342 201.804 45.5552 201.996 45.5131H202.023V46.0452C201.903 46.0933 201.771 46.1174 201.626 46.1174ZM199.426 45.6033C199.877 45.6033 200.226 45.4741 200.472 45.2155C200.719 44.951 200.842 44.6624 200.842 44.3498V43.5562C200.619 43.6945 200.265 43.8087 199.778 43.8989C199.597 43.935 199.456 43.965 199.354 43.9891C199.252 44.0071 199.134 44.0432 199.002 44.0973C198.87 44.1454 198.771 44.1995 198.705 44.2596C198.638 44.3197 198.581 44.4009 198.533 44.5031C198.485 44.5993 198.461 44.7135 198.461 44.8458C198.461 45.3508 198.783 45.6033 199.426 45.6033ZM202.77 46.0723V39.6243H203.5V46.0723H202.77ZM204.603 46.0723V45.1795H205.478V46.0723H204.603ZM16.4321 57.8989C16.2277 58.1033 15.9782 58.2055 15.6836 58.2055C15.389 58.2055 15.1365 58.1033 14.9261 57.8989C14.7157 57.6885 14.6105 57.436 14.6105 57.1414C14.6105 56.8468 14.7157 56.5943 14.9261 56.3838C15.1365 56.1734 15.389 56.0682 15.6836 56.0682C15.9782 56.0682 16.2277 56.1734 16.4321 56.3838C16.6426 56.5943 16.7478 56.8468 16.7478 57.1414C16.7478 57.436 16.6426 57.6885 16.4321 57.8989ZM28.249 59.2606C27.6779 59.8919 26.9144 60.2075 25.9584 60.2075C25.0025 60.2075 24.236 59.8919 23.6588 59.2606C23.0876 58.6294 22.8021 57.8237 22.8021 56.8438C22.8021 55.8638 23.0876 55.0582 23.6588 54.4269C24.236 53.7956 25.0025 53.48 25.9584 53.48C26.9144 53.48 27.6779 53.7956 28.249 54.4269C28.8262 55.0582 29.1148 55.8638 29.1148 56.8438C29.1148 57.8237 28.8262 58.6294 28.249 59.2606ZM24.245 58.7556C24.6538 59.2486 25.2249 59.4951 25.9584 59.4951C26.6919 59.4951 27.2631 59.2486 27.6719 58.7556C28.0807 58.2626 28.2851 57.6253 28.2851 56.8438C28.2851 56.0622 28.0807 55.4249 27.6719 54.9319C27.2631 54.4329 26.6919 54.1834 25.9584 54.1834C25.2249 54.1834 24.6538 54.4329 24.245 54.9319C23.8361 55.4249 23.6317 56.0622 23.6317 56.8438C23.6317 57.6253 23.8361 58.2626 24.245 58.7556ZM29.8567 56.0051V55.4099H30.5331V53.9399H31.2636V55.4099H32.1654V56.0051H31.2636V59.0352C31.2636 59.3238 31.4199 59.468 31.7325 59.468C31.8648 59.468 31.9941 59.447 32.1203 59.4049H32.1474V60.0362C31.949 60.0783 31.7536 60.0993 31.5612 60.0993C30.8758 60.0993 30.5331 59.7987 30.5331 59.1975V56.0051H29.8567ZM33.8305 53.6243V56.0231H33.8486C34.2093 55.5421 34.7023 55.3016 35.3275 55.3016C35.8205 55.3016 36.2053 55.4309 36.4819 55.6894C36.7584 55.948 36.8967 56.3177 36.8967 56.7987V60.0723H36.1662V56.8618C36.1662 56.5612 36.073 56.3297 35.8867 56.1674C35.7003 55.9991 35.4418 55.9149 35.1111 55.9149C34.7384 55.9149 34.4317 56.0351 34.1913 56.2756C33.9508 56.5161 33.8305 56.8257 33.8305 57.2045V60.0723H33.1001V53.6243H33.8305ZM40.0379 60.1985C39.3465 60.1985 38.7964 59.9671 38.3876 59.5041C37.9848 59.0352 37.7834 58.449 37.7834 57.7456C37.7834 57.0542 37.9878 56.474 38.3966 56.0051C38.8114 55.5301 39.3435 55.2926 39.9928 55.2926C40.6782 55.2926 41.2073 55.5331 41.58 56.0141C41.9528 56.489 42.1392 57.1233 42.1392 57.9169H38.5319C38.5619 58.4099 38.7062 58.8127 38.9648 59.1254C39.2293 59.432 39.587 59.5853 40.0379 59.5853C40.7353 59.5853 41.1652 59.2666 41.3275 58.6294H42.04C41.9317 59.1284 41.7033 59.5161 41.3546 59.7927C41.0059 60.0632 40.567 60.1985 40.0379 60.1985ZM40.9668 56.2666C40.7323 56.0021 40.4077 55.8698 39.9928 55.8698C39.578 55.8698 39.2473 56.0081 39.0008 56.2846C38.7603 56.5612 38.61 56.9219 38.5499 57.3668H41.3546C41.3305 56.8979 41.2013 56.5311 40.9668 56.2666ZM43.7643 55.4099V56.1854H43.7823C43.9326 55.9389 44.128 55.7405 44.3685 55.5902C44.609 55.4339 44.8765 55.3558 45.1711 55.3558C45.2793 55.3558 45.3785 55.3738 45.4687 55.4099V56.1133H45.4416C45.3515 56.0832 45.2432 56.0682 45.117 56.0682C44.7442 56.0682 44.4256 56.2005 44.1611 56.465C43.8965 56.7235 43.7643 57.0632 43.7643 57.484V60.0723H43.0338V55.4099H43.7643ZM49.9142 60.1985C49.2349 60.1985 48.6878 59.964 48.2729 59.4951C47.8641 59.0262 47.6597 58.443 47.6597 57.7456C47.6597 57.0482 47.8641 56.465 48.2729 55.996C48.6878 55.5271 49.2349 55.2926 49.9142 55.2926C50.4613 55.2926 50.9092 55.4399 51.2579 55.7345C51.6067 56.0231 51.8231 56.4169 51.9073 56.9159H51.1678C51.1137 56.5973 50.9784 56.3478 50.7619 56.1674C50.5455 55.987 50.2629 55.8968 49.9142 55.8968C49.4333 55.8968 49.0605 56.0712 48.796 56.4199C48.5375 56.7686 48.4082 57.2105 48.4082 57.7456C48.4082 58.2807 48.5375 58.7225 48.796 59.0712C49.0605 59.4139 49.4333 59.5853 49.9142 59.5853C50.287 59.5853 50.5846 59.4861 50.807 59.2877C51.0295 59.0833 51.1557 58.7977 51.1858 58.431H51.9073C51.8592 58.9901 51.6608 59.426 51.3121 59.7386C50.9634 60.0452 50.4974 60.1985 49.9142 60.1985ZM56.4033 59.4951C55.9945 59.964 55.4504 60.1985 54.771 60.1985C54.0917 60.1985 53.5446 59.964 53.1297 59.4951C52.7209 59.0262 52.5165 58.443 52.5165 57.7456C52.5165 57.0482 52.7209 56.465 53.1297 55.996C53.5446 55.5271 54.0917 55.2926 54.771 55.2926C55.4504 55.2926 55.9945 55.5271 56.4033 55.996C56.8121 56.465 57.0166 57.0482 57.0166 57.7456C57.0166 58.443 56.8121 59.0262 56.4033 59.4951ZM53.6528 59.0712C53.9173 59.4139 54.2901 59.5853 54.771 59.5853C55.252 59.5853 55.6217 59.4139 55.8803 59.0712C56.1388 58.7225 56.268 58.2807 56.268 57.7456C56.268 57.2045 56.1358 56.7626 55.8712 56.4199C55.6127 56.0712 55.246 55.8968 54.771 55.8968C54.2901 55.8968 53.9173 56.0712 53.6528 56.4199C53.3942 56.7686 53.265 57.2105 53.265 57.7456C53.265 58.2807 53.3942 58.7225 53.6528 59.0712ZM57.9254 60.0723V55.4099H58.6559V56.0772H58.6739C58.8242 55.8427 59.0196 55.6564 59.2601 55.5181C59.5006 55.3738 59.7621 55.3016 60.0447 55.3016C60.6519 55.3016 61.0577 55.5782 61.2621 56.1313H61.2802C61.4245 55.8728 61.6259 55.6714 61.8844 55.5271C62.1429 55.3768 62.4165 55.3016 62.705 55.3016C63.1319 55.3016 63.4746 55.4339 63.7331 55.6984C63.9916 55.957 64.1209 56.3237 64.1209 56.7987V60.0723H63.3904V56.8347C63.3904 56.5522 63.3063 56.3297 63.1379 56.1674C62.9756 55.9991 62.7742 55.9149 62.5337 55.9149C62.2271 55.9149 61.9595 56.0351 61.7311 56.2756C61.5026 56.5161 61.3884 56.8137 61.3884 57.1684V60.0723H60.6579V56.8347C60.6579 56.5522 60.5828 56.3297 60.4325 56.1674C60.2882 55.9991 60.0958 55.9149 59.8553 55.9149C59.5547 55.9149 59.2781 56.0381 59.0256 56.2846C58.7791 56.5251 58.6559 56.8197 58.6559 57.1684V60.0723H57.9254ZM65.2657 61.5693V55.4099H65.9962V56.0682H66.0142C66.393 55.5572 66.892 55.3016 67.5112 55.3016C68.1125 55.3016 68.5964 55.5211 68.9632 55.96C69.3299 56.3928 69.5133 56.9911 69.5133 57.7546C69.5133 58.5061 69.3329 59.1043 68.9722 59.5492C68.6115 59.9881 68.1155 60.2075 67.4842 60.2075C66.8589 60.2075 66.3689 59.9791 66.0142 59.5222H65.9962V61.5693H65.2657ZM67.4301 59.5943C67.863 59.5943 68.1936 59.426 68.4221 59.0893C68.6505 58.7526 68.7648 58.3107 68.7648 57.7636C68.7648 57.2165 68.6505 56.7746 68.4221 56.4379C68.1936 56.0952 67.866 55.9239 67.4391 55.9239C66.9521 55.9239 66.5824 56.0983 66.3299 56.447C66.0774 56.7896 65.9511 57.2285 65.9511 57.7636C65.9511 58.3107 66.0713 58.7526 66.3118 59.0893C66.5523 59.426 66.9251 59.5943 67.4301 59.5943ZM72.415 60.1985C71.7236 60.1985 71.1735 59.9671 70.7646 59.5041C70.3618 59.0352 70.1604 58.449 70.1604 57.7456C70.1604 57.0542 70.3648 56.474 70.7736 56.0051C71.1885 55.5301 71.7206 55.2926 72.3699 55.2926C73.0552 55.2926 73.5843 55.5331 73.9571 56.0141C74.3298 56.489 74.5162 57.1233 74.5162 57.9169H70.9089C70.939 58.4099 71.0833 58.8127 71.3418 59.1254C71.6063 59.432 71.964 59.5853 72.415 59.5853C73.1124 59.5853 73.5422 59.2666 73.7046 58.6294H74.417C74.3088 59.1284 74.0803 59.5161 73.7316 59.7927C73.3829 60.0632 72.944 60.1985 72.415 60.1985ZM73.3438 56.2666C73.1094 56.0021 72.7847 55.8698 72.3699 55.8698C71.955 55.8698 71.6244 56.0081 71.3779 56.2846C71.1374 56.5612 70.9871 56.9219 70.927 57.3668H73.7316C73.7076 56.8979 73.5783 56.5311 73.3438 56.2666ZM75.0252 56.0051V55.4099H75.7015V53.9399H76.432V55.4099H77.3338V56.0051H76.432V59.0352C76.432 59.3238 76.5883 59.468 76.9009 59.468C77.0332 59.468 77.1625 59.447 77.2887 59.4049H77.3158V60.0362C77.1174 60.0783 76.922 60.0993 76.7296 60.0993C76.0442 60.0993 75.7015 59.7987 75.7015 59.1975V56.0051H75.0252ZM78.2685 60.0723V55.4099H78.9989V60.0723H78.2685ZM78.2685 54.5261V53.6243H78.9989V54.5261H78.2685ZM79.8774 56.0051V55.4099H80.5537V53.9399H81.2842V55.4099H82.186V56.0051H81.2842V59.0352C81.2842 59.3238 81.4405 59.468 81.7531 59.468C81.8854 59.468 82.0147 59.447 82.1409 59.4049H82.168V60.0362C81.9696 60.0783 81.7742 60.0993 81.5818 60.0993C80.8964 60.0993 80.5537 59.7987 80.5537 59.1975V56.0051H79.8774ZM86.7019 59.4951C86.2931 59.964 85.749 60.1985 85.0696 60.1985C84.3903 60.1985 83.8432 59.964 83.4283 59.4951C83.0195 59.0262 82.8151 58.443 82.8151 57.7456C82.8151 57.0482 83.0195 56.465 83.4283 55.996C83.8432 55.5271 84.3903 55.2926 85.0696 55.2926C85.749 55.2926 86.2931 55.5271 86.7019 55.996C87.1108 56.465 87.3152 57.0482 87.3152 57.7456C87.3152 58.443 87.1108 59.0262 86.7019 59.4951ZM83.9514 59.0712C84.2159 59.4139 84.5887 59.5853 85.0696 59.5853C85.5506 59.5853 85.9204 59.4139 86.1789 59.0712C86.4374 58.7225 86.5667 58.2807 86.5667 57.7456C86.5667 57.2045 86.4344 56.7626 86.1699 56.4199C85.9113 56.0712 85.5446 55.8968 85.0696 55.8968C84.5887 55.8968 84.2159 56.0712 83.9514 56.4199C83.6929 56.7686 83.5636 57.2105 83.5636 57.7456C83.5636 58.2807 83.6929 58.7225 83.9514 59.0712ZM88.9545 55.4099V56.1854H88.9726C89.1229 55.9389 89.3182 55.7405 89.5587 55.5902C89.7992 55.4339 90.0668 55.3558 90.3614 55.3558C90.4696 55.3558 90.5688 55.3738 90.659 55.4099V56.1133H90.6319C90.5417 56.0832 90.4335 56.0682 90.3072 56.0682C89.9345 56.0682 89.6158 56.2005 89.3513 56.465C89.0868 56.7235 88.9545 57.0632 88.9545 57.484V60.0723H88.224V55.4099H88.9545ZM93.2632 60.2075C92.6259 60.2075 92.1299 60.0663 91.7752 59.7837C91.4265 59.4951 91.2341 59.0863 91.198 58.5572H91.9465C92.0307 59.2486 92.4756 59.5943 93.2812 59.5943C93.6479 59.5943 93.9185 59.5252 94.0928 59.3869C94.2732 59.2426 94.3634 59.0562 94.3634 58.8278C94.3634 58.5813 94.2762 58.4039 94.1019 58.2957C93.9275 58.1875 93.6089 58.0853 93.1459 57.9891C92.9535 57.947 92.8002 57.9139 92.686 57.8899C92.5778 57.8598 92.4455 57.8207 92.2892 57.7726C92.1329 57.7185 92.0096 57.6614 91.9195 57.6013C91.8353 57.5352 91.7481 57.457 91.6579 57.3668C91.5677 57.2766 91.5016 57.1654 91.4595 57.0331C91.4235 56.9009 91.4054 56.7536 91.4054 56.5912C91.4054 56.1944 91.5497 55.8818 91.8383 55.6534C92.1329 55.4249 92.5477 55.3107 93.0828 55.3107C94.189 55.3107 94.7993 55.7976 94.9135 56.7716H94.165C94.1289 56.465 94.0237 56.2425 93.8493 56.1043C93.675 55.96 93.4135 55.8878 93.0648 55.8878C92.7461 55.8878 92.5086 55.951 92.3523 56.0772C92.202 56.1975 92.1269 56.3568 92.1269 56.5552C92.1269 56.7836 92.2171 56.946 92.3974 57.0422C92.5778 57.1323 92.9054 57.2255 93.3804 57.3217C93.669 57.3818 93.8944 57.439 94.0568 57.4931C94.2251 57.5412 94.3995 57.6193 94.5798 57.7275C94.7602 57.8297 94.8924 57.968 94.9766 58.1424C95.0608 58.3167 95.1029 58.5332 95.1029 58.7917C95.1029 59.2486 94.9345 59.6003 94.5979 59.8468C94.2612 60.0873 93.8163 60.2075 93.2632 60.2075Z" fill="#070B0E"/>
<path d="M0 27.1333H235V2.81829C235 1.26185 233.738 0.000106812 232.182 0.000106812H2.81817C1.26173 0.000106812 0 1.26185 0 2.81829V27.1333Z" fill="#F2D972"/>
<path d="M96.4178 10.4026V8.45062H105.618V10.4026H102.178V19.8906H99.8578V10.4026H96.4178ZM107.111 19.8906V8.45062H109.431V12.9306H113.927V8.45062H116.247V19.8906H113.927V14.8506H109.431V19.8906H107.111ZM118.322 19.8906V8.45062H123.57C124.668 8.45062 125.554 8.74396 126.226 9.33062C126.908 9.91729 127.25 10.6853 127.25 11.6346C127.25 13.096 126.551 14.0186 125.154 14.4026V14.4506C125.698 14.6106 126.103 14.8666 126.37 15.2186C126.647 15.56 126.823 16.072 126.898 16.7546C126.919 17.0106 126.94 17.3146 126.962 17.6666C126.994 18.008 127.015 18.28 127.026 18.4826C127.047 18.6853 127.068 18.888 127.09 19.0906C127.122 19.2933 127.159 19.4533 127.202 19.5706C127.255 19.6773 127.319 19.7466 127.394 19.7786V19.8906H125.17C125.127 19.8693 125.09 19.832 125.058 19.7786C125.026 19.7146 124.999 19.6293 124.978 19.5226C124.956 19.416 124.935 19.3093 124.914 19.2026C124.903 19.0853 124.887 18.9413 124.866 18.7706C124.855 18.5893 124.844 18.4346 124.834 18.3066C124.823 18.168 124.807 17.992 124.786 17.7786C124.775 17.5546 124.764 17.3786 124.754 17.2506C124.658 15.9493 123.911 15.2986 122.514 15.2986H120.642V19.8906H118.322ZM120.642 10.3226V13.5066H123.106C123.714 13.5066 124.178 13.3626 124.498 13.0746C124.828 12.7866 124.994 12.408 124.994 11.9386C124.994 11.4586 124.839 11.0693 124.53 10.7706C124.22 10.472 123.767 10.3226 123.17 10.3226H120.642ZM129.064 19.8906V8.45062H137.48V10.4026H131.384V12.9626H136.728V14.8666H131.384V17.9546H137.528V19.8906H129.064ZM138.536 19.8906L142.52 8.45062H144.92L148.952 19.8906H146.536L145.768 17.4586H141.64L140.888 19.8906H138.536ZM143.208 12.3866L142.184 15.6826H145.208L144.184 12.3866L143.72 10.6266H143.688C143.496 11.3946 143.336 11.9813 143.208 12.3866ZM148.205 10.4026V8.45062H157.405V10.4026H153.965V19.8906H151.645V10.4026H148.205ZM163.174 20.1466C161.628 20.1466 160.428 19.8213 159.574 19.1706C158.721 18.5093 158.273 17.5706 158.23 16.3546H160.502C160.577 17.0373 160.817 17.528 161.222 17.8266C161.638 18.1253 162.257 18.2746 163.078 18.2746C163.729 18.2746 164.262 18.1573 164.678 17.9226C165.094 17.6773 165.302 17.304 165.302 16.8026C165.302 16.6213 165.276 16.4613 165.222 16.3226C165.18 16.1733 165.084 16.0453 164.934 15.9386C164.785 15.8213 164.657 15.7306 164.55 15.6666C164.444 15.592 164.246 15.5173 163.958 15.4426C163.67 15.3573 163.452 15.2986 163.302 15.2666C163.153 15.224 162.876 15.1546 162.47 15.0586C161.98 14.9413 161.574 14.84 161.254 14.7546C160.945 14.6693 160.598 14.536 160.214 14.3546C159.841 14.1733 159.542 13.976 159.318 13.7626C159.105 13.5386 158.924 13.2506 158.774 12.8986C158.625 12.536 158.55 12.1253 158.55 11.6666C158.55 10.568 158.95 9.72529 159.75 9.13862C160.561 8.54129 161.622 8.24262 162.934 8.24262C164.236 8.24262 165.276 8.55196 166.054 9.17062C166.833 9.78929 167.265 10.6693 167.35 11.8106H165.126C165.062 11.256 164.828 10.8293 164.422 10.5306C164.028 10.232 163.526 10.0826 162.918 10.0826C162.289 10.0826 161.788 10.2053 161.414 10.4506C161.041 10.696 160.854 11.0213 160.854 11.4266C160.854 11.864 161.036 12.184 161.398 12.3866C161.772 12.5893 162.422 12.792 163.35 12.9946C163.905 13.112 164.358 13.224 164.71 13.3306C165.062 13.4266 165.441 13.5706 165.846 13.7626C166.262 13.944 166.582 14.1466 166.806 14.3706C167.041 14.5946 167.233 14.8933 167.382 15.2666C167.542 15.6293 167.622 16.0506 167.622 16.5306C167.622 17.6613 167.212 18.5466 166.39 19.1866C165.569 19.8266 164.497 20.1466 163.174 20.1466Z" fill="#171A1E"/>
</svg>
