<svg width="236" height="156" viewBox="0 0 236 156" fill="none" xmlns="http://www.w3.org/2000/svg">
<path d="M0.556641 152.182C0.556641 153.738 1.81838 155 3.37482 155H231.738C233.295 155 234.557 153.738 234.557 152.182V27.0545H0.556641V152.182Z" fill="#D9D9D9" stroke="#D87959"/>
<path d="M16.4321 43.8994C16.2277 44.1038 15.9782 44.206 15.6836 44.206C15.389 44.206 15.1365 44.1038 14.9261 43.8994C14.7157 43.6889 14.6105 43.4364 14.6105 43.1418C14.6105 42.8473 14.7157 42.5947 14.9261 42.3843C15.1365 42.1739 15.389 42.0687 15.6836 42.0687C15.9782 42.0687 16.2277 42.1739 16.4321 42.3843C16.6426 42.5947 16.7478 42.8473 16.7478 43.1418C16.7478 43.4364 16.6426 43.6889 16.4321 43.8994ZM25.3903 46.199C24.5245 46.199 23.8572 45.9856 23.3882 45.5587C22.9253 45.1319 22.6758 44.5757 22.6397 43.8904H23.4333C23.5416 44.9966 24.2059 45.5497 25.4264 45.5497C25.8893 45.5497 26.259 45.4475 26.5356 45.2431C26.8182 45.0327 26.9594 44.7321 26.9594 44.3413C26.9594 44.1669 26.9264 44.0136 26.8602 43.8813C26.7941 43.7491 26.7129 43.6409 26.6168 43.5567C26.5266 43.4725 26.3883 43.3944 26.2019 43.3222C26.0155 43.2501 25.8412 43.1929 25.6789 43.1509C25.5225 43.1088 25.3061 43.0577 25.0296 42.9976C24.6989 42.9254 24.4253 42.8533 24.2089 42.7811C23.9925 42.703 23.776 42.5977 23.5596 42.4655C23.3432 42.3332 23.1808 42.1649 23.0726 41.9605C22.9704 41.75 22.9193 41.4975 22.9193 41.2029C22.9193 40.6739 23.1177 40.259 23.5145 39.9584C23.9173 39.6518 24.4494 39.4985 25.1107 39.4985C26.5596 39.4985 27.3743 40.1689 27.5546 41.5096H26.7881C26.728 41.0526 26.5566 40.7099 26.2741 40.4815C25.9915 40.247 25.6097 40.1298 25.1288 40.1298C24.6839 40.1298 24.3291 40.22 24.0646 40.4003C23.8061 40.5807 23.6768 40.8362 23.6768 41.1669C23.6768 41.3112 23.7039 41.4404 23.758 41.5546C23.8181 41.6629 23.8933 41.7561 23.9834 41.8342C24.0796 41.9064 24.2029 41.9725 24.3532 42.0326C24.5095 42.0927 24.6628 42.1438 24.8131 42.1859C24.9634 42.222 25.1468 42.2611 25.3632 42.3032C25.6638 42.3633 25.9103 42.4204 26.1027 42.4745C26.2951 42.5226 26.5085 42.5977 26.743 42.7C26.9775 42.8022 27.1578 42.9194 27.2841 43.0517C27.4164 43.1839 27.5276 43.3583 27.6178 43.5747C27.714 43.7851 27.7621 44.0316 27.7621 44.3142C27.7621 44.9034 27.5426 45.3663 27.1037 45.703C26.6709 46.0337 26.0997 46.199 25.3903 46.199ZM28.7899 46.0728V39.6248H29.5204V46.0728H28.7899ZM30.7222 46.0728V41.4104H31.4527V46.0728H30.7222ZM30.7222 40.5266V39.6248H31.4527V40.5266H30.7222ZM34.4865 47.6239C33.8913 47.6239 33.4223 47.5097 33.0796 47.2812C32.7429 47.0587 32.5536 46.7431 32.5115 46.3343H33.1878C33.254 46.8092 33.6808 47.0467 34.4684 47.0467C35.3582 47.0467 35.8031 46.6469 35.8031 45.8473V45.189H35.7851C35.5987 45.4295 35.4003 45.6098 35.1899 45.7301C34.9794 45.8503 34.7179 45.9104 34.4053 45.9104C33.8041 45.9104 33.3141 45.694 32.9353 45.2611C32.5566 44.8282 32.3672 44.2751 32.3672 43.6018C32.3672 42.8984 32.5566 42.3392 32.9353 41.9244C33.3201 41.5096 33.7951 41.3021 34.3602 41.3021C34.9734 41.3021 35.4484 41.5366 35.7851 42.0056H35.8031V41.4104H36.5336V45.8202C36.5336 46.4154 36.3502 46.8633 35.9835 47.164C35.6227 47.4706 35.1237 47.6239 34.4865 47.6239ZM34.4414 45.2972C35.3853 45.2972 35.8572 44.72 35.8572 43.5657C35.8572 42.4655 35.3823 41.9154 34.4323 41.9154C34.0055 41.9154 33.6778 42.0687 33.4494 42.3753C33.2269 42.6819 33.1157 43.0937 33.1157 43.6108C33.1157 44.1278 33.2299 44.5397 33.4584 44.8463C33.6868 45.1469 34.0145 45.2972 34.4414 45.2972ZM38.4361 39.6248V42.0236H38.4542C38.8149 41.5426 39.3079 41.3021 39.9332 41.3021C40.4261 41.3021 40.8109 41.4314 41.0875 41.6899C41.364 41.9484 41.5023 42.3182 41.5023 42.7992V46.0728H40.7718V42.8623C40.7718 42.5617 40.6787 42.3302 40.4923 42.1679C40.3059 41.9995 40.0474 41.9154 39.7167 41.9154C39.344 41.9154 39.0373 42.0356 38.7969 42.2761C38.5564 42.5166 38.4361 42.8262 38.4361 43.205V46.0728H37.7057V39.6248H38.4361ZM42.2648 42.0056V41.4104H42.9412V39.9404H43.6717V41.4104H44.5735V42.0056H43.6717V45.0357C43.6717 45.3242 43.828 45.4685 44.1406 45.4685C44.2729 45.4685 44.4022 45.4475 44.5284 45.4054H44.5555V46.0367C44.3571 46.0788 44.1617 46.0998 43.9693 46.0998C43.2839 46.0998 42.9412 45.7992 42.9412 45.198V42.0056H42.2648ZM45.5352 46.0728V39.6248H46.2657V46.0728H45.5352ZM48.0627 47.6149C47.7861 47.6149 47.5667 47.5818 47.4044 47.5157V46.8664H47.4404C47.5607 46.9325 47.726 46.9656 47.9364 46.9656C48.0988 46.9656 48.234 46.9235 48.3423 46.8393C48.4505 46.7611 48.5467 46.6138 48.6308 46.3974L48.8112 45.9375L46.9895 41.4104H47.7831L48.8833 44.3142L49.199 45.225H49.217C49.3252 44.8763 49.4274 44.5727 49.5236 44.3142L50.5878 41.4104H51.3633L49.3703 46.4515C49.19 46.9084 49.0036 47.2151 48.8112 47.3714C48.6188 47.5337 48.3693 47.6149 48.0627 47.6149ZM54.4064 39.6248V42.0236H54.4245C54.7852 41.5426 55.2782 41.3021 55.9034 41.3021C56.3964 41.3021 56.7812 41.4314 57.0578 41.6899C57.3343 41.9484 57.4726 42.3182 57.4726 42.7992V46.0728H56.7421V42.8623C56.7421 42.5617 56.6489 42.3302 56.4626 42.1679C56.2762 41.9995 56.0177 41.9154 55.687 41.9154C55.3143 41.9154 55.0076 42.0356 54.7671 42.2761C54.5267 42.5166 54.4064 42.8262 54.4064 43.205V46.0728H53.6759V39.6248H54.4064ZM58.6208 46.0728V41.4104H59.3513V46.0728H58.6208ZM58.6208 40.5266V39.6248H59.3513V40.5266H58.6208ZM62.385 47.6239C61.7898 47.6239 61.3209 47.5097 60.9782 47.2812C60.6415 47.0587 60.4521 46.7431 60.4101 46.3343H61.0864C61.1526 46.8092 61.5794 47.0467 62.367 47.0467C63.2568 47.0467 63.7017 46.6469 63.7017 45.8473V45.189H63.6837C63.4973 45.4295 63.2989 45.6098 63.0885 45.7301C62.878 45.8503 62.6165 45.9104 62.3039 45.9104C61.7027 45.9104 61.2127 45.694 60.8339 45.2611C60.4552 44.8282 60.2658 44.2751 60.2658 43.6018C60.2658 42.8984 60.4552 42.3392 60.8339 41.9244C61.2187 41.5096 61.6937 41.3021 62.2588 41.3021C62.872 41.3021 63.347 41.5366 63.6837 42.0056H63.7017V41.4104H64.4322V45.8202C64.4322 46.4154 64.2488 46.8633 63.8821 47.164C63.5213 47.4706 63.0223 47.6239 62.385 47.6239ZM62.34 45.2972C63.2839 45.2972 63.7558 44.72 63.7558 43.5657C63.7558 42.4655 63.2809 41.9154 62.3309 41.9154C61.9041 41.9154 61.5764 42.0687 61.348 42.3753C61.1255 42.6819 61.0143 43.0937 61.0143 43.6108C61.0143 44.1278 61.1285 44.5397 61.357 44.8463C61.5854 45.1469 61.9131 45.2972 62.34 45.2972ZM66.3347 39.6248V42.0236H66.3528C66.7135 41.5426 67.2065 41.3021 67.8317 41.3021C68.3247 41.3021 68.7095 41.4314 68.9861 41.6899C69.2626 41.9484 69.4009 42.3182 69.4009 42.7992V46.0728H68.6704V42.8623C68.6704 42.5617 68.5772 42.3302 68.3909 42.1679C68.2045 41.9995 67.946 41.9154 67.6153 41.9154C67.2426 41.9154 66.9359 42.0356 66.6955 42.2761C66.455 42.5166 66.3347 42.8262 66.3347 43.205V46.0728H65.6043V39.6248H66.3347ZM72.5421 46.199C71.8507 46.199 71.3006 45.9675 70.8918 45.5046C70.489 45.0357 70.2876 44.4495 70.2876 43.7461C70.2876 43.0547 70.492 42.4745 70.9008 42.0056C71.3157 41.5306 71.8477 41.2931 72.497 41.2931C73.1824 41.2931 73.7115 41.5336 74.0842 42.0146C74.457 42.4895 74.6434 43.1238 74.6434 43.9174H71.0361C71.0662 44.4104 71.2104 44.8132 71.469 45.1258C71.7335 45.4325 72.0912 45.5858 72.5421 45.5858C73.2395 45.5858 73.6694 45.2671 73.8317 44.6298H74.5442C74.4359 45.1289 74.2075 45.5166 73.8588 45.7932C73.5101 46.0637 73.0712 46.199 72.5421 46.199ZM73.471 42.2671C73.2365 42.0025 72.9119 41.8703 72.497 41.8703C72.0822 41.8703 71.7515 42.0086 71.505 42.2851C71.2646 42.5617 71.1142 42.9224 71.0541 43.3673H73.8588C73.8347 42.8984 73.7055 42.5316 73.471 42.2671ZM76.2685 41.4104V42.1859H76.2865C76.4368 41.9394 76.6322 41.741 76.8727 41.5907C77.1132 41.4344 77.3807 41.3562 77.6753 41.3562C77.7835 41.3562 77.8827 41.3743 77.9729 41.4104V42.1138H77.9458C77.8557 42.0837 77.7474 42.0687 77.6212 42.0687C77.2484 42.0687 76.9298 42.2009 76.6653 42.4655C76.4007 42.724 76.2685 43.0637 76.2685 43.4845V46.0728H75.538V41.4104H76.2685ZM80.1278 42.0056V41.4104H80.8042V39.9404H81.5347V41.4104H82.4365V42.0056H81.5347V45.0357C81.5347 45.3242 81.691 45.4685 82.0036 45.4685C82.1359 45.4685 82.2651 45.4475 82.3914 45.4054H82.4184V46.0367C82.22 46.0788 82.0247 46.0998 81.8323 46.0998C81.1469 46.0998 80.8042 45.7992 80.8042 45.198V42.0056H80.1278ZM84.1016 41.4104V42.1859H84.1196C84.2699 41.9394 84.4653 41.741 84.7058 41.5907C84.9463 41.4344 85.2138 41.3562 85.5084 41.3562C85.6167 41.3562 85.7159 41.3743 85.806 41.4104V42.1138H85.779C85.6888 42.0837 85.5806 42.0687 85.4543 42.0687C85.0816 42.0687 84.7629 42.2009 84.4984 42.4655C84.2339 42.724 84.1016 43.0637 84.1016 43.4845V46.0728H83.3711V41.4104H84.1016ZM90.1279 46.1178C89.665 46.1178 89.3975 45.8864 89.3253 45.4234H89.3163C88.9315 45.9164 88.4145 46.1629 87.7652 46.1629C87.3022 46.1629 86.9235 46.0517 86.6289 45.8293C86.3343 45.6068 86.187 45.2852 86.187 44.8643C86.187 44.6479 86.2201 44.4615 86.2862 44.3052C86.3583 44.1429 86.4485 44.0136 86.5567 43.9174C86.665 43.8152 86.8122 43.728 86.9986 43.6559C87.191 43.5777 87.3744 43.5206 87.5487 43.4845C87.7231 43.4425 87.9455 43.4004 88.2161 43.3583C88.3904 43.3342 88.5137 43.3162 88.5858 43.3042C88.664 43.2861 88.7632 43.2621 88.8834 43.232C89.0037 43.196 89.0878 43.1569 89.1359 43.1148C89.184 43.0727 89.2291 43.0156 89.2712 42.9434C89.3133 42.8713 89.3343 42.7871 89.3343 42.6909C89.3343 42.4264 89.2411 42.225 89.0548 42.0867C88.8744 41.9424 88.6189 41.8703 88.2882 41.8703C87.5367 41.8703 87.1489 42.213 87.1249 42.8984H86.4215C86.4335 42.4234 86.5958 42.0416 86.9084 41.753C87.2271 41.4645 87.684 41.3202 88.2792 41.3202C89.4275 41.3202 90.0017 41.8132 90.0017 42.7992V45.0176C90.0017 45.222 90.0347 45.3663 90.1009 45.4505C90.173 45.5347 90.3053 45.5557 90.4977 45.5136H90.5247V46.0457C90.4045 46.0938 90.2722 46.1178 90.1279 46.1178ZM87.9275 45.6038C88.3784 45.6038 88.7271 45.4745 88.9736 45.216C89.2201 44.9515 89.3434 44.6629 89.3434 44.3503V43.5567C89.1209 43.695 88.7662 43.8092 88.2792 43.8994C88.0988 43.9354 87.9576 43.9655 87.8554 43.9896C87.7531 44.0076 87.6359 44.0437 87.5036 44.0978C87.3714 44.1459 87.2722 44.2 87.206 44.2601C87.1399 44.3202 87.0828 44.4014 87.0347 44.5036C86.9866 44.5998 86.9626 44.714 86.9626 44.8463C86.9626 45.3513 87.2842 45.6038 87.9275 45.6038ZM91.9745 41.4104V42.0236H91.9926C92.3533 41.5426 92.8463 41.3021 93.4716 41.3021C93.9646 41.3021 94.3493 41.4314 94.6259 41.6899C94.9024 41.9484 95.0407 42.3182 95.0407 42.7992V46.0728H94.3103V42.8623C94.3103 42.5617 94.2171 42.3302 94.0307 42.1679C93.8443 41.9995 93.5858 41.9154 93.2551 41.9154C92.8824 41.9154 92.5758 42.0356 92.3353 42.2761C92.0948 42.5166 91.9745 42.8262 91.9745 43.205V46.0728H91.2441V41.4104H91.9745ZM97.9565 46.208C97.3192 46.208 96.8232 46.0667 96.4685 45.7842C96.1198 45.4956 95.9274 45.0868 95.8913 44.5577H96.6398C96.724 45.2491 97.1689 45.5948 97.9745 45.5948C98.3413 45.5948 98.6118 45.5257 98.7862 45.3874C98.9665 45.2431 99.0567 45.0567 99.0567 44.8282C99.0567 44.5817 98.9695 44.4044 98.7952 44.2962C98.6208 44.188 98.3022 44.0857 97.8393 43.9896C97.6469 43.9475 97.4936 43.9144 97.3793 43.8904C97.2711 43.8603 97.1388 43.8212 96.9825 43.7731C96.8262 43.719 96.703 43.6619 96.6128 43.6018C96.5286 43.5356 96.4414 43.4575 96.3513 43.3673C96.2611 43.2771 96.1949 43.1659 96.1529 43.0336C96.1168 42.9014 96.0987 42.7541 96.0987 42.5917C96.0987 42.1949 96.243 41.8823 96.5316 41.6538C96.8262 41.4254 97.241 41.3112 97.7761 41.3112C98.8824 41.3112 99.4926 41.7981 99.6068 42.7721H98.8583C98.8222 42.4655 98.717 42.243 98.5427 42.1048C98.3683 41.9605 98.1068 41.8883 97.7581 41.8883C97.4394 41.8883 97.202 41.9514 97.0457 42.0777C96.8953 42.1979 96.8202 42.3573 96.8202 42.5557C96.8202 42.7841 96.9104 42.9465 97.0907 43.0426C97.2711 43.1328 97.5988 43.226 98.0737 43.3222C98.3623 43.3823 98.5878 43.4394 98.7501 43.4936C98.9184 43.5417 99.0928 43.6198 99.2731 43.728C99.4535 43.8302 99.5858 43.9685 99.6699 44.1429C99.7541 44.3172 99.7962 44.5337 99.7962 44.7922C99.7962 45.2491 99.6279 45.6008 99.2912 45.8473C98.9545 46.0878 98.5096 46.208 97.9565 46.208ZM104.381 46.1178C103.918 46.1178 103.651 45.8864 103.579 45.4234H103.57C103.185 45.9164 102.668 46.1629 102.018 46.1629C101.556 46.1629 101.177 46.0517 100.882 45.8293C100.588 45.6068 100.44 45.2852 100.44 44.8643C100.44 44.6479 100.473 44.4615 100.539 44.3052C100.612 44.1429 100.702 44.0136 100.81 43.9174C100.918 43.8152 101.066 43.728 101.252 43.6559C101.444 43.5777 101.628 43.5206 101.802 43.4845C101.976 43.4425 102.199 43.4004 102.469 43.3583C102.644 43.3342 102.767 43.3162 102.839 43.3042C102.917 43.2861 103.016 43.2621 103.137 43.232C103.257 43.196 103.341 43.1569 103.389 43.1148C103.437 43.0727 103.482 43.0156 103.525 42.9434C103.567 42.8713 103.588 42.7871 103.588 42.6909C103.588 42.4264 103.494 42.225 103.308 42.0867C103.128 41.9424 102.872 41.8703 102.542 41.8703C101.79 41.8703 101.402 42.213 101.378 42.8984H100.675C100.687 42.4234 100.849 42.0416 101.162 41.753C101.48 41.4645 101.937 41.3202 102.533 41.3202C103.681 41.3202 104.255 41.8132 104.255 42.7992V45.0176C104.255 45.222 104.288 45.3663 104.354 45.4505C104.426 45.5347 104.559 45.5557 104.751 45.5136H104.778V46.0457C104.658 46.0938 104.526 46.1178 104.381 46.1178ZM102.181 45.6038C102.632 45.6038 102.98 45.4745 103.227 45.216C103.473 44.9515 103.597 44.6629 103.597 44.3503V43.5567C103.374 43.695 103.019 43.8092 102.533 43.8994C102.352 43.9354 102.211 43.9655 102.109 43.9896C102.006 44.0076 101.889 44.0437 101.757 44.0978C101.625 44.1459 101.525 44.2 101.459 44.2601C101.393 44.3202 101.336 44.4014 101.288 44.5036C101.24 44.5998 101.216 44.714 101.216 44.8463C101.216 45.3513 101.538 45.6038 102.181 45.6038ZM107.49 46.199C106.811 46.199 106.264 45.9645 105.849 45.4956C105.44 45.0266 105.236 44.4435 105.236 43.7461C105.236 43.0487 105.44 42.4655 105.849 41.9965C106.264 41.5276 106.811 41.2931 107.49 41.2931C108.038 41.2931 108.485 41.4404 108.834 41.735C109.183 42.0236 109.399 42.4174 109.483 42.9164H108.744C108.69 42.5977 108.555 42.3482 108.338 42.1679C108.122 41.9875 107.839 41.8973 107.49 41.8973C107.009 41.8973 106.637 42.0717 106.372 42.4204C106.114 42.7691 105.984 43.211 105.984 43.7461C105.984 44.2811 106.114 44.723 106.372 45.0717C106.637 45.4144 107.009 45.5858 107.49 45.5858C107.863 45.5858 108.161 45.4866 108.383 45.2882C108.606 45.0838 108.732 44.7982 108.762 44.4314H109.483C109.435 44.9906 109.237 45.4265 108.888 45.7391C108.54 46.0457 108.074 46.199 107.49 46.199ZM110.057 42.0056V41.4104H110.733V39.9404H111.463V41.4104H112.365V42.0056H111.463V45.0357C111.463 45.3242 111.62 45.4685 111.932 45.4685C112.065 45.4685 112.194 45.4475 112.32 45.4054H112.347V46.0367C112.149 46.0788 111.953 46.0998 111.761 46.0998C111.076 46.0998 110.733 45.7992 110.733 45.198V42.0056H110.057ZM113.3 46.0728V41.4104H114.03V46.0728H113.3ZM113.3 40.5266V39.6248H114.03V40.5266H113.3ZM118.832 45.4956C118.423 45.9645 117.879 46.199 117.199 46.199C116.52 46.199 115.973 45.9645 115.558 45.4956C115.149 45.0266 114.945 44.4435 114.945 43.7461C114.945 43.0487 115.149 42.4655 115.558 41.9965C115.973 41.5276 116.52 41.2931 117.199 41.2931C117.879 41.2931 118.423 41.5276 118.832 41.9965C119.24 42.4655 119.445 43.0487 119.445 43.7461C119.445 44.4435 119.24 45.0266 118.832 45.4956ZM116.081 45.0717C116.346 45.4144 116.718 45.5858 117.199 45.5858C117.68 45.5858 118.05 45.4144 118.309 45.0717C118.567 44.723 118.696 44.2811 118.696 43.7461C118.696 43.205 118.564 42.7631 118.3 42.4204C118.041 42.0717 117.674 41.8973 117.199 41.8973C116.718 41.8973 116.346 42.0717 116.081 42.4204C115.823 42.7691 115.693 43.211 115.693 43.7461C115.693 44.2811 115.823 44.723 116.081 45.0717ZM121.084 41.4104V42.0236H121.102C121.463 41.5426 121.956 41.3021 122.581 41.3021C123.074 41.3021 123.459 41.4314 123.736 41.6899C124.012 41.9484 124.15 42.3182 124.15 42.7992V46.0728H123.42V42.8623C123.42 42.5617 123.327 42.3302 123.14 42.1679C122.954 41.9995 122.695 41.9154 122.365 41.9154C121.992 41.9154 121.685 42.0356 121.445 42.2761C121.204 42.5166 121.084 42.8262 121.084 43.205V46.0728H120.354V41.4104H121.084ZM126.617 42.0056V41.4104H127.257V40.6618C127.257 40.2771 127.362 40.0005 127.573 39.8322C127.783 39.6578 128.09 39.5706 128.493 39.5706C128.607 39.5706 128.73 39.5767 128.862 39.5887V40.2109C128.778 40.2049 128.7 40.2019 128.628 40.2019C128.393 40.2019 128.228 40.238 128.132 40.3101C128.036 40.3823 127.988 40.5115 127.988 40.6979V41.4104H128.853V42.0056H127.988V46.0728H127.257V42.0056H126.617ZM131.607 46.199C130.915 46.199 130.365 45.9675 129.956 45.5046C129.553 45.0357 129.352 44.4495 129.352 43.7461C129.352 43.0547 129.556 42.4745 129.965 42.0056C130.38 41.5306 130.912 41.2931 131.562 41.2931C132.247 41.2931 132.776 41.5336 133.149 42.0146C133.521 42.4895 133.708 43.1238 133.708 43.9174H130.101C130.131 44.4104 130.275 44.8132 130.533 45.1258C130.798 45.4325 131.156 45.5858 131.607 45.5858C132.304 45.5858 132.734 45.2671 132.896 44.6298H133.609C133.5 45.1289 133.272 45.5166 132.923 45.7932C132.575 46.0637 132.136 46.199 131.607 46.199ZM132.536 42.2671C132.301 42.0025 131.976 41.8703 131.562 41.8703C131.147 41.8703 130.816 42.0086 130.57 42.2851C130.329 42.5617 130.179 42.9224 130.119 43.3673H132.923C132.899 42.8984 132.77 42.5316 132.536 42.2671ZM136.596 46.199C135.904 46.199 135.354 45.9675 134.945 45.5046C134.542 45.0357 134.341 44.4495 134.341 43.7461C134.341 43.0547 134.545 42.4745 134.954 42.0056C135.369 41.5306 135.901 41.2931 136.55 41.2931C137.236 41.2931 137.765 41.5336 138.138 42.0146C138.51 42.4895 138.697 43.1238 138.697 43.9174H135.089C135.12 44.4104 135.264 44.8132 135.522 45.1258C135.787 45.4325 136.145 45.5858 136.596 45.5858C137.293 45.5858 137.723 45.2671 137.885 44.6298H138.598C138.489 45.1289 138.261 45.5166 137.912 45.7932C137.563 46.0637 137.125 46.199 136.596 46.199ZM137.524 42.2671C137.29 42.0025 136.965 41.8703 136.55 41.8703C136.136 41.8703 135.805 42.0086 135.558 42.2851C135.318 42.5617 135.168 42.9224 135.108 43.3673H137.912C137.888 42.8984 137.759 42.5316 137.524 42.2671ZM141.359 46.208C140.722 46.208 140.226 46.0667 139.871 45.7842C139.522 45.4956 139.33 45.0868 139.294 44.5577H140.042C140.126 45.2491 140.571 45.5948 141.377 45.5948C141.744 45.5948 142.014 45.5257 142.189 45.3874C142.369 45.2431 142.459 45.0567 142.459 44.8282C142.459 44.5817 142.372 44.4044 142.198 44.2962C142.023 44.188 141.705 44.0857 141.242 43.9896C141.049 43.9475 140.896 43.9144 140.782 43.8904C140.674 43.8603 140.541 43.8212 140.385 43.7731C140.229 43.719 140.105 43.6619 140.015 43.6018C139.931 43.5356 139.844 43.4575 139.754 43.3673C139.664 43.2771 139.597 43.1659 139.555 43.0336C139.519 42.9014 139.501 42.7541 139.501 42.5917C139.501 42.1949 139.645 41.8823 139.934 41.6538C140.229 41.4254 140.644 41.3112 141.179 41.3112C142.285 41.3112 142.895 41.7981 143.009 42.7721H142.261C142.225 42.4655 142.119 42.243 141.945 42.1048C141.771 41.9605 141.509 41.8883 141.161 41.8883C140.842 41.8883 140.604 41.9514 140.448 42.0777C140.298 42.1979 140.223 42.3573 140.223 42.5557C140.223 42.7841 140.313 42.9465 140.493 43.0426C140.674 43.1328 141.001 43.226 141.476 43.3222C141.765 43.3823 141.99 43.4394 142.153 43.4936C142.321 43.5417 142.495 43.6198 142.676 43.728C142.856 43.8302 142.988 43.9685 143.072 44.1429C143.157 44.3172 143.199 44.5337 143.199 44.7922C143.199 45.2491 143.03 45.6008 142.694 45.8473C142.357 46.0878 141.912 46.208 141.359 46.208ZM16.4321 57.8994C16.2277 58.1038 15.9782 58.206 15.6836 58.206C15.389 58.206 15.1365 58.1038 14.9261 57.8994C14.7157 57.6889 14.6105 57.4364 14.6105 57.1418C14.6105 56.8473 14.7157 56.5947 14.9261 56.3843C15.1365 56.1739 15.389 56.0687 15.6836 56.0687C15.9782 56.0687 16.2277 56.1739 16.4321 56.3843C16.6426 56.5947 16.7478 56.8473 16.7478 57.1418C16.7478 57.4364 16.6426 57.6889 16.4321 57.8994ZM22.5315 60.0728L24.9033 53.6248H25.8141L28.1949 60.0728H27.3112L26.6258 58.1068H24.0556L23.3612 60.0728H22.5315ZM25.0566 55.2841L24.2901 57.4485H26.4003L25.6608 55.2841L25.3722 54.3733H25.3542C25.24 54.734 25.1408 55.0376 25.0566 55.2841ZM30.5813 61.5698V55.4104H31.3118V56.0687H31.3298C31.7086 55.5577 32.2076 55.3021 32.8268 55.3021C33.428 55.3021 33.912 55.5216 34.2788 55.9605C34.6455 56.3933 34.8289 56.9915 34.8289 57.7551C34.8289 58.5066 34.6485 59.1048 34.2878 59.5497C33.927 59.9886 33.431 60.208 32.7998 60.208C32.1745 60.208 31.6845 59.9796 31.3298 59.5226H31.3118V61.5698H30.5813ZM32.7457 59.5948C33.1785 59.5948 33.5092 59.4265 33.7377 59.0898C33.9661 58.7531 34.0804 58.3112 34.0804 57.7641C34.0804 57.217 33.9661 56.7751 33.7377 56.4384C33.5092 56.0957 33.1815 55.9244 32.7547 55.9244C32.2677 55.9244 31.898 56.0987 31.6454 56.4474C31.3929 56.7901 31.2667 57.229 31.2667 57.7641C31.2667 58.3112 31.3869 58.7531 31.6274 59.0898C31.8679 59.4265 32.2406 59.5948 32.7457 59.5948ZM39.3628 59.4956C38.954 59.9645 38.4099 60.199 37.7305 60.199C37.0512 60.199 36.5041 59.9645 36.0892 59.4956C35.6804 59.0266 35.476 58.4435 35.476 57.7461C35.476 57.0487 35.6804 56.4655 36.0892 55.9965C36.5041 55.5276 37.0512 55.2931 37.7305 55.2931C38.4099 55.2931 38.954 55.5276 39.3628 55.9965C39.7717 56.4655 39.9761 57.0487 39.9761 57.7461C39.9761 58.4435 39.7717 59.0266 39.3628 59.4956ZM36.6123 59.0717C36.8768 59.4144 37.2496 59.5858 37.7305 59.5858C38.2115 59.5858 38.5813 59.4144 38.8398 59.0717C39.0983 58.723 39.2276 58.2811 39.2276 57.7461C39.2276 57.205 39.0953 56.7631 38.8308 56.4204C38.5722 56.0717 38.2055 55.8973 37.7305 55.8973C37.2496 55.8973 36.8768 56.0717 36.6123 56.4204C36.3538 56.7691 36.2245 57.211 36.2245 57.7461C36.2245 58.2811 36.3538 58.723 36.6123 59.0717ZM44.5102 59.4956C44.1014 59.9645 43.5573 60.199 42.8779 60.199C42.1986 60.199 41.6515 59.9645 41.2366 59.4956C40.8278 59.0266 40.6234 58.4435 40.6234 57.7461C40.6234 57.0487 40.8278 56.4655 41.2366 55.9965C41.6515 55.5276 42.1986 55.2931 42.8779 55.2931C43.5573 55.2931 44.1014 55.5276 44.5102 55.9965C44.9191 56.4655 45.1235 57.0487 45.1235 57.7461C45.1235 58.4435 44.9191 59.0266 44.5102 59.4956ZM41.7597 59.0717C42.0242 59.4144 42.397 59.5858 42.8779 59.5858C43.3589 59.5858 43.7287 59.4144 43.9872 59.0717C44.2457 58.723 44.375 58.2811 44.375 57.7461C44.375 57.205 44.2427 56.7631 43.9782 56.4204C43.7196 56.0717 43.3529 55.8973 42.8779 55.8973C42.397 55.8973 42.0242 56.0717 41.7597 56.4204C41.5012 56.7691 41.3719 57.211 41.3719 57.7461C41.3719 58.2811 41.5012 58.723 41.7597 59.0717ZM46.7628 55.4104V56.1859H46.7808C46.9311 55.9394 47.1265 55.741 47.367 55.5907C47.6075 55.4344 47.8751 55.3562 48.1696 55.3562C48.2779 55.3562 48.3771 55.3743 48.4672 55.4104V56.1138H48.4402C48.35 56.0837 48.2418 56.0687 48.1155 56.0687C47.7428 56.0687 47.4241 56.2009 47.1596 56.4655C46.8951 56.724 46.7628 57.0637 46.7628 57.4845V60.0728H46.0323V55.4104H46.7628ZM50.9198 60.0728V55.4104H51.6502V56.0777H51.6683C51.8186 55.8432 52.014 55.6569 52.2545 55.5186C52.4949 55.3743 52.7565 55.3021 53.039 55.3021C53.6463 55.3021 54.0521 55.5787 54.2565 56.1318H54.2745C54.4188 55.8733 54.6202 55.6719 54.8787 55.5276C55.1373 55.3773 55.4108 55.3021 55.6994 55.3021C56.1263 55.3021 56.469 55.4344 56.7275 55.6989C56.986 55.9575 57.1153 56.3242 57.1153 56.7992V60.0728H56.3848V56.8352C56.3848 56.5527 56.3006 56.3302 56.1323 56.1679C55.9699 55.9995 55.7685 55.9154 55.5281 55.9154C55.2214 55.9154 54.9539 56.0356 54.7254 56.2761C54.497 56.5166 54.3827 56.8142 54.3827 57.1689V60.0728H53.6523V56.8352C53.6523 56.5527 53.5771 56.3302 53.4268 56.1679C53.2825 55.9995 53.0901 55.9154 52.8497 55.9154C52.5491 55.9154 52.2725 56.0386 52.02 56.2851C51.7735 56.5256 51.6502 56.8202 51.6502 57.1689V60.0728H50.9198ZM61.8854 59.4956C61.4766 59.9645 60.9325 60.199 60.2531 60.199C59.5737 60.199 59.0266 59.9645 58.6118 59.4956C58.203 59.0266 57.9985 58.4435 57.9985 57.7461C57.9985 57.0487 58.203 56.4655 58.6118 55.9965C59.0266 55.5276 59.5737 55.2931 60.2531 55.2931C60.9325 55.2931 61.4766 55.5276 61.8854 55.9965C62.2942 56.4655 62.4986 57.0487 62.4986 57.7461C62.4986 58.4435 62.2942 59.0266 61.8854 59.4956ZM59.1348 59.0717C59.3994 59.4144 59.7721 59.5858 60.2531 59.5858C60.7341 59.5858 61.1038 59.4144 61.3623 59.0717C61.6208 58.723 61.7501 58.2811 61.7501 57.7461C61.7501 57.205 61.6178 56.7631 61.3533 56.4204C61.0948 56.0717 60.728 55.8973 60.2531 55.8973C59.7721 55.8973 59.3994 56.0717 59.1348 56.4204C58.8763 56.7691 58.7471 57.211 58.7471 57.7461C58.7471 58.2811 58.8763 58.723 59.1348 59.0717ZM65.626 60.208C65.0067 60.208 64.5167 59.9585 64.156 59.4595H64.138V60.0728H63.4075V53.6248H64.138V56.0777H64.156C64.5348 55.5607 65.0338 55.3021 65.653 55.3021C66.2542 55.3021 66.7352 55.5216 67.0959 55.9605C67.4566 56.3933 67.637 56.9915 67.637 57.7551C67.637 58.5066 67.4566 59.1048 67.0959 59.5497C66.7412 59.9886 66.2512 60.208 65.626 60.208ZM65.5718 59.5948C66.0047 59.5948 66.3324 59.4295 66.5548 59.0988C66.7773 58.7621 66.8885 58.3172 66.8885 57.7641C66.8885 57.217 66.7773 56.7751 66.5548 56.4384C66.3324 56.0957 66.0077 55.9244 65.5809 55.9244C65.0939 55.9244 64.7241 56.0987 64.4716 56.4474C64.2191 56.7901 64.0929 57.229 64.0929 57.7641C64.0929 58.3112 64.2191 58.7531 64.4716 59.0898C64.7241 59.4265 65.0909 59.5948 65.5718 59.5948ZM68.5461 60.0728V55.4104H69.2766V60.0728H68.5461ZM68.5461 54.5266V53.6248H69.2766V54.5266H68.5461ZM70.4796 60.0728V53.6248H71.2101V60.0728H70.4796ZM74.4049 60.199C73.7135 60.199 73.1634 59.9675 72.7546 59.5046C72.3518 59.0357 72.1504 58.4495 72.1504 57.7461C72.1504 57.0547 72.3548 56.4745 72.7636 56.0056C73.1785 55.5306 73.7105 55.2931 74.3599 55.2931C75.0452 55.2931 75.5743 55.5336 75.9471 56.0146C76.3198 56.4895 76.5062 57.1238 76.5062 57.9174H72.8989C72.929 58.4104 73.0733 58.8132 73.3318 59.1258C73.5963 59.4325 73.954 59.5858 74.4049 59.5858C75.1023 59.5858 75.5322 59.2671 75.6945 58.6298H76.407C76.2988 59.1289 76.0703 59.5166 75.7216 59.7932C75.3729 60.0637 74.934 60.199 74.4049 60.199ZM75.3338 56.2671C75.0993 56.0025 74.7747 55.8703 74.3599 55.8703C73.945 55.8703 73.6143 56.0086 73.3679 56.2851C73.1274 56.5617 72.9771 56.9224 72.9169 57.3673H75.7216C75.6975 56.8984 75.5683 56.5316 75.3338 56.2671ZM82.6781 60.1178C82.2151 60.1178 81.9476 59.8864 81.8755 59.4234H81.8664C81.4817 59.9164 80.9646 60.1629 80.3153 60.1629C79.8524 60.1629 79.4736 60.0517 79.179 59.8293C78.8844 59.6068 78.7371 59.2852 78.7371 58.8643C78.7371 58.6479 78.7702 58.4615 78.8363 58.3052C78.9085 58.1429 78.9987 58.0136 79.1069 57.9174C79.2151 57.8152 79.3624 57.728 79.5488 57.6559C79.7412 57.5777 79.9245 57.5206 80.0989 57.4845C80.2732 57.4425 80.4957 57.4004 80.7662 57.3583C80.9406 57.3342 81.0638 57.3162 81.136 57.3042C81.2141 57.2861 81.3133 57.2621 81.4336 57.232C81.5538 57.196 81.638 57.1569 81.6861 57.1148C81.7342 57.0727 81.7793 57.0156 81.8213 56.9434C81.8634 56.8713 81.8845 56.7871 81.8845 56.6909C81.8845 56.4264 81.7913 56.225 81.6049 56.0867C81.4245 55.9424 81.169 55.8703 80.8384 55.8703C80.0868 55.8703 79.6991 56.213 79.675 56.8984H78.9716C78.9836 56.4234 79.146 56.0416 79.4586 55.753C79.7772 55.4645 80.2341 55.3202 80.8293 55.3202C81.9777 55.3202 82.5518 55.8132 82.5518 56.7992V59.0176C82.5518 59.222 82.5849 59.3663 82.651 59.4505C82.7232 59.5347 82.8554 59.5557 83.0478 59.5136H83.0749V60.0457C82.9546 60.0938 82.8224 60.1178 82.6781 60.1178ZM80.4776 59.6038C80.9285 59.6038 81.2772 59.4745 81.5237 59.216C81.7702 58.9515 81.8935 58.6629 81.8935 58.3503V57.5567C81.671 57.695 81.3163 57.8092 80.8293 57.8994C80.649 57.9354 80.5077 57.9655 80.4055 57.9896C80.3033 58.0076 80.186 58.0437 80.0538 58.0978C79.9215 58.1459 79.8223 58.2 79.7562 58.2601C79.69 58.3202 79.6329 58.4014 79.5848 58.5036C79.5367 58.5998 79.5127 58.714 79.5127 58.8463C79.5127 59.3513 79.8343 59.6038 80.4776 59.6038ZM83.7942 61.5698V55.4104H84.5247V56.0687H84.5427C84.9215 55.5577 85.4205 55.3021 86.0397 55.3021C86.6409 55.3021 87.1249 55.5216 87.4917 55.9605C87.8584 56.3933 88.0418 56.9915 88.0418 57.7551C88.0418 58.5066 87.8614 59.1048 87.5007 59.5497C87.14 59.9886 86.644 60.208 86.0127 60.208C85.3874 60.208 84.8974 59.9796 84.5427 59.5226H84.5247V61.5698H83.7942ZM85.9586 59.5948C86.3914 59.5948 86.7221 59.4265 86.9506 59.0898C87.179 58.7531 87.2933 58.3112 87.2933 57.7641C87.2933 57.217 87.179 56.7751 86.9506 56.4384C86.7221 56.0957 86.3945 55.9244 85.9676 55.9244C85.4806 55.9244 85.1109 56.0987 84.8584 56.4474C84.6058 56.7901 84.4796 57.229 84.4796 57.7641C84.4796 58.3112 84.5998 58.7531 84.8403 59.0898C85.0808 59.4265 85.4536 59.5948 85.9586 59.5948ZM88.9504 61.5698V55.4104H89.6809V56.0687H89.6989C90.0777 55.5577 90.5767 55.3021 91.1959 55.3021C91.7972 55.3021 92.2811 55.5216 92.6479 55.9605C93.0146 56.3933 93.198 56.9915 93.198 57.7551C93.198 58.5066 93.0176 59.1048 92.6569 59.5497C92.2962 59.9886 91.8002 60.208 91.1689 60.208C90.5436 60.208 90.0536 59.9796 89.6989 59.5226H89.6809V61.5698H88.9504ZM91.1148 59.5948C91.5477 59.5948 91.8783 59.4265 92.1068 59.0898C92.3352 58.7531 92.4495 58.3112 92.4495 57.7641C92.4495 57.217 92.3352 56.7751 92.1068 56.4384C91.8783 56.0957 91.5507 55.9244 91.1238 55.9244C90.6368 55.9244 90.2671 56.0987 90.0146 56.4474C89.7621 56.7901 89.6358 57.229 89.6358 57.7641C89.6358 58.3112 89.756 58.7531 89.9965 59.0898C90.237 59.4265 90.6098 59.5948 91.1148 59.5948ZM95.4249 56.0056V55.4104H96.1013V53.9404H96.8318V55.4104H97.7336V56.0056H96.8318V59.0357C96.8318 59.3242 96.9881 59.4685 97.3007 59.4685C97.433 59.4685 97.5622 59.4475 97.6885 59.4054H97.7155V60.0367C97.5171 60.0788 97.3217 60.0998 97.1294 60.0998C96.444 60.0998 96.1013 59.7992 96.1013 59.198V56.0056H95.4249ZM99.3987 53.6248V56.0236H99.4167C99.7775 55.5426 100.27 55.3021 100.896 55.3021C101.389 55.3021 101.773 55.4314 102.05 55.6899C102.327 55.9484 102.465 56.3182 102.465 56.7992V60.0728H101.734V56.8623C101.734 56.5617 101.641 56.3302 101.455 56.1679C101.268 55.9995 101.01 55.9154 100.679 55.9154C100.307 55.9154 99.9999 56.0356 99.7594 56.2761C99.5189 56.5166 99.3987 56.8262 99.3987 57.205V60.0728H98.6682V53.6248H99.3987ZM107.274 60.1178C106.812 60.1178 106.544 59.8864 106.472 59.4234H106.463C106.078 59.9164 105.561 60.1629 104.912 60.1629C104.449 60.1629 104.07 60.0517 103.775 59.8293C103.481 59.6068 103.334 59.2852 103.334 58.8643C103.334 58.6479 103.367 58.4615 103.433 58.3052C103.505 58.1429 103.595 58.0136 103.703 57.9174C103.811 57.8152 103.959 57.728 104.145 57.6559C104.338 57.5777 104.521 57.5206 104.695 57.4845C104.87 57.4425 105.092 57.4004 105.363 57.3583C105.537 57.3342 105.66 57.3162 105.732 57.3042C105.811 57.2861 105.91 57.2621 106.03 57.232C106.15 57.196 106.234 57.1569 106.282 57.1148C106.331 57.0727 106.376 57.0156 106.418 56.9434C106.46 56.8713 106.481 56.7871 106.481 56.6909C106.481 56.4264 106.388 56.225 106.201 56.0867C106.021 55.9424 105.765 55.8703 105.435 55.8703C104.683 55.8703 104.295 56.213 104.271 56.8984H103.568C103.58 56.4234 103.742 56.0416 104.055 55.753C104.374 55.4645 104.831 55.3202 105.426 55.3202C106.574 55.3202 107.148 55.8132 107.148 56.7992V59.0176C107.148 59.222 107.181 59.3663 107.247 59.4505C107.32 59.5347 107.452 59.5557 107.644 59.5136H107.671V60.0457C107.551 60.0938 107.419 60.1178 107.274 60.1178ZM105.074 59.6038C105.525 59.6038 105.874 59.4745 106.12 59.216C106.367 58.9515 106.49 58.6629 106.49 58.3503V57.5567C106.267 57.695 105.913 57.8092 105.426 57.8994C105.245 57.9354 105.104 57.9655 105.002 57.9896C104.9 58.0076 104.782 58.0437 104.65 58.0978C104.518 58.1459 104.419 58.2 104.353 58.2601C104.286 58.3202 104.229 58.4014 104.181 58.5036C104.133 58.5998 104.109 58.714 104.109 58.8463C104.109 59.3513 104.431 59.6038 105.074 59.6038ZM108.005 56.0056V55.4104H108.681V53.9404H109.412V55.4104H110.314V56.0056H109.412V59.0357C109.412 59.3242 109.568 59.4685 109.881 59.4685C110.013 59.4685 110.142 59.4475 110.268 59.4054H110.296V60.0367C110.097 60.0788 109.902 60.0998 109.709 60.0998C109.024 60.0998 108.681 59.7992 108.681 59.198V56.0056H108.005ZM114.857 60.199C114.178 60.199 113.631 59.9645 113.216 59.4956C112.807 59.0266 112.603 58.4435 112.603 57.7461C112.603 57.0487 112.807 56.4655 113.216 55.9965C113.631 55.5276 114.178 55.2931 114.857 55.2931C115.404 55.2931 115.852 55.4404 116.201 55.735C116.55 56.0236 116.766 56.4174 116.85 56.9164H116.111C116.057 56.5977 115.921 56.3482 115.705 56.1679C115.488 55.9875 115.206 55.8973 114.857 55.8973C114.376 55.8973 114.003 56.0717 113.739 56.4204C113.48 56.7691 113.351 57.211 113.351 57.7461C113.351 58.2811 113.48 58.723 113.739 59.0717C114.003 59.4144 114.376 59.5858 114.857 59.5858C115.23 59.5858 115.527 59.4866 115.75 59.2882C115.972 59.0838 116.099 58.7982 116.129 58.4314H116.85C116.802 58.9906 116.604 59.4265 116.255 59.7391C115.906 60.0457 115.44 60.199 114.857 60.199ZM121.47 60.1178C121.007 60.1178 120.74 59.8864 120.668 59.4234H120.659C120.274 59.9164 119.757 60.1629 119.108 60.1629C118.645 60.1629 118.266 60.0517 117.971 59.8293C117.677 59.6068 117.529 59.2852 117.529 58.8643C117.529 58.6479 117.562 58.4615 117.629 58.3052C117.701 58.1429 117.791 58.0136 117.899 57.9174C118.007 57.8152 118.155 57.728 118.341 57.6559C118.533 57.5777 118.717 57.5206 118.891 57.4845C119.065 57.4425 119.288 57.4004 119.558 57.3583C119.733 57.3342 119.856 57.3162 119.928 57.3042C120.006 57.2861 120.106 57.2621 120.226 57.232C120.346 57.196 120.43 57.1569 120.478 57.1148C120.526 57.0727 120.572 57.0156 120.614 56.9434C120.656 56.8713 120.677 56.7871 120.677 56.6909C120.677 56.4264 120.584 56.225 120.397 56.0867C120.217 55.9424 119.961 55.8703 119.631 55.8703C118.879 55.8703 118.491 56.213 118.467 56.8984H117.764C117.776 56.4234 117.938 56.0416 118.251 55.753C118.569 55.4645 119.026 55.3202 119.622 55.3202C120.77 55.3202 121.344 55.8132 121.344 56.7992V59.0176C121.344 59.222 121.377 59.3663 121.443 59.4505C121.515 59.5347 121.648 59.5557 121.84 59.5136H121.867V60.0457C121.747 60.0938 121.615 60.1178 121.47 60.1178ZM119.27 59.6038C119.721 59.6038 120.07 59.4745 120.316 59.216C120.563 58.9515 120.686 58.6629 120.686 58.3503V57.5567C120.463 57.695 120.109 57.8092 119.622 57.8994C119.441 57.9354 119.3 57.9655 119.198 57.9896C119.096 58.0076 118.978 58.0437 118.846 58.0978C118.714 58.1459 118.615 58.2 118.548 58.2601C118.482 58.3202 118.425 58.4014 118.377 58.5036C118.329 58.5998 118.305 58.714 118.305 58.8463C118.305 59.3513 118.627 59.6038 119.27 59.6038ZM123.317 55.4104V56.0236H123.335C123.696 55.5426 124.189 55.3021 124.814 55.3021C125.307 55.3021 125.692 55.4314 125.968 55.6899C126.245 55.9484 126.383 56.3182 126.383 56.7992V60.0728H125.653V56.8623C125.653 56.5617 125.559 56.3302 125.373 56.1679C125.187 55.9995 124.928 55.9154 124.598 55.9154C124.225 55.9154 123.918 56.0356 123.678 56.2761C123.437 56.5166 123.317 56.8262 123.317 57.205V60.0728H122.586V55.4104H123.317ZM131.366 60.208C130.746 60.208 130.256 59.9585 129.896 59.4595H129.878V60.0728H129.147V53.6248H129.878V56.0777H129.896C130.274 55.5607 130.773 55.3021 131.393 55.3021C131.994 55.3021 132.475 55.5216 132.836 55.9605C133.196 56.3933 133.377 56.9915 133.377 57.7551C133.377 58.5066 133.196 59.1048 132.836 59.5497C132.481 59.9886 131.991 60.208 131.366 60.208ZM131.312 59.5948C131.744 59.5948 132.072 59.4295 132.295 59.0988C132.517 58.7621 132.628 58.3172 132.628 57.7641C132.628 57.217 132.517 56.7751 132.295 56.4384C132.072 56.0957 131.747 55.9244 131.321 55.9244C130.834 55.9244 130.464 56.0987 130.211 56.4474C129.959 56.7901 129.833 57.229 129.833 57.7641C129.833 58.3112 129.959 58.7531 130.211 59.0898C130.464 59.4265 130.831 59.5948 131.312 59.5948ZM137.911 59.4956C137.502 59.9645 136.958 60.199 136.279 60.199C135.599 60.199 135.052 59.9645 134.638 59.4956C134.229 59.0266 134.024 58.4435 134.024 57.7461C134.024 57.0487 134.229 56.4655 134.638 55.9965C135.052 55.5276 135.599 55.2931 136.279 55.2931C136.958 55.2931 137.502 55.5276 137.911 55.9965C138.32 56.4655 138.524 57.0487 138.524 57.7461C138.524 58.4435 138.32 59.0266 137.911 59.4956ZM135.161 59.0717C135.425 59.4144 135.798 59.5858 136.279 59.5858C136.76 59.5858 137.13 59.4144 137.388 59.0717C137.647 58.723 137.776 58.2811 137.776 57.7461C137.776 57.205 137.644 56.7631 137.379 56.4204C137.121 56.0717 136.754 55.8973 136.279 55.8973C135.798 55.8973 135.425 56.0717 135.161 56.4204C134.902 56.7691 134.773 57.211 134.773 57.7461C134.773 58.2811 134.902 58.723 135.161 59.0717ZM143.059 59.4956C142.65 59.9645 142.106 60.199 141.426 60.199C140.747 60.199 140.2 59.9645 139.785 59.4956C139.376 59.0266 139.172 58.4435 139.172 57.7461C139.172 57.0487 139.376 56.4655 139.785 55.9965C140.2 55.5276 140.747 55.2931 141.426 55.2931C142.106 55.2931 142.65 55.5276 143.059 55.9965C143.467 56.4655 143.672 57.0487 143.672 57.7461C143.672 58.4435 143.467 59.0266 143.059 59.4956ZM140.308 59.0717C140.573 59.4144 140.945 59.5858 141.426 59.5858C141.907 59.5858 142.277 59.4144 142.535 59.0717C142.794 58.723 142.923 58.2811 142.923 57.7461C142.923 57.205 142.791 56.7631 142.526 56.4204C142.268 56.0717 141.901 55.8973 141.426 55.8973C140.945 55.8973 140.573 56.0717 140.308 56.4204C140.049 56.7691 139.92 57.211 139.92 57.7461C139.92 58.2811 140.049 58.723 140.308 59.0717ZM146.348 60.208C145.711 60.208 145.215 60.0667 144.86 59.7842C144.511 59.4956 144.319 59.0868 144.283 58.5577H145.032C145.116 59.2491 145.561 59.5948 146.366 59.5948C146.733 59.5948 147.004 59.5257 147.178 59.3874C147.358 59.2431 147.448 59.0567 147.448 58.8282C147.448 58.5817 147.361 58.4044 147.187 58.2962C147.013 58.188 146.694 58.0857 146.231 57.9896C146.039 57.9475 145.885 57.9144 145.771 57.8904C145.663 57.8603 145.531 57.8212 145.374 57.7731C145.218 57.719 145.095 57.6619 145.004 57.6018C144.92 57.5356 144.833 57.4575 144.743 57.3673C144.653 57.2771 144.587 57.1659 144.545 57.0336C144.508 56.9014 144.49 56.7541 144.49 56.5917C144.49 56.1949 144.635 55.8823 144.923 55.6538C145.218 55.4254 145.633 55.3112 146.168 55.3112C147.274 55.3112 147.884 55.7981 147.999 56.7721H147.25C147.214 56.4655 147.109 56.243 146.934 56.1048C146.76 55.9605 146.498 55.8883 146.15 55.8883C145.831 55.8883 145.594 55.9514 145.437 56.0777C145.287 56.1979 145.212 56.3573 145.212 56.5557C145.212 56.7841 145.302 56.9465 145.482 57.0426C145.663 57.1328 145.99 57.226 146.465 57.3222C146.754 57.3823 146.979 57.4394 147.142 57.4936C147.31 57.5417 147.484 57.6198 147.665 57.728C147.845 57.8302 147.977 57.9685 148.062 58.1429C148.146 58.3172 148.188 58.5337 148.188 58.7922C148.188 59.2491 148.02 59.6008 147.683 59.8473C147.346 60.0878 146.901 60.208 146.348 60.208ZM148.682 56.0056V55.4104H149.358V53.9404H150.089V55.4104H150.991V56.0056H150.089V59.0357C150.089 59.3242 150.245 59.4685 150.558 59.4685C150.69 59.4685 150.819 59.4475 150.945 59.4054H150.972V60.0367C150.774 60.0788 150.579 60.0998 150.386 60.0998C149.701 60.0998 149.358 59.7992 149.358 59.198V56.0056H148.682ZM153.243 56.0056V55.4104H153.92V53.9404H154.65V55.4104H155.552V56.0056H154.65V59.0357C154.65 59.3242 154.807 59.4685 155.119 59.4685C155.251 59.4685 155.381 59.4475 155.507 59.4054H155.534V60.0367C155.336 60.0788 155.14 60.0998 154.948 60.0998C154.262 60.0998 153.92 59.7992 153.92 59.198V56.0056H153.243ZM157.217 53.6248V56.0236H157.235C157.596 55.5426 158.089 55.3021 158.714 55.3021C159.207 55.3021 159.592 55.4314 159.869 55.6899C160.145 55.9484 160.283 56.3182 160.283 56.7992V60.0728H159.553V56.8623C159.553 56.5617 159.46 56.3302 159.273 56.1679C159.087 55.9995 158.828 55.9154 158.498 55.9154C158.125 55.9154 157.818 56.0356 157.578 56.2761C157.337 56.5166 157.217 56.8262 157.217 57.205V60.0728H156.487V53.6248H157.217ZM163.425 60.199C162.733 60.199 162.183 59.9675 161.774 59.5046C161.371 59.0357 161.17 58.4495 161.17 57.7461C161.17 57.0547 161.374 56.4745 161.783 56.0056C162.198 55.5306 162.73 55.2931 163.38 55.2931C164.065 55.2931 164.594 55.5336 164.967 56.0146C165.339 56.4895 165.526 57.1238 165.526 57.9174H161.919C161.949 58.4104 162.093 58.8132 162.351 59.1258C162.616 59.4325 162.974 59.5858 163.425 59.5858C164.122 59.5858 164.552 59.2671 164.714 58.6298H165.427C165.318 59.1289 165.09 59.5166 164.741 59.7932C164.393 60.0637 163.954 60.199 163.425 60.199ZM164.353 56.2671C164.119 56.0025 163.794 55.8703 163.38 55.8703C162.965 55.8703 162.634 56.0086 162.388 56.2851C162.147 56.5617 161.997 56.9224 161.937 57.3673H164.741C164.717 56.8984 164.588 56.5316 164.353 56.2671ZM168.767 55.4104V56.0236H168.785C169.146 55.5426 169.639 55.3021 170.264 55.3021C170.757 55.3021 171.142 55.4314 171.418 55.6899C171.695 55.9484 171.833 56.3182 171.833 56.7992V60.0728H171.103V56.8623C171.103 56.5617 171.009 56.3302 170.823 56.1679C170.637 55.9995 170.378 55.9154 170.047 55.9154C169.675 55.9154 169.368 56.0356 169.128 56.2761C168.887 56.5166 168.767 56.8262 168.767 57.205V60.0728H168.036V55.4104H168.767ZM176.679 60.0728H175.948V59.4325H175.93C175.563 59.9315 175.094 60.181 174.523 60.181C174.042 60.181 173.661 60.0457 173.378 59.7752C173.095 59.4986 172.954 59.1198 172.954 58.6389V55.4104H173.685V58.6208C173.685 58.9214 173.775 59.1559 173.955 59.3242C174.142 59.4926 174.4 59.5768 174.731 59.5768C175.097 59.5768 175.392 59.4535 175.615 59.207C175.837 58.9605 175.948 58.6509 175.948 58.2781V55.4104H176.679V60.0728ZM177.847 60.0728V55.4104H178.577V56.0777H178.595C178.746 55.8432 178.941 55.6569 179.181 55.5186C179.422 55.3743 179.684 55.3021 179.966 55.3021C180.573 55.3021 180.979 55.5787 181.184 56.1318H181.202C181.346 55.8733 181.547 55.6719 181.806 55.5276C182.064 55.3773 182.338 55.3021 182.626 55.3021C183.053 55.3021 183.396 55.4344 183.655 55.6989C183.913 55.9575 184.042 56.3242 184.042 56.7992V60.0728H183.312V56.8352C183.312 56.5527 183.228 56.3302 183.059 56.1679C182.897 55.9995 182.696 55.9154 182.455 55.9154C182.148 55.9154 181.881 56.0356 181.652 56.2761C181.424 56.5166 181.31 56.8142 181.31 57.1689V60.0728H180.579V56.8352C180.579 56.5527 180.504 56.3302 180.354 56.1679C180.21 55.9995 180.017 55.9154 179.777 55.9154C179.476 55.9154 179.2 56.0386 178.947 56.2851C178.701 56.5256 178.577 56.8202 178.577 57.1689V60.0728H177.847ZM187.406 60.208C186.786 60.208 186.296 59.9585 185.936 59.4595H185.918V60.0728H185.187V53.6248H185.918V56.0777H185.936C186.314 55.5607 186.813 55.3021 187.433 55.3021C188.034 55.3021 188.515 55.5216 188.876 55.9605C189.236 56.3933 189.417 56.9915 189.417 57.7551C189.417 58.5066 189.236 59.1048 188.876 59.5497C188.521 59.9886 188.031 60.208 187.406 60.208ZM187.351 59.5948C187.784 59.5948 188.112 59.4295 188.334 59.0988C188.557 58.7621 188.668 58.3172 188.668 57.7641C188.668 57.217 188.557 56.7751 188.334 56.4384C188.112 56.0957 187.787 55.9244 187.36 55.9244C186.874 55.9244 186.504 56.0987 186.251 56.4474C185.999 56.7901 185.872 57.229 185.872 57.7641C185.872 58.3112 185.999 58.7531 186.251 59.0898C186.504 59.4265 186.87 59.5948 187.351 59.5948ZM192.319 60.199C191.627 60.199 191.077 59.9675 190.668 59.5046C190.266 59.0357 190.064 58.4495 190.064 57.7461C190.064 57.0547 190.269 56.4745 190.677 56.0056C191.092 55.5306 191.624 55.2931 192.274 55.2931C192.959 55.2931 193.488 55.5336 193.861 56.0146C194.234 56.4895 194.42 57.1238 194.42 57.9174H190.813C190.843 58.4104 190.987 58.8132 191.246 59.1258C191.51 59.4325 191.868 59.5858 192.319 59.5858C193.016 59.5858 193.446 59.2671 193.608 58.6298H194.321C194.213 59.1289 193.984 59.5166 193.635 59.7932C193.287 60.0637 192.848 60.199 192.319 60.199ZM193.248 56.2671C193.013 56.0025 192.688 55.8703 192.274 55.8703C191.859 55.8703 191.528 56.0086 191.282 56.2851C191.041 56.5617 190.891 56.9224 190.831 57.3673H193.635C193.611 56.8984 193.482 56.5316 193.248 56.2671ZM196.045 55.4104V56.1859H196.063C196.213 55.9394 196.409 55.741 196.649 55.5907C196.89 55.4344 197.157 55.3562 197.452 55.3562C197.56 55.3562 197.659 55.3743 197.749 55.4104V56.1138H197.722C197.632 56.0837 197.524 56.0687 197.398 56.0687C197.025 56.0687 196.706 56.2009 196.442 56.4655C196.177 56.724 196.045 57.0637 196.045 57.4845V60.0728H195.315V55.4104H196.045ZM203.827 59.4956C203.419 59.9645 202.874 60.199 202.195 60.199C201.516 60.199 200.969 59.9645 200.554 59.4956C200.145 59.0266 199.94 58.4435 199.94 57.7461C199.94 57.0487 200.145 56.4655 200.554 55.9965C200.969 55.5276 201.516 55.2931 202.195 55.2931C202.874 55.2931 203.419 55.5276 203.827 55.9965C204.236 56.4655 204.441 57.0487 204.441 57.7461C204.441 58.4435 204.236 59.0266 203.827 59.4956ZM201.077 59.0717C201.341 59.4144 201.714 59.5858 202.195 59.5858C202.676 59.5858 203.046 59.4144 203.304 59.0717C203.563 58.723 203.692 58.2811 203.692 57.7461C203.692 57.205 203.56 56.7631 203.295 56.4204C203.037 56.0717 202.67 55.8973 202.195 55.8973C201.714 55.8973 201.341 56.0717 201.077 56.4204C200.818 56.7691 200.689 57.211 200.689 57.7461C200.689 58.2811 200.818 58.723 201.077 59.0717ZM204.964 56.0056V55.4104H205.604V54.6618C205.604 54.2771 205.709 54.0005 205.92 53.8322C206.13 53.6578 206.437 53.5706 206.84 53.5706C206.954 53.5706 207.077 53.5767 207.209 53.5887V54.2109C207.125 54.2049 207.047 54.2019 206.975 54.2019C206.74 54.2019 206.575 54.238 206.479 54.3101C206.383 54.3823 206.335 54.5115 206.335 54.6979V55.4104H207.2V56.0056H206.335V60.0728H205.604V56.0056H204.964ZM26.6348 74.0728H25.9043V73.4325H25.8863C25.5195 73.9315 25.0506 74.181 24.4794 74.181C23.9985 74.181 23.6167 74.0457 23.3341 73.7752C23.0516 73.4986 22.9103 73.1198 22.9103 72.6389V69.4104H23.6408V72.6208C23.6408 72.9214 23.7309 73.1559 23.9113 73.3242C24.0977 73.4926 24.3562 73.5768 24.6869 73.5768C25.0536 73.5768 25.3482 73.4535 25.5706 73.207C25.7931 72.9605 25.9043 72.6509 25.9043 72.2781V69.4104H26.6348V74.0728ZM29.5705 74.208C28.9332 74.208 28.4372 74.0667 28.0825 73.7842C27.7338 73.4956 27.5414 73.0868 27.5053 72.5577H28.2538C28.338 73.2491 28.7829 73.5948 29.5885 73.5948C29.9553 73.5948 30.2258 73.5257 30.4002 73.3874C30.5805 73.2431 30.6707 73.0567 30.6707 72.8282C30.6707 72.5817 30.5835 72.4044 30.4092 72.2962C30.2348 72.188 29.9162 72.0857 29.4533 71.9896C29.2609 71.9475 29.1076 71.9144 28.9933 71.8904C28.8851 71.8603 28.7528 71.8212 28.5965 71.7731C28.4402 71.719 28.317 71.6619 28.2268 71.6018C28.1426 71.5356 28.0554 71.4575 27.9653 71.3673C27.8751 71.2771 27.8089 71.1659 27.7669 71.0336C27.7308 70.9014 27.7127 70.7541 27.7127 70.5917C27.7127 70.1949 27.857 69.8823 28.1456 69.6538C28.4402 69.4254 28.855 69.3112 29.3901 69.3112C30.4964 69.3112 31.1066 69.7981 31.2208 70.7721H30.4723C30.4362 70.4655 30.331 70.243 30.1567 70.1048C29.9823 69.9605 29.7208 69.8883 29.3721 69.8883C29.0534 69.8883 28.816 69.9514 28.6597 70.0777C28.5094 70.1979 28.4342 70.3573 28.4342 70.5557C28.4342 70.7841 28.5244 70.9465 28.7047 71.0426C28.8851 71.1328 29.2128 71.226 29.6877 71.3222C29.9763 71.3823 30.2018 71.4394 30.3641 71.4936C30.5324 71.5417 30.7068 71.6198 30.8871 71.728C31.0675 71.8302 31.1998 71.9685 31.2839 72.1429C31.3681 72.3172 31.4102 72.5337 31.4102 72.7922C31.4102 73.2491 31.2419 73.6008 30.9052 73.8473C30.5685 74.0878 30.1236 74.208 29.5705 74.208ZM34.3709 74.199C33.6795 74.199 33.1294 73.9675 32.7206 73.5046C32.3178 73.0357 32.1164 72.4495 32.1164 71.7461C32.1164 71.0547 32.3208 70.4745 32.7296 70.0056C33.1444 69.5306 33.6765 69.2931 34.3258 69.2931C35.0112 69.2931 35.5403 69.5336 35.913 70.0146C36.2858 70.4895 36.4721 71.1238 36.4721 71.9174H32.8649C32.8949 72.4104 33.0392 72.8132 33.2977 73.1258C33.5623 73.4325 33.92 73.5858 34.3709 73.5858C35.0683 73.5858 35.4982 73.2671 35.6605 72.6298H36.3729C36.2647 73.1289 36.0363 73.5166 35.6876 73.7932C35.3389 74.0637 34.9 74.199 34.3709 74.199ZM35.2998 70.2671C35.0653 70.0025 34.7407 69.8703 34.3258 69.8703C33.911 69.8703 33.5803 70.0086 33.3338 70.2851C33.0933 70.5617 32.943 70.9224 32.8829 71.3673H35.6876C35.6635 70.8984 35.5343 70.5316 35.2998 70.2671ZM38.0973 69.4104V70.1859H38.1153C38.2656 69.9394 38.461 69.741 38.7015 69.5907C38.942 69.4344 39.2095 69.3562 39.5041 69.3562C39.6123 69.3562 39.7115 69.3743 39.8017 69.4104V70.1138H39.7746C39.6845 70.0837 39.5762 70.0687 39.45 70.0687C39.0772 70.0687 38.7586 70.2009 38.4941 70.4655C38.2295 70.724 38.0973 71.0637 38.0973 71.4845V74.0728H37.3668V69.4104H38.0973ZM42.4059 74.208C41.7686 74.208 41.2726 74.0667 40.9179 73.7842C40.5692 73.4956 40.3768 73.0868 40.3407 72.5577H41.0892C41.1734 73.2491 41.6183 73.5948 42.4239 73.5948C42.7907 73.5948 43.0612 73.5257 43.2356 73.3874C43.4159 73.2431 43.5061 73.0567 43.5061 72.8282C43.5061 72.5817 43.4189 72.4044 43.2446 72.2962C43.0702 72.188 42.7516 72.0857 42.2887 71.9896C42.0963 71.9475 41.943 71.9144 41.8287 71.8904C41.7205 71.8603 41.5883 71.8212 41.4319 71.7731C41.2756 71.719 41.1524 71.6619 41.0622 71.6018C40.978 71.5356 40.8908 71.4575 40.8007 71.3673C40.7105 71.2771 40.6443 71.1659 40.6023 71.0336C40.5662 70.9014 40.5482 70.7541 40.5482 70.5917C40.5482 70.1949 40.6924 69.8823 40.981 69.6538C41.2756 69.4254 41.6905 69.3112 42.2255 69.3112C43.3318 69.3112 43.942 69.7981 44.0562 70.7721H43.3077C43.2716 70.4655 43.1664 70.243 42.9921 70.1048C42.8177 69.9605 42.5562 69.8883 42.2075 69.8883C41.8889 69.8883 41.6514 69.9514 41.4951 70.0777C41.3448 70.1979 41.2696 70.3573 41.2696 70.5557C41.2696 70.7841 41.3598 70.9465 41.5402 71.0426C41.7205 71.1328 42.0482 71.226 42.5231 71.3222C42.8117 71.3823 43.0372 71.4394 43.1995 71.4936C43.3678 71.5417 43.5422 71.6198 43.7226 71.728C43.9029 71.8302 44.0352 71.9685 44.1194 72.1429C44.2035 72.3172 44.2456 72.5337 44.2456 72.7922C44.2456 73.2491 44.0773 73.6008 43.7406 73.8473C43.4039 74.0878 42.959 74.208 42.4059 74.208ZM46.4435 70.0056V69.4104H47.0838V68.6618C47.0838 68.2771 47.189 68.0005 47.3994 67.8322C47.6099 67.6578 47.9165 67.5706 48.3193 67.5706C48.4335 67.5706 48.5568 67.5767 48.689 67.5887V68.2109C48.6049 68.2049 48.5267 68.2019 48.4546 68.2019C48.2201 68.2019 48.0548 68.238 47.9586 68.3101C47.8624 68.3823 47.8143 68.5115 47.8143 68.6979V69.4104H48.68V70.0056H47.8143V74.0728H47.0838V70.0056H46.4435ZM53.0655 73.4956C52.6567 73.9645 52.1126 74.199 51.4332 74.199C50.7539 74.199 50.2068 73.9645 49.7919 73.4956C49.3831 73.0266 49.1787 72.4435 49.1787 71.7461C49.1787 71.0487 49.3831 70.4655 49.7919 69.9965C50.2068 69.5276 50.7539 69.2931 51.4332 69.2931C52.1126 69.2931 52.6567 69.5276 53.0655 69.9965C53.4744 70.4655 53.6788 71.0487 53.6788 71.7461C53.6788 72.4435 53.4744 73.0266 53.0655 73.4956ZM50.315 73.0717C50.5795 73.4144 50.9523 73.5858 51.4332 73.5858C51.9142 73.5858 52.284 73.4144 52.5425 73.0717C52.801 72.723 52.9303 72.2811 52.9303 71.7461C52.9303 71.205 52.798 70.7631 52.5335 70.4204C52.2749 70.0717 51.9082 69.8973 51.4332 69.8973C50.9523 69.8973 50.5795 70.0717 50.315 70.4204C50.0565 70.7691 49.9272 71.211 49.9272 71.7461C49.9272 72.2811 50.0565 72.723 50.315 73.0717ZM55.3181 69.4104V70.1859H55.3361C55.4864 69.9394 55.6818 69.741 55.9223 69.5907C56.1628 69.4344 56.4303 69.3562 56.7249 69.3562C56.8332 69.3562 56.9324 69.3743 57.0225 69.4104V70.1138H56.9955C56.9053 70.0837 56.7971 70.0687 56.6708 70.0687C56.2981 70.0687 55.9794 70.2009 55.7149 70.4655C55.4504 70.724 55.3181 71.0637 55.3181 71.4845V74.0728H54.5876V69.4104H55.3181ZM61.2426 74.208C60.6053 74.208 60.1093 74.0667 59.7546 73.7842C59.4059 73.4956 59.2135 73.0868 59.1775 72.5577H59.926C60.0101 73.2491 60.455 73.5948 61.2607 73.5948C61.6274 73.5948 61.8979 73.5257 62.0723 73.3874C62.2527 73.2431 62.3428 73.0567 62.3428 72.8282C62.3428 72.5817 62.2557 72.4044 62.0813 72.2962C61.907 72.188 61.5883 72.0857 61.1254 71.9896C60.933 71.9475 60.7797 71.9144 60.6655 71.8904C60.5572 71.8603 60.425 71.8212 60.2687 71.7731C60.1123 71.719 59.9891 71.6619 59.8989 71.6018C59.8147 71.5356 59.7276 71.4575 59.6374 71.3673C59.5472 71.2771 59.4811 71.1659 59.439 71.0336C59.4029 70.9014 59.3849 70.7541 59.3849 70.5917C59.3849 70.1949 59.5292 69.8823 59.8178 69.6538C60.1123 69.4254 60.5272 69.3112 61.0623 69.3112C62.1685 69.3112 62.7787 69.7981 62.893 70.7721H62.1444C62.1084 70.4655 62.0032 70.243 61.8288 70.1048C61.6545 69.9605 61.3929 69.8883 61.0442 69.8883C60.7256 69.8883 60.4881 69.9514 60.3318 70.0777C60.1815 70.1979 60.1063 70.3573 60.1063 70.5557C60.1063 70.7841 60.1965 70.9465 60.3769 71.0426C60.5572 71.1328 60.8849 71.226 61.3599 71.3222C61.6484 71.3823 61.8739 71.4394 62.0362 71.4936C62.2046 71.5417 62.3789 71.6198 62.5593 71.728C62.7396 71.8302 62.8719 71.9685 62.9561 72.1429C63.0402 72.3172 63.0823 72.5337 63.0823 72.7922C63.0823 73.2491 62.914 73.6008 62.5773 73.8473C62.2406 74.0878 61.7957 74.208 61.2426 74.208ZM63.962 74.0728V69.4104H64.6924V70.0777H64.7105C64.8608 69.8432 65.0562 69.6569 65.2967 69.5186C65.5371 69.3743 65.7987 69.3021 66.0812 69.3021C66.6885 69.3021 67.0943 69.5787 67.2987 70.1318H67.3167C67.461 69.8733 67.6624 69.6719 67.9209 69.5276C68.1795 69.3773 68.453 69.3021 68.7416 69.3021C69.1685 69.3021 69.5111 69.4344 69.7697 69.6989C70.0282 69.9575 70.1575 70.3242 70.1575 70.7992V74.0728H69.427V70.8352C69.427 70.5527 69.3428 70.3302 69.1745 70.1679C69.0121 69.9995 68.8107 69.9154 68.5703 69.9154C68.2636 69.9154 67.9961 70.0356 67.7676 70.2761C67.5392 70.5166 67.4249 70.8142 67.4249 71.1689V74.0728H66.6945V70.8352C66.6945 70.5527 66.6193 70.3302 66.469 70.1679C66.3247 69.9995 66.1323 69.9154 65.8919 69.9154C65.5912 69.9154 65.3147 70.0386 65.0622 70.2851C64.8157 70.5256 64.6924 70.8202 64.6924 71.1689V74.0728H63.962ZM74.9636 74.1178C74.5007 74.1178 74.2332 73.8864 74.161 73.4234H74.152C73.7672 73.9164 73.2502 74.1629 72.6009 74.1629C72.138 74.1629 71.7592 74.0517 71.4646 73.8293C71.17 73.6068 71.0227 73.2852 71.0227 72.8643C71.0227 72.6479 71.0558 72.4615 71.1219 72.3052C71.194 72.1429 71.2842 72.0136 71.3924 71.9174C71.5007 71.8152 71.648 71.728 71.8343 71.6559C72.0267 71.5777 72.2101 71.5206 72.3844 71.4845C72.5588 71.4425 72.7812 71.4004 73.0518 71.3583C73.2261 71.3342 73.3494 71.3162 73.4215 71.3042C73.4997 71.2861 73.5989 71.2621 73.7191 71.232C73.8394 71.196 73.9236 71.1569 73.9716 71.1148C74.0197 71.0727 74.0648 71.0156 74.1069 70.9434C74.149 70.8713 74.17 70.7871 74.17 70.6909C74.17 70.4264 74.0769 70.225 73.8905 70.0867C73.7101 69.9424 73.4546 69.8703 73.1239 69.8703C72.3724 69.8703 71.9846 70.213 71.9606 70.8984H71.2572C71.2692 70.4234 71.4315 70.0416 71.7442 69.753C72.0628 69.4645 72.5197 69.3202 73.1149 69.3202C74.2632 69.3202 74.8374 69.8132 74.8374 70.7992V73.0176C74.8374 73.222 74.8705 73.3663 74.9366 73.4505C75.0087 73.5347 75.141 73.5557 75.3334 73.5136H75.3604V74.0457C75.2402 74.0938 75.1079 74.1178 74.9636 74.1178ZM72.7632 73.6038C73.2141 73.6038 73.5628 73.4745 73.8093 73.216C74.0558 72.9515 74.1791 72.6629 74.1791 72.3503V71.5567C73.9566 71.695 73.6019 71.8092 73.1149 71.8994C72.9346 71.9354 72.7933 71.9655 72.6911 71.9896C72.5889 72.0076 72.4716 72.0437 72.3394 72.0978C72.2071 72.1459 72.1079 72.2 72.0418 72.2601C71.9756 72.3202 71.9185 72.4014 71.8704 72.5036C71.8223 72.5998 71.7983 72.714 71.7983 72.8463C71.7983 73.3513 72.1199 73.6038 72.7632 73.6038ZM76.1068 74.0728V67.6248H76.8373V74.0728H76.1068ZM78.0662 74.0728V67.6248H78.7967V74.0728H78.0662ZM83.8328 74.208C83.2136 74.208 82.7236 73.9585 82.3629 73.4595H82.3448V74.0728H81.6143V67.6248H82.3448V70.0777H82.3629C82.7416 69.5607 83.2406 69.3021 83.8599 69.3021C84.4611 69.3021 84.9421 69.5216 85.3028 69.9605C85.6635 70.3933 85.8439 70.9915 85.8439 71.7551C85.8439 72.5066 85.6635 73.1048 85.3028 73.5497C84.9481 73.9886 84.4581 74.208 83.8328 74.208ZM83.7787 73.5948C84.2116 73.5948 84.5392 73.4295 84.7617 73.0988C84.9841 72.7621 85.0954 72.3172 85.0954 71.7641C85.0954 71.217 84.9841 70.7751 84.7617 70.4384C84.5392 70.0957 84.2146 69.9244 83.7877 69.9244C83.3007 69.9244 82.931 70.0987 82.6785 70.4474C82.426 70.7901 82.2997 71.229 82.2997 71.7641C82.2997 72.3112 82.426 72.7531 82.6785 73.0898C82.931 73.4265 83.2977 73.5948 83.7787 73.5948ZM90.4504 74.0728H89.7199V73.4325H89.7019C89.3352 73.9315 88.8662 74.181 88.2951 74.181C87.8141 74.181 87.4323 74.0457 87.1498 73.7752C86.8672 73.4986 86.7259 73.1198 86.7259 72.6389V69.4104H87.4564V72.6208C87.4564 72.9214 87.5466 73.1559 87.7269 73.3242C87.9133 73.4926 88.1718 73.5768 88.5025 73.5768C88.8692 73.5768 89.1638 73.4535 89.3863 73.207C89.6087 72.9605 89.7199 72.6509 89.7199 72.2781V69.4104H90.4504V74.0728ZM93.3861 74.208C92.7488 74.208 92.2528 74.0667 91.8981 73.7842C91.5494 73.4956 91.357 73.0868 91.3209 72.5577H92.0695C92.1536 73.2491 92.5985 73.5948 93.4041 73.5948C93.7709 73.5948 94.0414 73.5257 94.2158 73.3874C94.3961 73.2431 94.4863 73.0567 94.4863 72.8282C94.4863 72.5817 94.3991 72.4044 94.2248 72.2962C94.0504 72.188 93.7318 72.0857 93.2689 71.9896C93.0765 71.9475 92.9232 71.9144 92.8089 71.8904C92.7007 71.8603 92.5685 71.8212 92.4121 71.7731C92.2558 71.719 92.1326 71.6619 92.0424 71.6018C91.9582 71.5356 91.8711 71.4575 91.7809 71.3673C91.6907 71.2771 91.6246 71.1659 91.5825 71.0336C91.5464 70.9014 91.5284 70.7541 91.5284 70.5917C91.5284 70.1949 91.6727 69.8823 91.9612 69.6538C92.2558 69.4254 92.6707 69.3112 93.2057 69.3112C94.312 69.3112 94.9222 69.7981 95.0364 70.7721H94.2879C94.2519 70.4655 94.1466 70.243 93.9723 70.1048C93.7979 69.9605 93.5364 69.8883 93.1877 69.8883C92.8691 69.8883 92.6316 69.9514 92.4753 70.0777C92.325 70.1979 92.2498 70.3573 92.2498 70.5557C92.2498 70.7841 92.34 70.9465 92.5204 71.0426C92.7007 71.1328 93.0284 71.226 93.5033 71.3222C93.7919 71.3823 94.0174 71.4394 94.1797 71.4936C94.348 71.5417 94.5224 71.6198 94.7028 71.728C94.8831 71.8302 95.0154 71.9685 95.0996 72.1429C95.1837 72.3172 95.2258 72.5337 95.2258 72.7922C95.2258 73.2491 95.0575 73.6008 94.7208 73.8473C94.3841 74.0878 93.9392 74.208 93.3861 74.208ZM96.1054 74.0728V69.4104H96.8359V74.0728H96.1054ZM96.1054 68.5266V67.6248H96.8359V68.5266H96.1054ZM98.7424 69.4104V70.0236H98.7604C99.1212 69.5426 99.6142 69.3021 100.239 69.3021C100.732 69.3021 101.117 69.4314 101.394 69.6899C101.67 69.9484 101.809 70.3182 101.809 70.7992V74.0728H101.078V70.8623C101.078 70.5617 100.985 70.3302 100.799 70.1679C100.612 69.9995 100.354 69.9154 100.023 69.9154C99.6502 69.9154 99.3436 70.0356 99.1031 70.2761C98.8627 70.5166 98.7424 70.8262 98.7424 71.205V74.0728H98.0119V69.4104H98.7424ZM104.95 74.199C104.258 74.199 103.708 73.9675 103.299 73.5046C102.897 73.0357 102.695 72.4495 102.695 71.7461C102.695 71.0547 102.9 70.4745 103.309 70.0056C103.723 69.5306 104.255 69.2931 104.905 69.2931C105.59 69.2931 106.119 69.5336 106.492 70.0146C106.865 70.4895 107.051 71.1238 107.051 71.9174H103.444C103.474 72.4104 103.618 72.8132 103.877 73.1258C104.141 73.4325 104.499 73.5858 104.95 73.5858C105.647 73.5858 106.077 73.2671 106.239 72.6298H106.952C106.844 73.1289 106.615 73.5166 106.266 73.7932C105.918 74.0637 105.479 74.199 104.95 74.199ZM105.879 70.2671C105.644 70.0025 105.32 69.8703 104.905 69.8703C104.49 69.8703 104.159 70.0086 103.913 70.2851C103.672 70.5617 103.522 70.9224 103.462 71.3673H106.266C106.242 70.8984 106.113 70.5316 105.879 70.2671ZM109.713 74.208C109.076 74.208 108.58 74.0667 108.225 73.7842C107.877 73.4956 107.684 73.0868 107.648 72.5577H108.397C108.481 73.2491 108.926 73.5948 109.731 73.5948C110.098 73.5948 110.369 73.5257 110.543 73.3874C110.723 73.2431 110.813 73.0567 110.813 72.8282C110.813 72.5817 110.726 72.4044 110.552 72.2962C110.378 72.188 110.059 72.0857 109.596 71.9896C109.404 71.9475 109.25 71.9144 109.136 71.8904C109.028 71.8603 108.896 71.8212 108.739 71.7731C108.583 71.719 108.46 71.6619 108.37 71.6018C108.285 71.5356 108.198 71.4575 108.108 71.3673C108.018 71.2771 107.952 71.1659 107.91 71.0336C107.874 70.9014 107.855 70.7541 107.855 70.5917C107.855 70.1949 108 69.8823 108.288 69.6538C108.583 69.4254 108.998 69.3112 109.533 69.3112C110.639 69.3112 111.249 69.7981 111.364 70.7721H110.615C110.579 70.4655 110.474 70.243 110.299 70.1048C110.125 69.9605 109.864 69.8883 109.515 69.8883C109.196 69.8883 108.959 69.9514 108.802 70.0777C108.652 70.1979 108.577 70.3573 108.577 70.5557C108.577 70.7841 108.667 70.9465 108.847 71.0426C109.028 71.1328 109.356 71.226 109.83 71.3222C110.119 71.3823 110.345 71.4394 110.507 71.4936C110.675 71.5417 110.85 71.6198 111.03 71.728C111.21 71.8302 111.343 71.9685 111.427 72.1429C111.511 72.3172 111.553 72.5337 111.553 72.7922C111.553 73.2491 111.385 73.6008 111.048 73.8473C110.711 74.0878 110.266 74.208 109.713 74.208ZM114.2 74.208C113.563 74.208 113.067 74.0667 112.712 73.7842C112.363 73.4956 112.171 73.0868 112.135 72.5577H112.883C112.968 73.2491 113.413 73.5948 114.218 73.5948C114.585 73.5948 114.855 73.5257 115.03 73.3874C115.21 73.2431 115.3 73.0567 115.3 72.8282C115.3 72.5817 115.213 72.4044 115.039 72.2962C114.864 72.188 114.546 72.0857 114.083 71.9896C113.891 71.9475 113.737 71.9144 113.623 71.8904C113.515 71.8603 113.382 71.8212 113.226 71.7731C113.07 71.719 112.947 71.6619 112.856 71.6018C112.772 71.5356 112.685 71.4575 112.595 71.3673C112.505 71.2771 112.439 71.1659 112.397 71.0336C112.36 70.9014 112.342 70.7541 112.342 70.5917C112.342 70.1949 112.487 69.8823 112.775 69.6538C113.07 69.4254 113.485 69.3112 114.02 69.3112C115.126 69.3112 115.736 69.7981 115.85 70.7721H115.102C115.066 70.4655 114.961 70.243 114.786 70.1048C114.612 69.9605 114.35 69.8883 114.002 69.8883C113.683 69.8883 113.446 69.9514 113.289 70.0777C113.139 70.1979 113.064 70.3573 113.064 70.5557C113.064 70.7841 113.154 70.9465 113.334 71.0426C113.515 71.1328 113.842 71.226 114.317 71.3222C114.606 71.3823 114.831 71.4394 114.994 71.4936C115.162 71.5417 115.336 71.6198 115.517 71.728C115.697 71.8302 115.829 71.9685 115.914 72.1429C115.998 72.3172 116.04 72.5337 116.04 72.7922C116.04 73.2491 115.872 73.6008 115.535 73.8473C115.198 74.0878 114.753 74.208 114.2 74.208ZM119.001 74.199C118.309 74.199 117.759 73.9675 117.35 73.5046C116.947 73.0357 116.746 72.4495 116.746 71.7461C116.746 71.0547 116.95 70.4745 117.359 70.0056C117.774 69.5306 118.306 69.2931 118.955 69.2931C119.641 69.2931 120.17 69.5336 120.543 70.0146C120.915 70.4895 121.102 71.1238 121.102 71.9174H117.495C117.525 72.4104 117.669 72.8132 117.927 73.1258C118.192 73.4325 118.55 73.5858 119.001 73.5858C119.698 73.5858 120.128 73.2671 120.29 72.6298H121.003C120.894 73.1289 120.666 73.5166 120.317 73.7932C119.969 74.0637 119.53 74.199 119.001 74.199ZM119.929 70.2671C119.695 70.0025 119.37 69.8703 118.955 69.8703C118.541 69.8703 118.21 70.0086 117.963 70.2851C117.723 70.5617 117.573 70.9224 117.513 71.3673H120.317C120.293 70.8984 120.164 70.5316 119.929 70.2671ZM123.764 74.208C123.127 74.208 122.631 74.0667 122.276 73.7842C121.927 73.4956 121.735 73.0868 121.699 72.5577H122.447C122.532 73.2491 122.976 73.5948 123.782 73.5948C124.149 73.5948 124.419 73.5257 124.594 73.3874C124.774 73.2431 124.864 73.0567 124.864 72.8282C124.864 72.5817 124.777 72.4044 124.603 72.2962C124.428 72.188 124.11 72.0857 123.647 71.9896C123.454 71.9475 123.301 71.9144 123.187 71.8904C123.079 71.8603 122.946 71.8212 122.79 71.7731C122.634 71.719 122.51 71.6619 122.42 71.6018C122.336 71.5356 122.249 71.4575 122.159 71.3673C122.069 71.2771 122.002 71.1659 121.96 71.0336C121.924 70.9014 121.906 70.7541 121.906 70.5917C121.906 70.1949 122.051 69.8823 122.339 69.6538C122.634 69.4254 123.049 69.3112 123.584 69.3112C124.69 69.3112 125.3 69.7981 125.414 70.7721H124.666C124.63 70.4655 124.525 70.243 124.35 70.1048C124.176 69.9605 123.914 69.8883 123.566 69.8883C123.247 69.8883 123.009 69.9514 122.853 70.0777C122.703 70.1979 122.628 70.3573 122.628 70.5557C122.628 70.7841 122.718 70.9465 122.898 71.0426C123.079 71.1328 123.406 71.226 123.881 71.3222C124.17 71.3823 124.395 71.4394 124.558 71.4936C124.726 71.5417 124.9 71.6198 125.081 71.728C125.261 71.8302 125.393 71.9685 125.477 72.1429C125.562 72.3172 125.604 72.5337 125.604 72.7922C125.604 73.2491 125.435 73.6008 125.099 73.8473C124.762 74.0878 124.317 74.208 123.764 74.208ZM131.761 74.1178C131.298 74.1178 131.03 73.8864 130.958 73.4234H130.949C130.564 73.9164 130.047 74.1629 129.398 74.1629C128.935 74.1629 128.556 74.0517 128.262 73.8293C127.967 73.6068 127.82 73.2852 127.82 72.8643C127.82 72.6479 127.853 72.4615 127.919 72.3052C127.991 72.1429 128.081 72.0136 128.189 71.9174C128.298 71.8152 128.445 71.728 128.631 71.6559C128.824 71.5777 129.007 71.5206 129.181 71.4845C129.356 71.4425 129.578 71.4004 129.849 71.3583C130.023 71.3342 130.146 71.3162 130.218 71.3042C130.297 71.2861 130.396 71.2621 130.516 71.232C130.636 71.196 130.72 71.1569 130.769 71.1148C130.817 71.0727 130.862 71.0156 130.904 70.9434C130.946 70.8713 130.967 70.7871 130.967 70.6909C130.967 70.4264 130.874 70.225 130.687 70.0867C130.507 69.9424 130.252 69.8703 129.921 69.8703C129.169 69.8703 128.782 70.213 128.758 70.8984H128.054C128.066 70.4234 128.228 70.0416 128.541 69.753C128.86 69.4645 129.317 69.3202 129.912 69.3202C131.06 69.3202 131.634 69.8132 131.634 70.7992V73.0176C131.634 73.222 131.667 73.3663 131.734 73.4505C131.806 73.5347 131.938 73.5557 132.13 73.5136H132.157V74.0457C132.037 74.0938 131.905 74.1178 131.761 74.1178ZM129.56 73.6038C130.011 73.6038 130.36 73.4745 130.606 73.216C130.853 72.9515 130.976 72.6629 130.976 72.3503V71.5567C130.754 71.695 130.399 71.8092 129.912 71.8994C129.731 71.9354 129.59 71.9655 129.488 71.9896C129.386 72.0076 129.269 72.0437 129.136 72.0978C129.004 72.1459 128.905 72.2 128.839 72.2601C128.773 72.3202 128.715 72.4014 128.667 72.5036C128.619 72.5998 128.595 72.714 128.595 72.8463C128.595 73.3513 128.917 73.6038 129.56 73.6038ZM133.607 69.4104V70.0236H133.625C133.986 69.5426 134.479 69.3021 135.104 69.3021C135.597 69.3021 135.982 69.4314 136.259 69.6899C136.535 69.9484 136.673 70.3182 136.673 70.7992V74.0728H135.943V70.8623C135.943 70.5617 135.85 70.3302 135.663 70.1679C135.477 69.9995 135.218 69.9154 134.888 69.9154C134.515 69.9154 134.208 70.0356 133.968 70.2761C133.727 70.5166 133.607 70.8262 133.607 71.205V74.0728H132.877V69.4104H133.607ZM139.625 74.208C138.988 74.208 138.483 73.9886 138.11 73.5497C137.743 73.1048 137.56 72.5066 137.56 71.7551C137.56 70.9976 137.752 70.3993 138.137 69.9605C138.522 69.5216 139.012 69.3021 139.607 69.3021C140.238 69.3021 140.725 69.5577 141.068 70.0687H141.086V67.6248H141.817V74.0728H141.086V73.5046H141.068C140.701 73.9736 140.22 74.208 139.625 74.208ZM139.652 73.5948C140.151 73.5948 140.521 73.4295 140.762 73.0988C141.008 72.7681 141.131 72.3232 141.131 71.7641C141.131 71.211 140.999 70.7661 140.734 70.4294C140.476 70.0927 140.112 69.9244 139.643 69.9244C139.216 69.9244 138.886 70.0957 138.651 70.4384C138.423 70.7751 138.309 71.217 138.309 71.7641C138.309 72.3112 138.423 72.7531 138.651 73.0898C138.886 73.4265 139.219 73.5948 139.652 73.5948ZM146.37 74.208C145.733 74.208 145.237 74.0667 144.882 73.7842C144.533 73.4956 144.341 73.0868 144.305 72.5577H145.053C145.138 73.2491 145.582 73.5948 146.388 73.5948C146.755 73.5948 147.025 73.5257 147.2 73.3874C147.38 73.2431 147.47 73.0567 147.47 72.8282C147.47 72.5817 147.383 72.4044 147.209 72.2962C147.034 72.188 146.716 72.0857 146.253 71.9896C146.06 71.9475 145.907 71.9144 145.793 71.8904C145.685 71.8603 145.552 71.8212 145.396 71.7731C145.24 71.719 145.117 71.6619 145.026 71.6018C144.942 71.5356 144.855 71.4575 144.765 71.3673C144.675 71.2771 144.608 71.1659 144.566 71.0336C144.53 70.9014 144.512 70.7541 144.512 70.5917C144.512 70.1949 144.657 69.8823 144.945 69.6538C145.24 69.4254 145.655 69.3112 146.19 69.3112C147.296 69.3112 147.906 69.7981 148.02 70.7721H147.272C147.236 70.4655 147.131 70.243 146.956 70.1048C146.782 69.9605 146.52 69.8883 146.172 69.8883C145.853 69.8883 145.616 69.9514 145.459 70.0777C145.309 70.1979 145.234 70.3573 145.234 70.5557C145.234 70.7841 145.324 70.9465 145.504 71.0426C145.685 71.1328 146.012 71.226 146.487 71.3222C146.776 71.3823 147.001 71.4394 147.164 71.4936C147.332 71.5417 147.506 71.6198 147.687 71.728C147.867 71.8302 147.999 71.9685 148.083 72.1429C148.168 72.3172 148.21 72.5337 148.21 72.7922C148.21 73.2491 148.041 73.6008 147.705 73.8473C147.368 74.0878 146.923 74.208 146.37 74.208ZM148.704 70.0056V69.4104H149.38V67.9404H150.111V69.4104H151.012V70.0056H150.111V73.0357C150.111 73.3242 150.267 73.4685 150.579 73.4685C150.712 73.4685 150.841 73.4475 150.967 73.4054H150.994V74.0367C150.796 74.0788 150.601 74.0998 150.408 74.0998C149.723 74.0998 149.38 73.7992 149.38 73.198V70.0056H148.704ZM155.528 73.4956C155.119 73.9645 154.575 74.199 153.896 74.199C153.217 74.199 152.67 73.9645 152.255 73.4956C151.846 73.0266 151.641 72.4435 151.641 71.7461C151.641 71.0487 151.846 70.4655 152.255 69.9965C152.67 69.5276 153.217 69.2931 153.896 69.2931C154.575 69.2931 155.119 69.5276 155.528 69.9965C155.937 70.4655 156.142 71.0487 156.142 71.7461C156.142 72.4435 155.937 73.0266 155.528 73.4956ZM152.778 73.0717C153.042 73.4144 153.415 73.5858 153.896 73.5858C154.377 73.5858 154.747 73.4144 155.005 73.0717C155.264 72.723 155.393 72.2811 155.393 71.7461C155.393 71.205 155.261 70.7631 154.996 70.4204C154.738 70.0717 154.371 69.8973 153.896 69.8973C153.415 69.8973 153.042 70.0717 152.778 70.4204C152.519 70.7691 152.39 71.211 152.39 71.7461C152.39 72.2811 152.519 72.723 152.778 73.0717ZM157.781 69.4104V70.1859H157.799C157.949 69.9394 158.145 69.741 158.385 69.5907C158.626 69.4344 158.893 69.3562 159.188 69.3562C159.296 69.3562 159.395 69.3743 159.485 69.4104V70.1138H159.458C159.368 70.0837 159.26 70.0687 159.134 70.0687C158.761 70.0687 158.442 70.2009 158.178 70.4655C157.913 70.724 157.781 71.0637 157.781 71.4845V74.0728H157.05V69.4104H157.781ZM162.139 74.199C161.447 74.199 160.897 73.9675 160.488 73.5046C160.086 73.0357 159.884 72.4495 159.884 71.7461C159.884 71.0547 160.089 70.4745 160.498 70.0056C160.912 69.5306 161.444 69.2931 162.094 69.2931C162.779 69.2931 163.308 69.5336 163.681 70.0146C164.054 70.4895 164.24 71.1238 164.24 71.9174H160.633C160.663 72.4104 160.807 72.8132 161.066 73.1258C161.33 73.4325 161.688 73.5858 162.139 73.5858C162.836 73.5858 163.266 73.2671 163.428 72.6298H164.141C164.033 73.1289 163.804 73.5166 163.455 73.7932C163.107 74.0637 162.668 74.199 162.139 74.199ZM163.068 70.2671C162.833 70.0025 162.509 69.8703 162.094 69.8703C161.679 69.8703 161.348 70.0086 161.102 70.2851C160.861 70.5617 160.711 70.9224 160.651 71.3673H163.455C163.431 70.8984 163.302 70.5316 163.068 70.2671ZM166.902 74.208C166.265 74.208 165.769 74.0667 165.414 73.7842C165.066 73.4956 164.873 73.0868 164.837 72.5577H165.586C165.67 73.2491 166.115 73.5948 166.92 73.5948C167.287 73.5948 167.558 73.5257 167.732 73.3874C167.912 73.2431 168.002 73.0567 168.002 72.8282C168.002 72.5817 167.915 72.4044 167.741 72.2962C167.567 72.188 167.248 72.0857 166.785 71.9896C166.593 71.9475 166.439 71.9144 166.325 71.8904C166.217 71.8603 166.085 71.8212 165.928 71.7731C165.772 71.719 165.649 71.6619 165.559 71.6018C165.474 71.5356 165.387 71.4575 165.297 71.3673C165.207 71.2771 165.141 71.1659 165.099 71.0336C165.063 70.9014 165.045 70.7541 165.045 70.5917C165.045 70.1949 165.189 69.8823 165.477 69.6538C165.772 69.4254 166.187 69.3112 166.722 69.3112C167.828 69.3112 168.438 69.7981 168.553 70.7721H167.804C167.768 70.4655 167.663 70.243 167.488 70.1048C167.314 69.9605 167.053 69.8883 166.704 69.8883C166.385 69.8883 166.148 69.9514 165.991 70.0777C165.841 70.1979 165.766 70.3573 165.766 70.5557C165.766 70.7841 165.856 70.9465 166.037 71.0426C166.217 71.1328 166.545 71.226 167.019 71.3222C167.308 71.3823 167.534 71.4394 167.696 71.4936C167.864 71.5417 168.039 71.6198 168.219 71.728C168.399 71.8302 168.532 71.9685 168.616 72.1429C168.7 72.3172 168.742 72.5337 168.742 72.7922C168.742 73.2491 168.574 73.6008 168.237 73.8473C167.9 74.0878 167.455 74.208 166.902 74.208ZM169.522 74.0728V73.18H170.397V74.0728H169.522Z" fill="#070B0E"/>
<path d="M0 27.1333H235V2.81829C235 1.26185 233.738 0.000104904 232.182 0.000104904H2.81817C1.26173 0.000104904 0 1.26185 0 2.81829V27.1333Z" fill="#D87959"/>
<path d="M88.3625 19.8906L85.0345 8.45062H87.4025L88.8905 14.1306L89.3865 16.6266H89.4185C89.6105 15.6773 89.7865 14.8666 89.9465 14.1946L91.1945 8.45062H93.4345L94.6825 14.1786L95.2105 16.6266H95.2425C95.4665 15.6133 95.6532 14.776 95.8025 14.1146L97.2425 8.45062H99.5305L96.2665 19.8906H94.1065L92.7145 13.7626L92.3145 11.7306H92.2825C92.1652 12.5306 92.0425 13.208 91.9145 13.7626L90.5065 19.8906H88.3625ZM100.811 19.8906V8.45062H109.227V10.4026H103.131V12.9626H108.475V14.8666H103.131V17.9546H109.275V19.8906H100.811ZM110.283 19.8906L114.267 8.45062H116.667L120.699 19.8906H118.283L117.515 17.4586H113.387L112.635 19.8906H110.283ZM114.955 12.3866L113.931 15.6826H116.955L115.931 12.3866L115.467 10.6266H115.435C115.243 11.3946 115.083 11.9813 114.955 12.3866ZM121.982 19.8906V8.45062H124.302V13.0106L128.702 8.45062H131.582L127.102 13.0266L131.87 19.8906H129.15L125.47 14.5466L124.302 15.7306V19.8906H121.982ZM133.083 19.8906V8.45062H135.435L139.243 14.8346C139.35 15.016 139.467 15.24 139.595 15.5066C139.734 15.7733 139.841 15.9973 139.915 16.1786L140.043 16.4346H140.075C140.033 15.6453 140.011 14.984 140.011 14.4506V8.45062H142.299V19.8906H140.059L136.155 13.5706C136.049 13.3893 135.926 13.1706 135.787 12.9146C135.649 12.648 135.542 12.424 135.467 12.2426L135.339 11.9866H135.307C135.35 12.7866 135.371 13.4533 135.371 13.9866V19.8906H133.083ZM144.372 19.8906V8.45062H152.788V10.4026H146.692V12.9626H152.036V14.8666H146.692V17.9546H152.836V19.8906H144.372ZM158.952 20.1466C157.405 20.1466 156.205 19.8213 155.352 19.1706C154.499 18.5093 154.051 17.5706 154.008 16.3546H156.28C156.355 17.0373 156.595 17.528 157 17.8266C157.416 18.1253 158.035 18.2746 158.856 18.2746C159.507 18.2746 160.04 18.1573 160.456 17.9226C160.872 17.6773 161.08 17.304 161.08 16.8026C161.08 16.6213 161.053 16.4613 161 16.3226C160.957 16.1733 160.861 16.0453 160.712 15.9386C160.563 15.8213 160.435 15.7306 160.328 15.6666C160.221 15.592 160.024 15.5173 159.736 15.4426C159.448 15.3573 159.229 15.2986 159.08 15.2666C158.931 15.224 158.653 15.1546 158.248 15.0586C157.757 14.9413 157.352 14.84 157.032 14.7546C156.723 14.6693 156.376 14.536 155.992 14.3546C155.619 14.1733 155.32 13.976 155.096 13.7626C154.883 13.5386 154.701 13.2506 154.552 12.8986C154.403 12.536 154.328 12.1253 154.328 11.6666C154.328 10.568 154.728 9.72529 155.528 9.13862C156.339 8.54129 157.4 8.24262 158.712 8.24262C160.013 8.24262 161.053 8.55196 161.832 9.17062C162.611 9.78929 163.043 10.6693 163.128 11.8106H160.904C160.84 11.256 160.605 10.8293 160.2 10.5306C159.805 10.232 159.304 10.0826 158.696 10.0826C158.067 10.0826 157.565 10.2053 157.192 10.4506C156.819 10.696 156.632 11.0213 156.632 11.4266C156.632 11.864 156.813 12.184 157.176 12.3866C157.549 12.5893 158.2 12.792 159.128 12.9946C159.683 13.112 160.136 13.224 160.488 13.3306C160.84 13.4266 161.219 13.5706 161.624 13.7626C162.04 13.944 162.36 14.1466 162.584 14.3706C162.819 14.5946 163.011 14.8933 163.16 15.2666C163.32 15.6293 163.4 16.0506 163.4 16.5306C163.4 17.6613 162.989 18.5466 162.168 19.1866C161.347 19.8266 160.275 20.1466 158.952 20.1466ZM169.616 20.1466C168.069 20.1466 166.869 19.8213 166.016 19.1706C165.163 18.5093 164.715 17.5706 164.672 16.3546H166.944C167.019 17.0373 167.259 17.528 167.664 17.8266C168.08 18.1253 168.699 18.2746 169.52 18.2746C170.171 18.2746 170.704 18.1573 171.12 17.9226C171.536 17.6773 171.744 17.304 171.744 16.8026C171.744 16.6213 171.717 16.4613 171.664 16.3226C171.621 16.1733 171.525 16.0453 171.376 15.9386C171.227 15.8213 171.099 15.7306 170.992 15.6666C170.885 15.592 170.688 15.5173 170.4 15.4426C170.112 15.3573 169.893 15.2986 169.744 15.2666C169.595 15.224 169.317 15.1546 168.912 15.0586C168.421 14.9413 168.016 14.84 167.696 14.7546C167.387 14.6693 167.04 14.536 166.656 14.3546C166.283 14.1733 165.984 13.976 165.76 13.7626C165.547 13.5386 165.365 13.2506 165.216 12.8986C165.067 12.536 164.992 12.1253 164.992 11.6666C164.992 10.568 165.392 9.72529 166.192 9.13862C167.003 8.54129 168.064 8.24262 169.376 8.24262C170.677 8.24262 171.717 8.55196 172.496 9.17062C173.275 9.78929 173.707 10.6693 173.792 11.8106H171.568C171.504 11.256 171.269 10.8293 170.864 10.5306C170.469 10.232 169.968 10.0826 169.36 10.0826C168.731 10.0826 168.229 10.2053 167.856 10.4506C167.483 10.696 167.296 11.0213 167.296 11.4266C167.296 11.864 167.477 12.184 167.84 12.3866C168.213 12.5893 168.864 12.792 169.792 12.9946C170.347 13.112 170.8 13.224 171.152 13.3306C171.504 13.4266 171.883 13.5706 172.288 13.7626C172.704 13.944 173.024 14.1466 173.248 14.3706C173.483 14.5946 173.675 14.8933 173.824 15.2666C173.984 15.6293 174.064 16.0506 174.064 16.5306C174.064 17.6613 173.653 18.5466 172.832 19.1866C172.011 19.8266 170.939 20.1466 169.616 20.1466ZM175.77 19.8906V8.45062H184.186V10.4026H178.09V12.9626H183.434V14.8666H178.09V17.9546H184.234V19.8906H175.77ZM190.35 20.1466C188.803 20.1466 187.603 19.8213 186.75 19.1706C185.896 18.5093 185.448 17.5706 185.406 16.3546H187.678C187.752 17.0373 187.992 17.528 188.398 17.8266C188.814 18.1253 189.432 18.2746 190.254 18.2746C190.904 18.2746 191.438 18.1573 191.854 17.9226C192.27 17.6773 192.478 17.304 192.478 16.8026C192.478 16.6213 192.451 16.4613 192.398 16.3226C192.355 16.1733 192.259 16.0453 192.11 15.9386C191.96 15.8213 191.832 15.7306 191.726 15.6666C191.619 15.592 191.422 15.5173 191.134 15.4426C190.846 15.3573 190.627 15.2986 190.478 15.2666C190.328 15.224 190.051 15.1546 189.646 15.0586C189.155 14.9413 188.75 14.84 188.43 14.7546C188.12 14.6693 187.774 14.536 187.39 14.3546C187.016 14.1733 186.718 13.976 186.494 13.7626C186.28 13.5386 186.099 13.2506 185.95 12.8986C185.8 12.536 185.726 12.1253 185.726 11.6666C185.726 10.568 186.126 9.72529 186.926 9.13862C187.736 8.54129 188.798 8.24262 190.11 8.24262C191.411 8.24262 192.451 8.55196 193.23 9.17062C194.008 9.78929 194.44 10.6693 194.526 11.8106H192.302C192.238 11.256 192.003 10.8293 191.598 10.5306C191.203 10.232 190.702 10.0826 190.094 10.0826C189.464 10.0826 188.963 10.2053 188.59 10.4506C188.216 10.696 188.03 11.0213 188.03 11.4266C188.03 11.864 188.211 12.184 188.574 12.3866C188.947 12.5893 189.598 12.792 190.526 12.9946C191.08 13.112 191.534 13.224 191.886 13.3306C192.238 13.4266 192.616 13.5706 193.022 13.7626C193.438 13.944 193.758 14.1466 193.982 14.3706C194.216 14.5946 194.408 14.8933 194.558 15.2666C194.718 15.6293 194.798 16.0506 194.798 16.5306C194.798 17.6613 194.387 18.5466 193.566 19.1866C192.744 19.8266 191.672 20.1466 190.35 20.1466Z" fill="#171A1E"/>
</svg>
