<svg width="119" height="120" viewBox="0 0 119 120" fill="none" xmlns="http://www.w3.org/2000/svg">
<rect x="0.214844" y="0.881836" width="118.569" height="118.569" rx="22.367" fill="black"/>
<path d="M43.1429 43.0483C40.2482 43.064 37.8838 40.7654 37.8366 37.8883C37.7895 34.9214 40.1225 32.529 43.0879 32.5055C46.0061 32.4821 48.4491 34.9214 48.4333 37.8336C48.4137 40.6599 46.0061 43.0327 43.1429 43.0483Z" fill="white"/>
<path d="M72.262 43.0483C69.3673 43.064 67.0029 40.7654 66.9558 37.8883C66.9086 34.9214 69.2417 32.529 72.207 32.5055C75.1252 32.4821 77.5682 34.9214 77.5525 37.8336C77.5368 40.6599 75.1252 43.0327 72.262 43.0483Z" fill="white"/>
<path d="M62.8712 65.0799C63.0126 64.044 63.3111 63.1136 63.7707 62.3084C63.7707 62.2927 63.7707 62.2927 63.7707 62.2927C62.883 59.2085 60.7857 56.5698 57.9303 54.4941C54.2855 51.8046 49.372 50.0182 44.1365 49.3146C32.7111 47.7783 23.9721 54.7834 22.6289 64.6929C21.2817 74.6024 29.6436 82.8702 40.8609 85.4032C47.5928 86.9434 54.5643 83.3275 59.1282 77.9603C61.2374 75.4702 62.8359 72.5893 63.6528 69.677C62.9498 68.2736 62.6513 66.7139 62.8712 65.0799ZM42.6362 77.0769C36.2774 76.1934 30.979 71.4595 31.7331 65.9243C32.4872 60.3734 38.0055 57.9224 44.3682 58.7785C49.7334 59.5016 53.1622 61.8393 53.6453 65.8656C53.7081 66.3504 53.7278 66.8585 53.7003 67.3902C53.6885 67.6794 53.6649 67.9765 53.6217 68.2893C52.8715 73.8128 48.779 77.9447 42.6362 77.0769Z" fill="white"/>
<path d="M75.2665 48.4894C67.9925 47.5122 61.7987 50.0022 57.9339 54.4977C55.7266 57.0621 54.2577 60.2753 53.7706 63.8678C53.6803 64.5362 53.6332 65.2086 53.645 65.8614C53.6175 66.3774 53.6489 66.8895 53.6999 67.386C54.0848 71.4006 56.0604 75.0321 59.1318 77.96C62.4114 81.0912 66.9164 83.4171 72.0026 84.5781C82.6661 87.0096 93.8951 76.5371 95.2384 66.6276C96.5856 56.722 86.6762 50.0257 75.2665 48.4894ZM73.7622 76.2479C69.2729 75.6146 65.3178 73.0737 63.6604 69.6845C62.9534 68.2733 62.6549 66.7175 62.8748 65.0835C63.0162 64.0476 63.3147 63.1172 63.7743 62.312C63.7743 62.2963 63.7743 62.2963 63.7743 62.2963C65.7224 58.743 70.3295 57.2497 75.4903 57.9455C81.8531 58.8016 85.5058 61.9406 84.7556 67.4602C84.0093 72.9838 79.9011 77.1157 73.7622 76.2479Z" fill="white"/>
<path d="M62.8712 67.8592C63.0126 66.8233 63.3111 65.8929 63.7707 65.0877C63.7707 65.072 63.7707 65.072 63.7707 65.072C62.883 61.9877 60.7857 59.3491 57.9303 57.2734C54.2855 54.5839 49.372 52.7975 44.1365 52.0939C32.7111 50.5576 23.9721 57.5627 22.6289 67.4722C21.2817 77.3817 29.6436 85.6494 40.8609 88.1825C47.5928 89.7227 54.5643 86.1068 59.1282 80.7396C61.2374 78.2495 62.8359 75.3685 63.6528 72.4563C62.9498 71.049 62.6513 69.4893 62.8712 67.8592ZM42.6362 79.8523C36.2774 78.9688 30.979 74.2349 31.7331 68.6996C32.4872 63.1487 38.0055 60.6978 44.3682 61.5538C49.7334 62.277 53.1622 64.6147 53.6453 68.641C53.7081 69.1257 53.7278 69.6339 53.7003 70.1656C53.6885 70.4548 53.6649 70.7519 53.6217 71.0646C52.8715 76.5882 48.779 80.7201 42.6362 79.8523Z" fill="white"/>
<path d="M75.4891 51.4987C68.2152 50.5214 62.0213 53.0115 58.1566 57.507C55.9492 60.0713 54.4803 63.2846 53.9933 66.877C53.903 67.5455 53.8558 68.2179 53.8676 68.8707C53.8401 69.3867 53.8715 69.8988 53.9226 70.3952C54.3075 74.4099 56.2831 78.0414 59.3545 80.9693C62.634 84.1005 67.139 86.4264 72.2253 87.5874C82.8888 90.0188 94.1178 79.5464 95.461 69.6369C96.8082 59.7312 86.8988 53.0311 75.4891 51.4987ZM73.9849 79.2532C69.4956 78.6199 65.5405 76.079 63.883 72.6899C63.1761 71.2787 62.8776 69.7229 63.0975 68.0889C63.2389 67.053 63.5374 66.1226 63.9969 65.3173C63.9969 65.3017 63.9969 65.3017 63.9969 65.3017C65.945 61.7483 70.5521 60.2551 75.713 60.9509C82.0757 61.807 85.7284 64.946 84.9782 70.4656C84.232 75.993 80.1237 80.121 73.9849 79.2532Z" fill="white"/>
</svg>
