<svg width="119" height="119" viewBox="0 0 119 119" fill="none" xmlns="http://www.w3.org/2000/svg">
<rect x="0.214844" y="0.313232" width="118.569" height="118.569" rx="22.367" fill="white"/>
<path d="M43.1429 42.4802C40.2482 42.4959 37.8838 40.1973 37.8366 37.3202C37.7895 34.3532 40.1225 31.9609 43.0879 31.9374C46.0061 31.914 48.4491 34.3532 48.4333 37.2655C48.4137 40.0918 46.0061 42.4646 43.1429 42.4802Z" fill="#F79E16"/>
<path d="M72.262 42.4802C69.3673 42.4959 67.0029 40.1973 66.9558 37.3202C66.9086 34.3532 69.2417 31.9609 72.207 31.9374C75.1252 31.914 77.5682 34.3532 77.5525 37.2655C77.5368 40.0918 75.1252 42.4646 72.262 42.4802Z" fill="#F79E16"/>
<path d="M62.8712 64.512C63.0126 63.4761 63.3111 62.5458 63.7707 61.7405C63.7707 61.7249 63.7707 61.7249 63.7707 61.7249C62.883 58.6406 60.7857 56.002 57.9303 53.9262C54.2855 51.2368 49.372 49.4503 44.1365 48.7467C32.7111 47.2104 23.9721 54.2155 22.6289 64.125C21.2817 74.0346 29.6436 82.3023 40.8609 84.8354C47.5928 86.3756 54.5643 82.7596 59.1282 77.3925C61.2373 74.9024 62.8359 72.0214 63.6528 69.1091C62.9498 67.7058 62.6513 66.146 62.8712 64.512ZM42.6362 76.509C36.2774 75.6256 30.979 70.8917 31.7331 65.3564C32.4872 59.8055 38.0055 57.3545 44.3682 58.2106C49.7334 58.9338 53.1622 61.2714 53.6453 65.2978C53.7081 65.7825 53.7277 66.2907 53.7003 66.8223C53.6885 67.1116 53.6649 67.4087 53.6217 67.7214C52.8715 73.2449 48.779 77.3768 42.6362 76.509Z" fill="#F79E16"/>
<path d="M75.2684 47.9216C67.9945 46.9443 61.8006 49.4344 57.9359 53.9298C55.7285 56.4942 54.2596 59.7075 53.7726 63.2999C53.6823 63.9684 53.6351 64.6407 53.6469 65.2935C53.6194 65.8095 53.6508 66.3216 53.7019 66.8181C54.0868 70.8327 56.0624 74.4643 59.1338 77.3922C62.4133 80.5233 66.9183 82.8493 72.0046 84.0103C82.6681 86.4417 93.8971 75.9693 95.2403 66.0597C96.5875 56.1541 86.6781 49.4578 75.2684 47.9216ZM73.7641 75.68C69.2749 75.0467 65.3198 72.5058 63.6623 69.1166C62.9554 67.7054 62.6569 66.1496 62.8768 64.5156C63.0182 63.4797 63.3167 62.5494 63.7762 61.7441C63.7762 61.7285 63.7762 61.7285 63.7762 61.7285C65.7243 58.1751 70.3314 56.6818 75.4923 57.3776C81.855 58.2337 85.5077 61.3727 84.7575 66.8924C84.0113 72.4159 79.903 76.5478 73.7641 75.68Z" fill="#F79E16"/>
<path d="M62.8712 67.2913C63.0126 66.2554 63.3111 65.3251 63.7707 64.5198C63.7707 64.5041 63.7707 64.5041 63.7707 64.5041C62.883 61.4199 60.7857 58.7812 57.9303 56.7055C54.2855 54.0161 49.372 52.2296 44.1365 51.526C32.7111 49.9897 23.9721 56.9948 22.6289 66.9043C21.2817 76.8138 29.6436 85.0816 40.8609 87.6147C47.5928 89.1548 54.5643 85.5389 59.1282 80.1718C61.2374 77.6817 62.8359 74.8007 63.6528 71.8884C62.9498 70.4811 62.6513 68.9214 62.8712 67.2913ZM42.6362 79.2844C36.2774 78.4009 30.979 73.667 31.7331 68.1318C32.4872 62.5809 38.0055 60.1299 44.3682 60.986C49.7334 61.7091 53.1622 64.0468 53.6453 68.0731C53.7081 68.5579 53.7278 69.066 53.7003 69.5977C53.6885 69.887 53.6649 70.184 53.6217 70.4968C52.8715 76.0203 48.779 80.1522 42.6362 79.2844Z" fill="#F6C101"/>
<path d="M75.4891 50.9311C68.2152 49.9538 62.0213 52.4439 58.1566 56.9393C55.9492 59.5037 54.4803 62.717 53.9933 66.3094C53.903 66.9779 53.8558 67.6502 53.8676 68.3031C53.8401 68.8191 53.8715 69.3311 53.9226 69.8276C54.3075 73.8422 56.2831 77.4738 59.3545 80.4017C62.634 83.5329 67.139 85.8588 72.2253 87.0198C82.8888 89.4512 94.1178 78.9788 95.461 69.0692C96.8082 59.1636 86.8988 52.4634 75.4891 50.9311ZM73.9849 78.6856C69.4956 78.0523 65.5405 75.5114 63.883 72.1222C63.1761 70.7111 62.8776 69.1552 63.0975 67.5212C63.2389 66.4853 63.5374 65.555 63.9969 64.7497C63.9969 64.7341 63.9969 64.7341 63.9969 64.7341C65.945 61.1807 70.5521 59.6874 75.713 60.3833C82.0757 61.2393 85.7284 64.3783 84.9782 69.898C84.232 75.4254 80.1237 79.5534 73.9849 78.6856Z" fill="#F6C101"/>
</svg>
