<svg width="119" height="120" viewBox="0 0 119 120" fill="none" xmlns="http://www.w3.org/2000/svg">
<rect x="0.214844" y="0.450195" width="118.569" height="118.569" rx="22.367" fill="white"/>
<path d="M43.1429 42.6167C40.2482 42.6323 37.8838 40.3338 37.8366 37.4567C37.7895 34.4897 40.1225 32.0974 43.0879 32.0739C46.0061 32.0504 48.4491 34.4897 48.4333 37.402C48.4137 40.2282 46.0061 42.6011 43.1429 42.6167Z" fill="black"/>
<path d="M72.262 42.6167C69.3673 42.6323 67.0029 40.3338 66.9558 37.4567C66.9086 34.4897 69.2417 32.0974 72.207 32.0739C75.1252 32.0504 77.5682 34.4897 77.5525 37.402C77.5368 40.2282 75.1252 42.6011 72.262 42.6167Z" fill="black"/>
<path d="M62.8712 64.648C63.0126 63.6121 63.3111 62.6817 63.7707 61.8765C63.7707 61.8608 63.7707 61.8608 63.7707 61.8608C62.883 58.7766 60.7857 56.1379 57.9303 54.0622C54.2855 51.3728 49.372 49.5863 44.1365 48.8827C32.7111 47.3464 23.9721 54.3515 22.6289 64.261C21.2817 74.1705 29.6436 82.4383 40.8609 84.9714C47.5928 86.5115 54.5643 82.8956 59.1282 77.5285C61.2374 75.0384 62.8359 72.1574 63.6528 69.2451C62.9498 67.8417 62.6513 66.282 62.8712 64.648ZM42.6362 76.645C36.2774 75.7615 30.979 71.0276 31.7331 65.4924C32.4872 59.9415 38.0055 57.4905 44.3682 58.3466C49.7334 59.0698 53.1622 61.4074 53.6453 65.4337C53.7081 65.9185 53.7278 66.4267 53.7003 66.9583C53.6885 67.2476 53.6649 67.5447 53.6217 67.8574C52.8715 73.3809 48.779 77.5128 42.6362 76.645Z" fill="black"/>
<path d="M75.2665 48.0578C67.9925 47.0805 61.7987 49.5706 57.9339 54.0661C55.7266 56.6304 54.2577 59.8437 53.7706 63.4361C53.6803 64.1046 53.6332 64.777 53.645 65.4298C53.6175 65.9458 53.6489 66.4579 53.6999 66.9543C54.0848 70.9689 56.0604 74.6005 59.1318 77.5284C62.4114 80.6596 66.9164 82.9855 72.0026 84.1465C82.6661 86.5779 93.8951 76.1055 95.2384 66.196C96.5856 56.2903 86.6762 49.5941 75.2665 48.0578ZM73.7622 75.8162C69.2729 75.1829 65.3178 72.642 63.6604 69.2529C62.9534 67.8417 62.6549 66.2859 62.8748 64.6519C63.0162 63.616 63.3147 62.6856 63.7743 61.8803C63.7743 61.8647 63.7743 61.8647 63.7743 61.8647C65.7224 58.3113 70.3295 56.8181 75.4903 57.5139C81.8531 58.37 85.5058 61.509 84.7556 67.0286C84.0093 72.5521 79.9011 76.684 73.7622 75.8162Z" fill="black"/>
<path d="M62.8712 67.4276C63.0126 66.3916 63.3111 65.4613 63.7707 64.656C63.7707 64.6404 63.7707 64.6404 63.7707 64.6404C62.883 61.5561 60.7857 58.9175 57.9303 56.8418C54.2855 54.1523 49.372 52.3659 44.1365 51.6622C32.7111 50.1259 23.9721 57.131 22.6289 67.0406C21.2817 76.9501 29.6436 85.2178 40.8609 87.7509C47.5928 89.2911 54.5643 85.6752 59.1282 80.308C61.2374 77.8179 62.8359 74.9369 63.6528 72.0246C62.9498 70.6174 62.6513 69.0576 62.8712 67.4276ZM42.6362 79.4206C36.2774 78.5372 30.979 73.8033 31.7331 68.268C32.4872 62.7171 38.0055 60.2661 44.3682 61.1222C49.7334 61.8454 53.1622 64.183 53.6453 68.2094C53.7081 68.6941 53.7278 69.2023 53.7003 69.7339C53.6885 70.0232 53.6649 70.3203 53.6217 70.633C52.8715 76.1565 48.779 80.2884 42.6362 79.4206Z" fill="black"/>
<path d="M75.4891 51.0671C68.2152 50.0898 62.0213 52.5799 58.1566 57.0753C55.9492 59.6397 54.4803 62.853 53.9933 66.4454C53.903 67.1139 53.8558 67.7862 53.8676 68.439C53.8401 68.955 53.8715 69.4671 53.9226 69.9636C54.3075 73.9782 56.2831 77.6098 59.3545 80.5377C62.634 83.6688 67.139 85.9947 72.2253 87.1557C82.8888 89.5872 94.1178 79.1148 95.461 69.2052C96.8082 59.2996 86.8988 52.5994 75.4891 51.0671ZM73.9849 78.8216C69.4956 78.1883 65.5405 75.6474 63.883 72.2582C63.1761 70.847 62.8776 69.2912 63.0975 67.6572C63.2389 66.6213 63.5374 65.691 63.9969 64.8857C63.9969 64.8701 63.9969 64.87 63.9969 64.87C65.945 61.3167 70.5521 59.8234 75.713 60.5192C82.0757 61.3753 85.7284 64.5143 84.9782 70.034C84.232 75.5614 80.1237 79.6894 73.9849 78.8216Z" fill="black"/>
</svg>
