<svg width="390" height="177" viewBox="0 0 390 177" fill="none" xmlns="http://www.w3.org/2000/svg">
<g clip-path="url(#clip0_934_934)">
<path d="M100.523 47.4189C95.6517 47.4451 91.6723 43.5992 91.593 38.7854C91.5137 33.8211 95.4402 29.8183 100.431 29.7791C105.342 29.7398 109.454 33.8211 109.428 38.6938C109.394 43.4226 105.342 47.3927 100.523 47.4189Z" fill="black"/>
<path d="M149.531 47.4189C144.66 47.4451 140.68 43.5992 140.601 38.7854C140.521 33.8211 144.448 29.8183 149.439 29.7791C154.35 29.7398 158.462 33.8211 158.435 38.6938C158.409 43.4226 154.35 47.3927 149.531 47.4189Z" fill="black"/>
<path d="M133.727 84.2812C133.965 82.548 134.467 80.9913 135.24 79.644C135.24 79.6178 135.24 79.6178 135.24 79.6178C133.747 74.4574 130.217 70.0425 125.411 66.5695C119.277 62.0696 111.007 59.0805 102.196 57.9032C82.9664 55.3328 68.2585 67.0535 65.9978 83.6337C63.7304 100.214 77.8037 114.047 96.6827 118.286C108.013 120.862 119.746 114.812 127.427 105.832C130.977 101.666 133.667 96.8456 135.042 91.9729C133.859 89.6249 133.357 87.0152 133.727 84.2812ZM99.6705 104.354C88.9685 102.876 80.0512 94.9554 81.3204 85.694C82.5896 76.4064 91.877 72.3055 102.586 73.7379C111.615 74.9479 117.386 78.8591 118.199 85.5959C118.305 86.4069 118.338 87.2572 118.292 88.1467C118.272 88.6307 118.232 89.1278 118.159 89.651C116.897 98.8928 110.009 105.806 99.6705 104.354Z" fill="black"/>
<path d="M154.588 56.5232C142.346 54.8881 131.922 59.0544 125.417 66.576C121.702 70.8666 119.23 76.243 118.41 82.2537C118.258 83.3721 118.179 84.4971 118.199 85.5894C118.153 86.4527 118.205 87.3095 118.291 88.1402C118.939 94.8573 122.264 100.933 127.433 105.832C132.953 111.071 140.535 114.963 149.095 116.905C167.042 120.974 185.941 103.452 188.202 86.8713C190.469 70.2976 173.791 59.0937 154.588 56.5232ZM152.057 102.968C144.501 101.908 137.845 97.6567 135.055 91.986C133.865 89.6249 133.363 87.0218 133.733 84.2878C133.971 82.5546 134.473 80.9979 135.247 79.6506C135.247 79.6244 135.247 79.6244 135.247 79.6244C138.525 73.6791 146.279 71.1806 154.965 72.3448C165.674 73.7772 171.821 79.0292 170.559 88.2645C169.303 97.5062 162.389 104.42 152.057 102.968Z" fill="black"/>
<path d="M133.727 88.9316C133.965 87.1984 134.467 85.6417 135.24 84.2944C135.24 84.2682 135.24 84.2682 135.24 84.2682C133.747 79.1077 130.217 74.6929 125.411 71.2198C119.277 66.72 111.007 63.7309 102.196 62.5536C82.9664 59.9832 68.2585 71.7038 65.9978 88.2841C63.7304 104.864 77.8037 118.698 96.6827 122.936C108.013 125.513 119.746 119.463 127.427 110.483C130.977 106.316 133.667 101.496 135.042 96.6233C133.859 94.2687 133.357 91.659 133.727 88.9316ZM99.6705 108.998C88.9685 107.52 80.0512 99.5992 81.3204 90.3378C82.5896 81.0503 91.877 76.9494 102.586 78.3817C111.615 79.5917 117.386 83.503 118.199 90.2397C118.305 91.0508 118.338 91.901 118.292 92.7905C118.272 93.2745 118.232 93.7716 118.159 94.2949C116.897 103.537 110.009 110.45 99.6705 108.998Z" fill="black"/>
<path d="M154.588 61.1736C142.346 59.5385 131.922 63.7048 125.417 71.2264C121.702 75.517 119.23 80.8933 118.41 86.9041C118.258 88.0225 118.179 89.1475 118.199 90.2398C118.153 91.1031 118.205 91.9599 118.291 92.7906C118.939 99.5077 122.264 105.584 127.433 110.483C132.953 115.722 140.535 119.613 149.095 121.556C167.042 125.624 185.941 108.102 188.202 91.5217C190.469 74.948 173.791 63.7375 154.588 61.1736ZM152.057 107.611C144.501 106.552 137.845 102.301 135.055 96.6299C133.865 94.2687 133.363 91.6656 133.733 88.9317C133.971 87.1984 134.473 85.6418 135.247 84.2944C135.247 84.2683 135.247 84.2683 135.247 84.2683C138.525 78.3229 146.279 75.8244 154.965 76.9886C165.674 78.421 171.821 83.6731 170.559 92.9083C169.303 102.157 162.389 109.063 152.057 107.611Z" fill="black"/>
<path d="M335.32 84.2812C335.558 82.548 336.061 80.9913 336.834 79.644C336.834 79.6178 336.834 79.6178 336.834 79.6178C335.34 74.4573 331.81 70.0425 327.005 66.5695C320.87 62.0696 312.601 59.0805 303.789 57.9032C284.56 55.3328 269.852 67.0535 267.592 83.6337C265.324 100.214 279.397 114.047 298.276 118.285C309.606 120.862 321.34 114.812 329.021 105.832C332.571 101.666 335.261 96.8456 336.636 91.9729C335.446 89.6248 334.944 87.0152 335.32 84.2812ZM301.264 104.354C290.562 102.876 281.645 94.9554 282.914 85.694C284.183 76.4064 293.471 72.3055 304.179 73.7379C313.209 74.9479 318.98 78.8591 319.793 85.5959C319.899 86.4069 319.932 87.2572 319.885 88.1467C319.866 88.6307 319.826 89.1278 319.753 89.651C318.484 98.8928 311.603 105.806 301.264 104.354Z" fill="black"/>
<path d="M356.176 56.5232C343.934 54.8881 333.51 59.0544 327.005 66.576C323.29 70.8666 320.818 76.243 319.998 82.2537C319.846 83.3721 319.767 84.4971 319.787 85.5894C319.74 86.4527 319.793 87.3095 319.879 88.1402C320.527 94.8573 323.852 100.933 329.021 105.832C334.541 111.071 342.123 114.963 350.683 116.905C368.63 120.974 387.529 103.452 389.79 86.8713C392.064 70.2976 375.379 59.0937 356.176 56.5232ZM353.645 102.968C346.089 101.908 339.432 97.6567 336.643 91.986C335.453 89.6249 334.951 87.0218 335.321 84.2878C335.559 82.5546 336.061 80.9979 336.835 79.6506C336.835 79.6244 336.835 79.6244 336.835 79.6244C340.113 73.6791 347.867 71.1806 356.553 72.3448C367.262 73.7772 373.409 79.0292 372.147 88.2645C370.891 97.5062 363.983 104.42 353.645 102.968Z" fill="black"/>
<path d="M335.32 88.9316C335.558 87.1984 336.061 85.6417 336.834 84.2944C336.834 84.2682 336.834 84.2682 336.834 84.2682C335.34 79.1077 331.81 74.6929 327.005 71.2198C320.87 66.72 312.601 63.7309 303.789 62.5536C284.56 59.9832 269.852 71.7038 267.592 88.2841C265.324 104.864 279.397 118.698 298.276 122.936C309.606 125.513 321.34 119.463 329.021 110.483C332.571 106.316 335.261 101.496 336.636 96.6233C335.446 94.2687 334.944 91.659 335.32 88.9316ZM301.264 108.998C290.562 107.52 281.645 99.5992 282.914 90.3378C284.183 81.0503 293.471 76.9494 304.179 78.3817C313.209 79.5917 318.98 83.503 319.793 90.2397C319.899 91.0508 319.932 91.901 319.885 92.7905C319.866 93.2745 319.826 93.7716 319.753 94.2949C318.484 103.537 311.603 110.45 301.264 108.998Z" fill="black"/>
<path d="M356.176 61.1736C343.934 59.5385 333.51 63.7048 327.005 71.2264C323.29 75.517 320.818 80.8933 319.998 86.9041C319.846 88.0225 319.767 89.1475 319.787 90.2398C319.74 91.1031 319.793 91.9599 319.879 92.7906C320.527 99.5077 323.852 105.584 329.021 110.483C334.541 115.722 342.123 119.613 350.683 121.556C368.63 125.624 387.529 108.102 389.79 91.5217C392.064 74.948 375.379 63.7375 356.176 61.1736ZM353.645 107.611C346.089 106.552 339.432 102.301 336.643 96.6299C335.453 94.2687 334.951 91.6656 335.321 88.9317C335.559 87.1984 336.061 85.6418 336.835 84.2944C336.835 84.2683 336.835 84.2683 336.835 84.2683C340.113 78.3229 347.867 75.8244 356.553 76.9886C367.262 78.421 373.409 83.6731 372.147 92.9083C370.891 102.157 363.983 109.063 353.645 107.611Z" fill="black"/>
<path d="M52.5917 60.585C50.602 58.9761 42.0814 57.9034 39.6091 61.3634C37.5401 64.2412 41.6782 71.0107 43.0597 73.1167C52.8033 87.4797 41.1758 95.5442 37.2162 95.4461C33.7855 95.3741 25.6086 97.2317 21.3978 77.9044C18.3835 64.0908 -0.964773 61.7231 0.0333793 72.1945C4.60108 119.816 38.8093 105.178 38.4127 114.741C38.1615 120.66 37.8111 126.291 36.6081 130.503C33.6136 140.936 27.6115 152.833 27.6115 160.381C27.6115 167.32 31.1546 175.411 38.4523 176.869C58.6401 180.872 84.5459 86.3613 52.5917 60.585Z" fill="black"/>
<path d="M38.4646 176.876C36.2171 176.431 34.3266 175.352 32.793 173.874C51.4538 163.056 70.227 84.0524 42.4969 59.5254C46.0268 58.492 51.1167 59.3815 52.5908 60.585C84.5448 86.3612 58.6326 180.865 38.4646 176.876Z" fill="black"/>
<path d="M197.027 3.51912C211.523 -8.18844 214.432 11.8975 213.057 26.3391C212.561 31.6958 209.13 59.9116 213.057 73.444C216.038 83.8762 222.047 95.7734 222.047 103.328C222.047 110.261 218.517 118.358 211.219 119.816C190.972 123.832 165.707 29.8709 197.027 3.51912Z" fill="black"/>
<path d="M213.055 119.273C212.474 119.502 211.852 119.685 211.205 119.81C190.97 123.826 165.706 29.8707 197.019 3.51888C201.606 -0.189603 205.031 -0.712846 207.523 0.771856C206.207 1.33434 204.746 2.2304 203.153 3.51888C174.022 28.0459 193.853 111.078 213.055 119.273Z" fill="black"/>
<path d="M230.937 63.3779C219.158 63.3779 209.718 68.1002 203.934 75.4583C199.962 80.5141 197.721 86.8454 197.721 93.6737C197.721 104.099 204.034 112.635 213.572 117.978H213.599C213.605 117.985 213.612 117.985 213.618 117.991C214.676 118.587 216.011 117.991 216.263 116.814C216.732 114.577 217.3 112.406 217.975 110.319C218.907 107.428 218.47 104.282 216.56 101.882C214.683 99.5275 213.572 96.7347 213.572 93.6475C213.572 84.3011 222.443 79.0033 233.522 79.0033C244.601 79.0033 251.561 83.3658 251.561 92.6926C251.561 95.5574 250.993 98.2717 249.896 100.659C247.959 104.878 246.478 109.286 246.082 113.884C246.055 114.204 246.022 114.525 245.989 114.839L245.982 114.878C245.658 118.266 249.618 120.529 252.493 118.554C262.409 111.752 269.31 99.7368 269.31 88.9972C269.323 72.2731 250.814 63.3779 230.937 63.3779Z" fill="black"/>
<path d="M230.931 63.3716C230.065 63.3716 229.199 63.3977 228.359 63.4501C246.967 64.3723 263.506 73.1955 263.506 88.9974C263.506 99.5342 256.863 111.294 247.252 118.149C248.593 119.391 250.755 119.758 252.5 118.561C262.422 111.759 269.323 99.737 269.323 88.9974C269.323 72.2733 250.821 63.3716 230.931 63.3716Z" fill="black"/>
<path d="M210.398 116.003C210.465 116.055 210.531 116.094 210.59 116.14V116.127C210.524 116.094 210.465 116.042 210.398 116.003Z" fill="#F6B508"/>
<path d="M162.387 155.805C161.953 155.805 161.593 155.663 161.308 155.38C161.023 155.083 160.881 154.719 160.881 154.288C160.881 153.857 161.023 153.5 161.308 153.216C161.593 152.92 161.953 152.772 162.387 152.772C162.821 152.772 163.181 152.92 163.466 153.216C163.751 153.5 163.893 153.857 163.893 154.288C163.893 154.719 163.751 155.083 163.466 155.38C163.181 155.663 162.821 155.805 162.387 155.805Z" fill="black"/>
<path d="M167.435 155.805C167.001 155.805 166.642 155.663 166.357 155.38C166.072 155.083 165.929 154.719 165.929 154.288C165.929 153.857 166.072 153.5 166.357 153.216C166.642 152.92 167.001 152.772 167.435 152.772C167.869 152.772 168.229 152.92 168.514 153.216C168.799 153.5 168.941 153.857 168.941 154.288C168.941 154.719 168.799 155.083 168.514 155.38C168.229 155.663 167.869 155.805 167.435 155.805Z" fill="black"/>
<path d="M172.484 155.805C172.049 155.805 171.69 155.663 171.405 155.38C171.12 155.083 170.978 154.719 170.978 154.288C170.978 153.857 171.12 153.5 171.405 153.216C171.69 152.92 172.049 152.772 172.484 152.772C172.918 152.772 173.277 152.92 173.562 153.216C173.847 153.5 173.99 153.857 173.99 154.288C173.99 154.719 173.847 155.083 173.562 155.38C173.277 155.663 172.918 155.805 172.484 155.805Z" fill="black"/>
<path d="M180.885 153.924C181.563 153.965 181.902 154.268 181.902 154.834C181.902 155.158 181.766 155.407 181.495 155.582C181.237 155.744 180.864 155.811 180.376 155.784L179.826 155.744C177.547 155.582 176.407 154.369 176.407 152.104V147.697H175.389C175.023 147.697 174.738 147.616 174.535 147.454C174.345 147.292 174.25 147.056 174.25 146.746C174.25 146.436 174.345 146.2 174.535 146.039C174.738 145.877 175.023 145.796 175.389 145.796H176.407V143.936C176.407 143.572 176.522 143.282 176.753 143.066C176.984 142.851 177.296 142.743 177.689 142.743C178.069 142.743 178.374 142.851 178.605 143.066C178.836 143.282 178.951 143.572 178.951 143.936V145.796H180.681C181.047 145.796 181.326 145.877 181.515 146.039C181.719 146.2 181.821 146.436 181.821 146.746C181.821 147.056 181.719 147.292 181.515 147.454C181.326 147.616 181.047 147.697 180.681 147.697H178.951V152.286C178.951 153.284 179.412 153.816 180.335 153.884L180.885 153.924Z" fill="black"/>
<path d="M189.049 145.553C191.382 145.553 192.549 146.908 192.549 149.617V154.591C192.549 154.969 192.434 155.265 192.203 155.481C191.986 155.697 191.681 155.805 191.287 155.805C190.894 155.805 190.582 155.697 190.351 155.481C190.121 155.265 190.005 154.969 190.005 154.591V149.617C190.005 148.903 189.856 148.384 189.558 148.06C189.273 147.724 188.818 147.555 188.194 147.555C187.461 147.555 186.871 147.784 186.423 148.242C185.989 148.701 185.772 149.314 185.772 150.082V154.591C185.772 154.969 185.657 155.265 185.426 155.481C185.195 155.697 184.883 155.805 184.49 155.805C184.096 155.805 183.784 155.697 183.554 155.481C183.336 155.265 183.228 154.969 183.228 154.591V142.5C183.228 142.15 183.343 141.867 183.574 141.651C183.818 141.435 184.13 141.327 184.51 141.327C184.89 141.327 185.195 141.428 185.426 141.631C185.657 141.833 185.772 142.109 185.772 142.46V147.171C186.111 146.645 186.559 146.247 187.115 145.978C187.685 145.695 188.33 145.553 189.049 145.553Z" fill="black"/>
<path d="M196.395 155.805C196.029 155.805 195.724 155.703 195.479 155.501C195.249 155.286 195.133 154.982 195.133 154.591V146.787C195.133 146.396 195.249 146.099 195.479 145.897C195.724 145.695 196.029 145.594 196.395 145.594C196.761 145.594 197.067 145.695 197.311 145.897C197.555 146.099 197.677 146.396 197.677 146.787V154.591C197.677 154.982 197.555 155.286 197.311 155.501C197.067 155.703 196.761 155.805 196.395 155.805ZM196.395 143.794C195.934 143.794 195.567 143.673 195.296 143.43C195.025 143.174 194.889 142.844 194.889 142.439C194.889 142.035 195.025 141.712 195.296 141.469C195.567 141.226 195.934 141.105 196.395 141.105C196.843 141.105 197.202 141.226 197.474 141.469C197.759 141.712 197.901 142.035 197.901 142.439C197.901 142.844 197.766 143.174 197.494 143.43C197.223 143.673 196.856 143.794 196.395 143.794Z" fill="black"/>
<path d="M206.081 145.553C207.275 145.553 208.164 145.89 208.747 146.564C209.331 147.238 209.622 148.256 209.622 149.617V154.591C209.622 154.969 209.507 155.265 209.276 155.481C209.059 155.697 208.754 155.805 208.36 155.805C207.967 155.805 207.655 155.697 207.424 155.481C207.194 155.265 207.078 154.969 207.078 154.591V149.759C207.078 148.991 206.929 148.431 206.63 148.081C206.346 147.73 205.891 147.555 205.267 147.555C204.534 147.555 203.944 147.784 203.496 148.242C203.062 148.701 202.845 149.314 202.845 150.082V154.591C202.845 154.969 202.73 155.265 202.499 155.481C202.268 155.697 201.956 155.805 201.563 155.805C201.169 155.805 200.857 155.697 200.627 155.481C200.409 155.265 200.301 154.969 200.301 154.591V146.766C200.301 146.416 200.416 146.133 200.647 145.917C200.878 145.702 201.19 145.594 201.583 145.594C201.936 145.594 202.221 145.702 202.438 145.917C202.669 146.119 202.784 146.389 202.784 146.726V147.272C203.123 146.719 203.578 146.295 204.148 145.998C204.717 145.702 205.362 145.553 206.081 145.553Z" fill="black"/>
<path d="M221.06 153.722C221.331 153.978 221.467 154.268 221.467 154.591C221.467 154.901 221.351 155.178 221.121 155.42C220.904 155.663 220.646 155.784 220.347 155.784C220.049 155.784 219.771 155.663 219.513 155.42L214.75 151.134V154.591C214.75 154.982 214.628 155.279 214.384 155.481C214.14 155.683 213.834 155.784 213.468 155.784C213.102 155.784 212.796 155.683 212.552 155.481C212.322 155.279 212.206 154.982 212.206 154.591V142.52C212.206 142.129 212.322 141.833 212.552 141.631C212.796 141.428 213.102 141.327 213.468 141.327C213.834 141.327 214.14 141.428 214.384 141.631C214.628 141.833 214.75 142.129 214.75 142.52V150.123L219.106 145.978C219.35 145.735 219.628 145.614 219.94 145.614C220.252 145.614 220.524 145.729 220.754 145.958C220.985 146.187 221.1 146.456 221.1 146.766C221.1 147.076 220.971 147.36 220.714 147.616L217.518 150.568L221.06 153.722Z" fill="black"/>
<path d="M234.464 145.553C236.798 145.553 237.965 146.908 237.965 149.617V154.591C237.965 154.969 237.849 155.265 237.619 155.481C237.402 155.697 237.096 155.805 236.703 155.805C236.309 155.805 235.997 155.697 235.767 155.481C235.536 155.265 235.421 154.969 235.421 154.591V149.617C235.421 148.903 235.271 148.384 234.973 148.06C234.688 147.724 234.233 147.555 233.609 147.555C232.876 147.555 232.286 147.784 231.839 148.242C231.404 148.701 231.187 149.314 231.187 150.082V154.591C231.187 154.969 231.072 155.265 230.841 155.481C230.611 155.697 230.299 155.805 229.905 155.805C229.512 155.805 229.199 155.697 228.969 155.481C228.752 155.265 228.643 154.969 228.643 154.591V142.5C228.643 142.15 228.759 141.867 228.989 141.651C229.233 141.435 229.545 141.327 229.925 141.327C230.305 141.327 230.611 141.428 230.841 141.631C231.072 141.833 231.187 142.109 231.187 142.46V147.171C231.526 146.645 231.974 146.247 232.531 145.978C233.1 145.695 233.745 145.553 234.464 145.553Z" fill="black"/>
<path d="M244.863 145.553C246.247 145.553 247.272 145.897 247.936 146.584C248.615 147.258 248.954 148.29 248.954 149.678V154.612C248.954 154.976 248.846 155.265 248.628 155.481C248.411 155.683 248.113 155.784 247.733 155.784C247.38 155.784 247.088 155.677 246.858 155.461C246.641 155.245 246.532 154.962 246.532 154.612V154.167C246.301 154.693 245.935 155.104 245.433 155.4C244.945 155.697 244.375 155.845 243.724 155.845C243.059 155.845 242.455 155.71 241.912 155.441C241.369 155.171 240.942 154.8 240.63 154.329C240.318 153.857 240.162 153.331 240.162 152.751C240.162 152.024 240.345 151.451 240.711 151.033C241.091 150.615 241.702 150.312 242.543 150.123C243.384 149.934 244.544 149.84 246.023 149.84H246.532V149.375C246.532 148.714 246.39 148.236 246.105 147.939C245.82 147.629 245.358 147.474 244.721 147.474C244.327 147.474 243.927 147.535 243.52 147.656C243.113 147.764 242.631 147.926 242.075 148.141C241.722 148.317 241.464 148.404 241.302 148.404C241.057 148.404 240.854 148.317 240.691 148.141C240.542 147.966 240.467 147.737 240.467 147.454C240.467 147.225 240.521 147.029 240.63 146.868C240.752 146.692 240.949 146.531 241.22 146.382C241.695 146.126 242.258 145.924 242.909 145.776C243.574 145.627 244.226 145.553 244.863 145.553ZM244.232 154.025C244.911 154.025 245.46 153.803 245.881 153.358C246.315 152.9 246.532 152.313 246.532 151.599V151.174H246.166C245.257 151.174 244.551 151.215 244.049 151.296C243.547 151.377 243.188 151.518 242.97 151.72C242.753 151.922 242.645 152.199 242.645 152.549C242.645 152.981 242.794 153.338 243.093 153.621C243.405 153.89 243.785 154.025 244.232 154.025Z" fill="black"/>
<path d="M257.259 145.553C258.113 145.553 258.873 145.769 259.538 146.2C260.217 146.632 260.739 147.245 261.105 148.04C261.485 148.822 261.675 149.725 261.675 150.75C261.675 151.774 261.485 152.671 261.105 153.439C260.739 154.207 260.223 154.8 259.558 155.218C258.894 155.636 258.127 155.845 257.259 155.845C256.553 155.845 255.922 155.697 255.366 155.4C254.81 155.104 254.382 154.693 254.084 154.167V158.292C254.084 158.642 253.968 158.918 253.738 159.121C253.507 159.323 253.202 159.424 252.822 159.424C252.442 159.424 252.13 159.316 251.886 159.1C251.655 158.885 251.54 158.602 251.54 158.251V146.787C251.54 146.423 251.648 146.133 251.865 145.917C252.096 145.702 252.401 145.594 252.781 145.594C253.161 145.594 253.466 145.702 253.697 145.917C253.928 146.133 254.043 146.423 254.043 146.787V147.292C254.341 146.739 254.769 146.315 255.325 146.018C255.895 145.708 256.54 145.553 257.259 145.553ZM256.587 153.884C257.388 153.884 258.012 153.614 258.459 153.075C258.907 152.522 259.131 151.747 259.131 150.75C259.131 149.725 258.907 148.93 258.459 148.364C258.012 147.798 257.388 147.515 256.587 147.515C255.773 147.515 255.142 147.791 254.694 148.344C254.26 148.896 254.043 149.685 254.043 150.709C254.043 151.72 254.26 152.502 254.694 153.055C255.142 153.607 255.773 153.884 256.587 153.884Z" fill="black"/>
<path d="M269.482 145.553C270.337 145.553 271.097 145.769 271.761 146.2C272.44 146.632 272.962 147.245 273.329 148.04C273.709 148.822 273.898 149.725 273.898 150.75C273.898 151.774 273.709 152.671 273.329 153.439C272.962 154.207 272.447 154.8 271.782 155.218C271.117 155.636 270.35 155.845 269.482 155.845C268.776 155.845 268.146 155.697 267.589 155.4C267.033 155.104 266.606 154.693 266.307 154.167V158.292C266.307 158.642 266.192 158.918 265.961 159.121C265.73 159.323 265.425 159.424 265.045 159.424C264.665 159.424 264.353 159.316 264.109 159.1C263.878 158.885 263.763 158.602 263.763 158.251V146.787C263.763 146.423 263.872 146.133 264.089 145.917C264.319 145.702 264.625 145.594 265.004 145.594C265.384 145.594 265.69 145.702 265.92 145.917C266.151 146.133 266.266 146.423 266.266 146.787V147.292C266.565 146.739 266.992 146.315 267.549 146.018C268.118 145.708 268.763 145.553 269.482 145.553ZM268.81 153.884C269.611 153.884 270.235 153.614 270.683 153.075C271.131 152.522 271.354 151.747 271.354 150.75C271.354 149.725 271.131 148.93 270.683 148.364C270.235 147.798 269.611 147.515 268.81 147.515C267.996 147.515 267.365 147.791 266.918 148.344C266.483 148.896 266.266 149.685 266.266 150.709C266.266 151.72 266.483 152.502 266.918 153.055C267.365 153.607 267.996 153.884 268.81 153.884Z" fill="black"/>
<path d="M282.768 146.322C282.876 146.079 283.019 145.904 283.195 145.796C283.385 145.675 283.588 145.614 283.805 145.614C284.118 145.614 284.396 145.722 284.64 145.937C284.898 146.14 285.027 146.396 285.027 146.706C285.027 146.854 284.986 147.009 284.905 147.171L279.348 158.736C279.118 159.195 278.758 159.424 278.27 159.424C277.958 159.424 277.679 159.323 277.435 159.121C277.205 158.932 277.089 158.689 277.089 158.393C277.089 158.244 277.13 158.076 277.211 157.887L278.595 154.996L274.81 147.171C274.742 147.036 274.708 146.881 274.708 146.706C274.708 146.396 274.837 146.133 275.095 145.917C275.366 145.702 275.671 145.594 276.011 145.594C276.241 145.594 276.451 145.654 276.641 145.776C276.831 145.884 276.981 146.059 277.089 146.301L279.939 152.549L282.768 146.322Z" fill="black"/>
<path d="M286.925 152.772C287.386 152.772 287.76 152.94 288.045 153.277C288.329 153.614 288.472 154.106 288.472 154.753C288.472 156.034 288.024 157.139 287.129 158.069C286.952 158.244 286.762 158.332 286.559 158.332C286.355 158.332 286.179 158.265 286.03 158.13C285.88 157.995 285.806 157.833 285.806 157.645C285.806 157.483 285.874 157.328 286.009 157.18C286.416 156.748 286.681 156.263 286.803 155.724C286.41 155.683 286.084 155.535 285.826 155.279C285.582 155.009 285.46 154.679 285.46 154.288C285.46 153.857 285.595 153.5 285.867 153.216C286.152 152.92 286.505 152.772 286.925 152.772Z" fill="black"/>
<path d="M302.058 145.553C302.926 145.553 303.693 145.762 304.358 146.18C305.022 146.598 305.538 147.191 305.904 147.959C306.284 148.728 306.474 149.624 306.474 150.649C306.474 151.673 306.284 152.583 305.904 153.378C305.538 154.16 305.016 154.767 304.337 155.198C303.672 155.629 302.913 155.845 302.058 155.845C301.339 155.845 300.694 155.69 300.124 155.38C299.568 155.07 299.141 154.639 298.842 154.086V154.591C298.842 154.955 298.727 155.245 298.496 155.461C298.265 155.677 297.96 155.784 297.58 155.784C297.2 155.784 296.895 155.677 296.664 155.461C296.447 155.245 296.339 154.955 296.339 154.591V142.5C296.339 142.15 296.454 141.867 296.685 141.651C296.929 141.435 297.241 141.327 297.621 141.327C298.001 141.327 298.306 141.428 298.537 141.631C298.767 141.833 298.883 142.109 298.883 142.46V147.231C299.181 146.692 299.609 146.281 300.165 145.998C300.721 145.702 301.352 145.553 302.058 145.553ZM301.386 153.884C302.187 153.884 302.811 153.601 303.259 153.035C303.706 152.468 303.93 151.673 303.93 150.649C303.93 149.638 303.706 148.863 303.259 148.323C302.824 147.784 302.2 147.515 301.386 147.515C300.572 147.515 299.941 147.791 299.493 148.344C299.059 148.883 298.842 149.665 298.842 150.689C298.842 151.713 299.059 152.502 299.493 153.055C299.941 153.607 300.572 153.884 301.386 153.884Z" fill="black"/>
<path d="M316.438 152.974C316.669 152.974 316.852 153.061 316.988 153.237C317.137 153.412 317.212 153.648 317.212 153.944C317.212 154.362 316.961 154.713 316.459 154.996C315.998 155.252 315.475 155.461 314.892 155.623C314.308 155.771 313.752 155.845 313.223 155.845C311.622 155.845 310.353 155.387 309.417 154.47C308.481 153.553 308.013 152.3 308.013 150.709C308.013 149.698 308.216 148.802 308.623 148.02C309.03 147.238 309.6 146.632 310.333 146.2C311.079 145.769 311.92 145.553 312.856 145.553C313.752 145.553 314.532 145.749 315.197 146.14C315.862 146.531 316.377 147.083 316.744 147.798C317.11 148.512 317.293 149.355 317.293 150.325C317.293 150.905 317.035 151.195 316.52 151.195H310.516C310.597 152.125 310.862 152.812 311.31 153.257C311.757 153.688 312.409 153.904 313.264 153.904C313.698 153.904 314.078 153.85 314.403 153.742C314.742 153.634 315.122 153.486 315.543 153.297C315.95 153.082 316.249 152.974 316.438 152.974ZM312.918 147.333C312.226 147.333 311.669 147.548 311.249 147.98C310.842 148.411 310.597 149.031 310.516 149.84H315.116C315.088 149.018 314.885 148.397 314.505 147.98C314.125 147.548 313.596 147.333 312.918 147.333Z" fill="black"/>
<path d="M330.72 145.553C333.054 145.553 334.221 146.908 334.221 149.617V154.591C334.221 154.969 334.106 155.265 333.875 155.481C333.658 155.697 333.353 155.805 332.959 155.805C332.566 155.805 332.254 155.697 332.023 155.481C331.792 155.265 331.677 154.969 331.677 154.591V149.617C331.677 148.903 331.528 148.384 331.229 148.06C330.944 147.724 330.49 147.555 329.866 147.555C329.133 147.555 328.543 147.784 328.095 148.242C327.661 148.701 327.444 149.314 327.444 150.082V154.591C327.444 154.969 327.328 155.265 327.098 155.481C326.867 155.697 326.555 155.805 326.162 155.805C325.768 155.805 325.456 155.697 325.225 155.481C325.008 155.265 324.9 154.969 324.9 154.591V142.5C324.9 142.15 325.015 141.867 325.246 141.651C325.49 141.435 325.802 141.327 326.182 141.327C326.562 141.327 326.867 141.428 327.098 141.631C327.328 141.833 327.444 142.109 327.444 142.46V147.171C327.783 146.645 328.231 146.247 328.787 145.978C329.357 145.695 330.001 145.553 330.72 145.553Z" fill="black"/>
<path d="M341.12 145.553C342.504 145.553 343.528 145.897 344.193 146.584C344.871 147.258 345.211 148.29 345.211 149.678V154.612C345.211 154.976 345.102 155.265 344.885 155.481C344.668 155.683 344.369 155.784 343.989 155.784C343.637 155.784 343.345 155.677 343.114 155.461C342.897 155.245 342.789 154.962 342.789 154.612V154.167C342.558 154.693 342.192 155.104 341.69 155.4C341.201 155.697 340.631 155.845 339.98 155.845C339.315 155.845 338.711 155.71 338.169 155.441C337.626 155.171 337.199 154.8 336.886 154.329C336.574 153.857 336.418 153.331 336.418 152.751C336.418 152.024 336.602 151.451 336.968 151.033C337.348 150.615 337.958 150.312 338.8 150.123C339.641 149.934 340.801 149.84 342.28 149.84H342.789V149.375C342.789 148.714 342.646 148.236 342.361 147.939C342.076 147.629 341.615 147.474 340.977 147.474C340.584 147.474 340.184 147.535 339.776 147.656C339.369 147.764 338.888 147.926 338.331 148.141C337.979 148.317 337.721 148.404 337.558 148.404C337.314 148.404 337.11 148.317 336.947 148.141C336.798 147.966 336.724 147.737 336.724 147.454C336.724 147.225 336.778 147.029 336.886 146.868C337.009 146.692 337.205 146.531 337.477 146.382C337.952 146.126 338.515 145.924 339.166 145.776C339.831 145.627 340.482 145.553 341.12 145.553ZM340.489 154.025C341.167 154.025 341.717 153.803 342.137 153.358C342.572 152.9 342.789 152.313 342.789 151.599V151.174H342.422C341.513 151.174 340.808 151.215 340.306 151.296C339.804 151.377 339.444 151.518 339.227 151.72C339.01 151.922 338.901 152.199 338.901 152.549C338.901 152.981 339.051 153.338 339.349 153.621C339.661 153.89 340.041 154.025 340.489 154.025Z" fill="black"/>
<path d="M353.515 145.553C354.37 145.553 355.13 145.769 355.795 146.2C356.473 146.632 356.995 147.245 357.362 148.04C357.742 148.822 357.932 149.725 357.932 150.75C357.932 151.774 357.742 152.671 357.362 153.439C356.995 154.207 356.48 154.8 355.815 155.218C355.15 155.636 354.383 155.845 353.515 155.845C352.81 155.845 352.179 155.697 351.622 155.4C351.066 155.104 350.639 154.693 350.34 154.167V158.292C350.34 158.642 350.225 158.918 349.994 159.121C349.764 159.323 349.458 159.424 349.078 159.424C348.698 159.424 348.386 159.316 348.142 159.1C347.911 158.885 347.796 158.602 347.796 158.251V146.787C347.796 146.423 347.905 146.133 348.122 145.917C348.352 145.702 348.658 145.594 349.038 145.594C349.418 145.594 349.723 145.702 349.953 145.917C350.184 146.133 350.299 146.423 350.299 146.787V147.292C350.598 146.739 351.025 146.315 351.582 146.018C352.152 145.708 352.796 145.553 353.515 145.553ZM352.843 153.884C353.644 153.884 354.268 153.614 354.716 153.075C355.164 152.522 355.388 151.747 355.388 150.75C355.388 149.725 355.164 148.93 354.716 148.364C354.268 147.798 353.644 147.515 352.843 147.515C352.029 147.515 351.398 147.791 350.951 148.344C350.517 148.896 350.299 149.685 350.299 150.709C350.299 151.72 350.517 152.502 350.951 153.055C351.398 153.607 352.029 153.884 352.843 153.884Z" fill="black"/>
<path d="M365.738 145.553C366.593 145.553 367.353 145.769 368.018 146.2C368.696 146.632 369.219 147.245 369.585 148.04C369.965 148.822 370.155 149.725 370.155 150.75C370.155 151.774 369.965 152.671 369.585 153.439C369.219 154.207 368.703 154.8 368.038 155.218C367.373 155.636 366.607 155.845 365.738 155.845C365.033 155.845 364.402 155.697 363.846 155.4C363.289 155.104 362.862 154.693 362.564 154.167V158.292C362.564 158.642 362.448 158.918 362.218 159.121C361.987 159.323 361.682 159.424 361.302 159.424C360.922 159.424 360.61 159.316 360.365 159.1C360.135 158.885 360.019 158.602 360.019 158.251V146.787C360.019 146.423 360.128 146.133 360.345 145.917C360.576 145.702 360.881 145.594 361.261 145.594C361.641 145.594 361.946 145.702 362.177 145.917C362.407 146.133 362.523 146.423 362.523 146.787V147.292C362.821 146.739 363.249 146.315 363.805 146.018C364.375 145.708 365.019 145.553 365.738 145.553ZM365.067 153.884C365.867 153.884 366.492 153.614 366.939 153.075C367.387 152.522 367.611 151.747 367.611 150.75C367.611 149.725 367.387 148.93 366.939 148.364C366.492 147.798 365.867 147.515 365.067 147.515C364.253 147.515 363.622 147.791 363.174 148.344C362.74 148.896 362.523 149.685 362.523 150.709C362.523 151.72 362.74 152.502 363.174 153.055C363.622 153.607 364.253 153.884 365.067 153.884Z" fill="black"/>
<path d="M379.024 146.322C379.133 146.079 379.275 145.904 379.451 145.796C379.641 145.675 379.845 145.614 380.062 145.614C380.374 145.614 380.652 145.722 380.896 145.937C381.154 146.14 381.283 146.396 381.283 146.706C381.283 146.854 381.242 147.009 381.161 147.171L375.605 158.736C375.374 159.195 375.015 159.424 374.526 159.424C374.214 159.424 373.936 159.323 373.692 159.121C373.461 158.932 373.346 158.689 373.346 158.393C373.346 158.244 373.386 158.076 373.468 157.887L374.852 154.996L371.066 147.171C370.998 147.036 370.964 146.881 370.964 146.706C370.964 146.396 371.093 146.133 371.351 145.917C371.622 145.702 371.928 145.594 372.267 145.594C372.498 145.594 372.708 145.654 372.898 145.776C373.088 145.884 373.237 146.059 373.346 146.301L376.195 152.549L379.024 146.322Z" fill="black"/>
</g>
<defs>
<clipPath id="clip0_934_934">
<rect width="390" height="177" fill="white"/>
</clipPath>
</defs>
</svg>
