<svg width="481" height="246" viewBox="0 0 481 246" fill="none" xmlns="http://www.w3.org/2000/svg">
<rect width="481" height="246" fill="black"/>
<g clip-path="url(#clip0_934_972)">
<path d="M139.523 83.4189C134.652 83.4451 130.672 79.5992 130.593 74.7854C130.514 69.8211 134.44 65.8183 139.431 65.7791C144.342 65.7398 148.454 69.8211 148.428 74.6938C148.394 79.4226 144.342 83.3927 139.523 83.4189Z" fill="white"/>
<path d="M188.531 83.4189C183.66 83.4451 179.68 79.5992 179.601 74.7854C179.521 69.8211 183.448 65.8183 188.439 65.7791C193.35 65.7398 197.462 69.8211 197.435 74.6938C197.409 79.4226 193.35 83.3927 188.531 83.4189Z" fill="white"/>
<path d="M172.727 120.281C172.965 118.548 173.467 116.991 174.24 115.644C174.24 115.618 174.24 115.618 174.24 115.618C172.747 110.457 169.217 106.042 164.411 102.569C158.277 98.0696 150.007 95.0805 141.196 93.9032C121.966 91.3328 107.258 103.053 104.998 119.634C102.73 136.214 116.804 150.047 135.683 154.286C147.013 156.862 158.746 150.812 166.427 141.832C169.977 137.666 172.667 132.846 174.042 127.973C172.859 125.625 172.357 123.015 172.727 120.281ZM138.671 140.354C127.968 138.876 119.051 130.955 120.32 121.694C121.59 112.406 130.877 108.306 141.586 109.738C150.615 110.948 156.386 114.859 157.199 121.596C157.305 122.407 157.338 123.257 157.292 124.147C157.272 124.631 157.232 125.128 157.159 125.651C155.897 134.893 149.009 141.806 138.671 140.354Z" fill="white"/>
<path d="M193.588 92.5232C181.346 90.8881 170.922 95.0544 164.417 102.576C160.702 106.867 158.23 112.243 157.41 118.254C157.258 119.372 157.179 120.497 157.199 121.589C157.153 122.453 157.205 123.31 157.291 124.14C157.939 130.857 161.264 136.933 166.433 141.832C171.953 147.071 179.535 150.963 188.095 152.905C206.042 156.974 224.941 139.452 227.202 122.871C229.469 106.298 212.791 95.0937 193.588 92.5232ZM191.057 138.968C183.501 137.908 176.845 133.657 174.055 127.986C172.865 125.625 172.363 123.022 172.733 120.288C172.971 118.555 173.473 116.998 174.247 115.651C174.247 115.624 174.247 115.624 174.247 115.624C177.525 109.679 185.279 107.181 193.965 108.345C204.674 109.777 210.821 115.029 209.559 124.264C208.303 133.506 201.389 140.42 191.057 138.968Z" fill="white"/>
<path d="M172.727 124.932C172.965 123.198 173.467 121.642 174.24 120.294C174.24 120.268 174.24 120.268 174.24 120.268C172.747 115.108 169.217 110.693 164.411 107.22C158.277 102.72 150.007 99.7309 141.196 98.5536C121.966 95.9832 107.258 107.704 104.998 124.284C102.73 140.864 116.804 154.698 135.683 158.936C147.013 161.513 158.746 155.463 166.427 146.483C169.977 142.316 172.667 137.496 174.042 132.623C172.859 130.269 172.357 127.659 172.727 124.932ZM138.671 144.998C127.968 143.52 119.051 135.599 120.32 126.338C121.59 117.05 130.877 112.949 141.586 114.382C150.615 115.592 156.386 119.503 157.199 126.24C157.305 127.051 157.338 127.901 157.292 128.791C157.272 129.275 157.232 129.772 157.159 130.295C155.897 139.537 149.009 146.45 138.671 144.998Z" fill="white"/>
<path d="M193.588 97.1736C181.346 95.5385 170.922 99.7048 164.417 107.226C160.702 111.517 158.23 116.893 157.41 122.904C157.258 124.023 157.179 125.148 157.199 126.24C157.153 127.103 157.205 127.96 157.291 128.791C157.939 135.508 161.264 141.584 166.433 146.483C171.953 151.722 179.535 155.613 188.095 157.556C206.042 161.624 224.941 144.102 227.202 127.522C229.469 110.948 212.791 99.7375 193.588 97.1736ZM191.057 143.611C183.501 142.552 176.845 138.301 174.055 132.63C172.865 130.269 172.363 127.666 172.733 124.932C172.971 123.198 173.473 121.642 174.247 120.294C174.247 120.268 174.247 120.268 174.247 120.268C177.525 114.323 185.279 111.824 193.965 112.989C204.674 114.421 210.821 119.673 209.559 128.908C208.303 138.157 201.389 145.063 191.057 143.611Z" fill="white"/>
<path d="M374.32 120.281C374.558 118.548 375.061 116.991 375.834 115.644C375.834 115.618 375.834 115.618 375.834 115.618C374.34 110.457 370.81 106.042 366.005 102.569C359.87 98.0696 351.601 95.0805 342.789 93.9032C323.56 91.3328 308.852 103.053 306.592 119.634C304.324 136.214 318.397 150.047 337.276 154.285C348.606 156.862 360.34 150.812 368.021 141.832C371.571 137.666 374.261 132.846 375.636 127.973C374.446 125.625 373.944 123.015 374.32 120.281ZM340.264 140.354C329.562 138.876 320.645 130.955 321.914 121.694C323.183 112.406 332.471 108.306 343.179 109.738C352.209 110.948 357.98 114.859 358.793 121.596C358.899 122.407 358.932 123.257 358.885 124.147C358.866 124.631 358.826 125.128 358.753 125.651C357.484 134.893 350.603 141.806 340.264 140.354Z" fill="white"/>
<path d="M395.176 92.5232C382.934 90.8881 372.51 95.0544 366.005 102.576C362.29 106.867 359.818 112.243 358.998 118.254C358.846 119.372 358.767 120.497 358.787 121.589C358.74 122.453 358.793 123.31 358.879 124.14C359.527 130.857 362.852 136.933 368.021 141.832C373.541 147.071 381.123 150.963 389.683 152.905C407.63 156.974 426.529 139.452 428.79 122.871C431.064 106.298 414.379 95.0937 395.176 92.5232ZM392.645 138.968C385.089 137.908 378.432 133.657 375.643 127.986C374.453 125.625 373.951 123.022 374.321 120.288C374.559 118.555 375.061 116.998 375.835 115.651C375.835 115.624 375.835 115.624 375.835 115.624C379.113 109.679 386.867 107.181 395.553 108.345C406.262 109.777 412.409 115.029 411.147 124.264C409.891 133.506 402.983 140.42 392.645 138.968Z" fill="white"/>
<path d="M374.32 124.932C374.558 123.198 375.061 121.642 375.834 120.294C375.834 120.268 375.834 120.268 375.834 120.268C374.34 115.108 370.81 110.693 366.005 107.22C359.87 102.72 351.601 99.7309 342.789 98.5536C323.56 95.9832 308.852 107.704 306.592 124.284C304.324 140.864 318.397 154.698 337.276 158.936C348.606 161.513 360.34 155.463 368.021 146.483C371.571 142.316 374.261 137.496 375.636 132.623C374.446 130.269 373.944 127.659 374.32 124.932ZM340.264 144.998C329.562 143.52 320.645 135.599 321.914 126.338C323.183 117.05 332.471 112.949 343.179 114.382C352.209 115.592 357.98 119.503 358.793 126.24C358.899 127.051 358.932 127.901 358.885 128.791C358.866 129.275 358.826 129.772 358.753 130.295C357.484 139.537 350.603 146.45 340.264 144.998Z" fill="white"/>
<path d="M395.176 97.1736C382.934 95.5385 372.51 99.7048 366.005 107.226C362.29 111.517 359.818 116.893 358.998 122.904C358.846 124.023 358.767 125.148 358.787 126.24C358.74 127.103 358.793 127.96 358.879 128.791C359.527 135.508 362.852 141.584 368.021 146.483C373.541 151.722 381.123 155.613 389.683 157.556C407.63 161.624 426.529 144.102 428.79 127.522C431.064 110.948 414.379 99.7375 395.176 97.1736ZM392.645 143.611C385.089 142.552 378.432 138.301 375.643 132.63C374.453 130.269 373.951 127.666 374.321 124.932C374.559 123.198 375.061 121.642 375.835 120.294C375.835 120.268 375.835 120.268 375.835 120.268C379.113 114.323 386.867 111.824 395.553 112.989C406.262 114.421 412.409 119.673 411.147 128.908C409.891 138.157 402.983 145.063 392.645 143.611Z" fill="white"/>
<path d="M91.5917 96.585C89.602 94.9761 81.0814 93.9034 78.6091 97.3634C76.5401 100.241 80.6782 107.011 82.0597 109.117C91.8033 123.48 80.1758 131.544 76.2162 131.446C72.7855 131.374 64.6086 133.232 60.3978 113.904C57.3835 100.091 38.0352 97.7231 39.0334 108.194C43.6011 155.816 77.8093 141.178 77.4127 150.741C77.1615 156.66 76.8111 162.291 75.6081 166.503C72.6136 176.936 66.6115 188.833 66.6115 196.381C66.6115 203.32 70.1546 211.411 77.4523 212.869C97.6401 216.872 123.546 122.361 91.5917 96.585Z" fill="white"/>
<path d="M77.4646 212.876C75.2171 212.431 73.3266 211.352 71.793 209.874C90.4538 199.056 109.227 120.052 81.4969 95.5254C85.0268 94.492 90.1167 95.3815 91.5908 96.585C123.545 122.361 97.6326 216.865 77.4646 212.876Z" fill="white"/>
<path d="M236.027 39.5191C250.523 27.8116 253.432 47.8975 252.057 62.3391C251.561 67.6958 248.13 95.9116 252.057 109.444C255.038 119.876 261.047 131.773 261.047 139.328C261.047 146.261 257.517 154.358 250.219 155.816C229.972 159.832 204.707 65.8709 236.027 39.5191Z" fill="white"/>
<path d="M252.055 155.273C251.474 155.502 250.852 155.685 250.205 155.81C229.97 159.826 204.706 65.8707 236.019 39.5189C240.606 35.8104 244.031 35.2872 246.523 36.7719C245.207 37.3343 243.746 38.2304 242.153 39.5189C213.022 64.0459 232.853 147.078 252.055 155.273Z" fill="white"/>
<path d="M269.937 99.3779C258.158 99.3779 248.718 104.1 242.934 111.458C238.962 116.514 236.721 122.845 236.721 129.674C236.721 140.099 243.034 148.635 252.572 153.978H252.599C252.605 153.985 252.612 153.985 252.618 153.991C253.676 154.587 255.011 153.991 255.263 152.814C255.732 150.577 256.3 148.406 256.975 146.319C257.907 143.428 257.47 140.282 255.56 137.882C253.683 135.527 252.572 132.735 252.572 129.648C252.572 120.301 261.443 115.003 272.522 115.003C283.601 115.003 290.561 119.366 290.561 128.693C290.561 131.557 289.993 134.272 288.896 136.659C286.959 140.878 285.478 145.286 285.082 149.884C285.055 150.204 285.022 150.525 284.989 150.839L284.982 150.878C284.658 154.266 288.618 156.529 291.493 154.554C301.409 147.752 308.31 135.737 308.31 124.997C308.323 108.273 289.814 99.3779 269.937 99.3779Z" fill="white"/>
<path d="M269.931 99.3716C269.065 99.3716 268.199 99.3977 267.359 99.4501C285.967 100.372 302.506 109.195 302.506 124.997C302.506 135.534 295.863 147.294 286.252 154.149C287.593 155.391 289.755 155.758 291.5 154.561C301.422 147.759 308.323 135.737 308.323 124.997C308.323 108.273 289.821 99.3716 269.931 99.3716Z" fill="white"/>
<path d="M249.398 152.003C249.464 152.055 249.53 152.094 249.589 152.139V152.126C249.523 152.094 249.464 152.042 249.398 152.003Z" fill="#F6B508"/>
<path d="M201.387 191.805C200.953 191.805 200.593 191.663 200.308 191.38C200.023 191.083 199.881 190.719 199.881 190.288C199.881 189.857 200.023 189.5 200.308 189.216C200.593 188.92 200.953 188.772 201.387 188.772C201.821 188.772 202.181 188.92 202.466 189.216C202.751 189.5 202.893 189.857 202.893 190.288C202.893 190.719 202.751 191.083 202.466 191.38C202.181 191.663 201.821 191.805 201.387 191.805Z" fill="white"/>
<path d="M206.435 191.805C206.001 191.805 205.642 191.663 205.357 191.38C205.072 191.083 204.929 190.719 204.929 190.288C204.929 189.857 205.072 189.5 205.357 189.216C205.642 188.92 206.001 188.772 206.435 188.772C206.869 188.772 207.229 188.92 207.514 189.216C207.799 189.5 207.941 189.857 207.941 190.288C207.941 190.719 207.799 191.083 207.514 191.38C207.229 191.663 206.869 191.805 206.435 191.805Z" fill="white"/>
<path d="M211.484 191.805C211.049 191.805 210.69 191.663 210.405 191.38C210.12 191.083 209.978 190.719 209.978 190.288C209.978 189.857 210.12 189.5 210.405 189.216C210.69 188.92 211.049 188.772 211.484 188.772C211.918 188.772 212.277 188.92 212.562 189.216C212.847 189.5 212.99 189.857 212.99 190.288C212.99 190.719 212.847 191.083 212.562 191.38C212.277 191.663 211.918 191.805 211.484 191.805Z" fill="white"/>
<path d="M219.885 189.924C220.563 189.965 220.902 190.268 220.902 190.834C220.902 191.158 220.766 191.407 220.495 191.582C220.237 191.744 219.864 191.811 219.376 191.784L218.826 191.744C216.547 191.582 215.407 190.369 215.407 188.104V183.697H214.389C214.023 183.697 213.738 183.616 213.535 183.454C213.345 183.292 213.25 183.056 213.25 182.746C213.25 182.436 213.345 182.2 213.535 182.039C213.738 181.877 214.023 181.796 214.389 181.796H215.407V179.936C215.407 179.572 215.522 179.282 215.753 179.066C215.984 178.851 216.296 178.743 216.689 178.743C217.069 178.743 217.374 178.851 217.605 179.066C217.836 179.282 217.951 179.572 217.951 179.936V181.796H219.681C220.047 181.796 220.326 181.877 220.515 182.039C220.719 182.2 220.821 182.436 220.821 182.746C220.821 183.056 220.719 183.292 220.515 183.454C220.326 183.616 220.047 183.697 219.681 183.697H217.951V188.286C217.951 189.284 218.412 189.816 219.335 189.884L219.885 189.924Z" fill="white"/>
<path d="M228.049 181.553C230.382 181.553 231.549 182.908 231.549 185.617V190.591C231.549 190.969 231.434 191.265 231.203 191.481C230.986 191.697 230.681 191.805 230.287 191.805C229.894 191.805 229.582 191.697 229.351 191.481C229.121 191.265 229.005 190.969 229.005 190.591V185.617C229.005 184.903 228.856 184.384 228.558 184.06C228.273 183.724 227.818 183.555 227.194 183.555C226.461 183.555 225.871 183.784 225.423 184.242C224.989 184.701 224.772 185.314 224.772 186.082V190.591C224.772 190.969 224.657 191.265 224.426 191.481C224.195 191.697 223.883 191.805 223.49 191.805C223.096 191.805 222.784 191.697 222.554 191.481C222.336 191.265 222.228 190.969 222.228 190.591V178.5C222.228 178.15 222.343 177.867 222.574 177.651C222.818 177.435 223.13 177.327 223.51 177.327C223.89 177.327 224.195 177.428 224.426 177.631C224.657 177.833 224.772 178.109 224.772 178.46V183.171C225.111 182.645 225.559 182.247 226.115 181.978C226.685 181.695 227.33 181.553 228.049 181.553Z" fill="white"/>
<path d="M235.395 191.805C235.029 191.805 234.724 191.703 234.479 191.501C234.249 191.286 234.133 190.982 234.133 190.591V182.787C234.133 182.396 234.249 182.099 234.479 181.897C234.724 181.695 235.029 181.594 235.395 181.594C235.761 181.594 236.067 181.695 236.311 181.897C236.555 182.099 236.677 182.396 236.677 182.787V190.591C236.677 190.982 236.555 191.286 236.311 191.501C236.067 191.703 235.761 191.805 235.395 191.805ZM235.395 179.794C234.934 179.794 234.567 179.673 234.296 179.43C234.025 179.174 233.889 178.844 233.889 178.439C233.889 178.035 234.025 177.712 234.296 177.469C234.567 177.226 234.934 177.105 235.395 177.105C235.843 177.105 236.202 177.226 236.474 177.469C236.759 177.712 236.901 178.035 236.901 178.439C236.901 178.844 236.766 179.174 236.494 179.43C236.223 179.673 235.856 179.794 235.395 179.794Z" fill="white"/>
<path d="M245.081 181.553C246.275 181.553 247.164 181.89 247.747 182.564C248.331 183.238 248.622 184.256 248.622 185.617V190.591C248.622 190.969 248.507 191.265 248.276 191.481C248.059 191.697 247.754 191.805 247.36 191.805C246.967 191.805 246.655 191.697 246.424 191.481C246.194 191.265 246.078 190.969 246.078 190.591V185.759C246.078 184.991 245.929 184.431 245.63 184.081C245.346 183.73 244.891 183.555 244.267 183.555C243.534 183.555 242.944 183.784 242.496 184.242C242.062 184.701 241.845 185.314 241.845 186.082V190.591C241.845 190.969 241.73 191.265 241.499 191.481C241.268 191.697 240.956 191.805 240.563 191.805C240.169 191.805 239.857 191.697 239.627 191.481C239.409 191.265 239.301 190.969 239.301 190.591V182.766C239.301 182.416 239.416 182.133 239.647 181.917C239.878 181.702 240.19 181.594 240.583 181.594C240.936 181.594 241.221 181.702 241.438 181.917C241.669 182.119 241.784 182.389 241.784 182.726V183.272C242.123 182.719 242.578 182.295 243.147 181.998C243.717 181.702 244.362 181.553 245.081 181.553Z" fill="white"/>
<path d="M260.06 189.722C260.331 189.978 260.467 190.268 260.467 190.591C260.467 190.901 260.351 191.178 260.121 191.42C259.903 191.663 259.646 191.784 259.347 191.784C259.049 191.784 258.771 191.663 258.513 191.42L253.75 187.134V190.591C253.75 190.982 253.628 191.279 253.384 191.481C253.14 191.683 252.834 191.784 252.468 191.784C252.102 191.784 251.796 191.683 251.552 191.481C251.322 191.279 251.206 190.982 251.206 190.591V178.52C251.206 178.129 251.322 177.833 251.552 177.631C251.796 177.428 252.102 177.327 252.468 177.327C252.834 177.327 253.14 177.428 253.384 177.631C253.628 177.833 253.75 178.129 253.75 178.52V186.123L258.106 181.978C258.35 181.735 258.628 181.614 258.94 181.614C259.252 181.614 259.524 181.729 259.754 181.958C259.985 182.187 260.1 182.456 260.1 182.766C260.1 183.076 259.971 183.36 259.714 183.616L256.518 186.568L260.06 189.722Z" fill="white"/>
<path d="M273.464 181.553C275.798 181.553 276.965 182.908 276.965 185.617V190.591C276.965 190.969 276.849 191.265 276.619 191.481C276.401 191.697 276.096 191.805 275.703 191.805C275.309 191.805 274.997 191.697 274.767 191.481C274.536 191.265 274.421 190.969 274.421 190.591V185.617C274.421 184.903 274.271 184.384 273.973 184.06C273.688 183.724 273.233 183.555 272.609 183.555C271.876 183.555 271.286 183.784 270.839 184.242C270.404 184.701 270.187 185.314 270.187 186.082V190.591C270.187 190.969 270.072 191.265 269.841 191.481C269.611 191.697 269.299 191.805 268.905 191.805C268.512 191.805 268.199 191.697 267.969 191.481C267.752 191.265 267.643 190.969 267.643 190.591V178.5C267.643 178.15 267.759 177.867 267.989 177.651C268.233 177.435 268.545 177.327 268.925 177.327C269.305 177.327 269.611 177.428 269.841 177.631C270.072 177.833 270.187 178.109 270.187 178.46V183.171C270.526 182.645 270.974 182.247 271.53 181.978C272.1 181.695 272.745 181.553 273.464 181.553Z" fill="white"/>
<path d="M283.863 181.553C285.247 181.553 286.272 181.897 286.936 182.584C287.615 183.258 287.954 184.29 287.954 185.678V190.612C287.954 190.976 287.846 191.265 287.628 191.481C287.411 191.683 287.113 191.784 286.733 191.784C286.38 191.784 286.088 191.677 285.858 191.461C285.641 191.245 285.532 190.962 285.532 190.612V190.167C285.301 190.693 284.935 191.104 284.433 191.4C283.945 191.697 283.375 191.845 282.724 191.845C282.059 191.845 281.455 191.71 280.912 191.441C280.369 191.171 279.942 190.8 279.63 190.329C279.318 189.857 279.162 189.331 279.162 188.751C279.162 188.024 279.345 187.451 279.711 187.033C280.091 186.615 280.702 186.312 281.543 186.123C282.384 185.934 283.544 185.84 285.023 185.84H285.532V185.375C285.532 184.714 285.39 184.236 285.105 183.939C284.82 183.629 284.358 183.474 283.721 183.474C283.327 183.474 282.927 183.535 282.52 183.656C282.113 183.764 281.631 183.926 281.075 184.141C280.722 184.317 280.464 184.404 280.302 184.404C280.057 184.404 279.854 184.317 279.691 184.141C279.542 183.966 279.467 183.737 279.467 183.454C279.467 183.225 279.521 183.029 279.63 182.868C279.752 182.692 279.949 182.531 280.22 182.382C280.695 182.126 281.258 181.924 281.909 181.776C282.574 181.627 283.226 181.553 283.863 181.553ZM283.232 190.025C283.911 190.025 284.46 189.803 284.881 189.358C285.315 188.9 285.532 188.313 285.532 187.599V187.174H285.166C284.257 187.174 283.551 187.215 283.049 187.296C282.547 187.377 282.188 187.518 281.97 187.72C281.753 187.922 281.645 188.199 281.645 188.549C281.645 188.981 281.794 189.338 282.093 189.621C282.405 189.89 282.785 190.025 283.232 190.025Z" fill="white"/>
<path d="M296.259 181.553C297.113 181.553 297.873 181.769 298.538 182.2C299.217 182.632 299.739 183.245 300.105 184.04C300.485 184.822 300.675 185.725 300.675 186.75C300.675 187.774 300.485 188.671 300.105 189.439C299.739 190.207 299.223 190.8 298.558 191.218C297.894 191.636 297.127 191.845 296.259 191.845C295.553 191.845 294.922 191.697 294.366 191.4C293.81 191.104 293.382 190.693 293.084 190.167V194.292C293.084 194.642 292.968 194.918 292.738 195.121C292.507 195.323 292.202 195.424 291.822 195.424C291.442 195.424 291.13 195.316 290.886 195.1C290.655 194.885 290.54 194.602 290.54 194.251V182.787C290.54 182.423 290.648 182.133 290.865 181.917C291.096 181.702 291.401 181.594 291.781 181.594C292.161 181.594 292.466 181.702 292.697 181.917C292.928 182.133 293.043 182.423 293.043 182.787V183.292C293.341 182.739 293.769 182.315 294.325 182.018C294.895 181.708 295.54 181.553 296.259 181.553ZM295.587 189.884C296.388 189.884 297.012 189.614 297.459 189.075C297.907 188.522 298.131 187.747 298.131 186.75C298.131 185.725 297.907 184.93 297.459 184.364C297.012 183.798 296.388 183.515 295.587 183.515C294.773 183.515 294.142 183.791 293.694 184.344C293.26 184.896 293.043 185.685 293.043 186.709C293.043 187.72 293.26 188.502 293.694 189.055C294.142 189.607 294.773 189.884 295.587 189.884Z" fill="white"/>
<path d="M308.482 181.553C309.337 181.553 310.097 181.769 310.761 182.2C311.44 182.632 311.962 183.245 312.329 184.04C312.709 184.822 312.898 185.725 312.898 186.75C312.898 187.774 312.709 188.671 312.329 189.439C311.962 190.207 311.447 190.8 310.782 191.218C310.117 191.636 309.35 191.845 308.482 191.845C307.776 191.845 307.146 191.697 306.589 191.4C306.033 191.104 305.606 190.693 305.307 190.167V194.292C305.307 194.642 305.192 194.918 304.961 195.121C304.73 195.323 304.425 195.424 304.045 195.424C303.665 195.424 303.353 195.316 303.109 195.1C302.878 194.885 302.763 194.602 302.763 194.251V182.787C302.763 182.423 302.872 182.133 303.089 181.917C303.319 181.702 303.625 181.594 304.004 181.594C304.384 181.594 304.69 181.702 304.92 181.917C305.151 182.133 305.266 182.423 305.266 182.787V183.292C305.565 182.739 305.992 182.315 306.549 182.018C307.118 181.708 307.763 181.553 308.482 181.553ZM307.81 189.884C308.611 189.884 309.235 189.614 309.683 189.075C310.131 188.522 310.354 187.747 310.354 186.75C310.354 185.725 310.131 184.93 309.683 184.364C309.235 183.798 308.611 183.515 307.81 183.515C306.996 183.515 306.365 183.791 305.918 184.344C305.483 184.896 305.266 185.685 305.266 186.709C305.266 187.72 305.483 188.502 305.918 189.055C306.365 189.607 306.996 189.884 307.81 189.884Z" fill="white"/>
<path d="M321.768 182.322C321.876 182.079 322.019 181.904 322.195 181.796C322.385 181.675 322.588 181.614 322.805 181.614C323.118 181.614 323.396 181.722 323.64 181.937C323.898 182.14 324.027 182.396 324.027 182.706C324.027 182.854 323.986 183.009 323.905 183.171L318.348 194.736C318.118 195.195 317.758 195.424 317.27 195.424C316.958 195.424 316.679 195.323 316.435 195.121C316.205 194.932 316.089 194.689 316.089 194.393C316.089 194.244 316.13 194.076 316.211 193.887L317.595 190.996L313.81 183.171C313.742 183.036 313.708 182.881 313.708 182.706C313.708 182.396 313.837 182.133 314.095 181.917C314.366 181.702 314.671 181.594 315.011 181.594C315.241 181.594 315.451 181.654 315.641 181.776C315.831 181.884 315.981 182.059 316.089 182.301L318.939 188.549L321.768 182.322Z" fill="white"/>
<path d="M325.925 188.772C326.386 188.772 326.76 188.94 327.045 189.277C327.329 189.614 327.472 190.106 327.472 190.753C327.472 192.034 327.024 193.139 326.129 194.069C325.952 194.244 325.762 194.332 325.559 194.332C325.355 194.332 325.179 194.265 325.03 194.13C324.88 193.995 324.806 193.833 324.806 193.645C324.806 193.483 324.874 193.328 325.009 193.18C325.416 192.748 325.681 192.263 325.803 191.724C325.41 191.683 325.084 191.535 324.826 191.279C324.582 191.009 324.46 190.679 324.46 190.288C324.46 189.857 324.595 189.5 324.867 189.216C325.152 188.92 325.504 188.772 325.925 188.772Z" fill="white"/>
<path d="M341.058 181.553C341.926 181.553 342.693 181.762 343.358 182.18C344.022 182.598 344.538 183.191 344.904 183.959C345.284 184.728 345.474 185.624 345.474 186.649C345.474 187.673 345.284 188.583 344.904 189.378C344.538 190.16 344.016 190.767 343.337 191.198C342.672 191.629 341.913 191.845 341.058 191.845C340.339 191.845 339.694 191.69 339.124 191.38C338.568 191.07 338.141 190.639 337.842 190.086V190.591C337.842 190.955 337.727 191.245 337.496 191.461C337.265 191.677 336.96 191.784 336.58 191.784C336.2 191.784 335.895 191.677 335.664 191.461C335.447 191.245 335.339 190.955 335.339 190.591V178.5C335.339 178.15 335.454 177.867 335.685 177.651C335.929 177.435 336.241 177.327 336.621 177.327C337.001 177.327 337.306 177.428 337.537 177.631C337.767 177.833 337.883 178.109 337.883 178.46V183.231C338.181 182.692 338.609 182.281 339.165 181.998C339.721 181.702 340.352 181.553 341.058 181.553ZM340.386 189.884C341.187 189.884 341.811 189.601 342.259 189.035C342.706 188.468 342.93 187.673 342.93 186.649C342.93 185.638 342.706 184.863 342.259 184.323C341.824 183.784 341.2 183.515 340.386 183.515C339.572 183.515 338.941 183.791 338.493 184.344C338.059 184.883 337.842 185.665 337.842 186.689C337.842 187.713 338.059 188.502 338.493 189.055C338.941 189.607 339.572 189.884 340.386 189.884Z" fill="white"/>
<path d="M355.438 188.974C355.669 188.974 355.852 189.061 355.988 189.237C356.137 189.412 356.212 189.648 356.212 189.944C356.212 190.362 355.961 190.713 355.459 190.996C354.997 191.252 354.475 191.461 353.892 191.623C353.308 191.771 352.752 191.845 352.223 191.845C350.622 191.845 349.353 191.387 348.417 190.47C347.481 189.553 347.013 188.3 347.013 186.709C347.013 185.698 347.216 184.802 347.623 184.02C348.03 183.238 348.6 182.632 349.333 182.2C350.079 181.769 350.92 181.553 351.856 181.553C352.752 181.553 353.532 181.749 354.197 182.14C354.862 182.531 355.377 183.083 355.744 183.798C356.11 184.512 356.293 185.355 356.293 186.325C356.293 186.905 356.035 187.195 355.52 187.195H349.516C349.597 188.125 349.862 188.812 350.31 189.257C350.757 189.688 351.409 189.904 352.263 189.904C352.698 189.904 353.078 189.85 353.403 189.742C353.742 189.634 354.122 189.486 354.543 189.297C354.95 189.082 355.249 188.974 355.438 188.974ZM351.917 183.333C351.226 183.333 350.669 183.548 350.249 183.98C349.842 184.411 349.597 185.031 349.516 185.84H354.116C354.088 185.018 353.885 184.397 353.505 183.98C353.125 183.548 352.596 183.333 351.917 183.333Z" fill="white"/>
<path d="M369.72 181.553C372.054 181.553 373.221 182.908 373.221 185.617V190.591C373.221 190.969 373.106 191.265 372.875 191.481C372.658 191.697 372.353 191.805 371.959 191.805C371.566 191.805 371.254 191.697 371.023 191.481C370.792 191.265 370.677 190.969 370.677 190.591V185.617C370.677 184.903 370.528 184.384 370.229 184.06C369.944 183.724 369.49 183.555 368.866 183.555C368.133 183.555 367.543 183.784 367.095 184.242C366.661 184.701 366.444 185.314 366.444 186.082V190.591C366.444 190.969 366.328 191.265 366.098 191.481C365.867 191.697 365.555 191.805 365.161 191.805C364.768 191.805 364.456 191.697 364.225 191.481C364.008 191.265 363.9 190.969 363.9 190.591V178.5C363.9 178.15 364.015 177.867 364.246 177.651C364.49 177.435 364.802 177.327 365.182 177.327C365.562 177.327 365.867 177.428 366.098 177.631C366.328 177.833 366.444 178.109 366.444 178.46V183.171C366.783 182.645 367.231 182.247 367.787 181.978C368.357 181.695 369.001 181.553 369.72 181.553Z" fill="white"/>
<path d="M380.12 181.553C381.504 181.553 382.528 181.897 383.193 182.584C383.871 183.258 384.211 184.29 384.211 185.678V190.612C384.211 190.976 384.102 191.265 383.885 191.481C383.668 191.683 383.369 191.784 382.989 191.784C382.637 191.784 382.345 191.677 382.114 191.461C381.897 191.245 381.789 190.962 381.789 190.612V190.167C381.558 190.693 381.192 191.104 380.69 191.4C380.201 191.697 379.631 191.845 378.98 191.845C378.315 191.845 377.711 191.71 377.169 191.441C376.626 191.171 376.198 190.8 375.886 190.329C375.574 189.857 375.418 189.331 375.418 188.751C375.418 188.024 375.601 187.451 375.968 187.033C376.348 186.615 376.958 186.312 377.8 186.123C378.641 185.934 379.801 185.84 381.28 185.84H381.789V185.375C381.789 184.714 381.646 184.236 381.361 183.939C381.076 183.629 380.615 183.474 379.977 183.474C379.584 183.474 379.184 183.535 378.776 183.656C378.369 183.764 377.888 183.926 377.331 184.141C376.979 184.317 376.721 184.404 376.558 184.404C376.314 184.404 376.11 184.317 375.947 184.141C375.798 183.966 375.724 183.737 375.724 183.454C375.724 183.225 375.778 183.029 375.886 182.868C376.009 182.692 376.205 182.531 376.477 182.382C376.952 182.126 377.515 181.924 378.166 181.776C378.831 181.627 379.482 181.553 380.12 181.553ZM379.489 190.025C380.167 190.025 380.717 189.803 381.137 189.358C381.572 188.9 381.789 188.313 381.789 187.599V187.174H381.422C380.513 187.174 379.808 187.215 379.306 187.296C378.804 187.377 378.444 187.518 378.227 187.72C378.01 187.922 377.901 188.199 377.901 188.549C377.901 188.981 378.051 189.338 378.349 189.621C378.661 189.89 379.041 190.025 379.489 190.025Z" fill="white"/>
<path d="M392.515 181.553C393.37 181.553 394.13 181.769 394.795 182.2C395.473 182.632 395.995 183.245 396.362 184.04C396.742 184.822 396.932 185.725 396.932 186.75C396.932 187.774 396.742 188.671 396.362 189.439C395.995 190.207 395.48 190.8 394.815 191.218C394.15 191.636 393.383 191.845 392.515 191.845C391.81 191.845 391.179 191.697 390.622 191.4C390.066 191.104 389.639 190.693 389.34 190.167V194.292C389.34 194.642 389.225 194.918 388.994 195.121C388.763 195.323 388.458 195.424 388.078 195.424C387.698 195.424 387.386 195.316 387.142 195.1C386.911 194.885 386.796 194.602 386.796 194.251V182.787C386.796 182.423 386.905 182.133 387.122 181.917C387.352 181.702 387.658 181.594 388.038 181.594C388.417 181.594 388.723 181.702 388.953 181.917C389.184 182.133 389.299 182.423 389.299 182.787V183.292C389.598 182.739 390.025 182.315 390.582 182.018C391.152 181.708 391.796 181.553 392.515 181.553ZM391.843 189.884C392.644 189.884 393.268 189.614 393.716 189.075C394.164 188.522 394.388 187.747 394.388 186.75C394.388 185.725 394.164 184.93 393.716 184.364C393.268 183.798 392.644 183.515 391.843 183.515C391.029 183.515 390.398 183.791 389.951 184.344C389.517 184.896 389.299 185.685 389.299 186.709C389.299 187.72 389.517 188.502 389.951 189.055C390.398 189.607 391.029 189.884 391.843 189.884Z" fill="white"/>
<path d="M404.738 181.553C405.593 181.553 406.353 181.769 407.018 182.2C407.696 182.632 408.219 183.245 408.585 184.04C408.965 184.822 409.155 185.725 409.155 186.75C409.155 187.774 408.965 188.671 408.585 189.439C408.219 190.207 407.703 190.8 407.038 191.218C406.373 191.636 405.607 191.845 404.738 191.845C404.033 191.845 403.402 191.697 402.846 191.4C402.289 191.104 401.862 190.693 401.564 190.167V194.292C401.564 194.642 401.448 194.918 401.218 195.121C400.987 195.323 400.682 195.424 400.302 195.424C399.922 195.424 399.61 195.316 399.365 195.1C399.135 194.885 399.019 194.602 399.019 194.251V182.787C399.019 182.423 399.128 182.133 399.345 181.917C399.576 181.702 399.881 181.594 400.261 181.594C400.641 181.594 400.946 181.702 401.177 181.917C401.407 182.133 401.523 182.423 401.523 182.787V183.292C401.821 182.739 402.249 182.315 402.805 182.018C403.375 181.708 404.019 181.553 404.738 181.553ZM404.067 189.884C404.867 189.884 405.492 189.614 405.939 189.075C406.387 188.522 406.611 187.747 406.611 186.75C406.611 185.725 406.387 184.93 405.939 184.364C405.492 183.798 404.867 183.515 404.067 183.515C403.253 183.515 402.622 183.791 402.174 184.344C401.74 184.896 401.523 185.685 401.523 186.709C401.523 187.72 401.74 188.502 402.174 189.055C402.622 189.607 403.253 189.884 404.067 189.884Z" fill="white"/>
<path d="M418.024 182.322C418.133 182.079 418.275 181.904 418.451 181.796C418.641 181.675 418.845 181.614 419.062 181.614C419.374 181.614 419.652 181.722 419.896 181.937C420.154 182.14 420.283 182.396 420.283 182.706C420.283 182.854 420.242 183.009 420.161 183.171L414.605 194.736C414.374 195.195 414.015 195.424 413.526 195.424C413.214 195.424 412.936 195.323 412.692 195.121C412.461 194.932 412.346 194.689 412.346 194.393C412.346 194.244 412.386 194.076 412.468 193.887L413.852 190.996L410.066 183.171C409.998 183.036 409.964 182.881 409.964 182.706C409.964 182.396 410.093 182.133 410.351 181.917C410.622 181.702 410.928 181.594 411.267 181.594C411.498 181.594 411.708 181.654 411.898 181.776C412.088 181.884 412.237 182.059 412.346 182.301L415.195 188.549L418.024 182.322Z" fill="white"/>
</g>
<defs>
<clipPath id="clip0_934_972">
<rect width="390" height="177" fill="white" transform="translate(39 36)"/>
</clipPath>
</defs>
</svg>
