<svg width="278" height="127" viewBox="0 0 278 127" fill="none" xmlns="http://www.w3.org/2000/svg">
<g clip-path="url(#clip0_934_2154)">
<path d="M71.6557 33.8636C68.183 33.8823 65.3464 31.1359 65.2899 27.6982C65.2334 24.1531 68.0323 21.2946 71.5898 21.2666C75.0907 21.2385 78.0216 24.1531 78.0027 27.6328C77.9792 31.0098 75.0908 33.845 71.6557 33.8636Z" fill="#F79E16"/>
<path d="M106.589 33.8636C103.117 33.8823 100.28 31.1359 100.223 27.6982C100.167 24.1531 102.966 21.2946 106.523 21.2666C110.024 21.2385 112.955 24.1531 112.936 27.6328C112.917 31.0098 110.024 33.845 106.589 33.8636Z" fill="#F79E16"/>
<path d="M95.3246 60.1877C95.4942 58.9499 95.8524 57.8383 96.4036 56.8761C96.4036 56.8574 96.4036 56.8574 96.4036 56.8574C95.3387 53.1722 92.8226 50.0194 89.397 47.5392C85.0243 44.3257 79.1297 42.1911 72.8486 41.3504C59.1416 39.5148 48.6575 47.8848 47.046 59.7253C45.4298 71.5657 55.4616 81.4444 68.9189 84.471C76.9952 86.3113 85.3589 81.9909 90.8341 75.5779C93.3644 72.6026 95.2822 69.1602 96.2623 65.6805C95.4188 64.0037 95.0607 62.14 95.3246 60.1877ZM71.0487 74.5223C63.42 73.4667 57.0636 67.8104 57.9683 61.1966C58.873 54.564 65.4933 51.6355 73.1266 52.6584C79.5632 53.5225 83.6767 56.3156 84.2563 61.1265C84.3316 61.7057 84.3552 62.3129 84.3222 62.9481C84.3081 63.2937 84.2798 63.6487 84.228 64.0224C83.328 70.6222 78.4182 75.5592 71.0487 74.5223Z" fill="#F79E16"/>
<path d="M110.198 40.3655C101.471 39.1978 94.0403 42.1731 89.4038 47.5445C86.7557 50.6085 84.9934 54.4479 84.4091 58.7403C84.3007 59.539 84.2442 60.3424 84.2583 61.1224C84.2253 61.739 84.263 62.3508 84.3243 62.944C84.7861 67.7409 87.1562 72.0801 90.8409 75.5785C94.7754 79.3198 100.18 82.0989 106.282 83.4861C119.075 86.3914 132.546 73.8783 134.158 62.0379C135.774 50.2021 123.886 42.2011 110.198 40.3655ZM108.393 73.5327C103.007 72.776 98.2622 69.74 96.2738 65.6905C95.4256 64.0043 95.0675 62.1453 95.3314 60.1929C95.501 58.9552 95.8591 57.8435 96.4104 56.8814C96.4104 56.8627 96.4104 56.8627 96.4104 56.8627C98.7476 52.6169 104.275 50.8327 110.466 51.6641C118.1 52.687 122.482 56.4376 121.582 63.0328C120.686 69.6326 115.758 74.5696 108.393 73.5327Z" fill="#F79E16"/>
<path d="M95.3246 63.5089C95.4942 62.2712 95.8524 61.1595 96.4036 60.1974C96.4036 60.1787 96.4036 60.1787 96.4036 60.1787C95.3387 56.4934 92.8226 53.3407 89.397 50.8605C85.0243 47.647 79.1297 45.5124 72.8486 44.6717C59.1416 42.8361 48.6575 51.2061 47.046 63.0465C45.4298 74.887 55.4616 84.7657 68.9189 87.7923C76.9952 89.6326 85.3589 85.3121 90.8341 78.8992C93.3644 75.9239 95.2822 72.4815 96.2623 69.0018C95.4188 67.3203 95.0607 65.4567 95.3246 63.5089ZM71.0487 77.8389C63.42 76.7833 57.0636 71.127 57.9683 64.5132C58.873 57.8807 65.4933 54.9521 73.1266 55.975C79.5632 56.8391 83.6767 59.6322 84.2563 64.4431C84.3316 65.0223 84.3552 65.6295 84.3222 66.2647C84.3081 66.6103 84.2798 66.9653 84.228 67.339C83.328 73.9388 78.4182 78.8758 71.0487 77.8389Z" fill="#F6C101"/>
<path d="M110.196 43.6863C101.469 42.5186 94.0384 45.4939 89.4018 50.8653C86.7537 53.9293 84.9914 57.7687 84.4072 62.0611C84.2988 62.8598 84.2422 63.6632 84.2564 64.4432C84.2234 65.0598 84.2611 65.6716 84.3223 66.2648C84.7841 71.0617 87.1542 75.4009 90.839 78.8993C94.7734 82.6406 100.178 85.4197 106.28 86.8069C119.073 89.7121 132.544 77.1991 134.156 65.3587C135.772 53.5229 123.884 45.5172 110.196 43.6863ZM108.391 76.8488C103.005 76.0921 98.2603 73.0561 96.2718 69.0066C95.4237 67.3204 95.0656 65.4615 95.3294 63.5091C95.4991 62.2713 95.8572 61.1597 96.4085 60.1975C96.4085 60.1788 96.4085 60.1788 96.4085 60.1788C98.7456 55.9331 104.273 54.1488 110.464 54.9802C118.098 56.0031 122.48 59.7538 121.58 66.3489C120.684 72.9534 115.756 77.8857 108.391 76.8488Z" fill="#F6C101"/>
<path d="M239.024 60.1876C239.193 58.9499 239.552 57.8382 240.103 56.8761C240.103 56.8574 240.103 56.8574 240.103 56.8574C239.038 53.1721 236.522 50.0194 233.096 47.5392C228.724 44.3257 222.829 42.1911 216.548 41.3504C202.841 39.5148 192.357 47.8848 190.745 59.7252C189.129 71.5657 199.161 81.4444 212.618 84.471C220.694 86.3113 229.058 81.9908 234.533 75.5779C237.064 72.6026 238.981 69.1602 239.961 65.6805C239.113 64.0037 238.755 62.14 239.024 60.1876ZM214.748 74.5223C207.119 73.4667 200.763 67.8104 201.668 61.1965C202.572 54.564 209.193 51.6355 216.826 52.6584C223.262 53.5224 227.376 56.3156 227.955 61.1265C228.031 61.7056 228.054 62.3129 228.021 62.9481C228.007 63.2937 227.979 63.6487 227.927 64.0224C227.023 70.6222 222.117 75.5592 214.748 74.5223Z" fill="#F79E16"/>
<path d="M253.889 40.3655C245.162 39.1978 237.732 42.1731 233.095 47.5445C230.447 50.6085 228.685 54.4479 228.101 58.7403C227.992 59.539 227.936 60.3424 227.95 61.1224C227.917 61.739 227.954 62.3508 228.016 62.944C228.477 67.7409 230.848 72.0801 234.532 75.5785C238.467 79.3198 243.871 82.0989 249.973 83.4861C262.766 86.3913 276.238 73.8783 277.849 62.0379C279.47 50.2021 267.577 42.2011 253.889 40.3655ZM252.084 73.5327C246.699 72.776 241.954 69.74 239.965 65.6904C239.117 64.0043 238.759 62.1453 239.023 60.1929C239.192 58.9552 239.551 57.8435 240.102 56.8814C240.102 56.8627 240.102 56.8627 240.102 56.8627C242.439 52.6169 247.966 50.8327 254.158 51.6641C261.791 52.687 266.173 56.4376 265.273 63.0328C264.378 69.6326 259.454 74.5696 252.084 73.5327Z" fill="#F79E16"/>
<path d="M239.024 63.5089C239.193 62.2712 239.552 61.1595 240.103 60.1974C240.103 60.1787 240.103 60.1787 240.103 60.1787C239.038 56.4934 236.522 53.3407 233.096 50.8605C228.724 47.647 222.829 45.5124 216.548 44.6717C202.841 42.8361 192.357 51.2061 190.745 63.0465C189.129 74.8869 199.161 84.7656 212.618 87.7923C220.694 89.6326 229.058 85.3121 234.533 78.8991C237.064 75.9239 238.981 72.4815 239.961 69.0018C239.113 67.3203 238.755 65.4567 239.024 63.5089ZM214.748 77.8389C207.119 76.7833 200.763 71.127 201.668 64.5132C202.572 57.8806 209.193 54.9521 216.826 55.975C223.262 56.8391 227.376 59.6322 227.955 64.4431C228.031 65.0223 228.054 65.6295 228.021 66.2647C228.007 66.6103 227.979 66.9653 227.927 67.339C227.023 73.9388 222.117 78.8758 214.748 77.8389Z" fill="#F6C101"/>
<path d="M253.891 43.6863C245.164 42.5186 237.734 45.4939 233.097 50.8653C230.449 53.9293 228.687 57.7687 228.102 62.0611C227.994 62.8598 227.938 63.6632 227.952 64.4432C227.919 65.0598 227.956 65.6716 228.018 66.2648C228.479 71.0617 230.85 75.4009 234.534 78.8993C238.469 82.6406 243.873 85.4197 249.975 86.8069C262.768 89.7121 276.24 77.1991 277.851 65.3587C279.472 53.5229 267.579 45.5172 253.891 43.6863ZM252.086 76.8488C246.7 76.0921 241.956 73.0561 239.967 69.0066C239.119 67.3204 238.761 65.4614 239.025 63.5091C239.194 62.2713 239.552 61.1597 240.104 60.1975C240.104 60.1788 240.104 60.1788 240.104 60.1788C242.441 55.9331 247.968 54.1488 254.16 54.9802C261.793 56.0031 266.175 59.7538 265.275 66.3489C264.38 72.9534 259.456 77.8857 252.086 76.8488Z" fill="#F6C101"/>
<path d="M37.4893 43.2655C36.071 42.1165 29.9973 41.3505 28.235 43.8213C26.7602 45.8764 29.7099 50.7107 30.6947 52.2147C37.6401 62.4717 29.3518 68.2308 26.5293 68.1607C24.0838 68.1093 18.2551 69.4359 15.2536 55.6337C13.105 45.769 -0.686879 44.0782 0.0246248 51.5561C3.28058 85.564 27.6649 75.1108 27.3822 81.9395C27.2031 86.1666 26.9534 90.1881 26.0958 93.1961C23.9613 100.646 19.6829 109.142 19.6829 114.532C19.6829 119.488 22.2085 125.266 27.4104 126.307C41.8007 129.166 60.2668 61.673 37.4893 43.2655Z" fill="#F6C101"/>
<path d="M27.4198 126.312C25.8177 125.994 24.4701 125.224 23.377 124.168C36.6788 116.442 50.0607 60.0242 30.2941 42.5087C32.8103 41.7708 36.4385 42.406 37.4892 43.2654C60.2668 61.6729 41.7959 129.161 27.4198 126.312Z" fill="#F79E16"/>
<path d="M140.445 2.51296C150.778 -5.84773 152.852 8.49623 151.872 18.8093C151.518 22.6347 149.073 42.7844 151.872 52.4482C153.997 59.8981 158.28 68.3943 158.28 73.789C158.28 78.7401 155.764 84.5225 150.562 85.5641C136.129 88.4319 118.12 21.3315 140.445 2.51296Z" fill="#F6C101"/>
<path d="M151.871 85.1764C151.457 85.3398 151.014 85.4706 150.552 85.5594C136.129 88.4272 118.12 21.3315 140.44 2.51293C143.71 -0.135401 146.151 -0.509063 147.928 0.551204C146.99 0.952891 145.949 1.59279 144.813 2.51293C124.047 20.0283 138.183 79.3239 151.871 85.1764Z" fill="#F79E16"/>
<path d="M164.617 45.26C156.22 45.26 149.492 48.6323 145.369 53.8869C142.537 57.4975 140.939 62.0188 140.939 66.8951C140.939 74.3403 145.439 80.4356 152.239 84.2517H152.258C152.262 84.2563 152.267 84.2563 152.272 84.261C153.026 84.6861 153.977 84.261 154.156 83.4203C154.491 81.8229 154.896 80.2722 155.377 78.7822C156.041 76.7177 155.73 74.4711 154.368 72.7569C153.03 71.0754 152.239 69.081 152.239 66.8764C152.239 60.2018 158.562 56.4185 166.459 56.4185C174.357 56.4185 179.318 59.5339 179.318 66.1944C179.318 68.2402 178.913 70.1786 178.131 71.8834C176.75 74.8961 175.695 78.0442 175.412 81.3278C175.393 81.5566 175.37 81.7855 175.346 82.0097L175.341 82.0377C175.11 84.4572 177.933 86.0733 179.983 84.6627C187.051 79.8051 191.97 71.2249 191.97 63.5555C191.979 51.6123 178.786 45.26 164.617 45.26Z" fill="#F6C101"/>
<path d="M164.612 45.2551C163.995 45.2551 163.378 45.2738 162.779 45.3112C176.043 45.9698 187.833 52.2706 187.833 63.5552C187.833 71.0799 183.097 79.4779 176.246 84.3729C177.203 85.2603 178.743 85.5219 179.987 84.6672C187.06 79.8095 191.979 71.2247 191.979 63.5552C191.979 51.6121 178.79 45.2551 164.612 45.2551Z" fill="#F79E16"/>
<path d="M149.979 82.8411C150.026 82.8784 150.073 82.9065 150.115 82.9392V82.9298C150.068 82.9065 150.026 82.8691 149.979 82.8411Z" fill="#F6B508"/>
<path d="M115.753 111.264C115.444 111.264 115.187 111.163 114.984 110.961C114.781 110.749 114.68 110.49 114.68 110.182C114.68 109.873 114.781 109.618 114.984 109.416C115.187 109.204 115.444 109.099 115.753 109.099C116.063 109.099 116.319 109.204 116.522 109.416C116.725 109.618 116.827 109.873 116.827 110.182C116.827 110.49 116.725 110.749 116.522 110.961C116.319 111.163 116.063 111.264 115.753 111.264Z" fill="white"/>
<path d="M119.352 111.264C119.042 111.264 118.786 111.163 118.583 110.961C118.38 110.749 118.278 110.49 118.278 110.182C118.278 109.873 118.38 109.618 118.583 109.416C118.786 109.204 119.042 109.099 119.352 109.099C119.661 109.099 119.918 109.204 120.121 109.416C120.324 109.618 120.425 109.873 120.425 110.182C120.425 110.49 120.324 110.749 120.121 110.961C119.918 111.163 119.661 111.264 119.352 111.264Z" fill="white"/>
<path d="M122.95 111.264C122.641 111.264 122.385 111.163 122.181 110.961C121.978 110.749 121.877 110.49 121.877 110.182C121.877 109.873 121.978 109.618 122.181 109.416C122.385 109.204 122.641 109.099 122.95 109.099C123.26 109.099 123.516 109.204 123.719 109.416C123.922 109.618 124.024 109.873 124.024 110.182C124.024 110.49 123.922 110.749 123.719 110.961C123.516 111.163 123.26 111.264 122.95 111.264Z" fill="white"/>
<path d="M128.939 109.922C129.422 109.95 129.664 110.167 129.664 110.571C129.664 110.802 129.567 110.98 129.374 111.106C129.19 111.221 128.924 111.269 128.576 111.25L128.184 111.221C126.559 111.106 125.747 110.239 125.747 108.622V105.474H125.022C124.761 105.474 124.557 105.417 124.412 105.301C124.277 105.186 124.209 105.017 124.209 104.796C124.209 104.574 124.277 104.406 124.412 104.29C124.557 104.175 124.761 104.117 125.022 104.117H125.747V102.789C125.747 102.529 125.829 102.322 125.994 102.168C126.158 102.014 126.381 101.937 126.661 101.937C126.932 101.937 127.149 102.014 127.314 102.168C127.478 102.322 127.561 102.529 127.561 102.789V104.117H128.794C129.055 104.117 129.253 104.175 129.388 104.29C129.534 104.406 129.606 104.574 129.606 104.796C129.606 105.017 129.534 105.186 129.388 105.301C129.253 105.417 129.055 105.474 128.794 105.474H127.561V108.752C127.561 109.464 127.889 109.845 128.547 109.893L128.939 109.922Z" fill="white"/>
<path d="M134.758 103.944C136.422 103.944 137.254 104.911 137.254 106.846V110.398C137.254 110.668 137.171 110.879 137.007 111.033C136.852 111.187 136.635 111.264 136.354 111.264C136.074 111.264 135.851 111.187 135.687 111.033C135.522 110.879 135.44 110.668 135.44 110.398V106.846C135.44 106.336 135.334 105.965 135.121 105.734C134.918 105.494 134.594 105.373 134.149 105.373C133.627 105.373 133.206 105.537 132.887 105.864C132.577 106.191 132.423 106.629 132.423 107.178V110.398C132.423 110.668 132.34 110.879 132.176 111.033C132.012 111.187 131.789 111.264 131.509 111.264C131.228 111.264 131.006 111.187 130.841 111.033C130.687 110.879 130.609 110.668 130.609 110.398V101.763C130.609 101.513 130.691 101.311 130.856 101.157C131.03 101.003 131.252 100.926 131.523 100.926C131.794 100.926 132.012 100.998 132.176 101.143C132.34 101.287 132.423 101.484 132.423 101.735V105.099C132.664 104.723 132.984 104.439 133.38 104.247C133.786 104.045 134.246 103.944 134.758 103.944Z" fill="white"/>
<path d="M139.995 111.264C139.734 111.264 139.516 111.192 139.342 111.048C139.178 110.894 139.096 110.677 139.096 110.398V104.825C139.096 104.545 139.178 104.334 139.342 104.189C139.516 104.045 139.734 103.973 139.995 103.973C140.256 103.973 140.474 104.045 140.648 104.189C140.822 104.334 140.909 104.545 140.909 104.825V110.398C140.909 110.677 140.822 110.894 140.648 111.048C140.474 111.192 140.256 111.264 139.995 111.264ZM139.995 102.688C139.666 102.688 139.405 102.601 139.212 102.428C139.018 102.245 138.921 102.009 138.921 101.72C138.921 101.431 139.018 101.2 139.212 101.027C139.405 100.854 139.666 100.767 139.995 100.767C140.314 100.767 140.57 100.854 140.764 101.027C140.967 101.2 141.069 101.431 141.069 101.72C141.069 102.009 140.972 102.245 140.778 102.428C140.585 102.601 140.324 102.688 139.995 102.688Z" fill="white"/>
<path d="M146.899 103.944C147.75 103.944 148.384 104.184 148.8 104.666C149.216 105.147 149.424 105.874 149.424 106.846V110.398C149.424 110.668 149.341 110.879 149.177 111.033C149.022 111.187 148.805 111.264 148.524 111.264C148.244 111.264 148.021 111.187 147.857 111.033C147.692 110.879 147.61 110.668 147.61 110.398V106.947C147.61 106.398 147.504 105.999 147.291 105.749C147.088 105.498 146.764 105.373 146.319 105.373C145.797 105.373 145.376 105.537 145.057 105.864C144.747 106.191 144.593 106.629 144.593 107.178V110.398C144.593 110.668 144.51 110.879 144.346 111.033C144.182 111.187 143.959 111.264 143.679 111.264C143.398 111.264 143.176 111.187 143.011 111.033C142.856 110.879 142.779 110.668 142.779 110.398V104.81C142.779 104.56 142.861 104.358 143.026 104.204C143.19 104.05 143.413 103.973 143.693 103.973C143.945 103.973 144.148 104.05 144.302 104.204C144.467 104.348 144.549 104.541 144.549 104.781V105.171C144.791 104.776 145.115 104.473 145.521 104.261C145.927 104.05 146.387 103.944 146.899 103.944Z" fill="white"/>
<path d="M157.576 109.777C157.77 109.96 157.866 110.167 157.866 110.398C157.866 110.62 157.784 110.817 157.62 110.99C157.465 111.163 157.281 111.25 157.069 111.25C156.856 111.25 156.657 111.163 156.474 110.99L153.079 107.929V110.398C153.079 110.677 152.992 110.889 152.818 111.033C152.644 111.178 152.426 111.25 152.165 111.25C151.904 111.25 151.686 111.178 151.512 111.033C151.348 110.889 151.265 110.677 151.265 110.398V101.778C151.265 101.499 151.348 101.287 151.512 101.143C151.686 100.998 151.904 100.926 152.165 100.926C152.426 100.926 152.644 100.998 152.818 101.143C152.992 101.287 153.079 101.499 153.079 101.778V107.207L156.184 104.247C156.358 104.074 156.556 103.987 156.778 103.987C157.001 103.987 157.194 104.069 157.359 104.233C157.523 104.396 157.605 104.589 157.605 104.81C157.605 105.031 157.513 105.234 157.33 105.417L155.052 107.525L157.576 109.777Z" fill="white"/>
<path d="M167.131 103.944C168.795 103.944 169.627 104.911 169.627 106.846V110.398C169.627 110.668 169.544 110.879 169.38 111.033C169.225 111.187 169.008 111.264 168.727 111.264C168.447 111.264 168.224 111.187 168.06 111.033C167.895 110.879 167.813 110.668 167.813 110.398V106.846C167.813 106.336 167.707 105.965 167.494 105.734C167.291 105.494 166.967 105.373 166.522 105.373C166 105.373 165.579 105.537 165.26 105.864C164.95 106.191 164.796 106.629 164.796 107.178V110.398C164.796 110.668 164.713 110.879 164.549 111.033C164.384 111.187 164.162 111.264 163.882 111.264C163.601 111.264 163.379 111.187 163.214 111.033C163.059 110.879 162.982 110.668 162.982 110.398V101.763C162.982 101.513 163.064 101.311 163.229 101.157C163.403 101.003 163.625 100.926 163.896 100.926C164.167 100.926 164.384 100.998 164.549 101.143C164.713 101.287 164.796 101.484 164.796 101.735V105.099C165.037 104.723 165.356 104.439 165.753 104.247C166.159 104.045 166.619 103.944 167.131 103.944Z" fill="white"/>
<path d="M174.544 103.944C175.531 103.944 176.261 104.189 176.735 104.68C177.218 105.161 177.46 105.898 177.46 106.889V110.413C177.46 110.672 177.383 110.879 177.228 111.033C177.073 111.178 176.86 111.25 176.59 111.25C176.338 111.25 176.13 111.173 175.966 111.019C175.811 110.865 175.734 110.663 175.734 110.413V110.095C175.569 110.47 175.308 110.764 174.95 110.976C174.602 111.187 174.196 111.293 173.732 111.293C173.258 111.293 172.827 111.197 172.44 111.005C172.054 110.812 171.749 110.547 171.527 110.21C171.304 109.873 171.193 109.498 171.193 109.084C171.193 108.564 171.323 108.155 171.585 107.857C171.855 107.558 172.291 107.342 172.89 107.207C173.49 107.072 174.317 107.005 175.371 107.005H175.734V106.673C175.734 106.201 175.632 105.859 175.429 105.648C175.226 105.426 174.897 105.315 174.443 105.315C174.162 105.315 173.877 105.359 173.587 105.445C173.296 105.522 172.953 105.638 172.557 105.792C172.305 105.917 172.121 105.98 172.005 105.98C171.831 105.98 171.686 105.917 171.57 105.792C171.464 105.667 171.41 105.503 171.41 105.301C171.41 105.137 171.449 104.998 171.527 104.882C171.614 104.757 171.754 104.642 171.947 104.536C172.286 104.353 172.687 104.208 173.151 104.103C173.625 103.997 174.09 103.944 174.544 103.944ZM174.094 109.994C174.578 109.994 174.97 109.835 175.269 109.517C175.579 109.19 175.734 108.771 175.734 108.261V107.958H175.473C174.825 107.958 174.322 107.987 173.964 108.045C173.606 108.102 173.35 108.203 173.195 108.348C173.04 108.492 172.963 108.689 172.963 108.94C172.963 109.248 173.069 109.503 173.282 109.705C173.504 109.898 173.775 109.994 174.094 109.994Z" fill="white"/>
<path d="M183.38 103.944C183.989 103.944 184.531 104.098 185.005 104.406C185.488 104.714 185.861 105.152 186.122 105.72C186.393 106.278 186.528 106.923 186.528 107.655C186.528 108.386 186.393 109.026 186.122 109.575C185.861 110.124 185.493 110.547 185.019 110.846C184.545 111.144 183.999 111.293 183.38 111.293C182.877 111.293 182.427 111.187 182.031 110.976C181.634 110.764 181.329 110.47 181.117 110.095V113.041C181.117 113.291 181.034 113.488 180.87 113.633C180.706 113.777 180.488 113.849 180.217 113.849C179.946 113.849 179.724 113.772 179.55 113.618C179.385 113.464 179.303 113.262 179.303 113.012V104.825C179.303 104.565 179.381 104.358 179.535 104.204C179.7 104.05 179.917 103.973 180.188 103.973C180.459 103.973 180.677 104.05 180.841 104.204C181.005 104.358 181.088 104.565 181.088 104.825V105.186C181.3 104.791 181.605 104.488 182.002 104.276C182.408 104.054 182.867 103.944 183.38 103.944ZM182.901 109.893C183.472 109.893 183.917 109.7 184.236 109.315C184.555 108.92 184.714 108.367 184.714 107.655C184.714 106.923 184.555 106.355 184.236 105.951C183.917 105.547 183.472 105.344 182.901 105.344C182.321 105.344 181.871 105.542 181.552 105.936C181.242 106.331 181.088 106.894 181.088 107.626C181.088 108.348 181.242 108.906 181.552 109.301C181.871 109.695 182.321 109.893 182.901 109.893Z" fill="white"/>
<path d="M192.093 103.944C192.702 103.944 193.244 104.098 193.718 104.406C194.201 104.714 194.574 105.152 194.835 105.72C195.106 106.278 195.241 106.923 195.241 107.655C195.241 108.386 195.106 109.026 194.835 109.575C194.574 110.124 194.206 110.547 193.732 110.846C193.258 111.144 192.712 111.293 192.093 111.293C191.59 111.293 191.14 111.187 190.744 110.976C190.347 110.764 190.042 110.47 189.83 110.095V113.041C189.83 113.291 189.747 113.488 189.583 113.633C189.419 113.777 189.201 113.849 188.93 113.849C188.659 113.849 188.437 113.772 188.263 113.618C188.098 113.464 188.016 113.262 188.016 113.012V104.825C188.016 104.565 188.094 104.358 188.248 104.204C188.413 104.05 188.63 103.973 188.901 103.973C189.172 103.973 189.39 104.05 189.554 104.204C189.718 104.358 189.801 104.565 189.801 104.825V105.186C190.013 104.791 190.318 104.488 190.715 104.276C191.121 104.054 191.58 103.944 192.093 103.944ZM191.614 109.893C192.185 109.893 192.63 109.7 192.949 109.315C193.268 108.92 193.428 108.367 193.428 107.655C193.428 106.923 193.268 106.355 192.949 105.951C192.63 105.547 192.185 105.344 191.614 105.344C191.034 105.344 190.584 105.542 190.265 105.936C189.955 106.331 189.801 106.894 189.801 107.626C189.801 108.348 189.955 108.906 190.265 109.301C190.584 109.695 191.034 109.893 191.614 109.893Z" fill="white"/>
<path d="M201.563 104.492C201.64 104.319 201.742 104.194 201.868 104.117C202.003 104.03 202.148 103.987 202.303 103.987C202.525 103.987 202.724 104.064 202.898 104.218C203.081 104.362 203.173 104.545 203.173 104.767C203.173 104.873 203.144 104.983 203.086 105.099L199.126 113.358C198.961 113.685 198.705 113.849 198.357 113.849C198.134 113.849 197.936 113.777 197.762 113.633C197.598 113.498 197.515 113.324 197.515 113.113C197.515 113.007 197.544 112.886 197.602 112.752L198.589 110.687L195.891 105.099C195.842 105.003 195.818 104.892 195.818 104.767C195.818 104.545 195.91 104.358 196.094 104.204C196.287 104.05 196.505 103.973 196.746 103.973C196.911 103.973 197.061 104.016 197.196 104.103C197.332 104.18 197.438 104.305 197.515 104.478L199.546 108.94L201.563 104.492Z" fill="white"/>
<path d="M204.527 109.099C204.855 109.099 205.121 109.219 205.325 109.46C205.528 109.7 205.629 110.052 205.629 110.514C205.629 111.428 205.31 112.217 204.672 112.882C204.546 113.007 204.411 113.069 204.266 113.069C204.12 113.069 203.995 113.021 203.888 112.925C203.782 112.829 203.729 112.713 203.729 112.578C203.729 112.463 203.777 112.352 203.874 112.246C204.164 111.938 204.353 111.592 204.44 111.207C204.159 111.178 203.927 111.072 203.743 110.889C203.569 110.697 203.482 110.461 203.482 110.182C203.482 109.873 203.579 109.618 203.772 109.416C203.975 109.204 204.227 109.099 204.527 109.099Z" fill="white"/>
<path d="M215.314 103.944C215.933 103.944 216.479 104.093 216.953 104.391C217.427 104.69 217.794 105.113 218.055 105.662C218.326 106.211 218.462 106.851 218.462 107.582C218.462 108.314 218.326 108.964 218.055 109.532C217.794 110.09 217.422 110.523 216.938 110.831C216.464 111.139 215.923 111.293 215.314 111.293C214.801 111.293 214.342 111.183 213.935 110.961C213.539 110.74 213.234 110.432 213.021 110.037V110.398C213.021 110.658 212.939 110.865 212.775 111.019C212.61 111.173 212.393 111.25 212.122 111.25C211.851 111.25 211.633 111.173 211.469 111.019C211.314 110.865 211.237 110.658 211.237 110.398V101.763C211.237 101.513 211.319 101.311 211.484 101.157C211.658 101.003 211.88 100.926 212.151 100.926C212.422 100.926 212.639 100.998 212.804 101.143C212.968 101.287 213.05 101.484 213.05 101.735V105.142C213.263 104.757 213.568 104.464 213.964 104.261C214.361 104.05 214.811 103.944 215.314 103.944ZM214.835 109.893C215.405 109.893 215.85 109.691 216.169 109.286C216.489 108.882 216.648 108.314 216.648 107.582C216.648 106.86 216.489 106.307 216.169 105.922C215.86 105.537 215.415 105.344 214.835 105.344C214.254 105.344 213.805 105.542 213.486 105.936C213.176 106.321 213.021 106.88 213.021 107.611C213.021 108.343 213.176 108.906 213.486 109.301C213.805 109.695 214.254 109.893 214.835 109.893Z" fill="white"/>
<path d="M225.564 109.243C225.729 109.243 225.859 109.306 225.956 109.431C226.062 109.556 226.116 109.724 226.116 109.936C226.116 110.234 225.937 110.485 225.579 110.687C225.25 110.87 224.878 111.019 224.462 111.135C224.046 111.24 223.649 111.293 223.272 111.293C222.131 111.293 221.227 110.966 220.559 110.311C219.892 109.657 219.558 108.762 219.558 107.626C219.558 106.904 219.703 106.264 219.993 105.705C220.284 105.147 220.69 104.714 221.212 104.406C221.744 104.098 222.344 103.944 223.011 103.944C223.649 103.944 224.206 104.083 224.679 104.362C225.153 104.642 225.521 105.036 225.782 105.547C226.043 106.057 226.174 106.658 226.174 107.351C226.174 107.765 225.99 107.972 225.622 107.972H221.343C221.401 108.637 221.589 109.127 221.908 109.445C222.228 109.753 222.692 109.907 223.301 109.907C223.611 109.907 223.882 109.869 224.114 109.792C224.355 109.715 224.626 109.609 224.926 109.474C225.216 109.32 225.429 109.243 225.564 109.243ZM223.055 105.214C222.561 105.214 222.165 105.368 221.865 105.676C221.575 105.984 221.401 106.427 221.343 107.005H224.621C224.602 106.418 224.457 105.975 224.186 105.676C223.915 105.368 223.538 105.214 223.055 105.214Z" fill="white"/>
<path d="M235.745 103.944C237.408 103.944 238.24 104.911 238.24 106.846V110.398C238.24 110.668 238.158 110.879 237.994 111.033C237.839 111.187 237.621 111.264 237.341 111.264C237.06 111.264 236.838 111.187 236.673 111.033C236.509 110.879 236.427 110.668 236.427 110.398V106.846C236.427 106.336 236.32 105.965 236.108 105.734C235.904 105.494 235.58 105.373 235.136 105.373C234.613 105.373 234.193 105.537 233.873 105.864C233.564 106.191 233.409 106.629 233.409 107.178V110.398C233.409 110.668 233.327 110.879 233.163 111.033C232.998 111.187 232.776 111.264 232.495 111.264C232.215 111.264 231.992 111.187 231.828 111.033C231.673 110.879 231.596 110.668 231.596 110.398V101.763C231.596 101.513 231.678 101.311 231.842 101.157C232.016 101.003 232.239 100.926 232.51 100.926C232.78 100.926 232.998 100.998 233.163 101.143C233.327 101.287 233.409 101.484 233.409 101.735V105.099C233.651 104.723 233.97 104.439 234.367 104.247C234.773 104.045 235.232 103.944 235.745 103.944Z" fill="white"/>
<path d="M243.158 103.944C244.144 103.944 244.874 104.189 245.348 104.68C245.832 105.161 246.074 105.898 246.074 106.889V110.413C246.074 110.672 245.996 110.879 245.842 111.033C245.687 111.178 245.474 111.25 245.203 111.25C244.952 111.25 244.744 111.173 244.579 111.019C244.425 110.865 244.347 110.663 244.347 110.413V110.095C244.183 110.47 243.922 110.764 243.564 110.976C243.216 111.187 242.81 111.293 242.345 111.293C241.871 111.293 241.441 111.197 241.054 111.005C240.667 110.812 240.363 110.547 240.14 110.21C239.918 109.873 239.806 109.498 239.806 109.084C239.806 108.564 239.937 108.155 240.198 107.857C240.469 107.558 240.904 107.342 241.504 107.207C242.103 107.072 242.93 107.005 243.985 107.005H244.347V106.673C244.347 106.201 244.246 105.859 244.043 105.648C243.84 105.426 243.511 105.315 243.056 105.315C242.776 105.315 242.49 105.359 242.2 105.445C241.91 105.522 241.567 105.638 241.17 105.792C240.919 105.917 240.735 105.98 240.619 105.98C240.445 105.98 240.3 105.917 240.184 105.792C240.077 105.667 240.024 105.503 240.024 105.301C240.024 105.137 240.063 104.998 240.14 104.882C240.227 104.757 240.367 104.642 240.561 104.536C240.899 104.353 241.301 104.208 241.765 104.103C242.239 103.997 242.703 103.944 243.158 103.944ZM242.708 109.994C243.192 109.994 243.583 109.835 243.883 109.517C244.193 109.19 244.347 108.771 244.347 108.261V107.958H244.086C243.438 107.958 242.935 107.987 242.577 108.045C242.22 108.102 241.963 108.203 241.808 108.348C241.654 108.492 241.576 108.689 241.576 108.94C241.576 109.248 241.683 109.503 241.896 109.705C242.118 109.898 242.389 109.994 242.708 109.994Z" fill="white"/>
<path d="M251.993 103.944C252.603 103.944 253.144 104.098 253.618 104.406C254.102 104.714 254.474 105.152 254.735 105.72C255.006 106.278 255.142 106.923 255.142 107.655C255.142 108.386 255.006 109.026 254.735 109.575C254.474 110.124 254.107 110.547 253.633 110.846C253.159 111.144 252.612 111.293 251.993 111.293C251.49 111.293 251.041 111.187 250.644 110.976C250.248 110.764 249.943 110.47 249.73 110.095V113.041C249.73 113.291 249.648 113.488 249.484 113.633C249.319 113.777 249.102 113.849 248.831 113.849C248.56 113.849 248.337 113.772 248.163 113.618C247.999 113.464 247.917 113.262 247.917 113.012V104.825C247.917 104.565 247.994 104.358 248.149 104.204C248.313 104.05 248.531 103.973 248.802 103.973C249.073 103.973 249.29 104.05 249.455 104.204C249.619 104.358 249.701 104.565 249.701 104.825V105.186C249.914 104.791 250.219 104.488 250.615 104.276C251.021 104.054 251.481 103.944 251.993 103.944ZM251.515 109.893C252.085 109.893 252.53 109.7 252.849 109.315C253.169 108.92 253.328 108.367 253.328 107.655C253.328 106.923 253.169 106.355 252.849 105.951C252.53 105.547 252.085 105.344 251.515 105.344C250.934 105.344 250.485 105.542 250.165 105.936C249.856 106.331 249.701 106.894 249.701 107.626C249.701 108.348 249.856 108.906 250.165 109.301C250.485 109.695 250.934 109.893 251.515 109.893Z" fill="white"/>
<path d="M260.706 103.944C261.316 103.944 261.857 104.098 262.331 104.406C262.815 104.714 263.187 105.152 263.448 105.72C263.719 106.278 263.855 106.923 263.855 107.655C263.855 108.386 263.719 109.026 263.448 109.575C263.187 110.124 262.82 110.547 262.346 110.846C261.872 111.144 261.325 111.293 260.706 111.293C260.204 111.293 259.754 111.187 259.357 110.976C258.961 110.764 258.656 110.47 258.443 110.095V113.041C258.443 113.291 258.361 113.488 258.197 113.633C258.032 113.777 257.815 113.849 257.544 113.849C257.273 113.849 257.051 113.772 256.876 113.618C256.712 113.464 256.63 113.262 256.63 113.012V104.825C256.63 104.565 256.707 104.358 256.862 104.204C257.026 104.05 257.244 103.973 257.515 103.973C257.786 103.973 258.003 104.05 258.168 104.204C258.332 104.358 258.414 104.565 258.414 104.825V105.186C258.627 104.791 258.932 104.488 259.328 104.276C259.734 104.054 260.194 103.944 260.706 103.944ZM260.228 109.893C260.798 109.893 261.243 109.7 261.562 109.315C261.882 108.92 262.041 108.367 262.041 107.655C262.041 106.923 261.882 106.355 261.562 105.951C261.243 105.547 260.798 105.344 260.228 105.344C259.647 105.344 259.198 105.542 258.878 105.936C258.569 106.331 258.414 106.894 258.414 107.626C258.414 108.348 258.569 108.906 258.878 109.301C259.198 109.695 259.647 109.893 260.228 109.893Z" fill="white"/>
<path d="M270.177 104.492C270.254 104.319 270.356 104.194 270.481 104.117C270.617 104.03 270.762 103.987 270.917 103.987C271.139 103.987 271.337 104.064 271.511 104.218C271.695 104.362 271.787 104.545 271.787 104.767C271.787 104.873 271.758 104.983 271.7 105.099L267.739 113.358C267.575 113.685 267.319 113.849 266.97 113.849C266.748 113.849 266.55 113.777 266.376 113.633C266.211 113.498 266.129 113.324 266.129 113.113C266.129 113.007 266.158 112.886 266.216 112.752L267.203 110.687L264.504 105.099C264.456 105.003 264.432 104.892 264.432 104.767C264.432 104.545 264.524 104.358 264.707 104.204C264.901 104.05 265.118 103.973 265.36 103.973C265.525 103.973 265.674 104.016 265.81 104.103C265.945 104.18 266.052 104.305 266.129 104.478L268.16 108.94L270.177 104.492Z" fill="white"/>
</g>
<defs>
<clipPath id="clip0_934_2154">
<rect width="278" height="126.401" fill="white"/>
</clipPath>
</defs>
</svg>
