<svg width="513" height="234" viewBox="0 0 513 234" fill="none" xmlns="http://www.w3.org/2000/svg">
<g clip-path="url(#clip0_934_895)">
<path d="M132.225 62.4892C125.817 62.5237 120.582 57.4557 120.478 51.112C120.374 44.5701 125.539 39.2952 132.103 39.2435C138.564 39.1918 143.972 44.5701 143.937 50.9914C143.894 57.223 138.564 62.4548 132.225 62.4892Z" fill="#F79E16"/>
<path d="M196.69 62.4892C190.282 62.5237 185.047 57.4557 184.943 51.112C184.839 44.5701 190.004 39.2952 196.568 39.2435C203.029 39.1918 208.437 44.5701 208.402 50.9914C208.367 57.223 203.029 62.4548 196.69 62.4892Z" fill="#F79E16"/>
<path d="M175.901 111.066C176.214 108.782 176.875 106.731 177.892 104.955C177.892 104.921 177.892 104.921 177.892 104.921C175.927 98.1202 171.284 92.3023 164.963 87.7256C156.894 81.7956 146.016 77.8567 134.426 76.3053C109.132 72.918 89.7854 88.3634 86.8117 110.213C83.8293 132.062 102.341 150.292 127.174 155.877C142.078 159.273 157.511 151.3 167.615 139.466C172.284 133.976 175.823 127.623 177.632 121.202C176.075 118.108 175.414 114.669 175.901 111.066ZM131.104 137.518C117.027 135.57 105.297 125.132 106.967 112.928C108.636 100.689 120.853 95.2845 134.939 97.1721C146.816 98.7666 154.407 103.921 155.477 112.799C155.616 113.867 155.659 114.988 155.598 116.16C155.572 116.798 155.52 117.453 155.424 118.142C153.764 130.321 144.703 139.432 131.104 137.518Z" fill="#F79E16"/>
<path d="M203.344 74.4869C187.241 72.3321 173.529 77.8225 164.973 87.7345C160.086 93.3886 156.834 100.474 155.756 108.394C155.556 109.868 155.452 111.351 155.478 112.79C155.417 113.928 155.486 115.057 155.599 116.152C156.451 125.003 160.825 133.011 167.625 139.466C174.885 146.37 184.858 151.499 196.118 154.058C219.725 159.42 244.585 136.329 247.558 114.48C250.541 92.6387 228.603 77.8742 203.344 74.4869ZM200.014 135.691C190.075 134.295 181.319 128.692 177.65 121.22C176.085 118.108 175.424 114.678 175.911 111.075C176.224 108.791 176.885 106.74 177.902 104.964C177.902 104.93 177.902 104.93 177.902 104.93C182.215 97.0948 192.414 93.8023 203.84 95.3365C217.926 97.2241 226.012 104.145 224.351 116.315C222.699 128.494 213.604 137.605 200.014 135.691Z" fill="#F79E16"/>
<path d="M175.901 117.195C176.214 114.911 176.875 112.86 177.892 111.084C177.892 111.05 177.892 111.05 177.892 111.05C175.927 104.249 171.284 98.4312 164.963 93.8545C156.894 87.9245 146.016 83.9856 134.426 82.4342C109.132 79.0469 89.7854 94.4923 86.8117 116.342C83.8293 138.191 102.341 156.421 127.174 162.006C142.078 165.402 157.511 157.429 167.615 145.595C172.284 140.105 175.823 133.752 177.632 127.331C176.075 124.228 175.414 120.789 175.901 117.195ZM131.104 143.638C117.027 141.69 105.297 131.253 106.967 119.048C108.636 106.809 120.853 101.405 134.939 103.292C146.816 104.887 154.407 110.041 155.477 118.919C155.616 119.988 155.659 121.108 155.598 122.28C155.572 122.918 155.52 123.573 155.424 124.263C153.764 136.441 144.703 145.552 131.104 143.638Z" fill="#F6C101"/>
<path d="M203.344 80.6153C187.241 78.4606 173.529 83.9509 164.973 93.8629C160.086 99.517 156.834 106.602 155.756 114.523C155.556 115.997 155.452 117.479 155.478 118.919C155.417 120.056 155.486 121.185 155.599 122.28C156.451 131.132 160.825 139.139 167.625 145.595C174.885 152.499 184.858 157.627 196.118 160.187C219.725 165.548 244.585 142.457 247.558 120.608C250.541 98.7671 228.603 83.994 203.344 80.6153ZM200.014 141.811C190.075 140.415 181.319 134.812 177.65 127.339C176.085 124.228 175.424 120.798 175.911 117.195C176.224 114.911 176.885 112.859 177.902 111.084C177.902 111.049 177.902 111.049 177.902 111.049C182.215 103.215 192.414 99.9221 203.84 101.456C217.926 103.344 226.012 110.265 224.351 122.435C222.699 134.623 213.604 143.724 200.014 141.811Z" fill="#F6C101"/>
<path d="M441.073 111.065C441.386 108.781 442.047 106.73 443.064 104.954C443.064 104.92 443.064 104.92 443.064 104.92C441.099 98.1192 436.456 92.3013 430.135 87.7246C422.066 81.7947 411.188 77.8557 399.598 76.3043C374.304 72.917 354.957 88.3624 351.984 110.212C349.001 132.061 367.513 150.291 392.346 155.876C407.249 159.272 422.683 151.299 432.787 139.465C437.456 133.975 440.995 127.622 442.803 121.201C441.238 118.107 440.578 114.668 441.073 111.065ZM396.276 137.517C382.199 135.569 370.469 125.131 372.139 112.927C373.808 100.688 386.025 95.2835 400.111 97.1711C411.988 98.7657 419.579 103.92 420.648 112.798C420.788 113.866 420.831 114.987 420.77 116.159C420.744 116.797 420.692 117.452 420.596 118.141C418.927 130.32 409.875 139.431 396.276 137.517Z" fill="#F79E16"/>
<path d="M468.506 74.4864C452.403 72.3316 438.691 77.822 430.135 87.734C425.248 93.3881 421.996 100.473 420.918 108.394C420.718 109.868 420.614 111.35 420.64 112.79C420.579 113.927 420.648 115.057 420.761 116.151C421.614 125.003 425.987 133.01 432.787 139.466C440.047 146.37 450.02 151.498 461.28 154.058C484.888 159.419 509.747 136.328 512.72 114.479C515.712 92.6383 493.765 77.8737 468.506 74.4864ZM465.176 135.691C455.237 134.294 446.481 128.692 442.812 121.219C441.247 118.108 440.586 114.677 441.073 111.074C441.386 108.79 442.047 106.739 443.064 104.964C443.064 104.929 443.064 104.929 443.064 104.929C447.377 97.0943 457.576 93.8018 469.002 95.336C483.088 97.2236 491.174 104.145 489.513 116.315C487.861 128.494 478.775 137.604 465.176 135.691Z" fill="#F79E16"/>
<path d="M441.073 117.194C441.386 114.91 442.047 112.859 443.064 111.083C443.064 111.049 443.064 111.049 443.064 111.049C441.099 104.248 436.456 98.4302 430.135 93.8535C422.066 87.9236 411.188 83.9846 399.598 82.4332C374.304 79.0459 354.957 94.4913 351.984 116.341C349.001 138.19 367.513 156.42 392.346 162.005C407.249 165.401 422.683 157.428 432.787 145.594C437.456 140.104 440.995 133.751 442.803 127.33C441.238 124.227 440.578 120.788 441.073 117.194ZM396.276 143.637C382.199 141.689 370.469 131.252 372.139 119.047C373.808 106.808 386.025 101.404 400.111 103.291C411.988 104.886 419.579 110.04 420.648 118.918C420.788 119.987 420.831 121.107 420.77 122.279C420.744 122.917 420.692 123.572 420.596 124.262C418.927 136.44 409.875 145.551 396.276 143.637Z" fill="#F6C101"/>
<path d="M468.506 80.6148C452.403 78.4601 438.691 83.9504 430.135 93.8624C425.248 99.5165 421.996 106.601 420.918 114.522C420.718 115.996 420.614 117.479 420.64 118.918C420.579 120.056 420.648 121.185 420.761 122.28C421.614 131.131 425.987 139.139 432.787 145.594C440.047 152.498 450.02 157.626 461.28 160.186C484.888 165.547 509.747 142.457 512.72 120.607C515.712 98.7667 493.765 83.9935 468.506 80.6148ZM465.176 141.81C455.237 140.414 446.481 134.812 442.812 127.339C441.247 124.227 440.586 120.797 441.073 117.194C441.386 114.91 442.047 112.859 443.064 111.083C443.064 111.049 443.064 111.049 443.064 111.049C447.377 103.214 457.576 99.9216 469.002 101.456C483.088 103.343 491.174 110.265 489.513 122.435C487.861 134.622 478.775 143.724 465.176 141.81Z" fill="#F6C101"/>
<path d="M69.1776 79.8389C66.5604 77.7186 55.3525 76.3051 52.1005 80.8646C49.379 84.657 54.8221 93.5778 56.6394 96.3531C69.4559 115.281 54.1613 125.908 48.9529 125.779C44.4402 125.684 33.6844 128.132 28.1456 102.662C24.1807 84.4587 -1.26977 81.3386 0.0431854 95.1378C6.05147 157.893 51.0484 138.604 50.5267 151.205C50.1963 159.005 49.7355 166.426 48.153 171.977C44.2141 185.725 36.319 201.403 36.319 211.349C36.319 220.494 40.9795 231.156 50.5789 233.078C77.1336 238.353 111.21 113.807 69.1776 79.8389Z" fill="#F6C101"/>
<path d="M50.5971 233.086C47.6408 232.5 45.154 231.078 43.1367 229.13C67.6829 214.874 92.3768 110.764 55.9011 78.4424C60.5442 77.0806 67.2394 78.2528 69.1784 79.8387C111.21 113.807 77.1257 238.344 50.5971 233.086Z" fill="#F79E16"/>
<path d="M259.165 4.63753C278.233 -10.7907 282.059 15.6786 280.251 34.7096C279.599 41.7686 275.086 78.9514 280.251 96.7843C284.172 110.532 292.076 126.21 292.076 136.165C292.076 145.301 287.433 155.972 277.833 157.894C251.201 163.186 217.968 39.3639 259.165 4.63753Z" fill="#F6C101"/>
<path d="M280.25 157.178C279.485 157.48 278.668 157.721 277.815 157.885C251.2 163.177 217.967 39.3635 259.156 4.63717C265.19 -0.249858 269.694 -0.939386 272.972 1.01715C271.242 1.75839 269.32 2.93921 267.225 4.63717C228.906 36.9588 254.991 146.378 280.25 157.178Z" fill="#F79E16"/>
<path d="M303.771 83.519C288.276 83.519 275.86 89.742 268.252 99.4385C263.026 106.101 260.078 114.444 260.078 123.443C260.078 137.182 268.382 148.429 280.929 155.471H280.964C280.972 155.48 280.981 155.48 280.99 155.489C282.381 156.273 284.137 155.489 284.468 153.937C285.085 150.989 285.833 148.128 286.72 145.378C287.946 141.569 287.372 137.423 284.859 134.26C282.39 131.157 280.929 127.476 280.929 123.408C280.929 111.092 292.598 104.11 307.171 104.11C321.744 104.11 330.899 109.859 330.899 122.15C330.899 125.925 330.152 129.502 328.708 132.648C326.161 138.207 324.213 144.016 323.691 150.076C323.656 150.498 323.613 150.92 323.57 151.334L323.561 151.386C323.135 155.851 328.343 158.833 332.125 156.23C345.168 147.266 354.246 131.433 354.246 117.28C354.263 95.241 329.917 83.519 303.771 83.519Z" fill="#F6C101"/>
<path d="M303.761 83.5103C302.622 83.5103 301.483 83.5447 300.379 83.6137C324.855 84.829 346.611 96.4561 346.611 117.28C346.611 131.165 337.872 146.662 325.229 155.695C326.994 157.333 329.838 157.816 332.133 156.238C345.185 147.274 354.262 131.432 354.262 117.28C354.262 95.2409 329.925 83.5103 303.761 83.5103Z" fill="#F79E16"/>
<path d="M276.756 152.869C276.843 152.938 276.93 152.989 277.008 153.05V153.032C276.921 152.989 276.843 152.92 276.756 152.869Z" fill="#F6B508"/>
<path d="M213.602 205.319C213.031 205.319 212.558 205.132 212.183 204.759C211.808 204.368 211.621 203.889 211.621 203.32C211.621 202.752 211.808 202.281 212.183 201.908C212.558 201.517 213.031 201.322 213.602 201.322C214.173 201.322 214.646 201.517 215.021 201.908C215.396 202.281 215.583 202.752 215.583 203.32C215.583 203.889 215.396 204.368 215.021 204.759C214.646 205.132 214.173 205.319 213.602 205.319Z" fill="white"/>
<path d="M220.243 205.319C219.672 205.319 219.199 205.132 218.824 204.759C218.449 204.368 218.262 203.889 218.262 203.32C218.262 202.752 218.449 202.281 218.824 201.908C219.199 201.517 219.672 201.322 220.243 201.322C220.814 201.322 221.287 201.517 221.662 201.908C222.036 202.281 222.224 202.752 222.224 203.32C222.224 203.889 222.036 204.368 221.662 204.759C221.287 205.132 220.814 205.319 220.243 205.319Z" fill="white"/>
<path d="M226.883 205.319C226.312 205.319 225.839 205.132 225.464 204.759C225.09 204.368 224.902 203.889 224.902 203.32C224.902 202.752 225.09 202.281 225.464 201.908C225.839 201.517 226.312 201.322 226.883 201.322C227.454 201.322 227.927 201.517 228.302 201.908C228.677 202.281 228.864 202.752 228.864 203.32C228.864 203.889 228.677 204.368 228.302 204.759C227.927 205.132 227.454 205.319 226.883 205.319Z" fill="white"/>
<path d="M237.934 202.841C238.826 202.894 239.272 203.294 239.272 204.04C239.272 204.466 239.094 204.795 238.737 205.026C238.398 205.239 237.907 205.328 237.264 205.292L236.542 205.239C233.543 205.026 232.044 203.427 232.044 200.443V194.634H230.705C230.224 194.634 229.849 194.528 229.581 194.314C229.331 194.101 229.206 193.79 229.206 193.382C229.206 192.973 229.331 192.662 229.581 192.449C229.849 192.236 230.224 192.129 230.705 192.129H232.044V189.678C232.044 189.198 232.196 188.817 232.499 188.532C232.803 188.248 233.213 188.106 233.731 188.106C234.23 188.106 234.632 188.248 234.935 188.532C235.239 188.817 235.39 189.198 235.39 189.678V192.129H237.666C238.148 192.129 238.514 192.236 238.764 192.449C239.031 192.662 239.165 192.973 239.165 193.382C239.165 193.79 239.031 194.101 238.764 194.314C238.514 194.528 238.148 194.634 237.666 194.634H235.39V200.683C235.39 201.997 235.997 202.699 237.211 202.788L237.934 202.841Z" fill="white"/>
<path d="M248.673 191.81C251.742 191.81 253.277 193.595 253.277 197.165V203.72C253.277 204.217 253.126 204.608 252.822 204.892C252.537 205.177 252.135 205.319 251.618 205.319C251.1 205.319 250.689 205.177 250.386 204.892C250.083 204.608 249.931 204.217 249.931 203.72V197.165C249.931 196.224 249.735 195.54 249.342 195.114C248.967 194.67 248.369 194.448 247.548 194.448C246.585 194.448 245.808 194.75 245.219 195.354C244.648 195.957 244.363 196.766 244.363 197.778V203.72C244.363 204.217 244.211 204.608 243.907 204.892C243.604 205.177 243.194 205.319 242.676 205.319C242.158 205.319 241.748 205.177 241.444 204.892C241.159 204.608 241.016 204.217 241.016 203.72V187.786C241.016 187.324 241.168 186.951 241.471 186.667C241.792 186.383 242.203 186.241 242.703 186.241C243.202 186.241 243.604 186.374 243.907 186.641C244.211 186.907 244.363 187.271 244.363 187.733V193.941C244.809 193.249 245.398 192.725 246.129 192.369C246.879 191.996 247.727 191.81 248.673 191.81Z" fill="white"/>
<path d="M258.336 205.319C257.854 205.319 257.453 205.186 257.131 204.919C256.828 204.635 256.676 204.235 256.676 203.72V193.435C256.676 192.92 256.828 192.529 257.131 192.263C257.453 191.996 257.854 191.863 258.336 191.863C258.818 191.863 259.22 191.996 259.541 192.263C259.862 192.529 260.023 192.92 260.023 193.435V203.72C260.023 204.235 259.862 204.635 259.541 204.919C259.22 205.186 258.818 205.319 258.336 205.319ZM258.336 189.492C257.729 189.492 257.247 189.332 256.89 189.012C256.533 188.674 256.355 188.239 256.355 187.706C256.355 187.173 256.533 186.747 256.89 186.427C257.247 186.108 257.729 185.948 258.336 185.948C258.925 185.948 259.398 186.108 259.755 186.427C260.13 186.747 260.317 187.173 260.317 187.706C260.317 188.239 260.139 188.674 259.782 189.012C259.425 189.332 258.943 189.492 258.336 189.492Z" fill="white"/>
<path d="M271.077 191.81C272.647 191.81 273.816 192.254 274.584 193.142C275.351 194.03 275.735 195.371 275.735 197.165V203.72C275.735 204.217 275.583 204.608 275.28 204.892C274.994 205.177 274.593 205.319 274.075 205.319C273.557 205.319 273.147 205.177 272.844 204.892C272.54 204.608 272.388 204.217 272.388 203.72V197.352C272.388 196.339 272.192 195.602 271.799 195.14C271.425 194.678 270.827 194.448 270.006 194.448C269.042 194.448 268.266 194.75 267.677 195.354C267.106 195.957 266.82 196.766 266.82 197.778V203.72C266.82 204.217 266.668 204.608 266.365 204.892C266.062 205.177 265.651 205.319 265.133 205.319C264.616 205.319 264.205 205.177 263.902 204.892C263.616 204.608 263.474 204.217 263.474 203.72V193.408C263.474 192.947 263.625 192.574 263.929 192.289C264.232 192.005 264.643 191.863 265.16 191.863C265.624 191.863 265.999 192.005 266.285 192.289C266.588 192.556 266.74 192.911 266.74 193.355V194.075C267.186 193.346 267.784 192.787 268.533 192.396C269.283 192.005 270.131 191.81 271.077 191.81Z" fill="white"/>
<path d="M290.779 202.574C291.136 202.912 291.315 203.294 291.315 203.72C291.315 204.129 291.163 204.493 290.86 204.813C290.574 205.132 290.235 205.292 289.842 205.292C289.45 205.292 289.084 205.132 288.745 204.813L282.48 199.164V203.72C282.48 204.235 282.32 204.626 281.998 204.892C281.677 205.159 281.275 205.292 280.794 205.292C280.312 205.292 279.91 205.159 279.589 204.892C279.285 204.626 279.134 204.235 279.134 203.72V187.813C279.134 187.298 279.285 186.907 279.589 186.641C279.91 186.374 280.312 186.241 280.794 186.241C281.275 186.241 281.677 186.374 281.998 186.641C282.32 186.907 282.48 187.298 282.48 187.813V197.832L288.209 192.369C288.53 192.05 288.896 191.89 289.307 191.89C289.717 191.89 290.074 192.041 290.378 192.343C290.681 192.645 290.833 193 290.833 193.408C290.833 193.817 290.663 194.19 290.324 194.528L286.121 198.418L290.779 202.574Z" fill="white"/>
<path d="M308.411 191.81C311.481 191.81 313.016 193.595 313.016 197.165V203.72C313.016 204.217 312.864 204.608 312.561 204.892C312.275 205.177 311.874 205.319 311.356 205.319C310.838 205.319 310.428 205.177 310.125 204.892C309.821 204.608 309.669 204.217 309.669 203.72V197.165C309.669 196.224 309.473 195.54 309.081 195.114C308.706 194.67 308.108 194.448 307.287 194.448C306.323 194.448 305.547 194.75 304.958 195.354C304.387 195.957 304.101 196.766 304.101 197.778V203.72C304.101 204.217 303.949 204.608 303.646 204.892C303.343 205.177 302.932 205.319 302.414 205.319C301.897 205.319 301.486 205.177 301.183 204.892C300.897 204.608 300.755 204.217 300.755 203.72V187.786C300.755 187.324 300.906 186.951 301.21 186.667C301.531 186.383 301.942 186.241 302.441 186.241C302.941 186.241 303.343 186.374 303.646 186.641C303.949 186.907 304.101 187.271 304.101 187.733V193.941C304.547 193.249 305.136 192.725 305.868 192.369C306.618 191.996 307.465 191.81 308.411 191.81Z" fill="white"/>
<path d="M322.09 191.81C323.911 191.81 325.258 192.263 326.133 193.169C327.025 194.057 327.471 195.416 327.471 197.245V203.747C327.471 204.226 327.329 204.608 327.043 204.892C326.757 205.159 326.365 205.292 325.865 205.292C325.401 205.292 325.017 205.15 324.714 204.866C324.428 204.582 324.286 204.209 324.286 203.747V203.161C323.982 203.853 323.5 204.395 322.84 204.786C322.197 205.177 321.448 205.372 320.591 205.372C319.717 205.372 318.922 205.194 318.208 204.839C317.495 204.484 316.932 203.995 316.522 203.374C316.111 202.752 315.906 202.059 315.906 201.295C315.906 200.336 316.147 199.581 316.629 199.031C317.129 198.48 317.932 198.08 319.038 197.832C320.145 197.583 321.671 197.458 323.616 197.458H324.286V196.846C324.286 195.975 324.098 195.345 323.723 194.954C323.349 194.545 322.742 194.341 321.903 194.341C321.385 194.341 320.859 194.421 320.323 194.581C319.788 194.723 319.154 194.936 318.423 195.22C317.959 195.451 317.619 195.567 317.405 195.567C317.084 195.567 316.816 195.451 316.602 195.22C316.406 194.989 316.308 194.687 316.308 194.314C316.308 194.012 316.379 193.755 316.522 193.542C316.682 193.311 316.941 193.098 317.298 192.902C317.923 192.565 318.664 192.298 319.52 192.103C320.395 191.907 321.251 191.81 322.09 191.81ZM321.26 202.974C322.153 202.974 322.876 202.681 323.429 202.095C324 201.491 324.286 200.718 324.286 199.777V199.217H323.804C322.608 199.217 321.68 199.27 321.019 199.377C320.359 199.484 319.886 199.67 319.601 199.936C319.315 200.203 319.172 200.567 319.172 201.029C319.172 201.597 319.369 202.068 319.761 202.441C320.172 202.796 320.671 202.974 321.26 202.974Z" fill="white"/>
<path d="M338.395 191.81C339.519 191.81 340.519 192.094 341.393 192.662C342.286 193.231 342.973 194.039 343.455 195.087C343.954 196.117 344.204 197.307 344.204 198.658C344.204 200.008 343.954 201.189 343.455 202.201C342.973 203.214 342.295 203.995 341.42 204.546C340.546 205.097 339.537 205.372 338.395 205.372C337.467 205.372 336.637 205.177 335.905 204.786C335.174 204.395 334.611 203.853 334.219 203.161V208.596C334.219 209.058 334.067 209.422 333.764 209.689C333.46 209.955 333.059 210.088 332.559 210.088C332.059 210.088 331.649 209.946 331.327 209.662C331.024 209.378 330.872 209.005 330.872 208.543V193.435C330.872 192.955 331.015 192.574 331.301 192.289C331.604 192.005 332.006 191.863 332.505 191.863C333.005 191.863 333.407 192.005 333.71 192.289C334.013 192.574 334.165 192.955 334.165 193.435V194.101C334.558 193.373 335.12 192.813 335.852 192.423C336.601 192.014 337.449 191.81 338.395 191.81ZM337.512 202.788C338.565 202.788 339.386 202.432 339.975 201.722C340.563 200.993 340.858 199.972 340.858 198.658C340.858 197.307 340.563 196.259 339.975 195.513C339.386 194.767 338.565 194.394 337.512 194.394C336.441 194.394 335.611 194.758 335.022 195.487C334.451 196.215 334.165 197.254 334.165 198.604C334.165 199.936 334.451 200.967 335.022 201.695C335.611 202.423 336.441 202.788 337.512 202.788Z" fill="white"/>
<path d="M354.473 191.81C355.598 191.81 356.597 192.094 357.472 192.662C358.364 193.231 359.051 194.039 359.533 195.087C360.033 196.117 360.283 197.307 360.283 198.658C360.283 200.008 360.033 201.189 359.533 202.201C359.051 203.214 358.373 203.995 357.499 204.546C356.624 205.097 355.616 205.372 354.473 205.372C353.545 205.372 352.715 205.177 351.984 204.786C351.252 204.395 350.69 203.853 350.297 203.161V208.596C350.297 209.058 350.145 209.422 349.842 209.689C349.539 209.955 349.137 210.088 348.637 210.088C348.138 210.088 347.727 209.946 347.406 209.662C347.102 209.378 346.951 209.005 346.951 208.543V193.435C346.951 192.955 347.093 192.574 347.379 192.289C347.682 192.005 348.084 191.863 348.584 191.863C349.083 191.863 349.485 192.005 349.788 192.289C350.092 192.574 350.244 192.955 350.244 193.435V194.101C350.636 193.373 351.198 192.813 351.93 192.423C352.68 192.014 353.528 191.81 354.473 191.81ZM353.59 202.788C354.643 202.788 355.464 202.432 356.053 201.722C356.642 200.993 356.936 199.972 356.936 198.658C356.936 197.307 356.642 196.259 356.053 195.513C355.464 194.767 354.643 194.394 353.59 194.394C352.519 194.394 351.689 194.758 351.1 195.487C350.529 196.215 350.244 197.254 350.244 198.604C350.244 199.936 350.529 200.967 351.1 201.695C351.689 202.423 352.519 202.788 353.59 202.788Z" fill="white"/>
<path d="M371.949 192.822C372.092 192.502 372.279 192.272 372.511 192.129C372.761 191.97 373.029 191.89 373.314 191.89C373.725 191.89 374.091 192.032 374.412 192.316C374.751 192.582 374.921 192.92 374.921 193.328C374.921 193.524 374.867 193.728 374.76 193.941L367.451 209.182C367.148 209.786 366.675 210.088 366.033 210.088C365.622 210.088 365.256 209.955 364.935 209.689C364.632 209.44 364.48 209.12 364.48 208.729C364.48 208.534 364.533 208.312 364.64 208.063L366.461 204.253L361.481 193.941C361.392 193.764 361.348 193.559 361.348 193.328C361.348 192.92 361.517 192.574 361.856 192.289C362.213 192.005 362.615 191.863 363.061 191.863C363.364 191.863 363.641 191.943 363.891 192.103C364.141 192.245 364.337 192.476 364.48 192.796L368.228 201.029L371.949 192.822Z" fill="white"/>
<path d="M377.418 201.322C378.025 201.322 378.515 201.544 378.89 201.988C379.265 202.432 379.452 203.081 379.452 203.933C379.452 205.621 378.863 207.077 377.686 208.303C377.454 208.534 377.204 208.649 376.936 208.649C376.668 208.649 376.436 208.561 376.24 208.383C376.044 208.205 375.945 207.992 375.945 207.744C375.945 207.53 376.035 207.326 376.213 207.131C376.749 206.562 377.097 205.923 377.257 205.212C376.74 205.159 376.311 204.964 375.972 204.626C375.651 204.271 375.49 203.836 375.49 203.32C375.49 202.752 375.669 202.281 376.026 201.908C376.401 201.517 376.865 201.322 377.418 201.322Z" fill="white"/>
<path d="M397.323 191.81C398.465 191.81 399.474 192.085 400.348 192.636C401.223 193.186 401.901 193.968 402.383 194.98C402.883 195.993 403.132 197.174 403.132 198.524C403.132 199.874 402.883 201.073 402.383 202.121C401.901 203.152 401.214 203.951 400.321 204.519C399.447 205.088 398.447 205.372 397.323 205.372C396.377 205.372 395.529 205.168 394.78 204.759C394.048 204.351 393.486 203.782 393.093 203.054V203.72C393.093 204.2 392.942 204.582 392.638 204.866C392.335 205.15 391.933 205.292 391.433 205.292C390.934 205.292 390.532 205.15 390.229 204.866C389.943 204.582 389.8 204.2 389.8 203.72V187.786C389.8 187.324 389.952 186.951 390.255 186.667C390.577 186.383 390.987 186.241 391.487 186.241C391.987 186.241 392.388 186.374 392.692 186.641C392.995 186.907 393.147 187.271 393.147 187.733V194.021C393.539 193.311 394.102 192.769 394.833 192.396C395.565 192.005 396.395 191.81 397.323 191.81ZM396.44 202.788C397.493 202.788 398.314 202.414 398.903 201.668C399.492 200.922 399.786 199.874 399.786 198.524C399.786 197.192 399.492 196.171 398.903 195.46C398.331 194.75 397.51 194.394 396.44 194.394C395.369 194.394 394.539 194.758 393.95 195.487C393.379 196.197 393.093 197.228 393.093 198.578C393.093 199.928 393.379 200.967 393.95 201.695C394.539 202.423 395.369 202.788 396.44 202.788Z" fill="white"/>
<path d="M416.239 201.588C416.543 201.588 416.784 201.704 416.962 201.935C417.158 202.166 417.257 202.477 417.257 202.867C417.257 203.418 416.926 203.88 416.266 204.253C415.659 204.591 414.972 204.866 414.205 205.079C413.437 205.274 412.705 205.372 412.009 205.372C409.903 205.372 408.235 204.768 407.003 203.56C405.772 202.352 405.156 200.7 405.156 198.604C405.156 197.272 405.424 196.091 405.959 195.06C406.495 194.03 407.244 193.231 408.208 192.662C409.189 192.094 410.296 191.81 411.528 191.81C412.705 191.81 413.732 192.067 414.606 192.582C415.481 193.098 416.159 193.826 416.641 194.767C417.123 195.709 417.364 196.819 417.364 198.098C417.364 198.862 417.025 199.244 416.346 199.244H408.449C408.556 200.469 408.904 201.375 409.493 201.962C410.082 202.53 410.939 202.814 412.063 202.814C412.634 202.814 413.134 202.743 413.562 202.601C414.008 202.459 414.508 202.264 415.061 202.015C415.597 201.731 415.989 201.588 416.239 201.588ZM411.608 194.154C410.698 194.154 409.966 194.439 409.413 195.007C408.877 195.576 408.556 196.393 408.449 197.458H414.499C414.463 196.375 414.196 195.558 413.696 195.007C413.196 194.439 412.5 194.154 411.608 194.154Z" fill="white"/>
<path d="M435.026 191.81C438.095 191.81 439.63 193.595 439.63 197.165V203.72C439.63 204.217 439.479 204.608 439.175 204.892C438.89 205.177 438.488 205.319 437.97 205.319C437.453 205.319 437.042 205.177 436.739 204.892C436.436 204.608 436.284 204.217 436.284 203.72V197.165C436.284 196.224 436.087 195.54 435.695 195.114C435.32 194.67 434.722 194.448 433.901 194.448C432.937 194.448 432.161 194.75 431.572 195.354C431.001 195.957 430.715 196.766 430.715 197.778V203.72C430.715 204.217 430.564 204.608 430.26 204.892C429.957 205.177 429.546 205.319 429.029 205.319C428.511 205.319 428.101 205.177 427.797 204.892C427.512 204.608 427.369 204.217 427.369 203.72V187.786C427.369 187.324 427.521 186.951 427.824 186.667C428.145 186.383 428.556 186.241 429.056 186.241C429.555 186.241 429.957 186.374 430.26 186.641C430.564 186.907 430.715 187.271 430.715 187.733V193.941C431.162 193.249 431.751 192.725 432.482 192.369C433.232 191.996 434.08 191.81 435.026 191.81Z" fill="white"/>
<path d="M448.705 191.81C450.525 191.81 451.873 192.263 452.747 193.169C453.639 194.057 454.086 195.416 454.086 197.245V203.747C454.086 204.226 453.943 204.608 453.657 204.892C453.372 205.159 452.979 205.292 452.479 205.292C452.015 205.292 451.632 205.15 451.328 204.866C451.043 204.582 450.9 204.209 450.9 203.747V203.161C450.596 203.853 450.115 204.395 449.454 204.786C448.812 205.177 448.062 205.372 447.205 205.372C446.331 205.372 445.537 205.194 444.823 204.839C444.109 204.484 443.547 203.995 443.136 203.374C442.726 202.752 442.52 202.059 442.52 201.295C442.52 200.336 442.761 199.581 443.243 199.031C443.743 198.48 444.546 198.08 445.653 197.832C446.759 197.583 448.285 197.458 450.231 197.458H450.9V196.846C450.9 195.975 450.712 195.345 450.338 194.954C449.963 194.545 449.356 194.341 448.517 194.341C448 194.341 447.473 194.421 446.938 194.581C446.402 194.723 445.769 194.936 445.037 195.22C444.573 195.451 444.234 195.567 444.02 195.567C443.698 195.567 443.431 195.451 443.216 195.22C443.02 194.989 442.922 194.687 442.922 194.314C442.922 194.012 442.993 193.755 443.136 193.542C443.297 193.311 443.556 193.098 443.913 192.902C444.537 192.565 445.278 192.298 446.135 192.103C447.009 191.907 447.866 191.81 448.705 191.81ZM447.875 202.974C448.767 202.974 449.49 202.681 450.043 202.095C450.614 201.491 450.9 200.718 450.9 199.777V199.217H450.418C449.222 199.217 448.294 199.27 447.634 199.377C446.973 199.484 446.5 199.67 446.215 199.936C445.929 200.203 445.787 200.567 445.787 201.029C445.787 201.597 445.983 202.068 446.376 202.441C446.786 202.796 447.286 202.974 447.875 202.974Z" fill="white"/>
<path d="M465.009 191.81C466.134 191.81 467.133 192.094 468.008 192.662C468.9 193.231 469.587 194.039 470.069 195.087C470.569 196.117 470.819 197.307 470.819 198.658C470.819 200.008 470.569 201.189 470.069 202.201C469.587 203.214 468.909 203.995 468.034 204.546C467.16 205.097 466.152 205.372 465.009 205.372C464.081 205.372 463.251 205.177 462.52 204.786C461.788 204.395 461.226 203.853 460.833 203.161V208.596C460.833 209.058 460.681 209.422 460.378 209.689C460.075 209.955 459.673 210.088 459.173 210.088C458.673 210.088 458.263 209.946 457.942 209.662C457.638 209.378 457.487 209.005 457.487 208.543V193.435C457.487 192.955 457.629 192.574 457.915 192.289C458.218 192.005 458.62 191.863 459.12 191.863C459.619 191.863 460.021 192.005 460.324 192.289C460.628 192.574 460.779 192.955 460.779 193.435V194.101C461.172 193.373 461.734 192.813 462.466 192.423C463.216 192.014 464.063 191.81 465.009 191.81ZM464.126 202.788C465.179 202.788 466 202.432 466.589 201.722C467.178 200.993 467.472 199.972 467.472 198.658C467.472 197.307 467.178 196.259 466.589 195.513C466 194.767 465.179 194.394 464.126 194.394C463.055 194.394 462.225 194.758 461.636 195.487C461.065 196.215 460.779 197.254 460.779 198.604C460.779 199.936 461.065 200.967 461.636 201.695C462.225 202.423 463.055 202.788 464.126 202.788Z" fill="white"/>
<path d="M481.088 191.81C482.212 191.81 483.212 192.094 484.086 192.662C484.979 193.231 485.666 194.039 486.148 195.087C486.647 196.117 486.897 197.307 486.897 198.658C486.897 200.008 486.647 201.189 486.148 202.201C485.666 203.214 484.987 203.995 484.113 204.546C483.238 205.097 482.23 205.372 481.088 205.372C480.16 205.372 479.33 205.177 478.598 204.786C477.866 204.395 477.304 203.853 476.911 203.161V208.596C476.911 209.058 476.76 209.422 476.456 209.689C476.153 209.955 475.751 210.088 475.252 210.088C474.752 210.088 474.341 209.946 474.02 209.662C473.717 209.378 473.565 209.005 473.565 208.543V193.435C473.565 192.955 473.708 192.574 473.993 192.289C474.297 192.005 474.698 191.863 475.198 191.863C475.698 191.863 476.099 192.005 476.403 192.289C476.706 192.574 476.858 192.955 476.858 193.435V194.101C477.251 193.373 477.813 192.813 478.544 192.423C479.294 192.014 480.142 191.81 481.088 191.81ZM480.204 202.788C481.257 202.788 482.078 202.432 482.667 201.722C483.256 200.993 483.551 199.972 483.551 198.658C483.551 197.307 483.256 196.259 482.667 195.513C482.078 194.767 481.257 194.394 480.204 194.394C479.133 194.394 478.304 194.758 477.715 195.487C477.143 196.215 476.858 197.254 476.858 198.604C476.858 199.936 477.143 200.967 477.715 201.695C478.304 202.423 479.133 202.788 480.204 202.788Z" fill="white"/>
<path d="M498.563 192.822C498.706 192.502 498.893 192.272 499.125 192.129C499.375 191.97 499.643 191.89 499.929 191.89C500.339 191.89 500.705 192.032 501.026 192.316C501.365 192.582 501.535 192.92 501.535 193.328C501.535 193.524 501.481 193.728 501.374 193.941L494.066 209.182C493.762 209.786 493.289 210.088 492.647 210.088C492.236 210.088 491.871 209.955 491.549 209.689C491.246 209.44 491.094 209.12 491.094 208.729C491.094 208.534 491.148 208.312 491.255 208.063L493.075 204.253L488.096 193.941C488.007 193.764 487.962 193.559 487.962 193.328C487.962 192.92 488.131 192.574 488.471 192.289C488.827 192.005 489.229 191.863 489.675 191.863C489.979 191.863 490.255 191.943 490.505 192.103C490.755 192.245 490.951 192.476 491.094 192.796L494.842 201.029L498.563 192.822Z" fill="white"/>
</g>
<defs>
<clipPath id="clip0_934_895">
<rect width="513" height="233.25" fill="white"/>
</clipPath>
</defs>
</svg>
