<svg width="80" height="33" viewBox="0 0 80 33" fill="none" xmlns="http://www.w3.org/2000/svg">
<path d="M20.4927 8.84089C19.5027 8.84577 18.6941 8.12875 18.678 7.23124C18.6619 6.30569 19.4598 5.5594 20.4739 5.55208C21.472 5.54477 22.3075 6.30569 22.3021 7.21417C22.2954 8.09582 21.472 8.83602 20.4927 8.84089Z" fill="#F79E16"/>
<path d="M30.4517 8.84089C29.4617 8.84577 28.6531 8.12875 28.637 7.23124C28.6208 6.30569 29.4187 5.5594 30.4329 5.55208C31.431 5.54477 32.2665 6.30569 32.2611 7.21417C32.2557 8.09582 31.431 8.83602 30.4517 8.84089Z" fill="#F79E16"/>
<path d="M27.2397 15.7136C27.288 15.3905 27.3901 15.1002 27.5473 14.849C27.5473 14.8442 27.5473 14.8442 27.5473 14.8442C27.2437 13.882 26.5264 13.0589 25.5498 12.4114C24.3033 11.5724 22.6229 11.0151 20.8323 10.7956C16.9247 10.3164 13.9359 12.5016 13.4765 15.5929C13.0158 18.6841 15.8756 21.2632 19.712 22.0534C22.0143 22.5339 24.3987 21.4059 25.9595 19.7316C26.6809 18.9549 27.2276 18.0561 27.507 17.1477C27.2666 16.7099 27.1645 16.2233 27.2397 15.7136ZM20.3191 19.456C18.1444 19.1805 16.3323 17.7037 16.5902 15.977C16.8481 14.2454 18.7354 13.4808 20.9115 13.7479C22.7464 13.9735 23.9191 14.7027 24.0843 15.9587C24.1058 16.1099 24.1125 16.2684 24.1031 16.4343C24.0991 16.5245 24.0911 16.6172 24.0763 16.7148C23.8197 18.4378 22.42 19.7268 20.3191 19.456Z" fill="#F79E16"/>
<path d="M31.4783 10.5383C28.9905 10.2335 26.8722 11.0103 25.5504 12.4126C24.7955 13.2126 24.2931 14.2149 24.1265 15.3356C24.0957 15.5441 24.0795 15.7539 24.0836 15.9575C24.0742 16.1185 24.0849 16.2782 24.1024 16.4331C24.234 17.6854 24.9097 18.8183 25.9601 19.7317C27.0818 20.7084 28.6225 21.434 30.362 21.7962C34.009 22.5546 37.8494 19.2878 38.3088 16.1965C38.7696 13.1065 35.3805 11.0176 31.4783 10.5383ZM30.9638 19.1975C29.4285 19 28.0758 18.2074 27.5089 17.1501C27.2671 16.7099 27.165 16.2246 27.2403 15.7148C27.2886 15.3917 27.3907 15.1015 27.5479 14.8503C27.5479 14.8454 27.5479 14.8454 27.5479 14.8454C28.2141 13.7369 29.7898 13.2711 31.5549 13.4882C33.731 13.7552 34.9802 14.7344 34.7236 16.4563C34.4684 18.1793 33.0634 19.4683 30.9638 19.1975Z" fill="#F79E16"/>
<path d="M27.2397 16.5807C27.288 16.2575 27.3901 15.9673 27.5473 15.7161C27.5473 15.7112 27.5473 15.7112 27.5473 15.7112C27.2437 14.7491 26.5264 13.926 25.5498 13.2784C24.3033 12.4395 22.6229 11.8822 20.8323 11.6627C16.9247 11.1835 13.9359 13.3687 13.4765 16.4599C13.0158 19.5512 15.8756 22.1303 19.712 22.9205C22.0143 23.401 24.3987 22.273 25.9595 20.5987C26.6809 19.8219 27.2276 18.9232 27.507 18.0147C27.2666 17.5757 27.1645 17.0892 27.2397 16.5807ZM20.3191 20.3219C18.1444 20.0463 16.3323 18.5696 16.5902 16.8428C16.8481 15.1113 18.7354 14.3467 20.9115 14.6137C22.7464 14.8393 23.9191 15.5685 24.0843 16.8246C24.1058 16.9758 24.1125 17.1343 24.1031 17.3001C24.0991 17.3904 24.0911 17.4831 24.0763 17.5806C23.8197 19.3037 22.42 20.5926 20.3191 20.3219Z" fill="#F6C101"/>
<path d="M31.4783 11.4053C28.9905 11.1005 26.8722 11.8773 25.5504 13.2796C24.7955 14.0796 24.2931 15.0819 24.1265 16.2026C24.0957 16.4111 24.0795 16.6209 24.0836 16.8245C24.0742 16.9855 24.0849 17.1452 24.1024 17.3001C24.234 18.5524 24.9097 19.6853 25.9601 20.5987C27.0818 21.5754 28.6225 22.301 30.362 22.6632C34.009 23.4216 37.8494 20.1548 38.3088 17.0635C38.7696 13.9735 35.3805 11.8834 31.4783 11.4053ZM30.9638 20.0633C29.4285 19.8658 28.0758 19.0731 27.5089 18.0159C27.2671 17.5757 27.165 17.0903 27.2403 16.5806C27.2886 16.2575 27.3907 15.9672 27.5479 15.716C27.5479 15.7112 27.5479 15.7112 27.5479 15.7112C28.2141 14.6027 29.7898 14.1369 31.5549 14.3539C33.731 14.621 34.9802 15.6002 34.7236 17.322C34.4684 19.0463 33.0634 20.334 30.9638 20.0633Z" fill="#F6C101"/>
<path d="M68.2045 15.7136C68.2529 15.3905 68.355 15.1002 68.5121 14.849C68.5121 14.8441 68.5121 14.8441 68.5121 14.8441C68.2086 13.882 67.4913 13.0589 66.5147 12.4114C65.2681 11.5724 63.5877 11.0151 61.7971 10.7956C57.8895 10.3164 54.9007 12.5016 54.4413 15.5929C53.9806 18.6841 56.8404 21.2632 60.6768 22.0534C62.9792 22.5339 65.3635 21.4059 66.9244 19.7316C67.6457 18.9549 68.1924 18.0561 68.4718 17.1477C68.2301 16.7099 68.128 16.2233 68.2045 15.7136ZM61.284 19.456C59.1092 19.1805 57.2971 17.7037 57.555 15.977C57.813 14.2454 59.7003 13.4808 61.8764 13.7479C63.7113 13.9735 64.884 14.7027 65.0492 15.9587C65.0707 16.1099 65.0774 16.2684 65.068 16.4343C65.064 16.5245 65.0559 16.6172 65.0411 16.7148C64.7832 18.4378 63.3849 19.7268 61.284 19.456Z" fill="#F79E16"/>
<path d="M72.4451 10.5383C69.9573 10.2335 67.839 11.0103 66.5172 12.4126C65.7623 13.2126 65.2599 14.2149 65.0933 15.3356C65.0625 15.5441 65.0463 15.7539 65.0504 15.9575C65.041 16.1185 65.0517 16.2782 65.0692 16.4331C65.2008 17.6854 65.8765 18.8183 66.9269 19.7317C68.0485 20.7084 69.5893 21.434 71.3288 21.7962C74.9758 22.5546 78.8162 19.2878 79.2756 16.1965C79.7377 13.1065 76.3473 11.0176 72.4451 10.5383ZM71.9306 19.1975C70.3952 19 69.0426 18.2074 68.4757 17.1501C68.2339 16.7099 68.1318 16.2246 68.2071 15.7148C68.2554 15.3917 68.3575 15.1015 68.5147 14.8503C68.5147 14.8454 68.5147 14.8454 68.5147 14.8454C69.1809 13.7369 70.7566 13.2711 72.5217 13.4882C74.6978 13.7552 75.947 14.7344 75.6904 16.4563C75.4352 18.1793 74.0315 19.4683 71.9306 19.1975Z" fill="#F79E16"/>
<path d="M68.2045 16.5807C68.2529 16.2575 68.355 15.9673 68.5121 15.7161C68.5121 15.7112 68.5121 15.7112 68.5121 15.7112C68.2086 14.7491 67.4913 13.926 66.5147 13.2784C65.2681 12.4395 63.5877 11.8822 61.7971 11.6627C57.8895 11.1835 54.9007 13.3687 54.4413 16.4599C53.9806 19.5512 56.8404 22.1303 60.6768 22.9205C62.9792 23.401 65.3635 22.273 66.9244 20.5987C67.6457 19.8219 68.1924 18.9232 68.4718 18.0147C68.2301 17.5757 68.128 17.0892 68.2045 16.5807ZM61.284 20.3219C59.1092 20.0463 57.2971 18.5696 57.555 16.8428C57.813 15.1113 59.7003 14.3467 61.8764 14.6137C63.7113 14.8393 64.884 15.5685 65.0492 16.8246C65.0707 16.9758 65.0774 17.1343 65.068 17.3001C65.064 17.3904 65.0559 17.4831 65.0411 17.5806C64.7832 19.3037 63.3849 20.5926 61.284 20.3219Z" fill="#F6C101"/>
<path d="M72.4431 11.4053C69.9554 11.1005 67.837 11.8773 66.5153 13.2796C65.7603 14.0796 65.258 15.0819 65.0914 16.2026C65.0605 16.4111 65.0444 16.6209 65.0484 16.8245C65.039 16.9855 65.0498 17.1452 65.0672 17.3001C65.1989 18.5524 65.8745 19.6853 66.925 20.5987C68.0466 21.5754 69.5873 22.301 71.3269 22.6632C74.9739 23.4216 78.8143 20.1548 79.2737 17.0635C79.7358 13.9735 76.3453 11.8834 72.4431 11.4053ZM71.9287 20.0633C70.3933 19.8658 69.0406 19.0731 68.4738 18.0159C68.232 17.5757 68.1299 17.0903 68.2051 16.5806C68.2535 16.2575 68.3555 15.9672 68.5127 15.716C68.5127 15.7112 68.5127 15.7112 68.5127 15.7112C69.179 14.6027 70.7546 14.1369 72.5197 14.3539C74.6958 14.621 75.945 15.6002 75.6885 17.322C75.4333 19.0463 74.0295 20.334 71.9287 20.0633Z" fill="#F6C101"/>
<path d="M10.7524 11.2956C10.3481 10.9956 8.6166 10.7957 8.11421 11.4407C7.69377 11.9773 8.53466 13.2394 8.81541 13.6321C10.7954 16.3099 8.43257 17.8135 7.62795 17.7952C6.93079 17.7818 5.26916 18.1281 4.41349 14.5247C3.80096 11.9492 -0.130805 11.5078 0.0720299 13.4601C1.00023 22.3388 7.95168 19.6097 7.87108 21.3925C7.82004 22.4961 7.74885 23.5461 7.50437 24.3314C6.89587 26.2764 5.67617 28.4945 5.67617 29.9017C5.67617 31.1956 6.39617 32.704 7.87914 32.9759C11.9815 33.7222 17.2458 16.1014 10.7524 11.2956Z" fill="#F6C101"/>
<path d="M7.88104 32.9771C7.42433 32.8942 7.04016 32.693 6.72852 32.4174C10.5206 30.4005 14.3355 15.6709 8.70044 11.0981C9.41775 10.9054 10.4521 11.0712 10.7516 11.2956C17.245 16.1014 11.9794 33.721 7.88104 32.9771Z" fill="#F79E16"/>
<path d="M40.1035 0.656147C43.0493 -1.52664 43.6403 2.21824 43.3609 4.91075C43.2602 5.90946 42.563 11.1701 43.3609 13.6931C43.9668 15.6381 45.1878 17.8563 45.1878 19.2647C45.1878 20.5573 44.4705 22.067 42.9875 22.3389C38.8731 23.0876 33.7391 5.56924 40.1035 0.656147Z" fill="#F6C101"/>
<path d="M43.3595 22.2376C43.2413 22.2803 43.115 22.3144 42.9834 22.3376C38.8716 23.0863 33.7376 5.56917 40.1007 0.656069C41.0329 -0.03535 41.7288 -0.132905 42.2352 0.143907C41.9679 0.248778 41.671 0.41584 41.3473 0.656069C35.4274 5.22894 39.4573 20.7097 43.3595 22.2376Z" fill="#F79E16"/>
<path d="M46.9941 11.8163C44.6004 11.8163 42.6822 12.6968 41.5068 14.0686C40.6995 15.0113 40.2441 16.1917 40.2441 17.4648C40.2441 19.4085 41.527 20.9999 43.4653 21.9962H43.4707C43.472 21.9974 43.4734 21.9974 43.4747 21.9986C43.6896 22.1096 43.961 21.9986 44.012 21.7791C44.1074 21.3621 44.2229 20.9572 44.3599 20.5682C44.5493 20.0292 44.4607 19.4427 44.0725 18.9951C43.691 18.5562 43.4653 18.0355 43.4653 17.4599C43.4653 15.7173 45.268 14.7296 47.5193 14.7296C49.7706 14.7296 51.1851 15.5429 51.1851 17.2818C51.1851 17.816 51.0696 18.322 50.8466 18.7671C50.453 19.5536 50.1521 20.3755 50.0715 21.2328C50.0662 21.2926 50.0594 21.3523 50.0527 21.4108L50.0514 21.4182C49.9856 22.0498 50.7902 22.4718 51.3745 22.1035C53.3894 20.8353 54.7918 18.5952 54.7918 16.5929C54.7945 13.4748 51.0333 11.8163 46.9941 11.8163Z" fill="#F6C101"/>
<path d="M46.9913 11.8151C46.8153 11.8151 46.6393 11.82 46.4688 11.8298C50.2501 12.0017 53.6109 13.6467 53.6109 16.5929C53.6109 18.5574 52.261 20.7499 50.3078 22.0279C50.5805 22.2596 51.0198 22.3279 51.3744 22.1047C53.3906 20.8365 54.793 18.5952 54.793 16.5929C54.793 13.4748 51.0332 11.8151 46.9913 11.8151Z" fill="#F79E16"/>
<path d="M42.8203 21.6279C42.834 21.6379 42.8476 21.6454 42.8599 21.6541V21.6516C42.8462 21.6454 42.834 21.6354 42.8203 21.6279Z" fill="#F6B508"/>
</svg>
